<svg width="58" height="58" viewBox="0 0 58 58" fill="none" xmlns="http://www.w3.org/2000/svg">
<path d="M35 18.7592C35 18.5596 35 18.4099 35 18.2103C35 18.1105 35 18.0607 35.05 17.9609C35.1999 16.7635 35.7495 15.7656 36.649 15.0172C38.0981 13.8198 40.0969 13.6701 41.7459 14.6181C43.1951 15.4663 43.9446 16.7635 43.9946 18.4598C44.0446 19.3579 43.7447 20.206 43.245 21.0043C42.5455 22.052 41.5461 22.7006 40.2968 22.9501C40.1469 23 39.947 23 39.7971 23C39.5972 23 39.4473 23 39.2474 23H39.1975C38.298 22.9501 37.4985 22.6009 36.7489 22.052C35.8495 21.3536 35.2998 20.4056 35.0999 19.308C35.05 19.0585 35 18.9088 35 18.7592ZM39.4973 14.7179C37.4485 14.7179 35.7495 16.4142 35.7495 18.4598C35.7495 20.5054 37.4485 22.2017 39.4973 22.2017C41.5461 22.2017 43.245 20.5054 43.245 18.4598C43.245 16.4142 41.5461 14.7179 39.4973 14.7179Z" fill="#0D6EFD"/>
<path d="M39.1016 17.312C39.1016 16.9129 39.1016 16.5636 39.1016 16.1645C39.1016 16.0148 39.2015 15.8651 39.4014 15.8152C39.5513 15.7653 39.7512 15.8651 39.8011 16.0148C39.8511 16.0647 39.8511 16.1645 39.8511 16.2643C39.8511 16.9129 39.8511 17.5615 39.8511 18.2101C39.8511 18.2599 39.8511 18.3098 39.9011 18.3597C40.2009 18.6591 40.5507 19.0083 40.8505 19.3077C41.0504 19.5073 41.0004 19.8565 40.7006 19.9563C40.5507 20.0062 40.4508 19.9563 40.3508 19.8565C39.9511 19.4574 39.6013 19.1081 39.2015 18.709C39.1016 18.6092 39.1016 18.5593 39.1016 18.4096C39.1016 18.0604 39.1016 17.7111 39.1016 17.312Z" fill="#0D6EFD"/>
<path d="M39 42.75C39 43.4412 38.4413 44 37.75 44H15.25C14.5588 44 14 43.4412 14 42.75C14 38.3438 16.5525 34.5325 20.25 32.6875V36.8475C19.5063 37.28 19 38.0775 19 39.0012C19 40.3825 20.1188 41.5012 21.5 41.5012C22.8813 41.5012 24 40.3825 24 39.0012C24 38.0787 23.4938 37.2812 22.75 36.8475V31.79C23.555 31.6063 24.39 31.5 25.25 31.5H27.75C28.1725 31.5 28.5888 31.5275 29 31.5737V36.73C27.5488 37.2475 26.5 38.6225 26.5 40.25V41.5C26.5 42.1912 27.0588 42.75 27.75 42.75C28.4413 42.75 29 42.1912 29 41.5V40.25C29 39.56 29.56 39 30.25 39C30.94 39 31.5 39.56 31.5 40.25V41.5C31.5 42.1912 32.0588 42.75 32.75 42.75C33.4413 42.75 34 42.1912 34 41.5V40.25C34 38.6225 32.9513 37.2475 31.5 36.73V32.1562C35.8625 33.705 39 37.8625 39 42.75ZM34 21.5C34 17.3637 30.6363 14 26.5 14C22.3638 14 19 17.3637 19 21.5C19 25.6362 22.3638 29 26.5 29C30.6363 29 34 25.6362 34 21.5Z" fill="#0D6EFD"/>
</svg>
