<svg width="58" height="58" viewBox="0 0 58 58" fill="none" xmlns="http://www.w3.org/2000/svg">
<path d="M41.5 42.75C41.5 43.4412 40.9413 44 40.25 44H17.75C17.0588 44 16.5 43.4412 16.5 42.75C16.5 38.3438 19.0525 34.5325 22.75 32.6875V36.8475C22.0063 37.28 21.5 38.0775 21.5 39.0012C21.5 40.3825 22.6188 41.5012 24 41.5012C25.3813 41.5012 26.5 40.3825 26.5 39.0012C26.5 38.0787 25.9938 37.2812 25.25 36.8475V31.79C26.055 31.6063 26.89 31.5 27.75 31.5H30.25C30.6725 31.5 31.0888 31.5275 31.5 31.5737V36.73C30.0488 37.2475 29 38.6225 29 40.25V41.5C29 42.1912 29.5588 42.75 30.25 42.75C30.9413 42.75 31.5 42.1912 31.5 41.5V40.25C31.5 39.56 32.06 39 32.75 39C33.44 39 34 39.56 34 40.25V41.5C34 42.1912 34.5588 42.75 35.25 42.75C35.9413 42.75 36.5 42.1912 36.5 41.5V40.25C36.5 38.6225 35.4513 37.2475 34 36.73V32.1562C38.3625 33.705 41.5 37.8625 41.5 42.75ZM36.5 21.5C36.5 17.3637 33.1363 14 29 14C24.8638 14 21.5 17.3637 21.5 21.5C21.5 25.6362 24.8638 29 29 29C33.1363 29 36.5 25.6362 36.5 21.5Z" fill="#0D6EFD"/>
</svg>
