<svg xmlns="http://www.w3.org/2000/svg" viewBox="0 0 45 45">
<path d="M30.3,14.7c-2.1-2.1-4.8-3.2-7.7-3.2c-6.1,0-11,4.9-11,10.9c0,1.9,0.5,3.8,1.5,5.4l-1.5,5.7l5.8-1.5c1.6,0.8,3.4,1.3,5.2,1.3c6.1,0,11-4.9,11-10.9C33.4,19.5,32.4,16.8,30.3,14.7z M27.8,26.3c-0.2,0.6-1.3,1.2-1.8,1.3c-0.5,0.1-1.1,0.1-1.7-0.1c-0.4-0.2-0.9-0.3-1.5-0.6c-2.8-1.1-4.5-3.9-4.7-4.1c-0.2-0.2-1.1-1.5-1.1-2.8s0.7-2,0.9-2.3c0.2-0.3,0.5-0.3,0.8-0.3c0.2,0,0.4,0,0.5,0c0.2,0,0.4-0.1,0.6,0.5c0.2,0.5,0.8,1.9,0.8,2c0.1,0.2,0.1,0.3,0,0.5c-0.1,0.2-0.2,0.3-0.3,0.5c-0.2,0.2-0.3,0.4-0.4,0.5c-0.2,0.2-0.3,0.3-0.2,0.5c0.2,0.3,0.7,1.1,1.5,1.9c1.1,0.9,1.9,1.2,2.2,1.4c0.3,0.2,0.5,0.1,0.6-0.1c0.2-0.2,0.7-0.8,0.8-1.1c0.2-0.3,0.4-0.2,0.6-0.2c0.2,0.1,1.6,0.8,1.8,0.9c0.3,0.2,0.5,0.2,0.5,0.3C28.1,25.2,28.1,25.7,27.8,26.3z"/>
</svg>
