<svg width="59" height="58" viewBox="0 0 59 58" fill="none" xmlns="http://www.w3.org/2000/svg">
<path d="M26.6875 15.875C25.9416 15.875 25.2262 16.1713 24.6988 16.6988C24.1713 17.2262 23.875 17.9416 23.875 18.6875V19.625H17.3125C16.5666 19.625 15.8512 19.9213 15.3238 20.4488C14.7963 20.9762 14.5 21.6916 14.5 22.4375V25.0325L28.7762 28.8387C29.2505 28.965 29.7495 28.965 30.2237 28.8387L44.5 25.0325V22.4375C44.5 21.6916 44.2037 20.9762 43.6762 20.4488C43.1488 19.9213 42.4334 19.625 41.6875 19.625H35.125V18.6875C35.125 17.9416 34.8287 17.2262 34.3012 16.6988C33.7738 16.1713 33.0584 15.875 32.3125 15.875H26.6875ZM26.6875 17.75H32.3125C32.5611 17.75 32.7996 17.8488 32.9754 18.0246C33.1512 18.2004 33.25 18.4389 33.25 18.6875V19.625H25.75V18.6875C25.75 18.4389 25.8488 18.2004 26.0246 18.0246C26.2004 17.8488 26.4389 17.75 26.6875 17.75Z" fill="#0D6EFD"/>
<path d="M14.5 37.4375C14.5 38.1834 14.7963 38.8988 15.3238 39.4262C15.8512 39.9537 16.5666 40.25 17.3125 40.25H41.6875C42.4334 40.25 43.1488 39.9537 43.6762 39.4262C44.2037 38.8988 44.5 38.1834 44.5 37.4375V26.8438L29.7419 30.7756C29.5834 30.8179 29.4166 30.8179 29.2581 30.7756L14.5 26.8438V37.4375Z" fill="#0D6EFD"/>
</svg>
