<svg width="59" height="58" viewBox="0 0 59 58" fill="none" xmlns="http://www.w3.org/2000/svg">
<path d="M19.247 46.4909C19.247 43.7708 19.2196 41.0506 19.2561 38.3304C19.2653 37.4449 18.7542 36.7603 17.7868 36.8425C17.6864 36.8516 17.586 36.8425 17.4308 36.8425C17.4308 36.4682 17.4217 36.1214 17.4308 35.7654C17.4399 35.2542 17.2848 34.816 16.9654 34.4053C16.865 34.2775 16.8376 34.0493 16.8376 33.8758C16.8285 33.036 16.8285 33.0269 17.659 32.8444C17.8415 32.7987 18.0332 32.7713 18.2431 32.7348C18.6812 34.031 19.101 35.2998 19.5391 36.6052C20.4517 35.9205 21.3461 35.2542 22.2588 34.5696C23.1532 35.2359 24.0476 35.9023 24.9694 36.596C25.0424 36.3861 25.1154 36.1944 25.1793 36.0027C25.5078 35.026 25.8455 34.0401 26.1467 33.0543C26.2288 32.7805 26.3566 32.7257 26.6304 32.7348C27.9994 32.7805 29.2954 33.0452 30.3997 33.9306C31.7413 35.0169 32.4714 36.4135 32.4988 38.1478C32.5171 38.8963 32.4988 39.6448 32.4988 40.4207C31.6957 40.4207 30.9199 40.4207 30.0985 40.4207C30.0985 39.9734 30.0985 39.5353 30.0985 39.088C30.0985 38.6681 30.1076 38.2482 30.0985 37.8283C30.0803 37.3902 30.1898 36.9977 30.491 36.6782C30.1989 36.4043 29.916 36.1305 29.6239 35.8475C29.1128 36.3678 28.8847 37.0342 28.8847 37.8009C28.8847 40.5668 28.8847 43.3326 28.8847 46.0984C28.8847 46.2262 28.8847 46.3449 28.8755 46.4727C25.663 46.4909 22.4596 46.4909 19.247 46.4909ZM27.6617 40.4937C26.0554 40.4937 24.4674 40.4937 22.8794 40.4937C22.8794 40.8863 22.8794 41.2605 22.8794 41.6348C24.4857 41.6348 26.0646 41.6348 27.6617 41.6348C27.6617 41.2331 27.6617 40.868 27.6617 40.4937Z" fill="#D13731" fill-opacity="0.8"/>
<path d="M13.2344 46.4912C13.3348 46.4456 13.4261 46.3817 13.5265 46.3543C14.7314 45.9618 15.5986 44.839 15.626 43.5611C15.6351 43.0043 15.6716 42.4383 15.5986 41.8906C15.416 40.5944 14.6675 39.7546 13.4169 39.3621C13.3622 39.3439 13.3074 39.3165 13.2435 39.2982C13.2435 38.8966 13.2435 38.4858 13.2435 38.0659C14.8409 38.0659 16.411 38.0659 18.0084 38.0659C18.0175 38.1481 18.0358 38.2302 18.0358 38.3033C18.0358 40.9869 18.0358 43.6706 18.0358 46.3634C18.0358 46.4091 18.0267 46.4547 18.0267 46.5003C16.4201 46.4912 14.8227 46.4912 13.2344 46.4912Z" fill="#0D6EFD"/>
<path d="M30.1029 46.4897C30.1029 44.938 30.1029 43.3953 30.0938 41.8435C30.0938 41.7979 30.1029 41.7522 30.112 41.6792C30.897 41.6792 31.6729 41.6792 32.4945 41.6792C32.4945 43.2858 32.4945 44.8832 32.4945 46.4806C31.7003 46.4897 30.9062 46.4897 30.1029 46.4897Z" fill="#0D6EFD"/>
<path d="M12 40.8855C12.2738 40.4656 12.4838 40.3834 12.9767 40.493C13.78 40.6664 14.3733 41.3601 14.4007 42.1908C14.419 42.6655 14.419 43.1493 14.4007 43.6239C14.3642 44.4272 13.707 45.1301 12.9128 45.2579C12.5112 45.3218 12.1917 45.2396 12 44.8471C12 43.5235 12 42.2091 12 40.8855Z" fill="#0D6EFD"/>
<path d="M45.4696 25.9708C45.789 26.272 46.0628 26.5002 46.3001 26.7558C46.9937 27.4952 47.1945 28.3624 46.8112 29.3117C46.4279 30.2519 45.6978 30.7631 44.6756 30.7996C43.9272 30.827 43.1697 30.827 42.4213 30.7996C42.0745 30.7905 41.8372 30.8909 41.5817 31.1373C40.377 32.3149 38.5334 32.324 37.4291 31.1282C37.0914 30.7631 36.8724 30.2793 36.6259 29.832C36.5347 29.6768 36.4525 29.5947 36.2609 29.6038C34.8554 29.6677 33.7328 29.1474 32.9388 27.9607C32.8749 27.8695 32.7198 27.8056 32.6011 27.7964C31.1317 27.6686 29.6532 27.55 28.1747 27.4222C27.2438 27.3492 26.3129 27.267 25.3364 27.1849C25.2999 27.5774 25.2725 27.9607 25.236 28.3715C25.5828 28.408 25.9022 28.4354 26.2947 28.4811C25.811 28.974 25.2907 29.3117 24.7066 29.5399C24.0769 29.7864 24.0769 29.7864 24.0769 30.4619C24.0769 30.8452 24.1864 31.3108 24.013 31.5938C23.8396 31.8767 23.3468 31.9406 23.0365 32.1688C22.5163 32.534 22.0417 32.534 21.5215 32.178C21.202 31.9589 20.7001 31.8767 20.5175 31.5846C20.3441 31.3017 20.4628 30.8361 20.4628 30.4527C20.4628 29.7864 20.4628 29.7864 19.8513 29.5582C18.0899 28.8827 16.8943 27.2579 16.8578 25.3775C16.8213 23.7527 16.8395 22.1187 16.8487 20.4939C16.8487 20.3661 16.9582 20.1927 17.0677 20.1197C18.2998 19.2616 19.6596 18.6592 21.1199 18.294C21.2477 18.2575 21.4393 18.294 21.558 18.3762C22.7809 19.2068 24.1225 19.6176 25.5919 19.7089C26.2855 19.7545 26.97 19.8367 27.6819 19.9006C27.6819 21.4615 27.6819 22.9859 27.6819 24.5742C26.8879 24.6472 26.0939 24.7111 25.2542 24.7933C25.2816 25.1949 25.3181 25.5692 25.3455 25.9799C25.9387 25.9343 26.5046 25.8978 27.0613 25.8521C28.9596 25.697 30.8488 25.5327 32.7472 25.3866C32.9662 25.3684 33.0666 25.3045 33.094 25.0762C33.1305 24.7841 33.2035 24.492 33.2674 24.2091C33.5868 22.7394 35.2843 21.927 36.5438 22.6482C36.7081 22.7394 36.8815 22.8125 37.0823 22.9129C37.2557 22.5569 37.4291 22.2283 37.6207 21.8358C37.3287 21.6988 37.0549 21.5437 36.7628 21.425C36.4799 21.3154 36.1787 21.2424 35.8867 21.1603C36.051 19.7545 37.3378 18.4583 38.8072 18.221C40.5047 17.938 42.038 18.7139 42.832 20.2566C42.9507 20.4939 43.0876 20.5761 43.3522 20.5761C43.8633 20.5761 44.3927 20.5578 44.8764 20.6765C46.9299 21.1785 47.6782 23.6888 46.2636 25.2588C46.0355 25.487 45.7708 25.6878 45.4696 25.9708ZM44.6573 23.8439C45.0224 23.6431 45.351 23.4514 45.6978 23.2597C45.2871 22.4839 44.6847 21.9818 43.8542 21.8266C42.4852 21.571 41.4448 22.1187 40.6782 23.2324C39.4187 22.6755 38.0223 23.0954 37.5751 23.7527C37.8307 24.0265 38.0953 24.3004 38.3691 24.5833C38.8255 24.1999 39.373 24.0174 39.8933 24.2456C40.3861 24.4647 40.7968 24.8663 41.2531 25.1949C41.3535 24.9028 41.463 24.5742 41.5726 24.2456C41.8007 23.5427 42.2753 23.1046 43.0054 22.9859C43.7173 22.8764 44.2649 23.1593 44.6573 23.8439ZM21.6675 24.7659C21.9504 24.7659 22.206 24.7476 22.4524 24.775C22.5801 24.7841 22.7718 24.848 22.8174 24.9393C22.8539 25.0215 22.7627 25.204 22.6805 25.3045C22.4797 25.5418 22.2425 25.7517 22.0052 25.9891C22.2516 26.2264 22.4797 26.4272 22.6714 26.6463C22.7627 26.7467 22.7901 26.8928 22.8448 27.0205C22.717 27.0753 22.5984 27.1666 22.4615 27.1849C22.206 27.2122 21.9504 27.194 21.6766 27.194C21.6766 27.623 21.6766 27.9973 21.6766 28.3898C22.0143 28.3898 22.3155 28.3989 22.6258 28.3898C23.7575 28.3533 24.4237 27.194 23.867 26.2173C23.7575 26.0256 23.7849 25.916 23.8852 25.7335C24.3507 24.9119 23.9218 23.8439 23.0091 23.634C22.5893 23.5336 22.1329 23.5792 21.6766 23.5518C21.6675 23.9809 21.6675 24.3551 21.6675 24.7659ZM42.9233 27.3674C41.9011 28.5815 40.7238 28.6636 39.4187 27.8421C39.227 28.2163 39.0627 28.5541 38.8893 28.8918C40.45 30.0511 42.7681 29.7042 43.7264 28.2255C43.4709 27.9425 43.2153 27.6778 42.9233 27.3674ZM36.991 25.2862C36.8085 24.9302 36.6351 24.5925 36.4708 24.2547C35.4304 24.6746 34.8828 25.4231 34.9284 26.3542C34.974 27.2853 35.5673 28.0338 36.4799 28.2894C36.6442 27.9516 36.8176 27.6139 36.9819 27.2761C35.8228 26.5368 35.8228 26.0438 36.991 25.2862ZM17.6335 21.5802C18.5644 22.6208 20.0064 22.6116 20.8461 21.5802C20.5723 21.3155 20.2985 21.0416 20.0156 20.7769C19.3128 21.2881 19.112 21.2881 18.4549 20.7495C18.1811 21.0233 17.9165 21.2972 17.6335 21.5802ZM24.4876 20.7678C24.2138 21.0416 23.9491 21.3063 23.6753 21.5802C24.4785 22.6208 25.9752 22.6299 26.8514 21.6167C26.5776 21.3337 26.3038 21.0507 26.0209 20.7769C25.4368 21.2789 25.1721 21.2789 24.4876 20.7678Z" fill="#0D6EFD"/>
<path d="M15.5796 21.1415C15.4701 21.1598 15.3606 21.1689 15.1598 21.1963C14.959 20.2926 14.7034 19.4071 14.5666 18.5035C14.3931 17.4263 14.3019 16.331 14.6031 15.2538C15.3423 12.5428 18.1898 10.8906 20.873 11.7121C21.8222 12.0042 22.6527 12.0225 23.6201 11.7212C26.7779 10.7445 29.9996 13.1178 30.1 16.4222C30.1456 18.0105 29.8627 19.5441 29.3425 21.0411C29.3242 21.0867 29.2969 21.1232 29.2695 21.1689C29.2147 21.1598 29.16 21.1598 29.1052 21.1506C29.0504 21.1415 28.9957 21.1324 28.8953 21.1141C28.8953 20.4934 28.9135 19.8727 28.8953 19.252C28.8405 17.7823 28.1378 16.7052 26.8418 16.0206C26.6045 15.8928 26.3398 15.8198 26.0478 15.7102C25.9474 16.1119 25.847 16.477 25.7466 16.8786C26.6593 17.1434 27.2981 17.7002 27.6084 18.6586C27.07 18.613 26.5589 18.5582 26.0569 18.5308C24.6697 18.4487 23.3554 18.1657 22.1964 17.3442C21.4754 16.833 20.873 16.2032 20.3802 15.4181C20.0425 15.619 19.7139 15.8107 19.3306 16.0389C19.6318 16.4496 19.9147 16.833 20.1976 17.2073C19.1116 17.6911 18.0073 18.184 16.903 18.6769C16.9851 17.9558 17.3502 17.3351 17.8521 16.76C17.5601 16.4953 17.2771 16.2305 16.976 15.9567C16.328 16.5957 15.8625 17.4081 15.7348 18.3483C15.607 19.2611 15.6252 20.183 15.5796 21.1415Z" fill="#0D6EFD"/>
<path d="M13.8166 36.8147C13.8166 36.3857 13.7801 35.9749 13.8349 35.5733C13.8623 35.3907 14.0266 35.1808 14.1909 35.0895C14.3643 34.9891 14.4099 34.9069 14.4099 34.7335C14.4008 34.2497 14.4099 33.7568 14.4099 33.2456C14.8207 33.2456 15.195 33.2456 15.6057 33.2456C15.6057 33.8207 15.6057 34.3958 15.6057 34.9708C16.6281 35.3268 16.0713 36.1666 16.2538 36.8147C15.4232 36.8147 14.6473 36.8147 13.8166 36.8147Z" fill="#0D6EFD"/>
<path d="M15.5934 24.7374C14.9544 24.7556 14.425 24.2445 14.4067 23.5964C14.3885 22.9391 14.8905 22.4097 15.5934 22.3823C15.5934 23.1673 15.5934 23.9524 15.5934 24.7374Z" fill="#0D6EFD"/>
<path d="M28.8984 24.4906C28.8984 23.7604 28.8984 23.0849 28.8984 22.3729C29.3183 22.3638 29.6378 22.5463 29.866 22.8749C30.1399 23.2766 30.1581 23.6965 29.939 24.1255C29.7108 24.6002 29.2636 24.3446 28.8984 24.4906Z" fill="#0D6EFD"/>
<path d="M25.0044 32.6885C24.7945 33.3183 24.5845 33.9573 24.3563 34.6419C23.8725 34.2768 23.4161 33.939 22.9141 33.5557C23.6169 33.2088 24.265 32.8893 24.9131 32.5698C24.9405 32.6063 24.977 32.652 25.0044 32.6885Z" fill="#0D6EFD"/>
<path d="M21.6061 33.5557C21.0949 33.939 20.6385 34.2768 20.1547 34.6419C19.9265 33.9573 19.7165 33.3183 19.4609 32.5698C20.2551 32.8254 20.8758 33.2362 21.6061 33.5557Z" fill="#0D6EFD"/>
</svg>
