<svg width="59" height="58" viewBox="0 0 59 58" fill="none" xmlns="http://www.w3.org/2000/svg">
<path d="M16.7564 19.1563C17.6538 19.1563 18.7308 19.1563 19.6282 19.1563C20.3461 19.1563 20.8846 18.7917 20.8846 18.0625C20.8846 17.5156 20.3461 16.9687 19.6282 16.9687C18.7308 16.9687 17.8333 16.9687 16.7564 16.9687C16.7564 15.875 16.7564 14.7813 16.7564 13.5052C16.5769 13.5052 16.3974 13.5052 16.3974 13.5052C15.859 13.5052 15.5 12.9583 15.5 12.4115C15.5 11.8646 15.859 11.5 16.3974 11.5C16.5769 11.5 16.5769 11.5 16.7564 11.5C20.1666 11.5 23.5769 11.5 26.9872 11.5C27.1667 11.5 27.1666 11.5 27.3461 11.5C27.8846 11.5 28.4231 12.0469 28.4231 12.4115C28.4231 12.9583 28.0641 13.3229 27.5256 13.5052C27.3461 13.5052 27.3462 13.5052 27.1667 13.5052C27.1667 19.7031 27.1667 25.7188 27.1667 31.9167C25.5513 32.4636 24.1154 32.2812 22.8589 31.5521C22.3205 31.1875 21.6026 30.8229 20.8846 30.6406C19.8077 30.276 18.5512 30.4583 17.4743 30.8229C17.2948 30.8229 17.2949 30.8229 17.1154 31.0052C17.1154 29.7292 17.1154 28.4531 17.1154 27.1771C17.8333 27.1771 18.7307 27.1771 19.4487 27.1771C19.6282 27.1771 19.8077 27.1771 19.9872 27.1771C20.7051 27.1771 21.0641 26.8125 21.0641 26.0833C21.0641 25.5364 20.5256 24.9896 19.9872 24.9896C19.0897 24.9896 18.3718 24.9896 17.4743 24.9896C17.2948 24.9896 17.1154 24.9896 17.1154 24.9896C17.1154 24.2605 17.1154 23.7136 17.1154 22.9844C17.4744 22.9844 17.6538 22.9844 18.0128 22.9844C18.7308 22.9844 19.4487 22.9844 20.1666 22.9844C20.7051 22.9844 21.2436 22.4375 21.2436 21.8906C21.2436 21.3438 20.8846 20.9792 20.1666 20.9792C19.2692 20.9792 18.1923 20.9792 17.2949 20.9792C16.7564 20.4323 16.7564 19.8854 16.7564 19.1563Z" fill="#0D6EFD"/>
<path d="M26.8169 34.1035C26.8169 35.9264 26.8169 37.7493 26.8169 39.3899C26.8169 40.3014 26.8169 41.2128 26.8169 41.942C26.458 44.4941 24.1246 46.4993 21.4323 46.317C18.9195 46.1347 16.7656 43.9472 16.7656 41.3951C16.7656 38.8431 16.7656 36.1087 16.7656 33.5566C16.7656 33.3743 16.7656 33.192 17.1246 33.192C18.74 32.4629 20.1759 32.4628 21.6118 33.3743C23.2272 34.2857 24.8426 34.6503 26.6374 34.2857C26.4579 34.2857 26.6374 34.1035 26.8169 34.1035Z" fill="#0D6EFD"/>
<path d="M38.1119 21.8906C38.1119 22.0729 38.1119 22.2552 38.1119 22.4375C38.1119 26.4479 38.1119 30.6406 38.1119 34.651C38.1119 35.0156 38.112 35.1979 38.4709 35.1979C39.5479 35.7448 40.0863 36.6562 40.0863 37.9323C40.0863 39.7552 40.0863 41.5781 40.0863 43.401C40.0863 45.0416 38.6504 46.5 37.0351 46.5C35.4197 46.5 33.9838 45.2239 33.9838 43.401C33.9838 41.5781 33.9838 39.7552 33.9838 38.1146C33.9838 36.8385 34.5222 35.9271 35.7786 35.3802C35.9581 35.1979 36.1376 35.1979 36.1376 35.0156C36.1376 30.8229 36.1376 26.6302 36.1376 22.4375V22.2552C35.5992 22.2552 35.2402 22.2552 34.7017 22.2552C33.8043 22.2552 33.4453 21.8906 33.4453 20.9792C33.4453 20.0677 33.4453 19.1562 33.4453 18.0625C35.9581 18.0625 38.2914 18.0625 40.8043 18.0625C40.8043 19.1562 40.8043 20.25 40.8043 21.3438C40.8043 21.8907 40.2658 22.2552 39.7274 22.2552C39.3684 21.8907 38.8299 21.8906 38.1119 21.8906Z" fill="#D13731" fill-opacity="0.8"/>
<path d="M30.7578 15.6921C30.7578 14.5983 30.7578 13.6868 30.7578 12.5931C30.7578 12.0462 31.2962 11.6816 31.8347 11.6816C33.6296 11.6816 35.245 11.6816 37.0399 11.6816C38.8347 11.6816 40.4501 11.6816 42.245 11.6816C43.1424 11.6816 43.5014 12.0462 43.5014 12.9577C43.5014 13.8692 43.5014 14.7806 43.5014 15.6921C39.3732 15.6921 35.0655 15.6921 30.7578 15.6921Z" fill="#D13731" fill-opacity="0.8"/>
</svg>
