<svg width="59" height="58" viewBox="0 0 59 58" fill="none" xmlns="http://www.w3.org/2000/svg">
<path d="M21.4997 32.8364C21.4997 32.0313 21.4997 31.2263 21.4997 30.3645C20.9214 30.3645 20.3544 30.3532 19.7988 30.3645C19.0958 30.3758 18.5062 30.1604 18.166 29.5027C17.8372 28.8677 17.9846 28.2894 18.3701 27.7112C19.2999 26.3278 20.1957 24.9217 21.1255 23.5384C21.3863 23.1528 21.5224 22.7446 21.5677 22.2797C21.8172 19.3543 22.9738 16.8256 25.1169 14.83C28.4505 11.7231 32.3965 10.7366 36.7394 12.0972C41.105 13.4579 43.815 16.5195 44.7561 20.9984C45.5385 24.7176 44.5974 28.074 42.1368 30.9655C40.9802 32.3262 40.4019 33.8229 40.4246 35.6145C40.4586 39.0502 40.4359 42.486 40.4359 45.933C40.4359 46.1031 40.4359 46.2732 40.4359 46.466C40.0731 46.466 39.7329 46.466 39.3474 46.466C39.3361 46.3299 39.3247 46.1825 39.3247 46.0351C39.3247 42.4746 39.3247 38.9028 39.3247 35.3423C39.3247 33.4827 39.937 31.8613 41.1503 30.4552C44.6768 26.3618 44.8922 20.7716 41.5585 16.6782C38.8031 13.2992 35.1633 11.9839 30.9111 12.959C26.5683 13.9569 23.8922 16.803 22.849 21.1458C22.7583 21.5427 22.7016 21.9509 22.679 22.3591C22.6449 23.0281 22.4295 23.6064 22.0553 24.1734C21.1142 25.5454 20.207 26.9514 19.3113 28.3575C19.1979 28.5389 19.1071 28.8451 19.1865 29.0038C19.2659 29.1626 19.5834 29.2646 19.7875 29.2646C22.5769 29.2759 25.3663 29.2759 28.1557 29.2759C32.68 29.2759 36.2518 32.2354 37.0796 36.669C37.1703 37.1226 37.2043 37.5988 37.2043 38.0637C37.2157 40.7511 37.2157 43.4384 37.2157 46.1258C37.2157 46.2392 37.2043 46.3413 37.193 46.4773C35.2086 46.4773 33.2583 46.4773 31.24 46.4773C31.24 46.2959 31.24 46.1258 31.24 45.9671C31.24 44.2095 31.2513 42.4633 31.24 40.7057C31.2286 39.0275 30.2648 37.7689 28.734 37.4061C28.4619 37.338 28.1784 37.3153 27.8949 37.3153C26.2394 37.304 24.5839 37.3153 22.9284 37.3153C22.849 37.3153 22.7697 37.338 22.6903 37.3494C22.7243 38.0864 23.2799 38.6193 24.051 38.642C24.9014 38.6534 25.7518 38.642 26.6023 38.6534C28.099 38.6647 29.1422 39.6852 29.1536 41.182C29.1649 42.8375 29.1536 44.493 29.1536 46.1485C29.1536 46.2619 29.1422 46.3639 29.1309 46.5C28.7794 46.5 28.4505 46.5 28.0537 46.5C28.0537 46.3526 28.0537 46.2052 28.0537 46.0578C28.0537 44.4703 28.0537 42.8942 28.0537 41.3067C28.0537 40.2862 27.5321 39.7646 26.5229 39.7646C25.7178 39.7646 24.9128 39.7759 24.1077 39.7646C22.6449 39.7419 21.5677 38.6647 21.5451 37.2133C21.5337 36.1361 21.5337 35.0589 21.5337 33.993L21.5224 34.0043C22.8944 34.0043 24.2664 34.0157 25.6385 34.0157C25.8766 34.0157 26.0353 34.0724 26.2054 34.2651C26.3982 34.4806 26.7043 34.696 26.9765 34.7074C28.0764 34.7527 29.1762 34.7641 30.2761 34.7187C30.9792 34.6847 31.3307 34.1404 31.2967 33.324C31.2626 32.6663 30.8318 32.2241 30.1514 32.2128C29.1309 32.2014 28.1217 32.2128 27.1012 32.2128C26.7043 32.2128 26.3982 32.3829 26.1601 32.689C26.0807 32.7911 25.956 32.9044 25.8426 32.9044C24.4025 32.9158 22.9624 32.9044 21.5224 32.8931L21.4997 32.8364Z" fill="#0D6EFD"/>
<path d="M21.5057 33.9362C19.2039 33.9475 16.8907 33.9475 14.5889 33.9589C14.3961 33.9589 14.192 33.9589 13.9766 33.9589C13.9766 33.596 13.9766 33.2558 13.9766 32.8363C16.4825 32.8363 18.9998 32.8363 21.5057 32.8363L21.4944 32.825C21.4944 33.1991 21.4944 33.5733 21.5057 33.9362Z" fill="#D13731" fill-opacity="0.8"/>
<path d="M21.4922 33.9477C21.4922 33.5735 21.4922 33.1994 21.4922 32.8365C22.9322 32.8478 24.3723 32.8592 25.8124 32.8478C25.9258 32.8478 26.0505 32.7345 26.1299 32.6324C26.368 32.3149 26.6741 32.1562 27.071 32.1562C28.0915 32.1562 29.1007 32.1448 30.1212 32.1562C30.7902 32.1675 31.2325 32.6097 31.2665 33.2674C31.3005 34.0838 30.949 34.6281 30.246 34.6621C29.1461 34.7075 28.0462 34.7075 26.9463 34.6508C26.6741 34.6394 26.368 34.424 26.1752 34.2085C26.0051 34.0044 25.8464 33.9477 25.6083 33.9591C24.2362 33.9591 22.8642 33.9477 21.4922 33.9477Z" fill="#D13731" fill-opacity="0.8"/>
</svg>
