<svg width="59" height="58" viewBox="0 0 59 58" fill="none" xmlns="http://www.w3.org/2000/svg">
<path d="M23.0037 46.4996C22.6933 46.39 22.3738 46.3078 22.0816 46.1708C20.6939 45.5224 19.9635 44.0246 20.2739 42.5177C20.5843 41.0565 21.9173 39.9514 23.4329 39.9423C25.0854 39.9332 26.7379 39.9332 28.3904 39.9423C28.5913 39.9423 28.7191 39.8784 28.8378 39.714C29.623 38.6181 30.4264 37.5404 31.2025 36.4445C31.3759 36.1979 31.5585 36.0883 31.8689 36.0974C33.2476 36.1157 34.6262 36.0883 36.0048 36.1157C37.0456 36.134 37.9312 35.8417 38.6525 35.0198C38.7347 35.1294 38.8169 35.2207 38.8899 35.312C40.022 36.8189 41.1541 38.335 42.2954 39.8419C42.3867 39.9606 42.5145 40.0793 42.6514 40.1341C44.0848 40.7095 44.9431 42.0428 44.8061 43.5041C44.6692 44.9744 43.6192 46.1252 42.131 46.4448C42.0945 46.4539 42.058 46.4813 42.0123 46.4996C35.6761 46.4996 29.3399 46.4996 23.0037 46.4996Z" fill="#0D6EFD"/>
<path d="M12 21.4125C12.0639 21.0837 12.1278 20.7458 12.2009 20.417C13.0226 16.7092 16.355 14.1429 20.2352 14.2433C23.8872 14.3347 27.101 17.1293 27.7309 20.7824C27.8131 21.2664 27.8588 21.7596 27.8588 22.2436C27.8679 24.609 27.8679 26.9835 27.8679 29.358C27.8679 29.9334 27.6944 30.1069 27.1101 30.1069C24.7272 30.1069 22.3443 30.1069 19.9705 30.1069C15.9168 30.0977 12.5752 27.1387 12.073 23.1203C12.0639 23.0564 12.0365 22.9925 12.0091 22.9285C12 22.408 12 21.9148 12 21.4125ZM25.8319 25.7414C25.841 24.5176 24.5628 23.714 23.4672 24.2802C22.9286 24.5542 22.4082 24.8556 21.906 25.1843C21.1574 25.6592 20.9382 26.6182 21.3765 27.3762C21.8056 28.1159 22.7368 28.4173 23.5129 28.0155C24.0698 27.7324 24.6085 27.4127 25.138 27.0748C25.6037 26.7643 25.8228 26.2985 25.8319 25.7414ZM24.1794 19.6956C24.1702 19.312 23.9511 18.8462 23.4764 18.5448C22.9468 18.2069 22.4082 17.8873 21.8512 17.6042C21.0752 17.2115 20.1531 17.5037 19.724 18.2526C19.2948 18.9923 19.4957 19.9513 20.2352 20.417C20.7556 20.755 21.3034 21.0746 21.8604 21.3486C22.9468 21.8874 24.1885 21.0837 24.1794 19.6956ZM16.1176 19.2024C15.3872 19.1841 14.7481 19.6225 14.5381 20.3166C14.3647 20.8828 14.2095 21.449 14.0725 22.0244C13.8716 22.892 14.3738 23.7322 15.2046 23.9788C16.0081 24.2163 16.9028 23.7962 17.1767 23.0016C17.3958 22.3715 17.5693 21.7139 17.688 21.0563C17.8614 20.0883 17.1037 19.2207 16.1176 19.2024ZM21.3126 23.5496C21.3126 22.6454 20.5913 21.9148 19.6966 21.9057C18.7927 21.8966 18.044 22.6546 18.0532 23.5587C18.0623 24.4628 18.7927 25.1752 19.6966 25.1752C20.6004 25.1752 21.3126 24.4628 21.3126 23.5496Z" fill="#D13731" fill-opacity="0.8"/>
<path d="M35.6786 26.3808C34.0717 25.4767 32.5105 24.5999 30.9219 23.7049C30.9949 23.5771 31.0497 23.4675 31.1045 23.3579C33.04 20.0062 34.9756 16.6636 36.902 13.3119C37.112 12.9466 37.3768 12.6909 37.8059 12.5995C37.8972 12.5813 37.9976 12.4899 38.0524 12.4077C38.7189 11.4579 39.6958 11.2479 40.7092 11.805C41.2935 12.1246 41.8139 12.4808 41.9965 13.1749C42.1244 13.6589 42.0513 14.1156 41.8505 14.5722C41.7957 14.6909 41.8231 14.8462 41.8139 14.974C41.7865 15.2846 41.8322 15.6316 41.7044 15.8873C41.2022 16.8463 40.6362 17.7595 40.1066 18.7093C40.0062 18.892 39.8784 18.8828 39.714 18.8646C37.9246 18.6911 36.4638 19.8783 36.2994 21.6683C36.2264 22.4355 36.4729 23.1204 36.9294 23.7415C36.9933 23.8237 37.0481 23.9789 37.0024 24.052C36.5825 24.8283 36.1351 25.5771 35.6786 26.3808Z" fill="#0D6EFD"/>
<path d="M39.0469 31.7043C40.6629 31.3846 41.7767 30.4805 42.215 28.864C42.6441 27.2932 42.1419 26.0146 40.6081 24.6721C41.4298 24.2337 42.0232 23.6035 42.2789 22.7085C42.5345 21.8044 42.3611 20.9551 41.8224 20.1057C42.8541 20.5441 43.694 21.1103 44.4336 21.8318C48.9985 26.2703 47.1999 33.9875 41.1559 35.9693C40.8911 36.0515 40.7542 36.0058 40.599 35.7775C40.2064 35.2204 39.7864 34.6815 39.3756 34.1336C39.3116 34.0514 39.2569 33.9327 39.266 33.8322C39.2751 33.4669 39.3482 33.1016 39.3208 32.7454C39.2751 32.3984 39.1382 32.0696 39.0469 31.7043Z" fill="#0D6EFD"/>
<path d="M31.6849 35.0114C30.1236 35.0114 28.5624 35.0206 27.0012 35.0114C26.0608 35.0023 25.2847 34.3082 25.1387 33.3767C25.0017 32.4999 25.5313 31.6049 26.3986 31.3036C26.6177 31.2305 26.8642 31.1848 27.1016 31.1848C30.151 31.1757 33.2096 31.1757 36.259 31.1848C37.3911 31.1848 38.2402 32.0159 38.2493 33.0936C38.2493 34.1712 37.3911 35.0023 36.2681 35.0114C34.7434 35.0206 33.2187 35.0114 31.6849 35.0114Z" fill="#0D6EFD"/>
<path d="M37.3829 21.8714C37.4011 20.7937 38.2868 19.917 39.3641 19.9261C40.4414 19.9444 41.3179 20.8394 41.3088 21.8988C41.2905 22.9764 40.3958 23.8532 39.3276 23.844C38.2502 23.8349 37.3738 22.9399 37.3829 21.8714ZM39.8936 21.8805C39.8845 21.5883 39.638 21.3417 39.3367 21.3417C39.0354 21.3508 38.798 21.5974 38.798 21.8988C38.8072 22.2001 39.0537 22.4376 39.355 22.4376C39.6471 22.4285 39.8936 22.1727 39.8936 21.8805Z" fill="#0D6EFD"/>
<path d="M30.7513 24.8655C32.1025 25.6235 33.4264 26.3724 34.7502 27.1121C34.1294 27.9523 32.7873 28.2081 31.8287 27.6875C30.8609 27.1578 30.3587 25.8975 30.7513 24.8655Z" fill="#0D6EFD"/>
<path d="M24.7341 25.8603C24.6702 25.9333 24.588 26.116 24.4419 26.2073C24.0035 26.4904 23.5468 26.7462 23.0902 27.0019C22.7797 27.1754 22.4783 27.0841 22.3231 26.8101C22.1769 26.5452 22.25 26.253 22.5422 26.0795C22.9989 25.8055 23.4647 25.5315 23.9304 25.2758C24.3231 25.0566 24.7432 25.3123 24.7341 25.8603Z" fill="#0D6EFD"/>
<path d="M21.0937 18.4456C21.7969 18.8291 22.491 19.1031 23.0116 19.6328C23.1029 19.7241 23.0572 20.0803 22.9568 20.2082C22.8472 20.336 22.5367 20.4365 22.3997 20.3726C21.8426 20.1077 21.3129 19.8063 20.8015 19.4593C20.6736 19.368 20.6097 19.0574 20.6553 18.8931C20.701 18.7287 20.9293 18.6099 21.0937 18.4456Z" fill="#0D6EFD"/>
<path d="M15.7746 22.9462C15.3454 22.9553 15.0623 22.6905 15.1262 22.3708C15.2449 21.7681 15.4093 21.1744 15.592 20.5899C15.6741 20.316 15.939 20.2338 16.213 20.3068C16.4961 20.3799 16.6605 20.5991 16.5966 20.8639C16.4687 21.4484 16.3134 22.0329 16.1217 22.6083C16.076 22.7727 15.8568 22.8731 15.7746 22.9462Z" fill="#0D6EFD"/>
<path d="M20.225 23.551C20.225 23.8616 19.9967 24.0899 19.6862 24.0807C19.394 24.0807 19.1656 23.8524 19.1565 23.5693C19.1474 23.2679 19.3848 23.0122 19.6862 23.0122C19.9785 23.0031 20.225 23.2497 20.225 23.551Z" fill="#0D6EFD"/>
</svg>
