<svg width="59" height="58" viewBox="0 0 59 58" fill="none" xmlns="http://www.w3.org/2000/svg">
<path d="M19.8804 19.2971C26.2647 19.2971 32.649 19.2971 39.0333 19.2971L39.1196 19.3838C39.0334 20.0768 39.2059 20.6832 39.8961 21.203C40.4137 21.5496 40.5 22.156 40.5 22.7625C40.5 23.4555 40.5 24.062 40.5 24.755C40.5 31.5125 40.5 38.1833 40.5 44.9407C40.5 45.9803 39.9824 46.5001 38.9471 46.5001C32.649 46.5001 26.351 46.5001 20.053 46.5001C19.0177 46.5001 18.5 45.9803 18.5 44.9407C18.5 37.6635 18.5 30.2996 18.5 23.0224C18.5 21.9828 18.8451 21.2031 19.7079 20.6833C19.7941 20.5966 19.8804 20.4233 19.8804 20.3367C19.9667 19.9902 19.8804 19.7303 19.8804 19.2971ZM22.3824 42.6882C22.3824 37.9234 22.3824 33.1585 22.3824 28.3937C21.951 28.3937 21.5196 28.3937 21.0882 28.3937C21.0882 33.1585 21.0882 37.9234 21.0882 42.6882C21.5196 42.6882 21.951 42.6882 22.3824 42.6882ZM22.3824 25.7946C22.3824 24.9283 22.3824 24.062 22.3824 23.1956C21.951 23.1956 21.5196 23.1956 21.0882 23.1956C21.0882 24.062 21.0882 24.9283 21.0882 25.7946C21.5196 25.7946 21.951 25.7946 22.3824 25.7946Z" fill="#0D6EFD"/>
<path d="M29.4569 17.9975C26.0922 17.9975 22.8137 17.9975 19.449 17.9975C18.6726 17.9975 18.5 17.8243 18.5 17.0445C18.5 15.6584 18.5 14.3589 18.5 12.9728C18.5 12.0198 19.0177 11.5 19.9667 11.5C26.351 11.5 32.649 11.5 39.0333 11.5C39.9824 11.5 40.5 12.0198 40.5 12.8861C40.5 14.2723 40.5 15.6584 40.5 17.0445C40.5 17.651 40.2412 17.9109 39.6373 17.9109C36.2725 17.9975 32.9079 17.9975 29.4569 17.9975Z" fill="#D13731" fill-opacity="0.8"/>
</svg>
