<svg width="59" height="58" viewBox="0 0 59 58" fill="none" xmlns="http://www.w3.org/2000/svg">
<path d="M21.5447 40.1054C22.5627 40.1054 23.5597 40.1054 24.5568 40.1054C25.05 40.1054 25.5538 40.1158 26.0471 40.1054C26.5404 40.095 26.7608 39.876 26.7712 39.3858C26.7712 39.3128 26.7712 39.2294 26.7712 39.1564C26.7712 33.7545 26.7712 28.363 26.7712 22.961C26.7712 22.1685 26.6033 22.0016 25.7952 22.0016C24.5148 22.0016 23.2344 22.0016 21.9435 22.0016C21.7965 22.0016 21.6601 22.0016 21.4922 22.0016C21.4922 20.6251 21.4922 19.2694 21.4922 17.8928C26.3409 17.8928 31.1792 17.8928 36.07 17.8928C36.0805 18.0388 36.0909 18.1744 36.0909 18.3204C36.0909 21.8348 36.0909 25.3387 36.1014 28.8531C36.1014 29.166 36.0175 29.2598 35.7026 29.3641C35.2513 29.4997 34.7581 29.7082 34.4537 30.0419C32.4176 32.3466 30.7174 34.8703 29.8988 37.8633C29.1851 40.4808 29.7414 42.8063 31.725 44.7252C31.9244 44.9233 32.1763 45.0693 32.4071 45.2466C32.5226 45.3405 32.6485 45.4239 32.8584 45.5803C30.4341 46.6544 28.0831 46.8421 25.6902 45.8514C23.1504 44.8086 21.6601 42.4622 21.5447 40.1054Z" fill="#0D6EFD"/>
<path d="M41.0022 39.8142C40.9287 41.952 39.7742 43.631 37.8536 44.3089C35.9435 44.9867 33.834 44.4549 32.627 42.9323C31.546 41.5662 31.2626 40.0124 31.7139 38.3334C32.2282 36.3937 33.2462 34.7043 34.4007 33.0879C34.81 32.5143 35.2403 31.9616 35.6916 31.4193C36.0275 31.023 36.3843 31.0126 36.7306 31.3985C38.3784 33.2652 39.8477 35.257 40.5719 37.6764C40.7713 38.3751 40.8552 39.1051 41.0022 39.8142ZM35.5657 36.2581C35.4922 36.2998 35.3033 36.3624 35.1983 36.498C34.6001 37.1862 34.3692 38.0205 34.2853 38.8965C34.2538 39.2094 34.4637 39.4284 34.7995 39.4909C35.1249 39.5431 35.3663 39.4075 35.4922 39.1051C35.7546 38.4377 36.0065 37.7598 36.2583 37.082C36.3843 36.6648 36.0799 36.2477 35.5657 36.2581Z" fill="#D13731" fill-opacity="0.8"/>
<path d="M21.4922 23.2854C22.8461 23.2854 24.1685 23.2854 25.4908 23.2854C25.4908 28.4788 25.4908 33.6513 25.4908 38.8446C24.1475 38.8446 22.8356 38.8446 21.4922 38.8446C21.4922 33.6513 21.4922 28.4892 21.4922 23.2854Z" fill="#0D6EFD"/>
<path d="M24.8009 11.5107C24.8009 13.2314 24.8009 14.8895 24.8009 16.5789C24.675 16.5893 24.5595 16.5997 24.4441 16.5997C23.1742 16.5997 21.9043 16.5997 20.6344 16.5997C19.1545 16.5893 18.0106 15.4943 18.0001 14.0656C17.9896 12.6369 19.1545 11.5107 20.6448 11.5002C22.0197 11.5107 23.3946 11.5107 24.8009 11.5107Z" fill="#0D6EFD"/>
<path d="M32.7656 16.5763C32.7656 14.8869 32.7656 13.2287 32.7656 11.5081C32.8811 11.5081 33.007 11.5081 33.133 11.5081C34.3189 11.5081 35.5154 11.5081 36.7013 11.5081C38.1706 11.5185 39.3041 12.6239 39.2936 14.063C39.2936 15.4813 38.1811 16.5867 36.7223 16.5971C35.4524 16.6076 34.1825 16.5971 32.9231 16.5971C32.8916 16.5971 32.8496 16.5867 32.7656 16.5763Z" fill="#0D6EFD"/>
<path d="M31.4646 16.5906C29.6804 16.5906 27.9067 16.5906 26.1016 16.5906C26.1016 14.922 26.1016 13.2535 26.1016 11.5432C27.8647 11.5432 29.6489 11.5432 31.4646 11.5432C31.4646 13.2118 31.4646 14.8907 31.4646 16.5906Z" fill="#0D6EFD"/>
</svg>
