<svg width="59" height="58" viewBox="0 0 59 58" fill="none" xmlns="http://www.w3.org/2000/svg">
<path d="M12 27.5157C12.1825 26.5824 12.3103 25.6308 12.5475 24.6975C14.5915 16.4258 22.5487 10.771 31.0168 11.5762C39.193 12.3631 45.5624 18.3839 46.8034 26.4909C48.2999 36.2449 41.0728 45.5048 31.2724 46.4198C21.8187 47.2982 13.5695 40.8748 12.1643 31.5051C12.1095 31.1757 12.0548 30.828 12 30.4986C12 29.5287 12 28.5222 12 27.5157ZM39.5215 22.7942C40.58 22.6661 41.9488 23.0687 41.9305 21.4949C41.9123 19.9028 40.4888 20.3603 39.485 20.2139C39.485 19.8296 39.485 19.4636 39.485 19.1159C39.4668 18.2924 38.974 17.78 38.244 17.78C37.514 17.78 37.0212 18.3107 37.003 19.1159C36.9847 19.61 37.003 20.0858 37.003 20.5982C36.4189 20.4335 35.9444 20.2505 35.4699 20.159C34.9589 20.0675 34.4479 20.0675 33.9187 20.0126C33.1521 17.9813 32.9514 17.78 30.7431 16.7003C30.7431 16.4624 30.7431 16.2245 30.7431 15.9683C30.7431 15.7121 30.7431 15.4742 30.7431 15.218C30.6883 14.5043 30.1956 14.0102 29.5203 13.9919C28.8451 13.9919 28.3158 14.486 28.2793 15.1814C28.2428 15.6572 28.3158 16.1513 28.261 16.6088C28.2428 16.8284 28.0968 17.1395 27.9143 17.2493C27.02 17.8349 26.4178 18.6218 26.0893 19.6466C26.0345 19.8113 25.852 20.0126 25.7242 20.0309C24.5015 20.1224 23.443 20.5982 22.3662 21.44C22.2384 21.1106 22.0559 20.8544 22.0377 20.5799C21.9829 20.0858 22.0377 19.5734 22.0194 19.0793C22.0012 18.2558 21.5084 17.7617 20.7602 17.7617C20.0301 17.78 19.5556 18.2924 19.5374 19.1159C19.5191 19.4819 19.5374 19.8296 19.5374 20.2505C19.0811 20.2505 18.6979 20.2322 18.3146 20.2505C17.5481 20.2871 17.0553 20.7995 17.0553 21.5132C17.0553 22.2269 17.5481 22.721 18.3146 22.7393C18.8621 22.7576 19.4096 22.721 19.9571 22.7576C20.5777 22.7942 20.8514 23.3249 20.7602 23.9106C20.6324 24.8622 20.5412 25.8504 20.5777 26.802C20.6142 27.534 20.5412 27.7536 19.7929 27.7719C18.8804 27.7902 17.9679 27.7536 17.0553 27.7719C16.2888 27.7902 15.7961 28.3026 15.7961 29.0163C15.7961 29.73 16.2888 30.2241 17.0553 30.2607C17.4933 30.279 17.9496 30.2607 18.3694 30.2607C18.3694 31.2123 18.2416 32.0907 18.4059 32.9142C18.5701 33.7194 19.0446 34.4698 19.4096 35.2933C19.0629 35.2933 18.6796 35.275 18.2964 35.2933C17.5299 35.3299 17.0371 35.8057 17.0371 36.5377C17.0371 37.2514 17.5481 37.7455 18.2964 37.7821C18.6979 37.8004 19.0994 37.7821 19.5191 37.7821C19.5191 38.3311 19.4826 38.7703 19.5191 39.1912C19.5921 39.85 20.1396 40.2892 20.7967 40.2709C21.4354 40.2526 21.9099 39.8134 21.9647 39.1546C21.9829 38.935 21.9829 38.6971 21.9829 38.4775C21.9829 36.8671 21.9829 36.8671 23.589 36.9037C23.6255 36.9037 23.662 36.9403 23.735 36.9769C24.1547 39.5206 25.6695 40.9297 28.261 41.2591C28.261 41.8081 28.2428 42.3388 28.261 42.8512C28.2975 43.5466 28.8451 44.059 29.5021 44.059C30.1591 44.059 30.6883 43.5466 30.7248 42.8329C30.7431 42.2107 30.7248 41.6068 30.7431 40.9846C30.7431 40.8016 30.7796 40.5271 30.9073 40.4356C31.4914 39.9232 32.0936 39.4657 32.8236 38.8984C34.0099 39.3742 35.5064 39.1729 37.003 38.386C37.003 38.6239 37.003 38.7703 37.003 38.8984C37.0395 39.7768 37.514 40.2892 38.2622 40.2709C39.0105 40.2526 39.4668 39.7402 39.4668 38.8435C39.4668 38.5141 39.4668 38.1664 39.4668 37.7821C39.9413 37.7821 40.3063 37.8004 40.6895 37.7821C41.456 37.7455 41.9488 37.2331 41.9488 36.5377C41.9488 35.824 41.456 35.3299 40.6895 35.3116C40.2515 35.2933 39.7953 35.3116 39.266 35.3116C39.6493 33.6828 39.3207 32.292 38.463 31.011C38.7732 30.4437 39.193 30.2241 39.8135 30.2607C40.4705 30.3156 41.1275 30.279 41.7845 30.279C42.6606 30.2607 43.1898 29.7849 43.2081 29.0529C43.2081 28.3209 42.6606 27.8085 41.8028 27.8085C41.3283 27.8085 40.872 27.8085 40.3428 27.8085C40.7808 25.9785 40.4523 24.3864 39.5215 22.7942Z" fill="#0D6EFD"/>
<path d="M38.0665 26.2769C38.03 27.3566 37.6832 28.2899 36.8437 28.9853C36.643 29.15 36.2962 29.1866 36.0224 29.1683C35.0734 29.0585 33.9601 29.1683 33.2484 28.6925C32.4819 28.1618 31.8796 27.3566 30.9488 26.954C30.7846 26.8808 30.6568 26.5148 30.6568 26.2952C30.6203 24.2455 32.2811 22.5985 34.3069 22.5802C36.3874 22.5619 38.0665 24.2272 38.0665 26.2769Z" fill="#D13731" fill-opacity="0.8"/>
<path d="M34.3235 36.5986C32.8817 36.5803 31.732 35.4091 31.7502 33.9634C31.7685 32.5359 32.973 31.3647 34.3965 31.383C35.8018 31.4013 37.0063 32.6274 36.9698 34.0366C36.9151 35.5006 35.7653 36.6169 34.3235 36.5986Z" fill="#D13731" fill-opacity="0.8"/>
<path d="M23.0849 26.551C22.6651 25.2334 23.2126 23.7694 24.4536 23.0191C25.6764 22.2688 27.3007 22.4518 28.268 23.4766C28.4322 23.6596 28.487 24.0256 28.4687 24.3001C28.3957 25.0138 28.2862 25.7275 28.1402 26.4412C28.1037 26.6425 27.9577 26.8621 27.7935 26.9719C26.9722 27.5758 26.1692 27.7405 25.2019 27.0817C24.6544 26.7157 23.8696 26.734 23.0849 26.551Z" fill="#D13731" fill-opacity="0.8"/>
<path d="M23.4 34.5108C22.232 34.401 21.2648 33.7239 20.8815 32.6808C20.5165 31.656 20.8085 30.5397 21.6298 29.826C22.4693 29.1123 23.6191 28.9842 24.5681 29.4966C24.9148 29.6796 24.9696 29.9175 24.9696 30.3201C24.9513 31.1619 24.9696 32.0403 25.1703 32.8638C25.2981 33.3579 25.2616 33.669 24.8601 33.8703C24.4038 34.1265 23.8928 34.3095 23.4 34.5108Z" fill="#D13731" fill-opacity="0.8"/>
<path d="M26.907 35.2715C27.856 35.4728 28.5678 35.6375 29.2978 35.8022C29.8088 35.912 30.4111 37.2113 30.1556 37.6688C29.6993 38.474 28.7321 38.8766 27.8195 38.6387C26.9253 38.4008 26.1588 37.5407 26.2683 36.6623C26.323 36.1133 26.7245 35.6375 26.907 35.2715Z" fill="#D13731" fill-opacity="0.8"/>
<path d="M30.9309 29.9338C30.3103 31.0318 29.7263 32.0932 29.1058 33.2278C28.3028 33.2095 27.5911 32.5873 27.3903 31.6174C27.2078 30.7024 27.6823 29.7691 28.5583 29.3665C29.4526 28.9639 30.3651 29.2201 30.9309 29.9338Z" fill="#D13731" fill-opacity="0.8"/>
<path d="M30.1348 21.6962C29.6786 21.3851 29.2223 21.0923 28.8026 20.7446C28.6566 20.6348 28.5653 20.3237 28.6018 20.159C28.7661 19.5917 29.4048 19.2257 30.0436 19.2623C30.6823 19.2989 31.2663 19.7564 31.3576 20.342C31.3941 20.525 31.2663 20.8178 31.1203 20.9459C30.8283 21.2387 30.4633 21.4583 30.1348 21.6962Z" fill="#0D6EFD"/>
</svg>
