<svg width="59" height="58" viewBox="0 0 59 58" fill="none" xmlns="http://www.w3.org/2000/svg">
<path d="M47 42.0002C46.8634 42.0002 46.4219 42.0002 46.2853 42.0002C34.9479 42.0002 23.6106 42.0002 12.4098 42.0002C12.2732 42.0002 12.1366 42.0002 12 42.0002C12 37.092 12 32.1839 12 27.1431C13.366 27.1431 14.8685 27.1431 16.371 27.1431C16.371 27.8063 16.371 28.6022 16.371 29.2655C15.688 29.2655 15.0051 29.2655 14.1855 29.2655C14.1855 32.0512 14.1855 34.837 14.1855 37.6227C24.2935 37.6227 34.5382 37.6227 44.7828 37.6227C44.7828 34.837 44.7828 32.0512 44.7828 29.2655C44.0998 29.2655 43.2803 29.2655 42.5973 29.2655C42.5973 28.4696 42.5973 27.8063 42.5973 27.1431C44.0998 27.1431 45.4658 27.1431 46.9683 27.1431C46.9683 32.1929 47 37.092 47 42.0002Z" fill="#0D6EFD"/>
<path d="M35.218 26.4794C35.218 24.2243 35.218 22.1018 35.218 19.8467C35.218 19.5814 35.218 19.4488 34.9448 19.4488C34.535 19.1834 34.3984 18.9182 34.3984 18.3875C34.3984 17.9896 34.3984 17.5916 34.3984 17.1937C34.3984 16.5304 34.9448 15.9998 35.6278 15.9998C37.5401 15.9998 39.4525 15.9998 41.3648 15.9998C42.1844 15.9998 42.7307 16.5304 42.7307 17.3263C42.7307 17.7242 42.7307 18.2549 42.7307 18.6528C42.7307 19.0508 42.4575 19.3161 42.1843 19.4488C41.9111 19.5814 41.9112 19.714 41.9112 19.9794C41.9112 24.2243 41.9112 28.4692 41.9112 32.7141C41.9112 34.0406 40.955 35.1018 39.8622 35.3672C38.4963 35.7651 37.2669 35.6325 36.1742 34.7039C35.6278 34.3059 35.3546 33.6427 35.3546 32.9794C35.218 30.857 35.218 28.6019 35.218 26.4794ZM36.4474 25.9488C36.4474 28.2039 36.4474 30.5916 36.4474 32.8467C36.4474 33.3774 36.7206 33.7753 37.1303 34.0406C37.8133 34.4386 38.4963 34.4386 39.1793 34.3059C39.9988 34.1733 40.5452 33.6427 40.5452 32.5814C40.5452 28.0712 40.5452 23.6937 40.5452 19.1835C40.5452 19.0508 40.5452 19.0508 40.5452 18.9181C40.5452 18.6528 40.6818 18.5202 40.955 18.3875C41.3648 18.2549 41.3648 18.1222 41.3648 17.5916C41.3648 17.1937 41.0916 17.1937 40.8184 17.1937C39.7256 17.1937 38.7695 17.1937 37.6767 17.1937C37.1303 17.1937 36.4474 17.1937 35.901 17.1937C35.6278 17.1937 35.4912 17.3263 35.4912 17.5916C35.4912 17.8569 35.3546 18.2549 35.7644 18.2549C36.3108 18.3875 36.3108 18.3875 36.3108 18.9181C36.4474 21.4386 36.4474 23.6937 36.4474 25.9488Z" fill="#0D6EFD"/>
<path d="M36.9922 29.2656C37.9484 29.2656 38.9045 29.2656 39.9973 29.2656C39.9973 29.3983 39.9973 29.531 39.9973 29.6636C39.9973 30.5922 39.9973 31.5208 39.9973 32.4493C40.1339 33.6432 39.0411 34.1738 37.9484 33.9085C37.2654 33.7758 36.9922 33.3779 36.9922 32.7146C36.9922 31.6534 36.9922 30.7248 36.9922 29.6636C36.9922 29.3983 36.9922 29.3983 36.9922 29.2656Z" fill="#D13731" fill-opacity="0.8"/>
<path d="M26.1555 26.4794C26.1555 24.2243 26.1555 22.1018 26.1555 19.8467C26.1555 19.5814 26.1555 19.4488 25.8823 19.4488C25.4725 19.1834 25.3359 18.9182 25.3359 18.3875C25.3359 17.9896 25.3359 17.5916 25.3359 17.1937C25.3359 16.5304 25.8823 15.9998 26.5653 15.9998C28.4776 15.9998 30.39 15.9998 32.3023 15.9998C33.1219 15.9998 33.6682 16.5304 33.6682 17.3263C33.6682 17.7242 33.6682 18.2549 33.6682 18.6528C33.6682 19.0508 33.395 19.3161 33.1218 19.4488C32.8486 19.5814 32.8487 19.714 32.8487 19.9794C32.8487 24.2243 32.8487 28.4692 32.8487 32.7141C32.8487 34.0406 31.8925 35.1018 30.7997 35.3672C29.4338 35.7651 28.2044 35.6325 27.1117 34.7039C26.5653 34.3059 26.2921 33.6427 26.2921 32.9794C26.1555 30.857 26.1555 28.6019 26.1555 26.4794ZM27.3849 25.9488C27.3849 28.2039 27.3849 30.5916 27.3849 32.8467C27.3849 33.3774 27.6581 33.7753 28.0678 34.0406C28.7508 34.4386 29.4338 34.4386 30.1168 34.3059C30.9363 34.1733 31.4827 33.6427 31.4827 32.5814C31.4827 28.0712 31.4827 23.6937 31.4827 19.1835C31.4827 19.0508 31.4827 19.0508 31.4827 18.9181C31.4827 18.6528 31.6193 18.5202 31.8925 18.3875C32.3023 18.2549 32.3023 18.1222 32.3023 17.5916C32.3023 17.1937 32.0291 17.1937 31.7559 17.1937C30.6631 17.1937 29.707 17.1937 28.6142 17.1937C28.0678 17.1937 27.3849 17.1937 26.8385 17.1937C26.5653 17.1937 26.4287 17.3263 26.4287 17.5916C26.4287 17.8569 26.2921 18.2549 26.7019 18.2549C27.2483 18.3875 27.2483 18.3875 27.2483 18.9181C27.3849 21.4386 27.3849 23.6937 27.3849 25.9488Z" fill="#0D6EFD"/>
<path d="M27.9297 29.2656C28.8859 29.2656 29.842 29.2656 30.9348 29.2656C30.9348 29.3983 30.9348 29.531 30.9348 29.6636C30.9348 30.5922 30.9348 31.5208 30.9348 32.4493C31.0714 33.6432 29.9786 34.1738 28.8859 33.9085C28.2029 33.7758 27.9297 33.3779 27.9297 32.7146C27.9297 31.6534 27.9297 30.7248 27.9297 29.6636C27.9297 29.3983 27.9297 29.3983 27.9297 29.2656Z" fill="#D13731" fill-opacity="0.8"/>
<path d="M17.093 26.4794C17.093 24.2243 17.093 22.1018 17.093 19.8467C17.093 19.5814 17.093 19.4488 16.8198 19.4488C16.41 19.1834 16.2734 18.9182 16.2734 18.3875C16.2734 17.9896 16.2734 17.5916 16.2734 17.1937C16.2734 16.5304 16.8198 15.9998 17.5028 15.9998C19.4151 15.9998 21.3275 15.9998 23.2398 15.9998C24.0594 15.9998 24.6057 16.5304 24.6057 17.3263C24.6057 17.7242 24.6057 18.2549 24.6057 18.6528C24.6057 19.0508 24.3325 19.3161 24.0593 19.4488C23.7861 19.5814 23.7862 19.714 23.7862 19.9794C23.7862 24.2243 23.7862 28.4692 23.7862 32.7141C23.7862 34.0406 22.83 35.1018 21.7372 35.3672C20.3713 35.7651 19.1419 35.6325 18.0492 34.7039C17.5028 34.3059 17.2296 33.6427 17.2296 32.9794C17.093 30.857 17.093 28.6019 17.093 26.4794ZM18.3224 25.9488C18.3224 28.2039 18.3224 30.5916 18.3224 32.8467C18.3224 33.3774 18.5956 33.7753 19.0053 34.0406C19.6883 34.4386 20.3713 34.4386 21.0543 34.3059C21.8738 34.1733 22.4202 33.6427 22.4202 32.5814C22.4202 28.0712 22.4202 23.6937 22.4202 19.1835C22.4202 19.0508 22.4202 19.0508 22.4202 18.9181C22.4202 18.6528 22.5568 18.5202 22.83 18.3875C23.2398 18.2549 23.2398 18.1222 23.2398 17.5916C23.2398 17.1937 22.9666 17.1937 22.6934 17.1937C21.6006 17.1937 20.6445 17.1937 19.5517 17.1937C19.0053 17.1937 18.3224 17.1937 17.776 17.1937C17.5028 17.1937 17.3662 17.3263 17.3662 17.5916C17.3662 17.8569 17.2296 18.2549 17.6394 18.2549C18.1858 18.3875 18.1858 18.3875 18.1858 18.9181C18.3224 21.4386 18.3224 23.6937 18.3224 25.9488Z" fill="#0D6EFD"/>
<path d="M18.8672 29.2656C19.8234 29.2656 20.7795 29.2656 21.8723 29.2656C21.8723 29.3983 21.8723 29.531 21.8723 29.6636C21.8723 30.5922 21.8723 31.5208 21.8723 32.4493C22.0089 33.6432 20.9161 34.1738 19.8234 33.9085C19.1404 33.7758 18.8672 33.3779 18.8672 32.7146C18.8672 31.6534 18.8672 30.7248 18.8672 29.6636C18.8672 29.3983 18.8672 29.3983 18.8672 29.2656Z" fill="#D13731" fill-opacity="0.8"/>
</svg>
