<svg width="59" height="58" viewBox="0 0 59 58" fill="none" xmlns="http://www.w3.org/2000/svg">
<path d="M16.2341 22.6016C15.0588 22.4264 14.5 21.7739 14.5 20.6248C14.5 19.7483 14.5 18.8718 14.5 18.0051C14.5096 16.9242 15.2418 16.1743 16.3208 16.1743C22.7948 16.1743 29.2784 16.1743 35.7523 16.1743C36.8506 16.1743 37.5731 16.9144 37.5731 18.0343C37.5731 18.9011 37.5731 19.758 37.5731 20.6248C37.5731 21.7836 37.0144 22.4361 35.839 22.6114C35.839 22.7477 35.839 22.8841 35.839 23.0204C35.839 30.1781 35.839 37.3261 35.839 44.4838C35.839 45.818 35.1647 46.4996 33.8352 46.4996C28.6233 46.4996 23.4017 46.4996 18.1898 46.4996C16.8988 46.4996 16.2245 45.8082 16.2245 44.4935C16.2245 37.3553 16.2245 30.2073 16.2245 23.0691C16.2341 22.9133 16.2341 22.7672 16.2341 22.6016ZM17.3902 22.5919C17.3902 22.7477 17.3902 22.8743 17.3902 22.9912C17.3902 30.1586 17.3902 37.3261 17.3902 44.4935C17.3902 45.1655 17.5539 45.3213 18.2187 45.3213C23.4306 45.3213 28.6522 45.3213 33.8641 45.3213C34.5385 45.3213 34.6926 45.1655 34.6926 44.4935C34.6926 37.3261 34.6926 30.1586 34.6926 22.9912C34.6926 22.8646 34.6926 22.738 34.6926 22.5919C28.9123 22.5919 23.1705 22.5919 17.3902 22.5919Z" fill="#0D6EFD"/>
<path d="M38.7266 28.9614C38.7266 23.8001 38.7266 18.6387 38.7266 13.4774C38.7266 12.2017 39.4202 11.5102 40.6919 11.5005C41.3084 11.5005 41.9154 11.5005 42.5319 11.5005C43.8036 11.5005 44.4973 12.1919 44.4973 13.4774C44.4973 22.1738 44.4973 30.8701 44.4973 39.5665C44.4973 41.2415 44.4973 42.9165 44.4973 44.5915C44.4973 45.7699 43.7747 46.4905 42.5994 46.4905C41.9346 46.4905 41.2795 46.4905 40.6148 46.4905C39.4395 46.4905 38.7266 45.7699 38.7266 44.5915C38.7266 39.3815 38.7266 34.1714 38.7266 28.9614ZM39.9115 32.5159C39.9115 33.6943 39.9115 34.8337 39.9115 35.9731C41.0676 35.9731 42.2044 35.9731 43.3316 35.9731C43.3316 34.8044 43.3316 33.6748 43.3316 32.5159C42.1851 32.5159 41.058 32.5159 39.9115 32.5159ZM39.9115 37.1806C39.9115 38.359 39.9115 39.4983 39.9115 40.6377C41.0676 40.6377 42.2044 40.6377 43.3316 40.6377C43.3316 39.4691 43.3316 38.3395 43.3316 37.1806C42.1851 37.1806 41.058 37.1806 39.9115 37.1806ZM43.3412 41.855C42.1659 41.855 41.0291 41.855 39.8826 41.855C39.8826 42.8386 39.873 43.793 39.8826 44.7571C39.8826 45.1077 40.1042 45.3219 40.451 45.3316C41.2217 45.3414 41.9828 45.3414 42.7535 45.3316C43.1003 45.3219 43.3219 45.1077 43.3219 44.7571C43.3508 43.793 43.3412 42.8386 43.3412 41.855Z" fill="#D13731" fill-opacity="0.8"/>
<path d="M33.5312 35.7209C33.5312 37.8926 33.5312 40.0642 33.5312 42.2456C33.5312 43.4532 32.8183 44.1641 31.6237 44.1641C27.8954 44.1641 24.1767 44.1641 20.4484 44.1641C19.2345 44.1641 18.5312 43.4435 18.5312 42.2164C18.5312 37.8829 18.5312 33.5493 18.5312 29.206C18.5312 27.9497 19.2345 27.2485 20.4773 27.2485C24.1767 27.2485 27.8761 27.2485 31.5755 27.2485C32.8375 27.2485 33.5216 27.9497 33.5312 29.2352C33.5312 31.3971 33.5312 33.559 33.5312 35.7209Z" fill="#0D6EFD"/>
</svg>
