<svg width="59" height="58" viewBox="0 0 59 58" fill="none" xmlns="http://www.w3.org/2000/svg">
<path d="M34.144 39.8939C34.1857 39.8834 34.2066 39.873 34.2066 39.8834C34.9056 40.4157 35.542 40.1861 36.2097 39.7895C36.6688 39.5182 37.1592 39.1425 37.6391 39.1425C38.1086 39.1425 38.5676 39.5599 39.0371 39.7791C40.2891 40.3843 39.9135 40.4052 41.176 39.7895C41.6663 39.5495 42.1567 39.1425 42.647 39.1425C43.127 39.1425 43.6278 39.5182 44.0764 39.8104C44.7858 40.28 45.4536 40.3113 46.1526 39.8104C46.3926 39.6434 46.6743 39.5495 46.9873 39.4034C46.9873 40.353 46.9873 41.2505 46.9873 42.148C46.9873 43.1499 46.9873 44.1518 46.9873 45.1536C46.9873 45.9885 46.476 46.4999 45.6518 46.4999C34.8743 46.4999 24.0968 46.4999 13.3192 46.4999C12.568 46.4999 12.0151 45.9989 12.0046 45.2893C11.9942 43.3482 12.0046 41.4071 12.0046 39.3929C12.422 39.5912 12.8184 39.7478 13.1627 39.9669C13.6635 40.2904 14.1121 40.2695 14.6129 39.9565C15.0407 39.6956 15.5206 39.5077 15.9693 39.2677C16.251 39.1112 16.4909 39.0903 16.7935 39.2573C17.3465 39.5703 17.9203 39.8625 18.5045 40.1026C18.7236 40.1965 19.0471 40.1965 19.2662 40.1026C19.913 39.8312 20.5182 39.4764 21.1546 39.1842C21.2798 39.1216 21.4884 39.132 21.6136 39.1842C22.177 39.4451 22.7509 39.706 23.283 40.0191C23.7107 40.2696 24.0863 40.2695 24.4828 40.0086C24.5871 39.9356 24.7123 39.9043 24.8375 39.8521C25.4009 42.9829 27.7484 44.0578 29.689 43.9848C31.8069 43.9222 33.7266 42.5237 34.144 39.8939ZM15.7606 42.7533C16.4388 42.7533 17.0022 42.1898 17.0022 41.5114C17.0022 40.8331 16.4492 40.2696 15.771 40.2591C15.072 40.2487 14.4982 40.8227 14.5086 41.5219C14.519 42.2002 15.0824 42.7533 15.7606 42.7533ZM21.9997 41.5114C21.9997 40.8331 21.4467 40.2696 20.7686 40.2591C20.0695 40.2487 19.4957 40.8227 19.5061 41.5219C19.5166 42.2002 20.08 42.7638 20.7581 42.7638C21.4363 42.7533 21.9997 42.1898 21.9997 41.5114ZM19.5061 43.9952C19.4957 43.3169 18.9427 42.7638 18.2541 42.7638C17.5551 42.7638 16.9917 43.3482 17.0126 44.0474C17.0335 44.7257 17.6073 45.2788 18.2854 45.2684C18.9532 45.2475 19.5061 44.6736 19.5061 43.9952ZM23.2621 42.7533C22.5735 42.7533 22.0205 43.296 22.0101 43.9848C21.9997 44.6631 22.5526 45.2371 23.2308 45.2475C23.9194 45.258 24.5036 44.6944 24.5036 43.9952C24.5036 43.3169 23.9403 42.7638 23.2621 42.7533ZM38.2651 42.7533C38.9432 42.7429 39.5066 42.1793 39.4962 41.501C39.4962 40.8122 38.9328 40.2591 38.2546 40.2591C37.5556 40.2591 36.9922 40.8331 37.0027 41.5323C37.0131 42.2107 37.5869 42.7638 38.2651 42.7533ZM43.2417 42.7533C43.9199 42.7533 44.4833 42.1898 44.4937 41.5114C44.5042 40.8227 43.9512 40.2591 43.273 40.2487C42.574 40.2382 42.0002 40.8122 42.0002 41.501C42.0002 42.1898 42.5636 42.7533 43.2417 42.7533ZM37.0027 44.0161C37.0131 43.3273 36.4601 42.7638 35.7715 42.7533C35.0725 42.7429 34.4987 43.3169 34.4987 44.0056C34.4987 44.684 35.0621 45.2475 35.7402 45.2475C36.4288 45.258 36.9922 44.6944 37.0027 44.0161ZM40.7378 42.7533C40.0596 42.7638 39.5066 43.3273 39.5066 44.0056C39.5066 44.684 40.07 45.2475 40.7482 45.2475C41.4368 45.2475 42.0106 44.6631 42.0002 43.9743C41.9793 43.296 41.4159 42.7533 40.7378 42.7533Z" fill="#0D6EFD"/>
<path d="M26.5427 33.9248C26.2819 31.9628 25.7081 29.6565 23.9135 27.8406C22.5781 26.4839 21.2739 25.1064 19.9593 23.7288C19.396 23.1444 19.3542 22.4034 19.8654 21.8816C20.3662 21.3598 21.107 21.3807 21.7121 21.9338C23.5484 23.6244 25.3951 25.3151 27.2313 27.0161C29.1823 28.832 30.5491 31.034 31.415 33.5595C31.8845 34.9371 32.4792 36.2729 32.9905 37.6296C33.6164 39.2681 33.1052 41.0526 31.7698 42.0336C30.4969 42.9624 28.7128 42.9937 27.4087 42.1067C26.0837 41.1987 25.4785 39.5811 25.9063 38.0262C26.2297 36.8365 26.5427 35.6363 26.5427 33.9248Z" fill="#0D6EFD"/>
<path d="M40.4138 24.8974C36.6891 27.7047 32.0359 26.5463 29.7614 23.5199C27.487 20.5039 27.8104 16.2773 30.5231 13.6265C33.2357 10.9758 37.482 10.7775 40.4555 13.1778C43.3664 15.5154 44.3471 20.0238 41.5927 23.7182C41.9057 23.9999 42.2292 24.3026 42.563 24.5739C42.636 24.6261 42.7821 24.6157 42.8864 24.5948C43.3872 24.4696 43.815 24.5844 44.1697 24.9496C44.9209 25.701 45.6826 26.4524 46.4337 27.2142C47.1641 27.9656 47.1641 29.0301 46.465 29.7398C45.7556 30.4598 44.681 30.439 43.9193 29.698C43.1786 28.9675 42.4483 28.2265 41.7075 27.496C41.3215 27.1099 41.1858 26.682 41.3215 26.1498C41.3528 26.0454 41.3006 25.868 41.2276 25.7845C40.9876 25.461 40.7059 25.1897 40.4138 24.8974ZM29.5006 18.9802C29.4902 22.4345 32.2863 25.2523 35.7397 25.2523C39.1722 25.2523 41.9892 22.4763 41.9996 19.0428C42.0205 15.5781 39.2244 12.7603 35.7814 12.7499C32.3176 12.7395 29.511 15.5259 29.5006 18.9802Z" fill="#D13731" fill-opacity="0.8"/>
<path d="M18.8667 34.0085C20.6925 34.0085 22.5079 34.0085 24.3337 34.0085C25.4187 34.0085 25.9717 34.7704 25.6483 35.8035C25.3874 36.628 25.1579 37.4733 24.8762 38.2978C24.824 38.4439 24.605 38.5378 24.4589 38.6526C24.0833 38.9344 23.7286 38.9135 23.3321 38.6735C22.8522 38.3812 22.3305 38.1725 21.8401 37.9116C21.5376 37.7446 21.2663 37.7446 20.9533 37.9116C20.3586 38.2351 19.7535 38.5273 19.1379 38.8091C19.0023 38.8717 18.7832 38.8717 18.6476 38.8091C18.0216 38.5273 17.406 38.2143 16.8009 37.8908C16.5192 37.7446 16.2688 37.7446 15.9871 37.8908C15.3924 38.2038 14.7873 38.5065 14.1717 38.7882C14.0257 38.8509 13.7961 38.8613 13.6501 38.7987C13.1806 38.6004 12.7319 38.3708 12.2937 38.1203C12.1685 38.0473 12.0433 37.8594 12.0329 37.7238C12.012 36.9202 12.012 36.1062 12.0225 35.3026C12.0329 34.5303 12.5546 34.019 13.3371 34.0085C15.1629 33.9981 17.02 34.0085 18.8667 34.0085Z" fill="#0D6EFD"/>
<path d="M40.1229 34.0087C41.9488 34.0087 43.7641 34.0087 45.59 34.0087C46.4872 34.0087 46.988 34.5097 46.9984 35.4072C46.9984 36.1794 47.0089 36.9413 46.988 37.7135C46.988 37.8596 46.8315 37.9953 46.748 38.131C46.7376 38.1518 46.7063 38.1518 46.675 38.1623C46.1638 38.4127 45.6526 38.8615 45.1413 38.8615C44.6301 38.8615 44.0876 38.4649 43.6076 38.1623C42.9191 37.724 42.3035 37.724 41.6358 38.1727C41.2497 38.4336 40.8115 38.6215 40.3838 38.7989C40.2377 38.8615 40.029 38.8615 39.8934 38.7989C39.2674 38.5171 38.6519 38.204 38.0467 37.8805C37.765 37.7344 37.5146 37.7344 37.2329 37.8805C36.6278 38.204 36.0123 38.5171 35.3863 38.7989C35.2506 38.8615 35.0524 38.8406 34.8959 38.7989C34.3742 38.6423 34.103 38.3188 33.9986 37.7344C33.8839 37.0769 33.5917 36.4508 33.3831 35.8037C33.0388 34.7706 33.5917 33.9983 34.6768 33.9983C36.4818 33.9983 38.3076 34.0087 40.1229 34.0087Z" fill="#0D6EFD"/>
<path d="M35.7423 13.9924C38.4863 13.9924 40.7398 16.2362 40.7398 18.9809C40.7398 21.7464 38.4863 24.0006 35.7215 24.0006C32.9775 23.9902 30.7344 21.736 30.7344 18.9913C30.7448 16.2466 32.988 14.0029 35.7423 13.9924ZM35.7423 16.4971C35.7423 15.8187 35.1894 15.2552 34.5112 15.2448C33.8122 15.2343 33.2384 15.8083 33.2488 16.5075C33.2592 17.1859 33.8226 17.7494 34.5008 17.739C35.1789 17.7494 35.7423 17.1859 35.7423 16.4971ZM39.4879 17.7285C39.4774 17.0502 38.914 16.4971 38.2359 16.4971C37.5368 16.4971 36.9734 17.0815 36.9943 17.7807C37.0152 18.4591 37.589 19.0122 38.2672 19.0017C38.9453 18.9809 39.4983 18.4069 39.4879 17.7285ZM33.2488 21.4959C33.9269 21.4959 34.4903 20.9324 34.4903 20.2541C34.4903 19.5757 33.9374 19.0122 33.2592 19.0017C32.5602 18.9913 31.9864 19.5653 31.9968 20.2645C32.0072 20.9428 32.5706 21.4959 33.2488 21.4959ZM37.0047 20.2541C36.3162 20.2436 35.7528 20.7967 35.7423 21.4751C35.7319 22.1534 36.2849 22.7274 36.963 22.7483C37.6516 22.7691 38.2463 22.1952 38.2463 21.4959C38.2359 20.8176 37.6829 20.2541 37.0047 20.2541Z" fill="#0D6EFD"/>
</svg>
