<svg width="59" height="58" viewBox="0 0 59 58" fill="none" xmlns="http://www.w3.org/2000/svg">
<path d="M14.5 31.9812C14.6018 31.3779 14.6723 30.7668 14.8054 30.1713C15.7686 25.8543 19.4569 22.3677 23.8031 21.6626C26.8101 21.169 29.5822 21.7566 32.1194 23.4568C32.1586 23.4803 32.2056 23.5116 32.2447 23.5351C32.2525 23.543 32.2604 23.5351 32.2369 23.5351C34.1711 21.5999 36.0975 19.6725 38.0161 17.7451C36.4577 17.7451 34.8837 17.7451 33.2862 17.7451C33.2862 16.4837 33.2862 15.2536 33.2862 14C37.0215 14 40.7569 14 44.5 14C44.5 17.7373 44.5 21.4667 44.5 25.2196C43.2706 25.2196 42.0333 25.2196 40.7647 25.2196C40.7647 23.637 40.7647 22.0543 40.7647 20.4638C38.8305 22.3991 36.9197 24.3186 34.9699 26.2695C34.9933 26.3009 35.0482 26.3949 35.103 26.4732C39.6449 33.1799 35.6511 42.4879 27.6637 43.8276C27.28 43.8903 26.8962 43.9452 26.5125 44C26.0035 44 25.4945 44 24.9855 44C24.6018 43.9452 24.2181 43.8981 23.8344 43.8276C19.3865 43.0833 15.7686 39.6594 14.7897 35.2562C14.6644 34.6764 14.594 34.0888 14.5 33.5012C14.5 32.9997 14.5 32.4905 14.5 31.9812ZM18.251 32.7177C18.2353 36.8545 21.5791 40.2314 25.7138 40.2471C29.8641 40.2706 33.2392 36.9172 33.2549 32.7647C33.2706 28.6278 29.9268 25.251 25.7921 25.2353C21.6496 25.2196 18.2666 28.573 18.251 32.7177Z" fill="#0D6EFD"/>
</svg>
