<svg width="59" height="58" viewBox="0 0 59 58" fill="none" xmlns="http://www.w3.org/2000/svg">
<path d="M12.0183 37.5359C13.2598 37.5541 14.2913 38.1019 15.332 38.7409C16.9934 39.7542 18.7187 39.7268 20.4075 38.7317C21.1469 38.2936 21.859 37.7824 22.7353 37.6454C23.9494 37.4629 25.1088 37.5907 26.186 38.2479C26.7702 38.6039 27.3453 38.9965 27.9843 39.2064C29.3354 39.6629 30.6773 39.5442 31.9279 38.823C32.2292 38.6496 32.5213 38.4396 32.8225 38.2662C34.4931 37.3168 36.1819 37.3077 37.8433 38.2662C38.5553 38.677 39.2035 39.179 40.0342 39.3434C41.3487 39.599 42.5902 39.4712 43.7404 38.7317C44.4707 38.2662 45.1828 37.7732 46.0682 37.6546C46.3604 37.6089 46.6525 37.5907 46.9902 37.5633C46.9902 40.5666 46.9902 43.5334 46.9902 46.5003C35.3238 46.5003 23.6665 46.5003 12 46.5003C12.0183 43.506 12.0183 40.521 12.0183 37.5359ZM24.2507 42.6845C24.8167 42.6845 25.2731 42.228 25.2731 41.6621C25.2731 41.0961 24.8075 40.6396 24.2507 40.6488C23.6847 40.6488 23.2283 41.1052 23.2283 41.6712C23.2283 42.228 23.6847 42.6845 24.2507 42.6845ZM35.196 42.6845C35.762 42.6753 36.2184 42.2098 36.2093 41.6529C36.2001 41.0869 35.7346 40.6396 35.1686 40.6488C34.6026 40.6579 34.1553 41.1235 34.1644 41.6803C34.1644 42.2372 34.63 42.6845 35.196 42.6845ZM17.678 44.7293C18.244 44.7384 18.7096 44.282 18.7187 43.7251C18.7278 43.1592 18.2714 42.7027 17.7054 42.6936C17.1486 42.6845 16.683 43.1409 16.6739 43.6977C16.6556 44.2637 17.1121 44.7293 17.678 44.7293ZM29.4997 44.7293C30.0657 44.7384 30.5312 44.282 30.5312 43.7251C30.5403 43.1592 30.0839 42.7027 29.5179 42.6936C28.9611 42.6845 28.4955 43.1409 28.4864 43.6977C28.4773 44.2637 28.9337 44.7293 29.4997 44.7293ZM41.3213 44.7293C41.8873 44.7293 42.3529 44.282 42.3529 43.7251C42.3529 43.1592 41.8964 42.7027 41.3396 42.7027C40.7736 42.7027 40.3172 43.15 40.308 43.716C40.308 44.2637 40.7645 44.7293 41.3213 44.7293Z" fill="#0D6EFD"/>
<path d="M12.0156 32.8249C16.5161 32.8249 21.0074 32.8249 25.5535 32.8249C25.097 32.1038 25.4257 31.6017 25.9369 31.1087C27.2605 29.8216 28.5477 28.5071 29.8531 27.2108C29.4514 26.3253 29.4879 26.1245 30.1817 25.4398C30.6199 25.0016 31.0581 24.5726 31.4871 24.1435C31.3958 23.9427 31.2954 23.7601 31.2498 23.5684C31.1676 23.2398 31.2498 22.9203 31.4962 22.683C32.6647 21.5054 33.8514 20.3369 34.9925 19.1958C36.4257 20.629 37.868 22.0713 39.356 23.5593C39.2556 23.6415 39.1004 23.7601 38.9726 23.8971C38.005 24.8647 37.0373 25.8324 36.0697 26.7909C35.4672 27.3934 35.1568 27.439 34.3991 27.0191C33.9336 27.4846 33.4589 27.9593 32.9842 28.434C32.4091 29.0091 32.0622 29.0548 31.3776 28.6714C29.9991 30.0498 28.6298 31.4191 27.2331 32.8158C33.8058 32.8158 40.3876 32.8158 46.9876 32.8158C46.9876 33.7287 46.9876 34.5959 46.9876 35.4814C46.5129 35.5361 46.0291 35.5818 45.5453 35.6639C44.5046 35.8374 43.6009 36.3577 42.7428 36.942C42.049 37.4166 41.2822 37.5171 40.488 37.3254C40.1502 37.2432 39.8307 37.0698 39.5386 36.8872C38.6166 36.2938 37.6581 35.7826 36.5535 35.6183C34.7278 35.3536 33.0207 35.6366 31.478 36.6955C30.8755 37.1063 30.2639 37.444 29.497 37.4166C28.9585 37.3984 28.4655 37.2797 28.0091 36.9876C27.1327 36.4125 26.2381 35.8739 25.1792 35.6822C23.39 35.3536 21.692 35.5361 20.1219 36.5129C19.8572 36.6772 19.6016 36.8415 19.3368 36.9967C18.3509 37.581 17.3468 37.5992 16.37 36.9876C15.4571 36.4216 14.5534 35.8465 13.4762 35.6639C12.9924 35.5818 12.5086 35.5453 12.0248 35.4905C12.0156 34.5959 12.0156 33.7104 12.0156 32.8249Z" fill="#0D6EFD"/>
<path d="M44.1928 15.8365C43.289 16.7403 42.4309 17.5984 41.5363 18.5021C41.7371 18.6938 41.9836 18.8946 42.2027 19.1229C42.6591 19.5884 42.6591 20.1727 42.2118 20.6382C41.7919 21.0673 41.3629 21.4963 40.9338 21.9162C40.9064 21.9436 40.8791 21.9528 40.8791 21.9528C39.4367 20.5104 38.0035 19.0681 36.5703 17.644C37.0267 17.1785 37.4923 16.649 38.0126 16.1743C38.3869 15.8274 38.9529 15.8913 39.3454 16.2656C39.5828 16.4938 39.811 16.7403 40.0118 16.9502C40.8882 16.0739 41.7463 15.2158 42.6409 14.3212C42.3031 13.9834 41.9288 13.6274 41.5728 13.244C41.0069 12.6415 41.2807 11.7104 42.0749 11.5278C42.4309 11.4456 42.7596 11.5461 43.0152 11.8017C44.2475 13.0249 45.4708 14.239 46.6849 15.4714C47.1048 15.9004 47.0957 16.5121 46.7031 16.9137C46.3015 17.3245 45.6807 17.3336 45.2334 16.9137C44.8774 16.5668 44.5397 16.1926 44.1928 15.8365Z" fill="#D13731" fill-opacity="0.8"/>
</svg>
