<svg xmlns="http://www.w3.org/2000/svg" viewBox="0 0 45 45">
<path d="M0,22.5c0-6,2.4-11.7,6.6-15.9C10.8,2.4,16.5,0,22.5,0c6,0,11.7,2.4,15.9,6.6c4.2,4.2,6.6,9.9,6.6,15.9s-2.4,11.7-6.6,15.9S28.5,45,22.5,45s-11.7-2.4-15.9-6.6C2.4,34.2,0,28.5,0,22.5z M21.1,32.3c0,0.4,0.1,0.7,0.4,1c0.3,0.3,0.6,0.4,1,0.4s0.7-0.1,1-0.4c0.3-0.3,0.4-0.6,0.4-1l0-16.3l6,6c0.3,0.3,0.6,0.4,1,0.4s0.7-0.1,1-0.4c0.3-0.3,0.4-0.6,0.4-1c0-0.4-0.1-0.7-0.4-1l-8.4-8.4c-0.1-0.1-0.3-0.2-0.5-0.3c-0.2-0.1-0.4-0.1-0.5-0.1s-0.4,0-0.5,0.1c-0.2,0.1-0.3,0.2-0.5,0.3l-8.4,8.4c-0.3,0.3-0.4,0.6-0.4,1c0,0.4,0.1,0.7,0.4,1c0.3,0.3,0.6,0.4,1,0.4s0.7-0.1,1-0.4l6-6L21.1,32.3z"/>
</svg>
