<svg xmlns="http://www.w3.org/2000/svg" viewBox="0 0 30 30">
<path d="M10,7.7c0-1,0.4-1.9,1-2.6S12.6,4,13.6,4c0.9,0,1.9,0.4,2.5,1.1s1,1.6,1,2.6v13.2c0,0.6-0.2,1.1-0.6,1.6c-0.4,0.4-0.9,0.6-1.5,0.6s-1.1-0.2-1.5-0.6c-0.4-0.4-0.6-1-0.6-1.6V10.6c0-0.2,0.1-0.4,0.2-0.5c0.1-0.1,0.3-0.2,0.5-0.2c0.2,0,0.4,0.1,0.5,0.2c0.1,0.1,0.2,0.3,0.2,0.5v10.3c0,0.2,0.1,0.4,0.2,0.5c0.1,0.1,0.3,0.2,0.5,0.2c0.2,0,0.4-0.1,0.5-0.2c0.1-0.1,0.2-0.3,0.2-0.5V7.7c0-0.3-0.1-0.6-0.2-0.8c-0.1-0.3-0.3-0.5-0.5-0.7c-0.2-0.2-0.4-0.4-0.7-0.5c-0.3-0.1-0.5-0.2-0.8-0.2c-0.3,0-0.6,0.1-0.8,0.2s-0.5,0.3-0.7,0.5c-0.2,0.2-0.4,0.4-0.5,0.7c-0.1,0.3-0.2,0.6-0.2,0.8v13.2c0,1,0.4,1.9,1,2.6c0.7,0.7,1.6,1.1,2.5,1.1c0.9,0,1.9-0.4,2.5-1.1c0.7-0.7,1-1.6,1-2.6V10.6c0-0.2,0.1-0.4,0.2-0.5c0.1-0.1,0.3-0.2,0.5-0.2c0.2,0,0.4,0.1,0.5,0.2c0.1,0.1,0.2,0.3,0.2,0.5v10.3c0,1.4-0.5,2.7-1.5,3.6S16.3,26,15,26s-2.6-0.5-3.5-1.5c-0.9-1-1.5-2.3-1.5-3.6V7.7z"/>
</svg>
