<svg width="40" height="40" viewBox="0 0 40 40" xmlns="http://www.w3.org/2000/svg">
<path fill-rule="evenodd" clip-rule="evenodd" d="M35 26.25C35 25.9185 34.8683 25.6005 34.6339 25.3661C34.3995 25.1317 34.0815 25 33.75 25H26.25C25.9185 25 25.6005 25.1317 25.3661 25.3661C25.1317 25.6005 25 25.9185 25 26.25C25 26.5815 25.1317 26.8995 25.3661 27.1339C25.6005 27.3683 25.9185 27.5 26.25 27.5H33.75C34.0815 27.5 34.3995 27.3683 34.6339 27.1339C34.8683 26.8995 35 26.5815 35 26.25ZM35 18.75C35 18.4185 34.8683 18.1005 34.6339 17.8661C34.3995 17.6317 34.0815 17.5 33.75 17.5H16.25C15.9185 17.5 15.6005 17.6317 15.3661 17.8661C15.1317 18.1005 15 18.4185 15 18.75C15 19.0815 15.1317 19.3995 15.3661 19.6339C15.6005 19.8683 15.9185 20 16.25 20H33.75C34.0815 20 34.3995 19.8683 34.6339 19.6339C34.8683 19.3995 35 19.0815 35 18.75ZM35 11.25C35 10.9185 34.8683 10.6005 34.6339 10.3661C34.3995 10.1317 34.0815 10 33.75 10H6.25C5.91848 10 5.60054 10.1317 5.36612 10.3661C5.13169 10.6005 5 10.9185 5 11.25C5 11.5815 5.13169 11.8995 5.36612 12.1339C5.60054 12.3683 5.91848 12.5 6.25 12.5H33.75C34.0815 12.5 34.3995 12.3683 34.6339 12.1339C34.8683 11.8995 35 11.5815 35 11.25Z"/>
</svg>
