<svg width="21" height="21" viewBox="0 0 21 21" xmlns="http://www.w3.org/2000/svg">
<path fill-rule="evenodd" clip-rule="evenodd" d="M2.90627 6.30862C2.96433 6.25041 3.0333 6.20423 3.10923 6.17273C3.18516 6.14122 3.26656 6.125 3.34877 6.125C3.43098 6.125 3.51238 6.14122 3.58832 6.17273C3.66425 6.20423 3.73322 6.25041 3.79127 6.30862L10.8488 13.3674L17.9063 6.30862C17.9644 6.25051 18.0334 6.20441 18.1093 6.17296C18.1852 6.14151 18.2666 6.12533 18.3488 6.12533C18.431 6.12533 18.5123 6.14151 18.5883 6.17296C18.6642 6.20441 18.7332 6.25051 18.7913 6.30862C18.8494 6.36673 18.8955 6.43571 18.9269 6.51164C18.9584 6.58756 18.9746 6.66894 18.9746 6.75112C18.9746 6.8333 18.9584 6.91467 18.9269 6.9906C18.8955 7.06652 18.8494 7.13551 18.7913 7.19362L11.2913 14.6936C11.2332 14.7518 11.1642 14.798 11.0883 14.8295C11.0124 14.861 10.931 14.8772 10.8488 14.8772C10.7666 14.8772 10.6852 14.861 10.6092 14.8295C10.5333 14.798 10.4643 14.7518 10.4063 14.6936L2.90627 7.19362C2.84807 7.13556 2.80189 7.06659 2.77038 6.99066C2.73887 6.91473 2.72266 6.83333 2.72266 6.75112C2.72266 6.66891 2.73887 6.58751 2.77038 6.51157C2.80189 6.43564 2.84807 6.36667 2.90627 6.30862Z"/>
</svg>
