<svg xmlns="http://www.w3.org/2000/svg" viewBox="0 0 20 20">
<path d="M10,18.8c-2.3,0-4.5-0.9-6.2-2.6c-1.6-1.6-2.6-3.9-2.6-6.2c0-2.3,0.9-4.5,2.6-6.2C5.5,2.2,7.7,1.3,10,1.3c2.3,0,4.5,0.9,6.2,2.6c1.6,1.6,2.6,3.9,2.6,6.2c0,2.3-0.9,4.5-2.6,6.2C14.5,17.8,12.3,18.8,10,18.8z M10,20c2.7,0,5.2-1.1,7.1-2.9c1.9-1.9,2.9-4.4,2.9-7.1c0-2.7-1.1-5.2-2.9-7.1C15.2,1.1,12.7,0,10,0C7.3,0,4.8,1.1,2.9,2.9C1.1,4.8,0,7.3,0,10c0,2.7,1.1,5.2,2.9,7.1C4.8,18.9,7.3,20,10,20z"/>
<path d="M11.5,8.2L8.6,8.5L8.5,9l0.6,0.1c0.4,0.1,0.4,0.2,0.4,0.6L8.5,14c-0.2,1.1,0.1,1.6,1,1.6c0.7,0,1.5-0.3,1.8-0.7l0.1-0.5c-0.3,0.2-0.6,0.3-0.9,0.3c-0.3,0-0.5-0.2-0.4-0.7L11.5,8.2z M11.6,5.6c0,0.3-0.1,0.6-0.4,0.9c-0.2,0.2-0.6,0.4-0.9,0.4c-0.3,0-0.6-0.1-0.9-0.4C9.2,6.2,9.1,5.9,9.1,5.6s0.1-0.6,0.4-0.9c0.2-0.2,0.6-0.4,0.9-0.4c0.3,0,0.6,0.1,0.9,0.4C11.4,4.9,11.6,5.2,11.6,5.6z"/>
</svg>
