<svg width="20" height="20" viewBox="0 0 20 20" fill="none" xmlns="http://www.w3.org/2000/svg">
<path d="M7.49906 0.625C7.49906 0.45924 7.56491 0.300269 7.68212 0.183058C7.79933 0.065848 7.9583 0 8.12406 0L11.8741 0C12.0398 0 12.1988 0.065848 12.316 0.183058C12.4332 0.300269 12.4991 0.45924 12.4991 0.625C12.4991 0.79076 12.4332 0.949732 12.316 1.06694C12.1988 1.18415 12.0398 1.25 11.8741 1.25H11.2491V2.5875C12.9513 2.83322 14.5434 3.57509 15.8265 4.72042C17.1096 5.86575 18.0267 7.36377 18.4633 9.02732C18.9 10.6909 18.8367 12.4462 18.2815 14.074C17.7263 15.7018 16.7037 17.13 15.3416 18.18L16.0928 18.9325C16.2102 19.0497 16.2762 19.2087 16.2763 19.3746C16.2764 19.5404 16.2106 19.6995 16.0934 19.8169C15.9762 19.9342 15.8172 20.0002 15.6514 20.0003C15.4855 20.0005 15.3264 19.9347 15.2091 19.8175L14.2766 18.885C12.9703 19.6182 11.497 20.0022 9.99906 20C8.50109 20.0022 7.02783 19.6182 5.72156 18.885L4.78906 19.8175C4.73095 19.8755 4.66198 19.9215 4.58609 19.9529C4.5102 19.9843 4.42887 20.0004 4.34675 20.0003C4.26463 20.0003 4.18332 19.9841 4.10747 19.9526C4.03162 19.9211 3.96272 19.875 3.90469 19.8169C3.84666 19.7588 3.80065 19.6898 3.76927 19.6139C3.7379 19.538 3.72178 19.4567 3.72184 19.3746C3.72196 19.2087 3.78796 19.0497 3.90531 18.9325L4.65781 18.18C3.29567 17.1301 2.27309 15.702 1.71782 14.0743C1.16255 12.4466 1.09919 10.6913 1.53568 9.0278C1.97216 7.36428 2.88913 5.86625 4.17204 4.72084C5.45494 3.57543 7.04691 2.83342 8.74906 2.5875V1.25H8.12406C7.9583 1.25 7.79933 1.18415 7.68212 1.06694C7.56491 0.949732 7.49906 0.79076 7.49906 0.625ZM10.6241 6.875C10.6241 6.70924 10.5582 6.55027 10.441 6.43306C10.3238 6.31585 10.1648 6.25 9.99906 6.25C9.8333 6.25 9.67433 6.31585 9.55712 6.43306C9.43991 6.55027 9.37406 6.70924 9.37406 6.875V11.0775L7.58781 14.0525C7.50245 14.1947 7.47707 14.365 7.51728 14.526C7.55748 14.6869 7.65997 14.8253 7.80219 14.9106C7.94441 14.996 8.11472 15.0214 8.27565 14.9812C8.43658 14.941 8.57495 14.8385 8.66031 14.6962L10.5353 11.5712C10.5934 11.4742 10.6241 11.3631 10.6241 11.25V6.875ZM1.07406 6.73375C0.750638 6.45242 0.48855 6.10756 0.304099 5.72061C0.119648 5.33366 0.0167782 4.9129 0.00188643 4.4845C-0.0130053 4.0561 0.0603997 3.62921 0.217537 3.23039C0.374673 2.83157 0.612182 2.46934 0.915291 2.16623C1.2184 1.86312 1.58063 1.62561 1.97945 1.46847C2.37827 1.31134 2.80516 1.23793 3.23356 1.25282C3.66197 1.26771 4.08272 1.37058 4.46967 1.55504C4.85662 1.73949 5.20148 2.00157 5.48281 2.325C3.58275 3.28968 2.03875 4.83369 1.07406 6.73375ZM14.5153 2.325C14.7966 2.00157 15.1415 1.73949 15.5285 1.55504C15.9154 1.37058 16.3362 1.26771 16.7646 1.25282C17.193 1.23793 17.6199 1.31134 18.0187 1.46847C18.4175 1.62561 18.7797 1.86312 19.0828 2.16623C19.3859 2.46934 19.6235 2.83157 19.7806 3.23039C19.9377 3.62921 20.0111 4.0561 19.9962 4.4845C19.9813 4.9129 19.8785 5.33366 19.694 5.72061C19.5096 6.10756 19.2475 6.45242 18.9241 6.73375C17.9594 4.83369 16.4154 3.28968 14.5153 2.325Z"/>
</svg>
