<svg xmlns="http://www.w3.org/2000/svg" viewBox="0 0 40 40">
<g>
	<path d="M11,12.4L11,12.4l7.5,7.5L11,27.5l0,0c-0.1,0.1-0.2,0.2-0.2,0.3c-0.1,0.1-0.1,0.3-0.1,0.4s0,0.3,0.1,0.4c0.1,0.2,0.1,0.3,0.2,0.4l0,0c0.1,0.1,0.2,0.2,0.3,0.2c0.1,0.1,0.3,0.1,0.4,0.1s0.3,0,0.4-0.1c0.1-0.1,0.2-0.1,0.3-0.2l0,0l7.5-7.5l7.5,7.5l0,0c0.1,0.1,0.2,0.2,0.3,0.2c0.1,0.1,0.3,0.1,0.4,0.1s0.3,0,0.4-0.1s0.2-0.1,0.3-0.2l-0.2-0.2L29,29c0.1-0.1,0.2-0.2,0.2-0.3c0.1-0.1,0.1-0.3,0.1-0.4s0-0.3-0.1-0.4s-0.1-0.2-0.2-0.3l0,0L21.4,20l7.6-7.5l0,0c0.1-0.1,0.2-0.2,0.2-0.3c0.1-0.1,0.1-0.3,0.1-0.4c0-0.1,0-0.3-0.1-0.4c-0.1-0.2-0.1-0.3-0.2-0.4l0,0c-0.1-0.1-0.2-0.2-0.3-0.2c-0.1-0.1-0.3-0.1-0.4-0.1s-0.3,0-0.4,0.1c-0.2,0.1-0.3,0.2-0.4,0.2l0,0L20,18.6l-7.5-7.6l0,0c-0.1,0-0.2-0.1-0.4-0.2c-0.1,0-0.2,0-0.4,0s-0.3,0-0.4,0.1c-0.1,0-0.2,0.1-0.3,0.1c-0.1,0.1-0.1,0.2-0.2,0.4c0,0.1-0.1,0.2-0.1,0.4c0,0.1,0,0.3,0.1,0.4C10.9,12.3,10.9,12.4,11,12.4z"/>
	<path d="M28.3,29.5c-0.2,0-0.3,0-0.5-0.1s-0.3-0.2-0.4-0.3L20,21.8l-7.4,7.4c-0.1,0.1-0.3,0.2-0.4,0.3c-0.3,0.1-0.6,0.1-1,0c-0.2-0.1-0.3-0.2-0.4-0.3c-0.1-0.1-0.2-0.3-0.3-0.4c-0.1-0.1-0.1-0.3-0.1-0.5s0-0.3,0.1-0.5c0.1-0.2,0.2-0.3,0.3-0.4l7.4-7.4l-7.3-7.4c-0.2-0.1-0.2-0.2-0.3-0.4c-0.1-0.1-0.1-0.3-0.1-0.4c0-0.2,0-0.3,0.1-0.5c0.1-0.2,0.1-0.3,0.3-0.4c0.1-0.2,0.2-0.2,0.4-0.3c0.3-0.1,0.7-0.1,1,0c0.2,0.1,0.3,0.2,0.4,0.3l7.4,7.4l7.4-7.4c0.1-0.1,0.3-0.2,0.4-0.3c0.3-0.1,0.7-0.1,1,0c0.2,0.1,0.3,0.2,0.4,0.3c0.1,0.1,0.2,0.3,0.3,0.4c0.1,0.2,0.1,0.3,0.1,0.5s0,0.3-0.1,0.5s-0.2,0.3-0.3,0.4L21.8,20l7.4,7.4c0.1,0.1,0.2,0.3,0.3,0.4s0.1,0.3,0.1,0.5s0,0.3-0.1,0.5c0,0.1-0.1,0.1-0.1,0.2l0,0L29,29.3l0,0c-0.1,0-0.1,0.1-0.2,0.1C28.6,29.5,28.4,29.5,28.3,29.5z M20,21.1l7.7,7.7c0.1,0.1,0.2,0.1,0.2,0.2c0.2,0.1,0.4,0.1,0.6,0c0.1,0,0.2-0.1,0.2-0.2s0.1-0.2,0.2-0.2c0-0.1,0.1-0.2,0.1-0.3s0-0.2-0.1-0.3c0-0.1-0.1-0.2-0.2-0.2L21.1,20l7.7-7.7c0.1-0.1,0.1-0.2,0.2-0.2c0-0.2,0-0.3,0-0.3s0-0.2-0.1-0.3c0-0.1-0.1-0.2-0.2-0.2c-0.1-0.1-0.2-0.1-0.2-0.2c-0.1-0.1-0.4-0.1-0.5,0c-0.1,0-0.2,0.1-0.2,0.2L20,18.9l-7.7-7.7c-0.1-0.1-0.2-0.1-0.3-0.1c-0.1-0.1-0.4-0.1-0.5,0c-0.1,0-0.2,0.1-0.2,0.2c-0.2,0-0.2,0.1-0.2,0.2C11,11.6,11,11.6,11,11.8c0,0.1,0,0.1,0.1,0.2c0,0.1,0.1,0.2,0.2,0.2l7.7,7.7l-7.7,7.7c-0.1,0.1-0.1,0.2-0.2,0.2c-0.1,0-0.1,0.4-0.1,0.5s0,0.2,0.1,0.3c0.1,0.1,0.1,0.2,0.2,0.2c0.1,0.1,0.2,0.1,0.2,0.2c0.1,0,0.4,0,0.5-0.1c0.1,0,0.2-0.1,0.2-0.2L20,21.1z"/>
</g>
</svg>
