<svg xmlns="http://www.w3.org/2000/svg" viewBox="0 0 30 30">
<path d="M10.3,13.1c-0.2,0-0.5,0.1-0.7,0.3c-0.2,0.2-0.3,0.4-0.3,0.7s0.1,0.5,0.3,0.7c0.2,0.2,0.4,0.3,0.7,0.3h9.4c0.2,0,0.5-0.1,0.7-0.3c0.2-0.2,0.3-0.4,0.3-0.7s-0.1-0.5-0.3-0.7c-0.2-0.2-0.4-0.3-0.7-0.3H10.3z M9.4,17.8c0-0.2,0.1-0.5,0.3-0.7c0.2-0.2,0.4-0.3,0.7-0.3h9.4c0.2,0,0.5,0.1,0.7,0.3c0.2,0.2,0.3,0.4,0.3,0.7s-0.1,0.5-0.3,0.7c-0.2,0.2-0.4,0.3-0.7,0.3h-9.4c-0.2,0-0.5-0.1-0.7-0.3C9.5,18.3,9.4,18.1,9.4,17.8z M9.4,21.6c0-0.2,0.1-0.5,0.3-0.7c0.2-0.2,0.4-0.3,0.7-0.3h3.8c0.2,0,0.5,0.1,0.7,0.3c0.2,0.2,0.3,0.4,0.3,0.7s-0.1,0.5-0.3,0.7c-0.2,0.2-0.4,0.3-0.7,0.3h-3.8c-0.2,0-0.5-0.1-0.7-0.3C9.5,22,9.4,21.8,9.4,21.6z"/>
<path d="M17.8,0H7.5c-1,0-1.9,0.4-2.7,1.1C4.1,1.8,3.8,2.8,3.8,3.8v22.5c0,1,0.4,1.9,1.1,2.7C5.6,29.6,6.5,30,7.5,30h15c1,0,1.9-0.4,2.7-1.1c0.7-0.7,1.1-1.7,1.1-2.7V8.4L17.8,0z M17.8,1.9v3.8c0,0.7,0.3,1.5,0.8,2c0.5,0.5,1.2,0.8,2,0.8h3.8v17.8c0,0.5-0.2,1-0.5,1.3c-0.4,0.4-0.8,0.5-1.3,0.5h-15c-0.5,0-1-0.2-1.3-0.5c-0.4-0.4-0.5-0.8-0.5-1.3V3.8c0-0.5,0.2-1,0.5-1.3C6.5,2.1,7,1.9,7.5,1.9H17.8z"/>
</svg>
