<svg xmlns="http://www.w3.org/2000/svg" viewBox="0 0 30 30">
<path d="M9.7,20.3c0.2,0.2,0.4,0.3,0.7,0.3c0.2,0,0.5-0.1,0.7-0.3l7.7-7.7l0,5.7c0,0.1,0,0.2,0.1,0.4c0,0.1,0.1,0.2,0.2,0.3c0.1,0.1,0.2,0.2,0.3,0.2c0.1,0,0.2,0.1,0.4,0.1c0.1,0,0.2,0,0.4-0.1c0.1,0,0.2-0.1,0.3-0.2c0.1-0.1,0.2-0.2,0.2-0.3c0-0.1,0.1-0.2,0.1-0.4v-8c0-0.1,0-0.2-0.1-0.4c0-0.1-0.1-0.2-0.2-0.3S20.1,9.5,20,9.5c-0.1,0-0.2-0.1-0.4-0.1h-8c-0.2,0-0.5,0.1-0.7,0.3c-0.2,0.2-0.3,0.4-0.3,0.7c0,0.2,0.1,0.5,0.3,0.7c0.2,0.2,0.4,0.3,0.7,0.3l5.7,0L9.7,19c-0.2,0.2-0.3,0.4-0.3,0.7C9.4,19.9,9.5,20.1,9.7,20.3z"/>
</svg>
