<svg width="16" height="20" viewBox="0 0 16 20" fill="none" xmlns="http://www.w3.org/2000/svg">
<path fill-rule="evenodd" clip-rule="evenodd" d="M8 19.9902C8 19.9902 15.5 12.8827 15.5 7.49023C15.5 5.50111 14.7098 3.59346 13.3033 2.18693C11.8968 0.780411 9.98912 -0.00976563 8 -0.00976562C6.01088 -0.00976563 4.10322 0.780411 2.6967 2.18693C1.29018 3.59346 0.5 5.50111 0.5 7.49023C0.5 12.8827 8 19.9902 8 19.9902ZM8 11.2402C8.99456 11.2402 9.94839 10.8451 10.6517 10.1419C11.3549 9.43862 11.75 8.4848 11.75 7.49023C11.75 6.49567 11.3549 5.54185 10.6517 4.83858C9.94839 4.13532 8.99456 3.74023 8 3.74023C7.00544 3.74023 6.05161 4.13532 5.34835 4.83858C4.64509 5.54185 4.25 6.49567 4.25 7.49023C4.25 8.4848 4.64509 9.43862 5.34835 10.1419C6.05161 10.8451 7.00544 11.2402 8 11.2402Z" fill="#0D6EFD"/>
</svg>
