<svg width="24" height="24" viewBox="0 0 24 24" xmlns="http://www.w3.org/2000/svg">
<path d="M17.6124 15.5171C19.0648 13.5352 19.7154 11.0779 19.4338 8.63685C19.1523 6.19584 17.9595 3.95114 16.094 2.35182C14.2286 0.752509 11.828 -0.0834673 9.37265 0.0111424C6.91728 0.105752 4.58817 1.12397 2.8513 2.86209C1.11442 4.60021 0.0978694 6.93004 0.00501667 9.38548C-0.0878361 11.8409 0.749858 14.2409 2.35051 16.1052C3.95115 17.9695 6.19671 19.1607 8.63792 19.4405C11.0791 19.7203 13.536 19.068 15.5169 17.6141H15.5154C15.5604 17.6741 15.6084 17.7311 15.6624 17.7866L21.4374 23.5616C21.7187 23.8431 22.1002 24.0013 22.4981 24.0014C22.896 24.0016 23.2777 23.8436 23.5591 23.5624C23.8406 23.2811 23.9988 22.8996 23.9989 22.5017C23.9991 22.1038 23.8412 21.7221 23.5599 21.4406L17.7849 15.6656C17.7313 15.6113 17.6736 15.5612 17.6124 15.5156V15.5171ZM17.9994 9.75113C17.9994 10.8345 17.786 11.9073 17.3714 12.9083C16.9568 13.9092 16.3491 14.8187 15.583 15.5848C14.8169 16.3508 13.9075 16.9585 12.9065 17.3731C11.9056 17.7877 10.8328 18.0011 9.74939 18.0011C8.66599 18.0011 7.59319 17.7877 6.59226 17.3731C5.59132 16.9585 4.68185 16.3508 3.91576 15.5848C3.14968 14.8187 2.54199 13.9092 2.12739 12.9083C1.71279 11.9073 1.49939 10.8345 1.49939 9.75113C1.49939 7.56309 2.36859 5.46467 3.91576 3.9175C5.46294 2.37032 7.56136 1.50113 9.74939 1.50113C11.9374 1.50113 14.0358 2.37032 15.583 3.9175C17.1302 5.46467 17.9994 7.56309 17.9994 9.75113Z"/>
</svg>
