<svg width="16" height="16" viewBox="0 0 16 16" fill="none" xmlns="http://www.w3.org/2000/svg">
<path d="M12.6667 2.90909H10.6667V2.18182C10.6667 1.60316 10.456 1.04821 10.0809 0.63904C9.70581 0.229869 9.1971 0 8.66667 0H7.33333C6.8029 0 6.29419 0.229869 5.91912 0.63904C5.54405 1.04821 5.33333 1.60316 5.33333 2.18182V2.90909H3.33333C2.4496 2.91025 1.60237 3.29373 0.97748 3.97543C0.352588 4.65713 0.00105857 5.58139 0 6.54545L0 12.3636C0.00105857 13.3277 0.352588 14.252 0.97748 14.9337C1.60237 15.6154 2.4496 15.9988 3.33333 16H12.6667C13.5504 15.9988 14.3976 15.6154 15.0225 14.9337C15.6474 14.252 15.9989 13.3277 16 12.3636V6.54545C15.9989 5.58139 15.6474 4.65713 15.0225 3.97543C14.3976 3.29373 13.5504 2.91025 12.6667 2.90909ZM6.66667 2.18182C6.66667 1.98893 6.73691 1.80395 6.86193 1.66756C6.98695 1.53117 7.15652 1.45455 7.33333 1.45455H8.66667C8.84348 1.45455 9.01305 1.53117 9.13807 1.66756C9.2631 1.80395 9.33333 1.98893 9.33333 2.18182V2.90909H6.66667V2.18182ZM10 10.1818H8.66667V11.6364C8.66667 11.8292 8.59643 12.0142 8.47141 12.1506C8.34638 12.287 8.17681 12.3636 8 12.3636C7.82319 12.3636 7.65362 12.287 7.5286 12.1506C7.40357 12.0142 7.33333 11.8292 7.33333 11.6364V10.1818H6C5.82319 10.1818 5.65362 10.1052 5.5286 9.96881C5.40357 9.83241 5.33333 9.64743 5.33333 9.45455C5.33333 9.26166 5.40357 9.07668 5.5286 8.94029C5.65362 8.8039 5.82319 8.72727 6 8.72727H7.33333V7.27273C7.33333 7.07984 7.40357 6.89486 7.5286 6.75847C7.65362 6.62208 7.82319 6.54545 8 6.54545C8.17681 6.54545 8.34638 6.62208 8.47141 6.75847C8.59643 6.89486 8.66667 7.07984 8.66667 7.27273V8.72727H10C10.1768 8.72727 10.3464 8.8039 10.4714 8.94029C10.5964 9.07668 10.6667 9.26166 10.6667 9.45455C10.6667 9.64743 10.5964 9.83241 10.4714 9.96881C10.3464 10.1052 10.1768 10.1818 10 10.1818Z"/>
</svg>
