<svg xmlns="http://www.w3.org/2000/svg" viewBox="0 0 60 60">
<path d="M60,30c0,8-3.2,15.6-8.8,21.2S38,60,30,60s-15.6-3.2-21.2-8.8C3.2,45.6,0,38,0,30S3.2,14.4,8.8,8.8C14.4,3.2,22,0,30,0s15.6,3.2,21.2,8.8C56.8,14.4,60,22,60,30z M45.1,18.6c-0.3-0.3-0.6-0.5-0.9-0.6c-0.4-0.1-0.7-0.2-1.1-0.2c-0.4,0-0.8,0.1-1.1,0.2c-0.3,0.2-0.7,0.4-0.9,0.7L28,35.3l-7.8-7.9c-0.5-0.5-1.2-0.8-2-0.8c-0.7,0-1.4,0.3-1.9,0.8c-0.5,0.5-0.8,1.2-0.8,1.9c0,0.7,0.3,1.4,0.8,2l9.9,9.9c0.3,0.3,0.6,0.5,0.9,0.6c0.4,0.1,0.7,0.2,1.1,0.2c0.4,0,0.8-0.1,1.1-0.2c0.3-0.2,0.7-0.4,0.9-0.7l15-18.7c0.5-0.5,0.8-1.2,0.8-2S45.6,19.2,45.1,18.6L45.1,18.6z"/>
</svg>
