<svg xmlns="http://www.w3.org/2000/svg" viewBox="0 0 16 16">
	<path d="M6,3c0,0.8-0.3,1.6-0.9,2.1S3.8,6,3,6S1.4,5.7,0.9,5.1S0,3.8,0,3s0.3-1.6,0.9-2.1S2.2,0,3,0s1.6,0.3,2.1,0.9S6,2.2,6,3z"/>
	<path d="M9,6C8.2,6,7.4,5.7,6.9,5.1S6,3.8,6,3s0.3-1.6,0.9-2.1S8.2,0,9,0c0.8,0,1.6,0.3,2.1,0.9S12,2.2,12,3s-0.3,1.6-0.9,2.1S9.8,6,9,6z"/>
	<path d="M9,6h0.5c0.5,0,1,0.2,1.3,0.5c0.4,0.3,0.6,0.8,0.7,1.2l3.1-1.4c0.2-0.1,0.3-0.1,0.5-0.1c0.2,0,0.3,0.1,0.5,0.2c0.1,0.1,0.3,0.2,0.3,0.4C16,6.9,16,7.1,16,7.3v7.5c0,0.2,0,0.3-0.1,0.5c-0.1,0.1-0.2,0.3-0.3,0.4s-0.3,0.1-0.5,0.2c-0.2,0-0.3,0-0.5-0.1l-3.1-1.4c-0.1,0.5-0.3,0.9-0.7,1.2C10.5,15.8,10,16,9.5,16H2c-0.5,0-1-0.2-1.4-0.6C0.2,15,0,14.5,0,14V8c0-0.5,0.2-1,0.6-1.4C1,6.2,1.5,6,2,6H9z"/>
</svg>
