<svg aria-hidden="true" style="width: 0px; height: 0px; overflow: hidden; position: absolute;" xmlns="http://www.w3.org/2000/svg">
    <symbol id="burger_icon" viewBox="0 0 40 40">
      <path fill-rule="evenodd" clip-rule="evenodd" d="M35 26.25C35 25.9185 34.8683 25.6005 34.6339 25.3661C34.3995 25.1317 34.0815 25 33.75 25H26.25C25.9185 25 25.6005 25.1317 25.3661 25.3661C25.1317 25.6005 25 25.9185 25 26.25C25 26.5815 25.1317 26.8995 25.3661 27.1339C25.6005 27.3683 25.9185 27.5 26.25 27.5H33.75C34.0815 27.5 34.3995 27.3683 34.6339 27.1339C34.8683 26.8995 35 26.5815 35 26.25ZM35 18.75C35 18.4185 34.8683 18.1005 34.6339 17.8661C34.3995 17.6317 34.0815 17.5 33.75 17.5H16.25C15.9185 17.5 15.6005 17.6317 15.3661 17.8661C15.1317 18.1005 15 18.4185 15 18.75C15 19.0815 15.1317 19.3995 15.3661 19.6339C15.6005 19.8683 15.9185 20 16.25 20H33.75C34.0815 20 34.3995 19.8683 34.6339 19.6339C34.8683 19.3995 35 19.0815 35 18.75ZM35 11.25C35 10.9185 34.8683 10.6005 34.6339 10.3661C34.3995 10.1317 34.0815 10 33.75 10H6.25C5.91848 10 5.60054 10.1317 5.36612 10.3661C5.13169 10.6005 5 10.9185 5 11.25C5 11.5815 5.13169 11.8995 5.36612 12.1339C5.60054 12.3683 5.91848 12.5 6.25 12.5H33.75C34.0815 12.5 34.3995 12.3683 34.6339 12.1339C34.8683 11.8995 35 11.5815 35 11.25Z"/>
    </symbol>
    <symbol id="eye_icon" viewBox="0 0 24 24">
      <path d="M15.8,12c0,1-0.4,1.9-1.1,2.7c-0.7,0.7-1.7,1.1-2.7,1.1c-1,0-1.9-0.4-2.7-1.1C8.6,13.9,8.2,13,8.2,12s0.4-1.9,1.1-2.7C10.1,8.6,11,8.3,12,8.3c1,0,1.9,0.4,2.7,1.1C15.4,10.1,15.8,11,15.8,12z"/>
    	<path d="M0,12c0,0,4.5-8.3,12-8.3c7.5,0,12,8.3,12,8.3s-4.5,8.3-12,8.3C4.5,20.3,0,12,0,12z M12,17.3c1.4,0,2.7-0.6,3.7-1.5c1-1,1.5-2.3,1.5-3.7s-0.6-2.7-1.5-3.7c-1-1-2.3-1.5-3.7-1.5S9.3,7.3,8.3,8.3c-1,1-1.5,2.3-1.5,3.7s0.6,2.7,1.5,3.7C9.3,16.7,10.6,17.3,12,17.3z"/>
    </symbol>
    <symbol id="phone_icon" viewBox="0 0 16 16">
      <path d="M1.9,0.5c0.2-0.2,0.4-0.3,0.6-0.4C2.7,0,3,0,3.2,0c0.2,0,0.5,0.1,0.7,0.2c0.2,0.1,0.4,0.3,0.6,0.5L6.3,3c0.3,0.4,0.4,1,0.3,1.5L6.1,6.7c0,0.1,0,0.2,0,0.3s0.1,0.2,0.2,0.3l2.5,2.5C8.8,9.8,8.9,9.9,9,9.9c0.1,0,0.2,0,0.3,0l2.2-0.5c0.3-0.1,0.5-0.1,0.8,0c0.3,0.1,0.5,0.2,0.7,0.3l2.3,1.8c0.8,0.6,0.9,1.9,0.2,2.6l-1,1c-0.7,0.7-1.8,1.1-2.9,0.7c-2.6-0.9-5-2.4-7-4.4c-2-2-3.5-4.4-4.4-7c-0.4-1,0-2.1,0.7-2.9L1.9,0.5z"/>
    </symbol>
    <symbol id="search_icon" viewBox="0 0 24 24">
      <path d="M17.6124 15.5171C19.0648 13.5352 19.7154 11.0779 19.4338 8.63685C19.1523 6.19584 17.9595 3.95114 16.094 2.35182C14.2286 0.752509 11.828 -0.0834673 9.37265 0.0111424C6.91728 0.105752 4.58817 1.12397 2.8513 2.86209C1.11442 4.60021 0.0978694 6.93004 0.00501667 9.38548C-0.0878361 11.8409 0.749858 14.2409 2.35051 16.1052C3.95115 17.9695 6.19671 19.1607 8.63792 19.4405C11.0791 19.7203 13.536 19.068 15.5169 17.6141H15.5154C15.5604 17.6741 15.6084 17.7311 15.6624 17.7866L21.4374 23.5616C21.7187 23.8431 22.1002 24.0013 22.4981 24.0014C22.896 24.0016 23.2777 23.8436 23.5591 23.5624C23.8406 23.2811 23.9988 22.8996 23.9989 22.5017C23.9991 22.1038 23.8412 21.7221 23.5599 21.4406L17.7849 15.6656C17.7313 15.6113 17.6736 15.5612 17.6124 15.5156V15.5171ZM17.9994 9.75113C17.9994 10.8345 17.786 11.9073 17.3714 12.9083C16.9568 13.9092 16.3491 14.8187 15.583 15.5848C14.8169 16.3508 13.9075 16.9585 12.9065 17.3731C11.9056 17.7877 10.8328 18.0011 9.74939 18.0011C8.66599 18.0011 7.59319 17.7877 6.59226 17.3731C5.59132 16.9585 4.68185 16.3508 3.91576 15.5848C3.14968 14.8187 2.54199 13.9092 2.12739 12.9083C1.71279 11.9073 1.49939 10.8345 1.49939 9.75113C1.49939 7.56309 2.36859 5.46467 3.91576 3.9175C5.46294 2.37032 7.56136 1.50113 9.74939 1.50113C11.9374 1.50113 14.0358 2.37032 15.583 3.9175C17.1302 5.46467 17.9994 7.56309 17.9994 9.75113Z"/>
    </symbol>
    <symbol id="chevron_down" viewBox="0 0 21 21">
      <path fill-rule="evenodd" clip-rule="evenodd" d="M2.90627 6.30862C2.96433 6.25041 3.0333 6.20423 3.10923 6.17273C3.18516 6.14122 3.26656 6.125 3.34877 6.125C3.43098 6.125 3.51238 6.14122 3.58832 6.17273C3.66425 6.20423 3.73322 6.25041 3.79127 6.30862L10.8488 13.3674L17.9063 6.30862C17.9644 6.25051 18.0334 6.20441 18.1093 6.17296C18.1852 6.14151 18.2666 6.12533 18.3488 6.12533C18.431 6.12533 18.5123 6.14151 18.5883 6.17296C18.6642 6.20441 18.7332 6.25051 18.7913 6.30862C18.8494 6.36673 18.8955 6.43571 18.9269 6.51164C18.9584 6.58756 18.9746 6.66894 18.9746 6.75112C18.9746 6.8333 18.9584 6.91467 18.9269 6.9906C18.8955 7.06652 18.8494 7.13551 18.7913 7.19362L11.2913 14.6936C11.2332 14.7518 11.1642 14.798 11.0883 14.8295C11.0124 14.861 10.931 14.8772 10.8488 14.8772C10.7666 14.8772 10.6852 14.861 10.6092 14.8295C10.5333 14.798 10.4643 14.7518 10.4063 14.6936L2.90627 7.19362C2.84807 7.13556 2.80189 7.06659 2.77038 6.99066C2.73887 6.91473 2.72266 6.83333 2.72266 6.75112C2.72266 6.66891 2.73887 6.58751 2.77038 6.51157C2.80189 6.43564 2.84807 6.36667 2.90627 6.30862Z"/>
    </symbol>
    <symbol id="close_icon" viewBox="0 0 40 40">
      <path d="M11,12.4L11,12.4l7.5,7.5L11,27.5l0,0c-0.1,0.1-0.2,0.2-0.2,0.3c-0.1,0.1-0.1,0.3-0.1,0.4s0,0.3,0.1,0.4c0.1,0.2,0.1,0.3,0.2,0.4l0,0c0.1,0.1,0.2,0.2,0.3,0.2c0.1,0.1,0.3,0.1,0.4,0.1s0.3,0,0.4-0.1c0.1-0.1,0.2-0.1,0.3-0.2l0,0l7.5-7.5l7.5,7.5l0,0c0.1,0.1,0.2,0.2,0.3,0.2c0.1,0.1,0.3,0.1,0.4,0.1s0.3,0,0.4-0.1s0.2-0.1,0.3-0.2l-0.2-0.2L29,29c0.1-0.1,0.2-0.2,0.2-0.3c0.1-0.1,0.1-0.3,0.1-0.4s0-0.3-0.1-0.4s-0.1-0.2-0.2-0.3l0,0L21.4,20l7.6-7.5l0,0c0.1-0.1,0.2-0.2,0.2-0.3c0.1-0.1,0.1-0.3,0.1-0.4c0-0.1,0-0.3-0.1-0.4c-0.1-0.2-0.1-0.3-0.2-0.4l0,0c-0.1-0.1-0.2-0.2-0.3-0.2c-0.1-0.1-0.3-0.1-0.4-0.1s-0.3,0-0.4,0.1c-0.2,0.1-0.3,0.2-0.4,0.2l0,0L20,18.6l-7.5-7.6l0,0c-0.1,0-0.2-0.1-0.4-0.2c-0.1,0-0.2,0-0.4,0s-0.3,0-0.4,0.1c-0.1,0-0.2,0.1-0.3,0.1c-0.1,0.1-0.1,0.2-0.2,0.4c0,0.1-0.1,0.2-0.1,0.4c0,0.1,0,0.3,0.1,0.4C10.9,12.3,10.9,12.4,11,12.4z"/>
      <path d="M28.3,29.5c-0.2,0-0.3,0-0.5-0.1s-0.3-0.2-0.4-0.3L20,21.8l-7.4,7.4c-0.1,0.1-0.3,0.2-0.4,0.3c-0.3,0.1-0.6,0.1-1,0c-0.2-0.1-0.3-0.2-0.4-0.3c-0.1-0.1-0.2-0.3-0.3-0.4c-0.1-0.1-0.1-0.3-0.1-0.5s0-0.3,0.1-0.5c0.1-0.2,0.2-0.3,0.3-0.4l7.4-7.4l-7.3-7.4c-0.2-0.1-0.2-0.2-0.3-0.4c-0.1-0.1-0.1-0.3-0.1-0.4c0-0.2,0-0.3,0.1-0.5c0.1-0.2,0.1-0.3,0.3-0.4c0.1-0.2,0.2-0.2,0.4-0.3c0.3-0.1,0.7-0.1,1,0c0.2,0.1,0.3,0.2,0.4,0.3l7.4,7.4l7.4-7.4c0.1-0.1,0.3-0.2,0.4-0.3c0.3-0.1,0.7-0.1,1,0c0.2,0.1,0.3,0.2,0.4,0.3c0.1,0.1,0.2,0.3,0.3,0.4c0.1,0.2,0.1,0.3,0.1,0.5s0,0.3-0.1,0.5s-0.2,0.3-0.3,0.4L21.8,20l7.4,7.4c0.1,0.1,0.2,0.3,0.3,0.4s0.1,0.3,0.1,0.5s0,0.3-0.1,0.5c0,0.1-0.1,0.1-0.1,0.2l0,0L29,29.3l0,0c-0.1,0-0.1,0.1-0.2,0.1C28.6,29.5,28.4,29.5,28.3,29.5z M20,21.1l7.7,7.7c0.1,0.1,0.2,0.1,0.2,0.2c0.2,0.1,0.4,0.1,0.6,0c0.1,0,0.2-0.1,0.2-0.2s0.1-0.2,0.2-0.2c0-0.1,0.1-0.2,0.1-0.3s0-0.2-0.1-0.3c0-0.1-0.1-0.2-0.2-0.2L21.1,20l7.7-7.7c0.1-0.1,0.1-0.2,0.2-0.2c0-0.2,0-0.3,0-0.3s0-0.2-0.1-0.3c0-0.1-0.1-0.2-0.2-0.2c-0.1-0.1-0.2-0.1-0.2-0.2c-0.1-0.1-0.4-0.1-0.5,0c-0.1,0-0.2,0.1-0.2,0.2L20,18.9l-7.7-7.7c-0.1-0.1-0.2-0.1-0.3-0.1c-0.1-0.1-0.4-0.1-0.5,0c-0.1,0-0.2,0.1-0.2,0.2c-0.2,0-0.2,0.1-0.2,0.2C11,11.6,11,11.6,11,11.8c0,0.1,0,0.1,0.1,0.2c0,0.1,0.1,0.2,0.2,0.2l7.7,7.7l-7.7,7.7c-0.1,0.1-0.1,0.2-0.2,0.2c-0.1,0-0.1,0.4-0.1,0.5s0,0.2,0.1,0.3c0.1,0.1,0.1,0.2,0.2,0.2c0.1,0.1,0.2,0.1,0.2,0.2c0.1,0,0.4,0,0.5-0.1c0.1,0,0.2-0.1,0.2-0.2L20,21.1z"/>
    </symbol>
    <symbol id="whatsapp_icon" viewBox="0 0 16 16">
      <path d="M0 16L1.16505 11.7281C0.543689 10.5631 0.155349 9.2427 0.155349 7.92231C0.155349 3.5728 3.72815 0 8.07766 0C12.4272 0 16 3.5728 16 7.92231C16 12.2718 12.4272 15.8447 8.07766 15.8447C6.75728 15.8447 5.51457 15.534 4.34952 14.9126L0 16ZM4.50484 13.2039L4.73787 13.3592C5.74758 13.9806 6.83494 14.2913 7.99999 14.2913C11.4951 14.2913 14.3689 11.4175 14.3689 7.92231C14.3689 4.42717 11.4951 1.5534 7.99999 1.5534C4.50484 1.5534 1.63107 4.42717 1.63107 7.92231C1.63107 9.08736 1.94174 10.2524 2.5631 11.2621L2.71845 11.5728L2.0971 13.9806L4.50484 13.2039Z"/>
      <path fill-rule="evenodd" clip-rule="evenodd" d="M10.9531 9.01054C10.6424 8.77753 10.1764 8.6222 9.78808 8.77754C9.4774 8.93288 9.32207 9.32123 9.08906 9.55424C9.01139 9.70958 8.85605 9.70958 8.70071 9.63191C7.61333 9.16589 6.75894 8.46685 6.13759 7.45714C6.05992 7.3018 6.05992 7.14648 6.21526 6.99114C6.3706 6.75813 6.60361 6.52512 6.68128 6.21444C6.75895 5.90376 6.6036 5.59308 6.44826 5.36007C6.29292 5.04939 6.13759 4.58336 5.82691 4.35035C5.51623 4.19501 5.12789 4.27269 4.81721 4.50569C4.35119 4.89404 4.11816 5.5154 4.11816 6.05909C4.11816 6.21443 4.11817 6.36978 4.19584 6.52512C4.27351 6.91347 4.50652 7.30181 4.66186 7.61249C4.8172 7.8455 4.97255 8.15618 5.12789 8.38919C5.74925 9.16589 6.44827 9.86492 7.30263 10.4086C7.69098 10.6416 8.15701 10.8746 8.62303 11.03C9.16672 11.1853 9.63274 11.4183 10.1764 11.263C10.7978 11.1853 11.3415 10.7969 11.5745 10.1756C11.6521 10.0202 11.6522 9.78725 11.6522 9.63191C11.7298 9.3989 11.2638 9.16588 10.9531 9.01054Z"/>
    </symbol>
    <symbol id="arrow_up" viewBox="0 0 45 45">
      <path d="M0,22.5c0-6,2.4-11.7,6.6-15.9C10.8,2.4,16.5,0,22.5,0c6,0,11.7,2.4,15.9,6.6c4.2,4.2,6.6,9.9,6.6,15.9s-2.4,11.7-6.6,15.9S28.5,45,22.5,45s-11.7-2.4-15.9-6.6C2.4,34.2,0,28.5,0,22.5z M21.1,32.3c0,0.4,0.1,0.7,0.4,1c0.3,0.3,0.6,0.4,1,0.4s0.7-0.1,1-0.4c0.3-0.3,0.4-0.6,0.4-1l0-16.3l6,6c0.3,0.3,0.6,0.4,1,0.4s0.7-0.1,1-0.4c0.3-0.3,0.4-0.6,0.4-1c0-0.4-0.1-0.7-0.4-1l-8.4-8.4c-0.1-0.1-0.3-0.2-0.5-0.3c-0.2-0.1-0.4-0.1-0.5-0.1s-0.4,0-0.5,0.1c-0.2,0.1-0.3,0.2-0.5,0.3l-8.4,8.4c-0.3,0.3-0.4,0.6-0.4,1c0,0.4,0.1,0.7,0.4,1c0.3,0.3,0.6,0.4,1,0.4s0.7-0.1,1-0.4l6-6L21.1,32.3z"/>
    </symbol>
    <symbol id="eye_slash_icon" viewBox="0 0 24 24">
      <path d="M15.8,12c0,1-0.4,1.9-1.1,2.7c-0.7,0.7-1.7,1.1-2.7,1.1s-1.9-0.4-2.7-1.1C8.6,13.9,8.3,13,8.3,12c0-1,0.4-1.9,1.1-2.7C10.1,8.6,11,8.3,12,8.3s1.9,0.4,2.7,1.1C15.4,10.1,15.8,11,15.8,12z"/>
      <path d="M0,12c0,0,4.5-8.3,12-8.3S24,12,24,12s-4.5,8.3-12,8.3S0,12,0,12z M12,17.3c1.4,0,2.7-0.6,3.7-1.5s1.5-2.3,1.5-3.7s-0.6-2.7-1.5-3.7c-1-1-2.3-1.5-3.7-1.5S9.3,7.3,8.3,8.3c-1,1-1.5,2.3-1.5,3.7s0.6,2.7,1.5,3.7S10.6,17.3,12,17.3z"/>
      <path d="M20.5,21.5l-18-18l1.1-1.1l18,18L20.5,21.5z"/>
    </symbol>
    <symbol id="envelope_icon" viewBox="0 0 20 20">
      <path d="M0.1,4.4c0.1-0.6,0.4-1,0.9-1.4c0.4-0.4,1-0.5,1.6-0.5h15c0.6,0,1.1,0.2,1.6,0.5c0.4,0.4,0.8,0.8,0.9,1.4L10,10.5L0.1,4.4z M0,5.9v8.9l7.3-4.4L0,5.9z M8.5,11l-8.2,5c0.2,0.4,0.5,0.8,0.9,1c0.4,0.3,0.9,0.4,1.3,0.4h15c0.5,0,0.9-0.1,1.3-0.4c0.4-0.3,0.7-0.6,0.9-1l-8.2-5L10,12L8.5,11L8.5,11z M12.7,10.3l7.3,4.4V5.9L12.7,10.3L12.7,10.3z"/>
    </symbol>
    <symbol id="od_icon" viewBox="0 0 43 43">
      <path d="M26.4,19.3c-1.3,1.3-3,2-4.9,2c-1.9,0-3.7-0.8-4.9-2c-1.3-1.3-2-3-2-4.9c0-1.9,0.8-3.7,2-4.9c1.3-1.3,3-2,4.9-2c1.9,0,3.7,0.8,4.9,2c1.3,1.3,2,3,2,4.9C28.5,16.3,27.7,18.1,26.4,19.3z M21.5,11.2c-0.9,0-1.6,0.3-2.2,0.9c-0.6,0.6-0.9,1.4-0.9,2.2c0,0.9,0.3,1.6,0.9,2.2c0.6,0.6,1.4,0.9,2.2,0.9c0.9,0,1.6-0.3,2.2-0.9c0.6-0.6,0.9-1.4,0.9-2.2c0-0.9-0.3-1.6-0.9-2.2C23.2,11.6,22.4,11.2,21.5,11.2z M28.8,21.4c-0.1-0.2-0.3-0.2-0.5-0.1c-1.9,1.6-4.3,2.7-6.9,2.7s-4.9-1.1-6.9-2.7c-0.2-0.1-0.3-0.1-0.5,0.1l-2,2.8c-0.1,0.1-0.1,0.3,0.1,0.4c1.7,1.4,3.7,2.3,5.8,2.8l-4,7.6c-0.1,0.2,0.1,0.5,0.3,0.5h4.2c0.2,0,0.3-0.1,0.3-0.2l2.6-6.3l2.6,6.3c0.1,0.1,0.2,0.2,0.3,0.2h4.2c0.2,0,0.4-0.2,0.3-0.5l-4-7.6c2.1-0.5,4.1-1.4,5.8-2.8c0.2-0.1,0.2-0.3,0.1-0.4L28.8,21.4z"/>
    </symbol>
    <symbol id="vk_icon" viewBox="0 0 43 43">
      <path d="M21.2,29.5h1.7c0,0,0.5-0.1,0.8-0.3c0.2-0.3,0.2-0.7,0.2-0.7s0-2.3,1-2.6c1-0.3,2.3,2.2,3.7,3.2c1.1,0.7,1.8,0.6,1.8,0.6l3.7-0.1c0,0,1.9-0.1,1-1.7c-0.1-0.1-0.5-1.1-2.8-3.2c-2.3-2.2-2-1.8,0.8-5.6c1.7-2.3,2.4-3.7,2.2-4.3c-0.2-0.6-1.5-0.4-1.5-0.4l-4.2,0c0,0-0.3,0-0.5,0.1c-0.2,0.1-0.4,0.5-0.4,0.5s-0.7,1.8-1.5,3.3c-1.9,3.2-2.6,3.4-2.9,3.2c-0.7-0.5-0.5-1.9-0.5-2.9c0-3.1,0.5-4.4-0.9-4.7c-0.5-0.1-0.8-0.2-2-0.2c-1.5,0-2.8,0-3.5,0.4c-0.5,0.2-0.8,0.8-0.6,0.8c0.3,0,0.9,0.2,1.2,0.6c0.4,0.6,0.4,1.9,0.4,1.9s0.2,3.7-0.6,4.1c-0.6,0.3-1.3-0.3-3-3.2c-0.9-1.5-1.5-3.1-1.5-3.1s-0.1-0.3-0.3-0.5c-0.3-0.2-0.6-0.3-0.6-0.3l-4,0c0,0-0.6,0-0.8,0.3c-0.2,0.2,0,0.7,0,0.7s3.1,7.4,6.6,11.1C17.5,29.7,21.2,29.5,21.2,29.5z"/>
    </symbol>
    <symbol id="yt_icon" viewBox="0 0 43 43">
      <path d="M34.6,18c0-3.1-2.6-5.7-5.7-5.7H14.1c-3.1,0-5.7,2.6-5.7,5.7V25c0,3.1,2.6,5.7,5.7,5.7h14.8c3.1,0,5.7-2.6,5.7-5.7V18z M25.9,22l-6.7,3.3c-0.3,0.1-1.1,0-1.1-0.4v-6.7c0-0.3,1-0.5,1.1-0.3l6.4,3.4C25.9,21.4,26.2,21.8,25.9,22z"/>
    </symbol>
    <symbol id="mobile_record_icon" viewBox="0 0 45 45">
      <path d="M10.5,15.9c0.1-0.5,0.3-0.9,0.6-1.3c0.6-0.8,1.4-1.1,2.4-1.1c0,0.4,0,0.8,0,1.2c0,1.1,0.5,1.9,1.4,2.4c0.4,0.3,0.9,0.4,1.4,0.4c1.8,0,3.7,0,5.5,0c1.6,0,2.7-1.2,2.8-2.7c0-0.4,0-0.8,0-1.2c0.9-0.1,1.6,0.2,2.2,0.8c0.5,0.5,0.8,1.2,0.8,1.9c0,2.2,0,4.3,0,6.5c0,0.1-0.1,0.2-0.1,0.3c-1.1,1.1-2.2,2.2-3.4,3.4c-0.1,0.1-0.1,0.1-0.2,0.1c-2.3,0-4.5,0-6.8,0c-0.9,0-1.8,0-2.7,0c-0.6,0-0.9,0.5-0.8,1c0.1,0.3,0.4,0.5,0.7,0.5c0.2,0,0.5,0,0.7,0c2.4,0,4.8,0,7.3,0c0.1,0,0.1,0,0.2,0c-0.4,0.5-0.9,1-1.2,1.6c-0.3,0.6-0.4,1.3-0.5,1.9c-0.1,0-0.2,0-0.2,0c-2.3,0-4.6,0-6.9,0c-1.6,0-2.7-1.1-2.9-2.3c0,0,0,0,0-0.1C10.5,24.7,10.5,20.3,10.5,15.9z M19,24.8c1.6,0,3.2,0,4.7,0c0.5,0,0.8-0.3,0.8-0.8c0-0.4-0.3-0.7-0.8-0.7c-3.1,0-6.3,0-9.4,0c-0.2,0-0.3,0.1-0.4,0.1c-0.3,0.2-0.4,0.5-0.3,0.8c0.1,0.3,0.4,0.6,0.8,0.6C15.8,24.8,17.4,24.8,19,24.8z M19,20c-1.5,0-3,0-4.6,0c-0.1,0-0.2,0-0.3,0c-0.3,0-0.5,0.2-0.6,0.5c-0.1,0.3,0,0.6,0.2,0.8c0.2,0.1,0.4,0.2,0.6,0.2c3.1,0,6.2,0,9.3,0c0.1,0,0.2,0,0.3,0c0.3-0.1,0.5-0.3,0.5-0.6c0.1-0.3,0-0.5-0.2-0.7C24.1,20,23.9,20,23.6,20C22.1,20,20.6,20,19,20z"/>
      <path d="M22.8,34.5c-0.5-0.3-0.6-0.5-0.5-1.1c0.2-0.9,0.3-1.7,0.5-2.6c0-0.3,0.2-0.5,0.4-0.7c2.4-2.4,4.8-4.8,7.2-7.2c0.3-0.3,0.6-0.5,1-0.7c0.5-0.2,1,0,1.4,0.3c0.4,0.4,0.9,0.9,1.3,1.3c0.7,0.7,0.7,1.8,0,2.4c-2.5,2.5-4.9,4.9-7.4,7.4c-0.2,0.2-0.5,0.3-0.8,0.3c-0.8,0.2-1.7,0.3-2.5,0.4c0,0-0.1,0-0.1,0C23.1,34.5,22.9,34.5,22.8,34.5z"/>
      <path d="M16.3,12.5c0.2-0.4,0.4-0.7,0.7-1c1.4-1.6,3.9-1.1,4.6,0.8c0.1,0.2,0.2,0.2,0.3,0.2c0.3,0,0.6,0,0.8,0c0.4,0,0.7,0.3,0.7,0.7c0,0.5,0,1.1,0,1.6c0,0.9-0.8,1.6-1.7,1.7c-1.9,0-3.7,0-5.6,0c-0.9,0-1.7-0.8-1.7-1.7c0-0.5,0-1,0-1.5c0-0.5,0.3-0.8,0.8-0.8C15.6,12.5,16,12.5,16.3,12.5z"/>
    </symbol>
    <symbol id="mobile_call_icon" viewBox="0 0 45 45">
      <path d="M14.5,12.7c0.2-0.2,0.5-0.4,0.8-0.5c0.3-0.1,0.6-0.2,1-0.1c0.3,0,0.6,0.1,0.9,0.3c0.3,0.2,0.5,0.4,0.7,0.6l2.4,3c0.4,0.6,0.6,1.3,0.4,2L20,20.7c0,0.1,0,0.3,0,0.5s0.1,0.3,0.2,0.4l3.2,3.2c0.1,0.1,0.2,0.2,0.4,0.2c0.1,0,0.3,0,0.5,0l2.9-0.7c0.3-0.1,0.7-0.1,1,0c0.3,0.1,0.7,0.2,0.9,0.4l3,2.4c1.1,0.8,1.2,2.5,0.2,3.4L31,31.9c-1,1-2.4,1.4-3.8,0.9c-3.5-1.2-6.6-3.2-9.2-5.8c-2.6-2.6-4.6-5.7-5.8-9.2c-0.5-1.4,0-2.8,0.9-3.8L14.5,12.7z"/>
    </symbol>
    <symbol id="mobile_review_icon" viewBox="0 0 45 45">
      <path d="M14.3,12c-0.7,0-1.4,0.3-1.9,0.8c-0.5,0.5-0.8,1.2-0.8,1.9v11c0,0.7,0.3,1.4,0.8,1.9c0.5,0.5,1.2,0.8,1.9,0.8h3.4c0.2,0,0.4,0,0.6,0.1c0.2,0.1,0.4,0.2,0.5,0.4l2.6,3.5c0.1,0.2,0.3,0.3,0.5,0.4c0.2,0.1,0.4,0.1,0.6,0.1s0.4,0,0.6-0.1c0.2-0.1,0.4-0.2,0.5-0.4l2.6-3.5c0.1-0.2,0.3-0.3,0.5-0.4c0.2-0.1,0.4-0.1,0.6-0.1h3.4c0.7,0,1.4-0.3,1.9-0.8c0.5-0.5,0.8-1.2,0.8-1.9v-11c0-0.7-0.3-1.4-0.8-1.9c-0.5-0.5-1.2-0.8-1.9-0.8H14.3z M22.5,17.4c2.3-2.4,8,1.8,0,7.1C14.5,19.2,20.2,15.1,22.5,17.4z"/>
    </symbol>
    <symbol id="mobile_write_icon" viewBox="0 0 45 45">
      <path d="M30.3,14.7c-2.1-2.1-4.8-3.2-7.7-3.2c-6.1,0-11,4.9-11,10.9c0,1.9,0.5,3.8,1.5,5.4l-1.5,5.7l5.8-1.5c1.6,0.8,3.4,1.3,5.2,1.3c6.1,0,11-4.9,11-10.9C33.4,19.5,32.4,16.8,30.3,14.7z M27.8,26.3c-0.2,0.6-1.3,1.2-1.8,1.3c-0.5,0.1-1.1,0.1-1.7-0.1c-0.4-0.2-0.9-0.3-1.5-0.6c-2.8-1.1-4.5-3.9-4.7-4.1c-0.2-0.2-1.1-1.5-1.1-2.8s0.7-2,0.9-2.3c0.2-0.3,0.5-0.3,0.8-0.3c0.2,0,0.4,0,0.5,0c0.2,0,0.4-0.1,0.6,0.5c0.2,0.5,0.8,1.9,0.8,2c0.1,0.2,0.1,0.3,0,0.5c-0.1,0.2-0.2,0.3-0.3,0.5c-0.2,0.2-0.3,0.4-0.4,0.5c-0.2,0.2-0.3,0.3-0.2,0.5c0.2,0.3,0.7,1.1,1.5,1.9c1.1,0.9,1.9,1.2,2.2,1.4c0.3,0.2,0.5,0.1,0.6-0.1c0.2-0.2,0.7-0.8,0.8-1.1c0.2-0.3,0.4-0.2,0.6-0.2c0.2,0.1,1.6,0.8,1.8,0.9c0.3,0.2,0.5,0.2,0.5,0.3C28.1,25.2,28.1,25.7,27.8,26.3z"/>
    </symbol>
    <symbol id="clear_icon" viewBox="0 0 16 16">
      <path d="M8,15.3C4,15.3,0.7,12,0.7,8C0.7,4,4,0.7,8,0.7S15.3,4,15.3,8C15.3,12,12,15.3,8,15.3z M8,2C4.7,2,2,4.7,2,8c0,3.3,2.7,6,6,6s6-2.7,6-6C14,4.7,11.3,2,8,2z"/>
      <path d="M6,10.7c-0.2,0-0.3-0.1-0.5-0.2c-0.3-0.3-0.3-0.7,0-0.9l4-4c0.3-0.3,0.7-0.3,0.9,0c0.3,0.3,0.3,0.7,0,0.9l-4,4C6.3,10.6,6.2,10.7,6,10.7z"/>
      <path d="M10,10.7c-0.2,0-0.3-0.1-0.5-0.2l-4-4c-0.3-0.3-0.3-0.7,0-0.9c0.3-0.3,0.7-0.3,0.9,0l4,4c0.3,0.3,0.3,0.7,0,0.9C10.3,10.6,10.2,10.7,10,10.7z"/>
    </symbol>
    <symbol id="calendar_icon" viewBox="0 0 16 16">
      <path d="M14,0H2C1.5,0,1,0.2,0.6,0.6C0.2,1,0,1.5,0,2v12c0,0.5,0.2,1,0.6,1.4C1,15.8,1.5,16,2,16h12c0.5,0,1-0.2,1.4-0.6C15.8,15,16,14.5,16,14V2c0-0.5-0.2-1-0.6-1.4C15,0.2,14.5,0,14,0z M1,3.9C1,3.4,1.4,3,2,3h12c0.6,0,1,0.4,1,0.9v10.3c0,0.5-0.4,0.9-1,0.9H2c-0.6,0-1-0.4-1-0.9V3.9z"/>
      <path d="M6.5,6C6.8,6,7,5.9,7.2,5.7C7.4,5.5,7.5,5.3,7.5,5c0-0.3-0.1-0.5-0.3-0.7C7,4.1,6.8,4,6.5,4S6,4.1,5.8,4.3C5.6,4.5,5.5,4.7,5.5,5c0,0.3,0.1,0.5,0.3,0.7C6,5.9,6.2,6,6.5,6z M9.5,6c0.3,0,0.5-0.1,0.7-0.3c0.2-0.2,0.3-0.4,0.3-0.7c0-0.3-0.1-0.5-0.3-0.7C10,4.1,9.8,4,9.5,4S9,4.1,8.8,4.3C8.6,4.5,8.5,4.7,8.5,5c0,0.3,0.1,0.5,0.3,0.7C9,5.9,9.2,6,9.5,6z M12.5,6c0.3,0,0.5-0.1,0.7-0.3c0.2-0.2,0.3-0.4,0.3-0.7c0-0.3-0.1-0.5-0.3-0.7C13,4.1,12.8,4,12.5,4S12,4.1,11.8,4.3c-0.2,0.2-0.3,0.4-0.3,0.7c0,0.3,0.1,0.5,0.3,0.7C12,5.9,12.2,6,12.5,6z M3.5,9C3.8,9,4,8.9,4.2,8.7C4.4,8.5,4.5,8.3,4.5,8c0-0.3-0.1-0.5-0.3-0.7C4,7.1,3.8,7,3.5,7S3,7.1,2.8,7.3C2.6,7.5,2.5,7.7,2.5,8c0,0.3,0.1,0.5,0.3,0.7C3,8.9,3.2,9,3.5,9z M6.5,9C6.8,9,7,8.9,7.2,8.7C7.4,8.5,7.5,8.3,7.5,8c0-0.3-0.1-0.5-0.3-0.7C7,7.1,6.8,7,6.5,7S6,7.1,5.8,7.3C5.6,7.5,5.5,7.7,5.5,8c0,0.3,0.1,0.5,0.3,0.7C6,8.9,6.2,9,6.5,9z M9.5,9c0.3,0,0.5-0.1,0.7-0.3c0.2-0.2,0.3-0.4,0.3-0.7c0-0.3-0.1-0.5-0.3-0.7C10,7.1,9.8,7,9.5,7S9,7.1,8.8,7.3C8.6,7.5,8.5,7.7,8.5,8c0,0.3,0.1,0.5,0.3,0.7C9,8.9,9.2,9,9.5,9z M12.5,9c0.3,0,0.5-0.1,0.7-0.3c0.2-0.2,0.3-0.4,0.3-0.7c0-0.3-0.1-0.5-0.3-0.7C13,7.1,12.8,7,12.5,7S12,7.1,11.8,7.3c-0.2,0.2-0.3,0.4-0.3,0.7c0,0.3,0.1,0.5,0.3,0.7C12,8.9,12.2,9,12.5,9z M3.5,12c0.3,0,0.5-0.1,0.7-0.3c0.2-0.2,0.3-0.4,0.3-0.7c0-0.3-0.1-0.5-0.3-0.7C4,10.1,3.8,10,3.5,10S3,10.1,2.8,10.3c-0.2,0.2-0.3,0.4-0.3,0.7c0,0.3,0.1,0.5,0.3,0.7C3,11.9,3.2,12,3.5,12z M6.5,12c0.3,0,0.5-0.1,0.7-0.3c0.2-0.2,0.3-0.4,0.3-0.7c0-0.3-0.1-0.5-0.3-0.7C7,10.1,6.8,10,6.5,10S6,10.1,5.8,10.3c-0.2,0.2-0.3,0.4-0.3,0.7c0,0.3,0.1,0.5,0.3,0.7C6,11.9,6.2,12,6.5,12z M9.5,12c0.3,0,0.5-0.1,0.7-0.3s0.3-0.4,0.3-0.7c0-0.3-0.1-0.5-0.3-0.7C10,10.1,9.8,10,9.5,10S9,10.1,8.8,10.3c-0.2,0.2-0.3,0.4-0.3,0.7c0,0.3,0.1,0.5,0.3,0.7C9,11.9,9.2,12,9.5,12z"/>
    </symbol>
    <symbol id="circle_arrow_left" viewBox="0 0 24 24">
      <path d="M12,22.5C6.2,22.5,1.5,17.8,1.5,12C1.5,6.2,6.2,1.5,12,1.5c5.8,0,10.5,4.7,10.5,10.5C22.5,17.8,17.8,22.5,12,22.5z M12,2.5c-5.2,0-9.5,4.3-9.5,9.5s4.3,9.5,9.5,9.5s9.5-4.3,9.5-9.5S17.2,2.5,12,2.5z"/>
    	<path d="M12,16.5c-0.1,0-0.3,0-0.4-0.1l-4-4c-0.2-0.2-0.2-0.5,0-0.7l4-4c0.2-0.2,0.5-0.2,0.7,0s0.2,0.5,0,0.7L8.7,12l3.6,3.6c0.2,0.2,0.2,0.5,0,0.7C12.3,16.5,12.1,16.5,12,16.5z"/>
    	<path d="M16,12.5H8c-0.3,0-0.5-0.2-0.5-0.5s0.2-0.5,0.5-0.5h8c0.3,0,0.5,0.2,0.5,0.5S16.3,12.5,16,12.5z"/>
    </symbol>
    <symbol id="circle_arrow_right" viewBox="0 0 24 24">
      <path d="M12,22.5C6.2,22.5,1.5,17.8,1.5,12C1.5,6.2,6.2,1.5,12,1.5c5.8,0,10.5,4.7,10.5,10.5C22.5,17.8,17.8,22.5,12,22.5z M12,2.5c-5.2,0-9.5,4.3-9.5,9.5s4.3,9.5,9.5,9.5s9.5-4.3,9.5-9.5S17.2,2.5,12,2.5z"/>
    	<path d="M12,16.5c-0.1,0-0.3,0-0.4-0.1c-0.2-0.2-0.2-0.5,0-0.7l3.6-3.6l-3.6-3.6c-0.2-0.2-0.2-0.5,0-0.7s0.5-0.2,0.7,0l4,4c0.2,0.2,0.2,0.5,0,0.7l-4,4C12.3,16.5,12.1,16.5,12,16.5z"/>
    	<path d="M16,12.5H8c-0.3,0-0.5-0.2-0.5-0.5s0.2-0.5,0.5-0.5h8c0.3,0,0.5,0.2,0.5,0.5S16.3,12.5,16,12.5z"/>
    </symbol>
    <symbol id="popup_close_icon" viewBox="0 0 19 19">
      <path d="M0.2,1.4C0.2,1.3,0.1,1.2,0.1,1.1C0,1,0,0.9,0,0.8c0-0.1,0-0.2,0.1-0.3c0-0.1,0.1-0.2,0.2-0.3s0.2-0.1,0.3-0.2C0.6,0,0.7,0,0.8,0C0.9,0,1,0,1.1,0.1c0.1,0,0.2,0.1,0.3,0.2l8.1,8.1l8.1-8.1c0.1-0.1,0.2-0.1,0.3-0.2C18,0,18.1,0,18.2,0c0.1,0,0.2,0,0.3,0.1c0.1,0,0.2,0.1,0.3,0.2c0.1,0.1,0.1,0.2,0.2,0.3C19,0.6,19,0.7,19,0.8c0,0.1,0,0.2-0.1,0.3c0,0.1-0.1,0.2-0.2,0.3l-8.1,8.1l8.1,8.1c0.1,0.1,0.1,0.2,0.2,0.3c0,0.1,0.1,0.2,0.1,0.3c0,0.1,0,0.2-0.1,0.3c0,0.1-0.1,0.2-0.2,0.3c-0.1,0.1-0.2,0.1-0.3,0.2c-0.1,0-0.2,0.1-0.3,0.1c-0.1,0-0.2,0-0.3-0.1c-0.1,0-0.2-0.1-0.3-0.2l-8.1-8.1l-8.1,8.1c-0.1,0.1-0.2,0.1-0.3,0.2C1,19,0.9,19,0.8,19c-0.1,0-0.2,0-0.3-0.1c-0.1,0-0.2-0.1-0.3-0.2c-0.1-0.1-0.1-0.2-0.2-0.3C0,18.4,0,18.3,0,18.2c0-0.1,0-0.2,0.1-0.3c0-0.1,0.1-0.2,0.2-0.3l8.1-8.1L0.2,1.4z"/>
    </symbol>
    <symbol id="success_icon" viewBox="0 0 60 60">
      <path d="M60,30c0,8-3.2,15.6-8.8,21.2S38,60,30,60s-15.6-3.2-21.2-8.8C3.2,45.6,0,38,0,30S3.2,14.4,8.8,8.8C14.4,3.2,22,0,30,0s15.6,3.2,21.2,8.8C56.8,14.4,60,22,60,30z M45.1,18.6c-0.3-0.3-0.6-0.5-0.9-0.6c-0.4-0.1-0.7-0.2-1.1-0.2c-0.4,0-0.8,0.1-1.1,0.2c-0.3,0.2-0.7,0.4-0.9,0.7L28,35.3l-7.8-7.9c-0.5-0.5-1.2-0.8-2-0.8c-0.7,0-1.4,0.3-1.9,0.8c-0.5,0.5-0.8,1.2-0.8,1.9c0,0.7,0.3,1.4,0.8,2l9.9,9.9c0.3,0.3,0.6,0.5,0.9,0.6c0.4,0.1,0.7,0.2,1.1,0.2c0.4,0,0.8-0.1,1.1-0.2c0.3-0.2,0.7-0.4,0.9-0.7l15-18.7c0.5-0.5,0.8-1.2,0.8-2S45.6,19.2,45.1,18.6L45.1,18.6z"/>
    </symbol>
    <symbol id="attach_icon" viewBox="0 0 30 30">
      <path d="M10,7.7c0-1,0.4-1.9,1-2.6S12.6,4,13.6,4c0.9,0,1.9,0.4,2.5,1.1s1,1.6,1,2.6v13.2c0,0.6-0.2,1.1-0.6,1.6c-0.4,0.4-0.9,0.6-1.5,0.6s-1.1-0.2-1.5-0.6c-0.4-0.4-0.6-1-0.6-1.6V10.6c0-0.2,0.1-0.4,0.2-0.5c0.1-0.1,0.3-0.2,0.5-0.2c0.2,0,0.4,0.1,0.5,0.2c0.1,0.1,0.2,0.3,0.2,0.5v10.3c0,0.2,0.1,0.4,0.2,0.5c0.1,0.1,0.3,0.2,0.5,0.2c0.2,0,0.4-0.1,0.5-0.2c0.1-0.1,0.2-0.3,0.2-0.5V7.7c0-0.3-0.1-0.6-0.2-0.8c-0.1-0.3-0.3-0.5-0.5-0.7c-0.2-0.2-0.4-0.4-0.7-0.5c-0.3-0.1-0.5-0.2-0.8-0.2c-0.3,0-0.6,0.1-0.8,0.2s-0.5,0.3-0.7,0.5c-0.2,0.2-0.4,0.4-0.5,0.7c-0.1,0.3-0.2,0.6-0.2,0.8v13.2c0,1,0.4,1.9,1,2.6c0.7,0.7,1.6,1.1,2.5,1.1c0.9,0,1.9-0.4,2.5-1.1c0.7-0.7,1-1.6,1-2.6V10.6c0-0.2,0.1-0.4,0.2-0.5c0.1-0.1,0.3-0.2,0.5-0.2c0.2,0,0.4,0.1,0.5,0.2c0.1,0.1,0.2,0.3,0.2,0.5v10.3c0,1.4-0.5,2.7-1.5,3.6S16.3,26,15,26s-2.6-0.5-3.5-1.5c-0.9-1-1.5-2.3-1.5-3.6V7.7z"/>
    </symbol>
    <symbol id="home_icon" viewBox="0 0 24 24">
      <path d="M12.531 1.71936C12.4613 1.64952 12.3786 1.5941 12.2875 1.5563C12.1963 1.51849 12.0987 1.49902 12 1.49902C11.9014 1.49902 11.8037 1.51849 11.7126 1.5563C11.6214 1.5941 11.5387 1.64952 11.469 1.71936L2.469 10.7194C2.3994 10.7891 2.34423 10.872 2.30665 10.9631C2.26908 11.0542 2.24983 11.1518 2.25 11.2504V21.7504C2.25 21.9493 2.32902 22.14 2.46967 22.2807C2.61032 22.4213 2.80109 22.5004 3 22.5004H9.75C9.94892 22.5004 10.1397 22.4213 10.2803 22.2807C10.421 22.14 10.5 21.9493 10.5 21.7504V15.7504H13.5V21.7504C13.5 21.9493 13.579 22.14 13.7197 22.2807C13.8603 22.4213 14.0511 22.5004 14.25 22.5004H21C21.1989 22.5004 21.3897 22.4213 21.5303 22.2807C21.671 22.14 21.75 21.9493 21.75 21.7504V11.2504C21.7502 11.1518 21.7309 11.0542 21.6934 10.9631C21.6558 10.872 21.6006 10.7891 21.531 10.7194L19.5 8.68986V3.75036C19.5 3.55145 19.421 3.36069 19.2803 3.22003C19.1397 3.07938 18.9489 3.00036 18.75 3.00036H17.25C17.0511 3.00036 16.8603 3.07938 16.7197 3.22003C16.579 3.36069 16.5 3.55145 16.5 3.75036V5.68986L12.531 1.71936ZM3.75 21.0004V11.5609L12 3.31086L20.25 11.5609V21.0004H15V15.0004C15 14.8015 14.921 14.6107 14.7803 14.47C14.6397 14.3294 14.4489 14.2504 14.25 14.2504H9.75C9.55109 14.2504 9.36032 14.3294 9.21967 14.47C9.07902 14.6107 9 14.8015 9 15.0004V21.0004H3.75Z"/>
    </symbol>
    <symbol id="camera_icon" viewBox="0 0 16 16">
      <path d="M10.5 8.5C10.5 9.16304 10.2366 9.79893 9.76777 10.2678C9.29893 10.7366 8.66304 11 8 11C7.33696 11 6.70107 10.7366 6.23223 10.2678C5.76339 9.79893 5.5 9.16304 5.5 8.5C5.5 7.83696 5.76339 7.20107 6.23223 6.73223C6.70107 6.26339 7.33696 6 8 6C8.66304 6 9.29893 6.26339 9.76777 6.73223C10.2366 7.20107 10.5 7.83696 10.5 8.5Z"/>
      <path d="M2 4C1.46957 4 0.960859 4.21071 0.585786 4.58579C0.210714 4.96086 0 5.46957 0 6V12C0 12.5304 0.210714 13.0391 0.585786 13.4142C0.960859 13.7893 1.46957 14 2 14H14C14.5304 14 15.0391 13.7893 15.4142 13.4142C15.7893 13.0391 16 12.5304 16 12V6C16 5.46957 15.7893 4.96086 15.4142 4.58579C15.0391 4.21071 14.5304 4 14 4H12.828C12.2976 3.99989 11.789 3.7891 11.414 3.414L10.586 2.586C10.211 2.2109 9.70239 2.00011 9.172 2H6.828C6.29761 2.00011 5.78899 2.2109 5.414 2.586L4.586 3.414C4.21101 3.7891 3.70239 3.99989 3.172 4H2ZM2.5 6C2.36739 6 2.24021 5.94732 2.14645 5.85355C2.05268 5.75979 2 5.63261 2 5.5C2 5.36739 2.05268 5.24021 2.14645 5.14645C2.24021 5.05268 2.36739 5 2.5 5C2.63261 5 2.75979 5.05268 2.85355 5.14645C2.94732 5.24021 3 5.36739 3 5.5C3 5.63261 2.94732 5.75979 2.85355 5.85355C2.75979 5.94732 2.63261 6 2.5 6ZM11.5 8.5C11.5 9.42826 11.1313 10.3185 10.4749 10.9749C9.8185 11.6313 8.92826 12 8 12C7.07174 12 6.1815 11.6313 5.52513 10.9749C4.86875 10.3185 4.5 9.42826 4.5 8.5C4.5 7.57174 4.86875 6.6815 5.52513 6.02513C6.1815 5.36875 7.07174 5 8 5C8.92826 5 9.8185 5.36875 10.4749 6.02513C11.1313 6.6815 11.5 7.57174 11.5 8.5Z"/>
    </symbol>
    <symbol id="video_icon" viewBox="0 0 16 16">
      <path d="M6,3c0,0.8-0.3,1.6-0.9,2.1S3.8,6,3,6S1.4,5.7,0.9,5.1S0,3.8,0,3s0.3-1.6,0.9-2.1S2.2,0,3,0s1.6,0.3,2.1,0.9S6,2.2,6,3z"/>
      <path d="M9,6C8.2,6,7.4,5.7,6.9,5.1S6,3.8,6,3s0.3-1.6,0.9-2.1S8.2,0,9,0c0.8,0,1.6,0.3,2.1,0.9S12,2.2,12,3s-0.3,1.6-0.9,2.1S9.8,6,9,6z"/>
      <path d="M9,6h0.5c0.5,0,1,0.2,1.3,0.5c0.4,0.3,0.6,0.8,0.7,1.2l3.1-1.4c0.2-0.1,0.3-0.1,0.5-0.1c0.2,0,0.3,0.1,0.5,0.2c0.1,0.1,0.3,0.2,0.3,0.4C16,6.9,16,7.1,16,7.3v7.5c0,0.2,0,0.3-0.1,0.5c-0.1,0.1-0.2,0.3-0.3,0.4s-0.3,0.1-0.5,0.2c-0.2,0-0.3,0-0.5-0.1l-3.1-1.4c-0.1,0.5-0.3,0.9-0.7,1.2C10.5,15.8,10,16,9.5,16H2c-0.5,0-1-0.2-1.4-0.6C0.2,15,0,14.5,0,14V8c0-0.5,0.2-1,0.6-1.4C1,6.2,1.5,6,2,6H9z"/>
    </symbol>
    <symbol id="arrow_right" viewBox="0 0 27 27">
      <path d="M6.7,13.5c0-0.2,0.1-0.4,0.2-0.6c0.2-0.2,0.4-0.2,0.6-0.2h9.8L13.7,9c-0.2-0.2-0.2-0.4-0.2-0.6s0.1-0.4,0.2-0.6c0.2-0.2,0.4-0.2,0.6-0.2c0.2,0,0.4,0.1,0.6,0.2l5.1,5.1c0.1,0.1,0.1,0.2,0.2,0.3c0,0.1,0.1,0.2,0.1,0.3s0,0.2-0.1,0.3c0,0.1-0.1,0.2-0.2,0.3l-5.1,5.1c-0.2,0.2-0.4,0.2-0.6,0.2c-0.2,0-0.4-0.1-0.6-0.2c-0.2-0.2-0.2-0.4-0.2-0.6c0-0.2,0.1-0.4,0.2-0.6l3.6-3.6H7.6c-0.2,0-0.4-0.1-0.6-0.2C6.8,13.9,6.7,13.7,6.7,13.5z"/>
    </symbol>
    <symbol id="article_icon" viewBox="0 0 16 16">
      <path d="M14.5 3C14.6326 3 14.7598 3.05268 14.8536 3.14645C14.9473 3.24021 15 3.36739 15 3.5V12.5C15 12.6326 14.9473 12.7598 14.8536 12.8536C14.7598 12.9473 14.6326 13 14.5 13H1.5C1.36739 13 1.24021 12.9473 1.14645 12.8536C1.05268 12.7598 1 12.6326 1 12.5V3.5C1 3.36739 1.05268 3.24021 1.14645 3.14645C1.24021 3.05268 1.36739 3 1.5 3H14.5ZM1.5 2C1.10218 2 0.720644 2.15804 0.43934 2.43934C0.158035 2.72064 0 3.10218 0 3.5V12.5C0 12.8978 0.158035 13.2794 0.43934 13.5607C0.720644 13.842 1.10218 14 1.5 14H14.5C14.8978 14 15.2794 13.842 15.5607 13.5607C15.842 13.2794 16 12.8978 16 12.5V3.5C16 3.10218 15.842 2.72064 15.5607 2.43934C15.2794 2.15804 14.8978 2 14.5 2H1.5Z"/>
      <path d="M3 8.5C3 8.36739 3.05268 8.24021 3.14645 8.14645C3.24021 8.05268 3.36739 8 3.5 8H12.5C12.6326 8 12.7598 8.05268 12.8536 8.14645C12.9473 8.24021 13 8.36739 13 8.5C13 8.63261 12.9473 8.75979 12.8536 8.85355C12.7598 8.94732 12.6326 9 12.5 9H3.5C3.36739 9 3.24021 8.94732 3.14645 8.85355C3.05268 8.75979 3 8.63261 3 8.5ZM3 10.5C3 10.3674 3.05268 10.2402 3.14645 10.1464C3.24021 10.0527 3.36739 10 3.5 10H9.5C9.63261 10 9.75979 10.0527 9.85355 10.1464C9.94732 10.2402 10 10.3674 10 10.5C10 10.6326 9.94732 10.7598 9.85355 10.8536C9.75979 10.9473 9.63261 11 9.5 11H3.5C3.36739 11 3.24021 10.9473 3.14645 10.8536C3.05268 10.7598 3 10.6326 3 10.5ZM3 5.5C3 5.36739 3.05268 5.24021 3.14645 5.14645C3.24021 5.05268 3.36739 5 3.5 5H12.5C12.6326 5 12.7598 5.05268 12.8536 5.14645C12.9473 5.24021 13 5.36739 13 5.5V6.5C13 6.63261 12.9473 6.75979 12.8536 6.85355C12.7598 6.94732 12.6326 7 12.5 7H3.5C3.36739 7 3.24021 6.94732 3.14645 6.85355C3.05268 6.75979 3 6.63261 3 6.5V5.5Z"/>
    </symbol>
    <symbol id="discount_icon" viewBox="0 0 16 16">
      <path d="M8.21479 16C8.06869 16 7.9226 16 7.7765 16C7.73893 15.9875 7.69719 15.975 7.65962 15.9666C7.31734 15.8915 7.02097 15.7454 6.82061 15.4449C6.45746 14.9107 6.09848 14.3764 5.7395 13.8422C5.68941 13.7629 5.63932 13.7504 5.54749 13.7671C4.93806 13.8839 4.3328 13.9966 3.72337 14.101C2.62973 14.2929 1.69889 13.3622 1.89508 12.2687C1.99943 11.6927 2.10796 11.1126 2.22901 10.5366C2.25406 10.4197 2.22066 10.3696 2.13301 10.307C1.62376 9.94392 1.12286 9.57246 0.617779 9.20934C0.304715 8.98396 0.100181 8.68762 0.0292195 8.30364C0.0250453 8.27442 0.00834836 8.24521 0 8.21599C0 8.06991 0 7.92383 0 7.77775C0.0960062 7.21847 0.450812 6.86788 0.914146 6.57989C1.33574 6.31695 1.74063 6.02061 2.15388 5.74097C2.22066 5.69506 2.25823 5.6575 2.24154 5.56567C2.19145 5.27351 2.15388 4.98135 2.10796 4.68502C2.04535 4.28016 1.97439 3.87531 1.91595 3.46629C1.78655 2.53972 2.71739 1.71332 3.69415 1.88862C4.28689 1.99296 4.87962 2.10982 5.47235 2.22669C5.57253 2.24756 5.62262 2.22252 5.67689 2.14739C6.03169 1.65071 6.41572 1.17491 6.74548 0.665714C7.31734 -0.214944 8.68647 -0.239986 9.27086 0.699104C9.57975 1.1916 9.9262 1.66324 10.2518 2.14739C10.3061 2.22669 10.352 2.25591 10.4522 2.23504C11.0532 2.11817 11.6585 2.00548 12.2637 1.90114C13.3741 1.70497 14.3007 2.63154 14.1004 3.73758C13.996 4.31773 13.8875 4.8937 13.7665 5.46968C13.7456 5.5782 13.7706 5.62828 13.8541 5.68671C14.3592 6.04565 14.8601 6.41294 15.3568 6.78023C15.4486 6.84701 15.5405 6.92214 15.6156 7.00144C16.2125 7.64002 16.0998 8.70014 15.3777 9.21351C14.8726 9.57245 14.355 9.9147 13.8416 10.2611C13.7665 10.3112 13.7414 10.3571 13.7623 10.4489C13.8792 11.0583 13.9919 11.6635 14.1004 12.2729C14.2924 13.3705 13.3616 14.3013 12.2679 14.101C11.6877 13.9966 11.1117 13.8881 10.5356 13.7671C10.4229 13.742 10.3687 13.7754 10.3061 13.8631C9.9429 14.3722 9.5714 14.8731 9.20825 15.3823C9.0538 15.5993 8.86179 15.7704 8.61551 15.8748C8.48611 15.9249 8.34836 15.9583 8.21479 16ZM12.5685 12.6652C12.5601 12.5901 12.5601 12.5442 12.5518 12.4982C12.4391 11.8847 12.3264 11.2712 12.2095 10.6576C12.101 10.0733 12.3389 9.51402 12.8356 9.1843C13.3532 8.83788 13.8666 8.47894 14.3842 8.13252C14.4928 8.05739 14.4886 8.00731 14.3801 7.94053C14.2966 7.89044 14.2173 7.83201 14.1338 7.77358C13.6621 7.44803 13.1779 7.13917 12.7271 6.78858C12.3138 6.46303 12.1051 6.01644 12.1928 5.47802C12.293 4.86866 12.4265 4.26347 12.5434 3.6541C12.5852 3.4329 12.5601 3.40368 12.3347 3.44542C11.8088 3.54559 11.2828 3.64993 10.7569 3.7501C10.0431 3.88366 9.4587 3.62906 9.06632 3.02387C8.75743 2.54389 8.45272 2.05974 8.14383 1.57559C8.03947 1.41281 8.02278 1.41281 7.91007 1.57559C7.58031 2.05557 7.26308 2.54807 6.92079 3.0197C6.50755 3.5915 5.95656 3.85027 5.2386 3.70002C4.66674 3.57898 4.09487 3.47881 3.52301 3.37029C3.36022 3.34107 3.331 3.37029 3.36022 3.53724C3.47292 4.12156 3.57727 4.70171 3.69415 5.28186C3.83607 5.98305 3.60649 6.54233 3.00541 6.93048C2.52955 7.23934 2.04952 7.53985 1.56949 7.84453C1.40253 7.94887 1.40253 7.96974 1.56114 8.07826C1.84499 8.27025 2.12883 8.46224 2.41268 8.65841C2.67565 8.84205 2.95532 9.009 3.19742 9.22186C3.63154 9.60167 3.81938 10.0733 3.68998 10.6618C3.56475 11.2253 3.46875 11.7929 3.36022 12.3605C3.32265 12.565 3.35187 12.5901 3.5564 12.5525C4.13661 12.4398 4.721 12.3271 5.30121 12.2144C5.93569 12.0934 6.47416 12.3313 6.82896 12.878C7.16707 13.4039 7.50935 13.9257 7.85164 14.4474C7.93512 14.5726 7.96016 14.5726 8.04782 14.4474C8.24401 14.1636 8.43602 13.8797 8.62803 13.5959C8.78248 13.3664 8.92857 13.1326 9.09972 12.9156C9.47122 12.4315 9.9429 12.1643 10.5774 12.2812C10.8737 12.3355 11.1701 12.3981 11.4665 12.4523C11.8296 12.5275 12.1886 12.5942 12.5685 12.6652Z"/>
      <path d="M5.81492 10.9079C5.50185 10.9037 5.2848 10.7409 5.1554 10.4655C5.026 10.1942 5.08444 9.93958 5.27227 9.71003C5.29315 9.68499 5.31402 9.66412 5.33906 9.64325C6.77498 8.20748 8.2109 6.77172 9.64682 5.34013C9.99328 4.99371 10.4733 5.01458 10.7613 5.39022C10.9575 5.64481 10.9617 5.97036 10.778 6.23331C10.7405 6.28339 10.6987 6.32931 10.6528 6.37522C9.22522 7.80263 7.79766 9.23005 6.37009 10.6575C6.20729 10.8077 6.04032 10.9162 5.81492 10.9079Z"/>
      <path d="M10.9018 9.82721C10.8977 10.4282 10.4051 10.9124 9.79986 10.9082C9.20713 10.904 8.71875 10.4115 8.71875 9.81886C8.71875 9.22202 9.21965 8.72534 9.81656 8.72952C10.4218 8.72952 10.906 9.22202 10.9018 9.82721Z"/>
      <path d="M6.1754 5.09424C6.78066 5.09424 7.26903 5.58674 7.26903 6.18775C7.26486 6.7846 6.76396 7.28127 6.16705 7.2771C5.57014 7.26875 5.08594 6.7846 5.08594 6.18775C5.08594 5.58256 5.57014 5.09424 6.1754 5.09424Z"/>
    </symbol>
    <symbol id="chat_icon" viewBox="0 0 20 20">
      <path d="M20,9.4c0,4.8-4.5,8.7-10,8.7c-1,0-2-0.1-2.9-0.4c-0.7,0.4-2.4,1.1-5.2,1.5c-0.3,0-0.4-0.2-0.3-0.5c0.4-1,0.8-2.4,1-3.7C0.9,13.6,0,11.6,0,9.4c0-4.8,4.5-8.8,10-8.8S20,4.6,20,9.4z M5.6,5.7c-0.2,0-0.3,0.1-0.4,0.2C5.1,6,5,6.1,5,6.3s0.1,0.3,0.2,0.4c0.1,0.1,0.3,0.2,0.4,0.2h8.8c0.2,0,0.3-0.1,0.4-0.2C14.9,6.6,15,6.5,15,6.3S14.9,6,14.8,5.9c-0.1-0.1-0.3-0.2-0.4-0.2H5.6z M5.6,8.8C5.5,8.8,5.3,8.9,5.2,9C5.1,9.1,5,9.3,5,9.4s0.1,0.3,0.2,0.4C5.3,10,5.5,10,5.6,10h8.8c0.2,0,0.3-0.1,0.4-0.2C14.9,9.7,15,9.6,15,9.4S14.9,9.1,14.8,9c-0.1-0.1-0.3-0.2-0.4-0.2H5.6z M5.6,11.9c-0.2,0-0.3,0.1-0.4,0.2C5.1,12.2,5,12.4,5,12.5s0.1,0.3,0.2,0.4c0.1,0.1,0.3,0.2,0.4,0.2h5c0.2,0,0.3-0.1,0.4-0.2c0.1-0.1,0.2-0.3,0.2-0.4s-0.1-0.3-0.2-0.4c-0.1-0.1-0.3-0.2-0.4-0.2H5.6z"/>
    </symbol>
    <symbol id="pin_icon" viewBox="0 0 20 20">
      <path fill-rule="evenodd" clip-rule="evenodd" d="M10,20c0,0,7.5-7.1,7.5-12.5c0-2-0.8-3.9-2.2-5.3C13.9,0.8,12,0,10,0C8,0,6.1,0.8,4.7,2.2C3.3,3.6,2.5,5.5,2.5,7.5C2.5,12.9,10,20,10,20z M10,11.2c1,0,1.9-0.4,2.7-1.1c0.7-0.7,1.1-1.7,1.1-2.7c0-1-0.4-1.9-1.1-2.7C11.9,4.1,11,3.8,10,3.8S8.1,4.1,7.3,4.8C6.6,5.6,6.3,6.5,6.3,7.5c0,1,0.4,1.9,1.1,2.7C8.1,10.9,9,11.2,10,11.2z"/>
    </symbol>
</svg>
