<svg aria-hidden="true" style="width: 0px; height: 0px; overflow: hidden; position: absolute;" xmlns="http://www.w3.org/2000/svg">
    <symbol id="burger_icon" viewBox="0 0 40 40">
      <path fill-rule="evenodd" clip-rule="evenodd" d="M35 26.25C35 25.9185 34.8683 25.6005 34.6339 25.3661C34.3995 25.1317 34.0815 25 33.75 25H26.25C25.9185 25 25.6005 25.1317 25.3661 25.3661C25.1317 25.6005 25 25.9185 25 26.25C25 26.5815 25.1317 26.8995 25.3661 27.1339C25.6005 27.3683 25.9185 27.5 26.25 27.5H33.75C34.0815 27.5 34.3995 27.3683 34.6339 27.1339C34.8683 26.8995 35 26.5815 35 26.25ZM35 18.75C35 18.4185 34.8683 18.1005 34.6339 17.8661C34.3995 17.6317 34.0815 17.5 33.75 17.5H16.25C15.9185 17.5 15.6005 17.6317 15.3661 17.8661C15.1317 18.1005 15 18.4185 15 18.75C15 19.0815 15.1317 19.3995 15.3661 19.6339C15.6005 19.8683 15.9185 20 16.25 20H33.75C34.0815 20 34.3995 19.8683 34.6339 19.6339C34.8683 19.3995 35 19.0815 35 18.75ZM35 11.25C35 10.9185 34.8683 10.6005 34.6339 10.3661C34.3995 10.1317 34.0815 10 33.75 10H6.25C5.91848 10 5.60054 10.1317 5.36612 10.3661C5.13169 10.6005 5 10.9185 5 11.25C5 11.5815 5.13169 11.8995 5.36612 12.1339C5.60054 12.3683 5.91848 12.5 6.25 12.5H33.75C34.0815 12.5 34.3995 12.3683 34.6339 12.1339C34.8683 11.8995 35 11.5815 35 11.25Z"/>
    </symbol>
    <symbol id="eye_icon" viewBox="0 0 24 24">
      <path d="M15.8,12c0,1-0.4,1.9-1.1,2.7c-0.7,0.7-1.7,1.1-2.7,1.1c-1,0-1.9-0.4-2.7-1.1C8.6,13.9,8.2,13,8.2,12s0.4-1.9,1.1-2.7C10.1,8.6,11,8.3,12,8.3c1,0,1.9,0.4,2.7,1.1C15.4,10.1,15.8,11,15.8,12z"/>
    	<path d="M0,12c0,0,4.5-8.3,12-8.3c7.5,0,12,8.3,12,8.3s-4.5,8.3-12,8.3C4.5,20.3,0,12,0,12z M12,17.3c1.4,0,2.7-0.6,3.7-1.5c1-1,1.5-2.3,1.5-3.7s-0.6-2.7-1.5-3.7c-1-1-2.3-1.5-3.7-1.5S9.3,7.3,8.3,8.3c-1,1-1.5,2.3-1.5,3.7s0.6,2.7,1.5,3.7C9.3,16.7,10.6,17.3,12,17.3z"/>
    </symbol>
    <symbol id="phone_icon" viewBox="0 0 16 16">
      <path d="M1.9,0.5c0.2-0.2,0.4-0.3,0.6-0.4C2.7,0,3,0,3.2,0c0.2,0,0.5,0.1,0.7,0.2c0.2,0.1,0.4,0.3,0.6,0.5L6.3,3c0.3,0.4,0.4,1,0.3,1.5L6.1,6.7c0,0.1,0,0.2,0,0.3s0.1,0.2,0.2,0.3l2.5,2.5C8.8,9.8,8.9,9.9,9,9.9c0.1,0,0.2,0,0.3,0l2.2-0.5c0.3-0.1,0.5-0.1,0.8,0c0.3,0.1,0.5,0.2,0.7,0.3l2.3,1.8c0.8,0.6,0.9,1.9,0.2,2.6l-1,1c-0.7,0.7-1.8,1.1-2.9,0.7c-2.6-0.9-5-2.4-7-4.4c-2-2-3.5-4.4-4.4-7c-0.4-1,0-2.1,0.7-2.9L1.9,0.5z"/>
    </symbol>
    <symbol id="search_icon" viewBox="0 0 24 24">
      <path d="M17.6124 15.5171C19.0648 13.5352 19.7154 11.0779 19.4338 8.63685C19.1523 6.19584 17.9595 3.95114 16.094 2.35182C14.2286 0.752509 11.828 -0.0834673 9.37265 0.0111424C6.91728 0.105752 4.58817 1.12397 2.8513 2.86209C1.11442 4.60021 0.0978694 6.93004 0.00501667 9.38548C-0.0878361 11.8409 0.749858 14.2409 2.35051 16.1052C3.95115 17.9695 6.19671 19.1607 8.63792 19.4405C11.0791 19.7203 13.536 19.068 15.5169 17.6141H15.5154C15.5604 17.6741 15.6084 17.7311 15.6624 17.7866L21.4374 23.5616C21.7187 23.8431 22.1002 24.0013 22.4981 24.0014C22.896 24.0016 23.2777 23.8436 23.5591 23.5624C23.8406 23.2811 23.9988 22.8996 23.9989 22.5017C23.9991 22.1038 23.8412 21.7221 23.5599 21.4406L17.7849 15.6656C17.7313 15.6113 17.6736 15.5612 17.6124 15.5156V15.5171ZM17.9994 9.75113C17.9994 10.8345 17.786 11.9073 17.3714 12.9083C16.9568 13.9092 16.3491 14.8187 15.583 15.5848C14.8169 16.3508 13.9075 16.9585 12.9065 17.3731C11.9056 17.7877 10.8328 18.0011 9.74939 18.0011C8.66599 18.0011 7.59319 17.7877 6.59226 17.3731C5.59132 16.9585 4.68185 16.3508 3.91576 15.5848C3.14968 14.8187 2.54199 13.9092 2.12739 12.9083C1.71279 11.9073 1.49939 10.8345 1.49939 9.75113C1.49939 7.56309 2.36859 5.46467 3.91576 3.9175C5.46294 2.37032 7.56136 1.50113 9.74939 1.50113C11.9374 1.50113 14.0358 2.37032 15.583 3.9175C17.1302 5.46467 17.9994 7.56309 17.9994 9.75113Z"/>
    </symbol>
    <symbol id="chevron_down" viewBox="0 0 21 21">
      <path fill-rule="evenodd" clip-rule="evenodd" d="M2.90627 6.30862C2.96433 6.25041 3.0333 6.20423 3.10923 6.17273C3.18516 6.14122 3.26656 6.125 3.34877 6.125C3.43098 6.125 3.51238 6.14122 3.58832 6.17273C3.66425 6.20423 3.73322 6.25041 3.79127 6.30862L10.8488 13.3674L17.9063 6.30862C17.9644 6.25051 18.0334 6.20441 18.1093 6.17296C18.1852 6.14151 18.2666 6.12533 18.3488 6.12533C18.431 6.12533 18.5123 6.14151 18.5883 6.17296C18.6642 6.20441 18.7332 6.25051 18.7913 6.30862C18.8494 6.36673 18.8955 6.43571 18.9269 6.51164C18.9584 6.58756 18.9746 6.66894 18.9746 6.75112C18.9746 6.8333 18.9584 6.91467 18.9269 6.9906C18.8955 7.06652 18.8494 7.13551 18.7913 7.19362L11.2913 14.6936C11.2332 14.7518 11.1642 14.798 11.0883 14.8295C11.0124 14.861 10.931 14.8772 10.8488 14.8772C10.7666 14.8772 10.6852 14.861 10.6092 14.8295C10.5333 14.798 10.4643 14.7518 10.4063 14.6936L2.90627 7.19362C2.84807 7.13556 2.80189 7.06659 2.77038 6.99066C2.73887 6.91473 2.72266 6.83333 2.72266 6.75112C2.72266 6.66891 2.73887 6.58751 2.77038 6.51157C2.80189 6.43564 2.84807 6.36667 2.90627 6.30862Z"/>
    </symbol>
    <symbol id="close_icon" viewBox="0 0 40 40">
      <path d="M11,12.4L11,12.4l7.5,7.5L11,27.5l0,0c-0.1,0.1-0.2,0.2-0.2,0.3c-0.1,0.1-0.1,0.3-0.1,0.4s0,0.3,0.1,0.4c0.1,0.2,0.1,0.3,0.2,0.4l0,0c0.1,0.1,0.2,0.2,0.3,0.2c0.1,0.1,0.3,0.1,0.4,0.1s0.3,0,0.4-0.1c0.1-0.1,0.2-0.1,0.3-0.2l0,0l7.5-7.5l7.5,7.5l0,0c0.1,0.1,0.2,0.2,0.3,0.2c0.1,0.1,0.3,0.1,0.4,0.1s0.3,0,0.4-0.1s0.2-0.1,0.3-0.2l-0.2-0.2L29,29c0.1-0.1,0.2-0.2,0.2-0.3c0.1-0.1,0.1-0.3,0.1-0.4s0-0.3-0.1-0.4s-0.1-0.2-0.2-0.3l0,0L21.4,20l7.6-7.5l0,0c0.1-0.1,0.2-0.2,0.2-0.3c0.1-0.1,0.1-0.3,0.1-0.4c0-0.1,0-0.3-0.1-0.4c-0.1-0.2-0.1-0.3-0.2-0.4l0,0c-0.1-0.1-0.2-0.2-0.3-0.2c-0.1-0.1-0.3-0.1-0.4-0.1s-0.3,0-0.4,0.1c-0.2,0.1-0.3,0.2-0.4,0.2l0,0L20,18.6l-7.5-7.6l0,0c-0.1,0-0.2-0.1-0.4-0.2c-0.1,0-0.2,0-0.4,0s-0.3,0-0.4,0.1c-0.1,0-0.2,0.1-0.3,0.1c-0.1,0.1-0.1,0.2-0.2,0.4c0,0.1-0.1,0.2-0.1,0.4c0,0.1,0,0.3,0.1,0.4C10.9,12.3,10.9,12.4,11,12.4z"/>
      <path d="M28.3,29.5c-0.2,0-0.3,0-0.5-0.1s-0.3-0.2-0.4-0.3L20,21.8l-7.4,7.4c-0.1,0.1-0.3,0.2-0.4,0.3c-0.3,0.1-0.6,0.1-1,0c-0.2-0.1-0.3-0.2-0.4-0.3c-0.1-0.1-0.2-0.3-0.3-0.4c-0.1-0.1-0.1-0.3-0.1-0.5s0-0.3,0.1-0.5c0.1-0.2,0.2-0.3,0.3-0.4l7.4-7.4l-7.3-7.4c-0.2-0.1-0.2-0.2-0.3-0.4c-0.1-0.1-0.1-0.3-0.1-0.4c0-0.2,0-0.3,0.1-0.5c0.1-0.2,0.1-0.3,0.3-0.4c0.1-0.2,0.2-0.2,0.4-0.3c0.3-0.1,0.7-0.1,1,0c0.2,0.1,0.3,0.2,0.4,0.3l7.4,7.4l7.4-7.4c0.1-0.1,0.3-0.2,0.4-0.3c0.3-0.1,0.7-0.1,1,0c0.2,0.1,0.3,0.2,0.4,0.3c0.1,0.1,0.2,0.3,0.3,0.4c0.1,0.2,0.1,0.3,0.1,0.5s0,0.3-0.1,0.5s-0.2,0.3-0.3,0.4L21.8,20l7.4,7.4c0.1,0.1,0.2,0.3,0.3,0.4s0.1,0.3,0.1,0.5s0,0.3-0.1,0.5c0,0.1-0.1,0.1-0.1,0.2l0,0L29,29.3l0,0c-0.1,0-0.1,0.1-0.2,0.1C28.6,29.5,28.4,29.5,28.3,29.5z M20,21.1l7.7,7.7c0.1,0.1,0.2,0.1,0.2,0.2c0.2,0.1,0.4,0.1,0.6,0c0.1,0,0.2-0.1,0.2-0.2s0.1-0.2,0.2-0.2c0-0.1,0.1-0.2,0.1-0.3s0-0.2-0.1-0.3c0-0.1-0.1-0.2-0.2-0.2L21.1,20l7.7-7.7c0.1-0.1,0.1-0.2,0.2-0.2c0-0.2,0-0.3,0-0.3s0-0.2-0.1-0.3c0-0.1-0.1-0.2-0.2-0.2c-0.1-0.1-0.2-0.1-0.2-0.2c-0.1-0.1-0.4-0.1-0.5,0c-0.1,0-0.2,0.1-0.2,0.2L20,18.9l-7.7-7.7c-0.1-0.1-0.2-0.1-0.3-0.1c-0.1-0.1-0.4-0.1-0.5,0c-0.1,0-0.2,0.1-0.2,0.2c-0.2,0-0.2,0.1-0.2,0.2C11,11.6,11,11.6,11,11.8c0,0.1,0,0.1,0.1,0.2c0,0.1,0.1,0.2,0.2,0.2l7.7,7.7l-7.7,7.7c-0.1,0.1-0.1,0.2-0.2,0.2c-0.1,0-0.1,0.4-0.1,0.5s0,0.2,0.1,0.3c0.1,0.1,0.1,0.2,0.2,0.2c0.1,0.1,0.2,0.1,0.2,0.2c0.1,0,0.4,0,0.5-0.1c0.1,0,0.2-0.1,0.2-0.2L20,21.1z"/>
    </symbol>
    <symbol id="whatsapp_icon" viewBox="0 0 16 16">
      <path d="M0 16L1.16505 11.7281C0.543689 10.5631 0.155349 9.2427 0.155349 7.92231C0.155349 3.5728 3.72815 0 8.07766 0C12.4272 0 16 3.5728 16 7.92231C16 12.2718 12.4272 15.8447 8.07766 15.8447C6.75728 15.8447 5.51457 15.534 4.34952 14.9126L0 16ZM4.50484 13.2039L4.73787 13.3592C5.74758 13.9806 6.83494 14.2913 7.99999 14.2913C11.4951 14.2913 14.3689 11.4175 14.3689 7.92231C14.3689 4.42717 11.4951 1.5534 7.99999 1.5534C4.50484 1.5534 1.63107 4.42717 1.63107 7.92231C1.63107 9.08736 1.94174 10.2524 2.5631 11.2621L2.71845 11.5728L2.0971 13.9806L4.50484 13.2039Z"/>
      <path fill-rule="evenodd" clip-rule="evenodd" d="M10.9531 9.01054C10.6424 8.77753 10.1764 8.6222 9.78808 8.77754C9.4774 8.93288 9.32207 9.32123 9.08906 9.55424C9.01139 9.70958 8.85605 9.70958 8.70071 9.63191C7.61333 9.16589 6.75894 8.46685 6.13759 7.45714C6.05992 7.3018 6.05992 7.14648 6.21526 6.99114C6.3706 6.75813 6.60361 6.52512 6.68128 6.21444C6.75895 5.90376 6.6036 5.59308 6.44826 5.36007C6.29292 5.04939 6.13759 4.58336 5.82691 4.35035C5.51623 4.19501 5.12789 4.27269 4.81721 4.50569C4.35119 4.89404 4.11816 5.5154 4.11816 6.05909C4.11816 6.21443 4.11817 6.36978 4.19584 6.52512C4.27351 6.91347 4.50652 7.30181 4.66186 7.61249C4.8172 7.8455 4.97255 8.15618 5.12789 8.38919C5.74925 9.16589 6.44827 9.86492 7.30263 10.4086C7.69098 10.6416 8.15701 10.8746 8.62303 11.03C9.16672 11.1853 9.63274 11.4183 10.1764 11.263C10.7978 11.1853 11.3415 10.7969 11.5745 10.1756C11.6521 10.0202 11.6522 9.78725 11.6522 9.63191C11.7298 9.3989 11.2638 9.16588 10.9531 9.01054Z"/>
    </symbol>
</svg>
