<svg xmlns="http://www.w3.org/2000/svg" viewBox="0 0 45 45">
<g>
	<path d="M10.5,15.9c0.1-0.5,0.3-0.9,0.6-1.3c0.6-0.8,1.4-1.1,2.4-1.1c0,0.4,0,0.8,0,1.2c0,1.1,0.5,1.9,1.4,2.4c0.4,0.3,0.9,0.4,1.4,0.4c1.8,0,3.7,0,5.5,0c1.6,0,2.7-1.2,2.8-2.7c0-0.4,0-0.8,0-1.2c0.9-0.1,1.6,0.2,2.2,0.8c0.5,0.5,0.8,1.2,0.8,1.9c0,2.2,0,4.3,0,6.5c0,0.1-0.1,0.2-0.1,0.3c-1.1,1.1-2.2,2.2-3.4,3.4c-0.1,0.1-0.1,0.1-0.2,0.1c-2.3,0-4.5,0-6.8,0c-0.9,0-1.8,0-2.7,0c-0.6,0-0.9,0.5-0.8,1c0.1,0.3,0.4,0.5,0.7,0.5c0.2,0,0.5,0,0.7,0c2.4,0,4.8,0,7.3,0c0.1,0,0.1,0,0.2,0c-0.4,0.5-0.9,1-1.2,1.6c-0.3,0.6-0.4,1.3-0.5,1.9c-0.1,0-0.2,0-0.2,0c-2.3,0-4.6,0-6.9,0c-1.6,0-2.7-1.1-2.9-2.3c0,0,0,0,0-0.1C10.5,24.7,10.5,20.3,10.5,15.9z M19,24.8c1.6,0,3.2,0,4.7,0c0.5,0,0.8-0.3,0.8-0.8c0-0.4-0.3-0.7-0.8-0.7c-3.1,0-6.3,0-9.4,0c-0.2,0-0.3,0.1-0.4,0.1c-0.3,0.2-0.4,0.5-0.3,0.8c0.1,0.3,0.4,0.6,0.8,0.6C15.8,24.8,17.4,24.8,19,24.8z M19,20c-1.5,0-3,0-4.6,0c-0.1,0-0.2,0-0.3,0c-0.3,0-0.5,0.2-0.6,0.5c-0.1,0.3,0,0.6,0.2,0.8c0.2,0.1,0.4,0.2,0.6,0.2c3.1,0,6.2,0,9.3,0c0.1,0,0.2,0,0.3,0c0.3-0.1,0.5-0.3,0.5-0.6c0.1-0.3,0-0.5-0.2-0.7C24.1,20,23.9,20,23.6,20C22.1,20,20.6,20,19,20z"/>
	<path d="M22.8,34.5c-0.5-0.3-0.6-0.5-0.5-1.1c0.2-0.9,0.3-1.7,0.5-2.6c0-0.3,0.2-0.5,0.4-0.7c2.4-2.4,4.8-4.8,7.2-7.2c0.3-0.3,0.6-0.5,1-0.7c0.5-0.2,1,0,1.4,0.3c0.4,0.4,0.9,0.9,1.3,1.3c0.7,0.7,0.7,1.8,0,2.4c-2.5,2.5-4.9,4.9-7.4,7.4c-0.2,0.2-0.5,0.3-0.8,0.3c-0.8,0.2-1.7,0.3-2.5,0.4c0,0-0.1,0-0.1,0C23.1,34.5,22.9,34.5,22.8,34.5z"/>
	<path d="M16.3,12.5c0.2-0.4,0.4-0.7,0.7-1c1.4-1.6,3.9-1.1,4.6,0.8c0.1,0.2,0.2,0.2,0.3,0.2c0.3,0,0.6,0,0.8,0c0.4,0,0.7,0.3,0.7,0.7c0,0.5,0,1.1,0,1.6c0,0.9-0.8,1.6-1.7,1.7c-1.9,0-3.7,0-5.6,0c-0.9,0-1.7-0.8-1.7-1.7c0-0.5,0-1,0-1.5c0-0.5,0.3-0.8,0.8-0.8C15.6,12.5,16,12.5,16.3,12.5z"/>
</g>
</svg>
