<svg xmlns="http://www.w3.org/2000/svg" viewBox="0 0 16 16">
<path d="M14,0H2C1.5,0,1,0.2,0.6,0.6C0.2,1,0,1.5,0,2v12c0,0.5,0.2,1,0.6,1.4C1,15.8,1.5,16,2,16h12c0.5,0,1-0.2,1.4-0.6C15.8,15,16,14.5,16,14V2c0-0.5-0.2-1-0.6-1.4C15,0.2,14.5,0,14,0z M1,3.9C1,3.4,1.4,3,2,3h12c0.6,0,1,0.4,1,0.9v10.3c0,0.5-0.4,0.9-1,0.9H2c-0.6,0-1-0.4-1-0.9V3.9z"/>
<path d="M6.5,6C6.8,6,7,5.9,7.2,5.7C7.4,5.5,7.5,5.3,7.5,5c0-0.3-0.1-0.5-0.3-0.7C7,4.1,6.8,4,6.5,4S6,4.1,5.8,4.3C5.6,4.5,5.5,4.7,5.5,5c0,0.3,0.1,0.5,0.3,0.7C6,5.9,6.2,6,6.5,6z M9.5,6c0.3,0,0.5-0.1,0.7-0.3c0.2-0.2,0.3-0.4,0.3-0.7c0-0.3-0.1-0.5-0.3-0.7C10,4.1,9.8,4,9.5,4S9,4.1,8.8,4.3C8.6,4.5,8.5,4.7,8.5,5c0,0.3,0.1,0.5,0.3,0.7C9,5.9,9.2,6,9.5,6z M12.5,6c0.3,0,0.5-0.1,0.7-0.3c0.2-0.2,0.3-0.4,0.3-0.7c0-0.3-0.1-0.5-0.3-0.7C13,4.1,12.8,4,12.5,4S12,4.1,11.8,4.3c-0.2,0.2-0.3,0.4-0.3,0.7c0,0.3,0.1,0.5,0.3,0.7C12,5.9,12.2,6,12.5,6z M3.5,9C3.8,9,4,8.9,4.2,8.7C4.4,8.5,4.5,8.3,4.5,8c0-0.3-0.1-0.5-0.3-0.7C4,7.1,3.8,7,3.5,7S3,7.1,2.8,7.3C2.6,7.5,2.5,7.7,2.5,8c0,0.3,0.1,0.5,0.3,0.7C3,8.9,3.2,9,3.5,9z M6.5,9C6.8,9,7,8.9,7.2,8.7C7.4,8.5,7.5,8.3,7.5,8c0-0.3-0.1-0.5-0.3-0.7C7,7.1,6.8,7,6.5,7S6,7.1,5.8,7.3C5.6,7.5,5.5,7.7,5.5,8c0,0.3,0.1,0.5,0.3,0.7C6,8.9,6.2,9,6.5,9z M9.5,9c0.3,0,0.5-0.1,0.7-0.3c0.2-0.2,0.3-0.4,0.3-0.7c0-0.3-0.1-0.5-0.3-0.7C10,7.1,9.8,7,9.5,7S9,7.1,8.8,7.3C8.6,7.5,8.5,7.7,8.5,8c0,0.3,0.1,0.5,0.3,0.7C9,8.9,9.2,9,9.5,9z M12.5,9c0.3,0,0.5-0.1,0.7-0.3c0.2-0.2,0.3-0.4,0.3-0.7c0-0.3-0.1-0.5-0.3-0.7C13,7.1,12.8,7,12.5,7S12,7.1,11.8,7.3c-0.2,0.2-0.3,0.4-0.3,0.7c0,0.3,0.1,0.5,0.3,0.7C12,8.9,12.2,9,12.5,9z M3.5,12c0.3,0,0.5-0.1,0.7-0.3c0.2-0.2,0.3-0.4,0.3-0.7c0-0.3-0.1-0.5-0.3-0.7C4,10.1,3.8,10,3.5,10S3,10.1,2.8,10.3c-0.2,0.2-0.3,0.4-0.3,0.7c0,0.3,0.1,0.5,0.3,0.7C3,11.9,3.2,12,3.5,12z M6.5,12c0.3,0,0.5-0.1,0.7-0.3c0.2-0.2,0.3-0.4,0.3-0.7c0-0.3-0.1-0.5-0.3-0.7C7,10.1,6.8,10,6.5,10S6,10.1,5.8,10.3c-0.2,0.2-0.3,0.4-0.3,0.7c0,0.3,0.1,0.5,0.3,0.7C6,11.9,6.2,12,6.5,12z M9.5,12c0.3,0,0.5-0.1,0.7-0.3s0.3-0.4,0.3-0.7c0-0.3-0.1-0.5-0.3-0.7C10,10.1,9.8,10,9.5,10S9,10.1,8.8,10.3c-0.2,0.2-0.3,0.4-0.3,0.7c0,0.3,0.1,0.5,0.3,0.7C9,11.9,9.2,12,9.5,12z"/>
</svg>
