<svg xmlns="http://www.w3.org/2000/svg" viewBox="0 0 20 20">
<path d="M20,9.4c0,4.8-4.5,8.7-10,8.7c-1,0-2-0.1-2.9-0.4c-0.7,0.4-2.4,1.1-5.2,1.5c-0.3,0-0.4-0.2-0.3-0.5c0.4-1,0.8-2.4,1-3.7C0.9,13.6,0,11.6,0,9.4c0-4.8,4.5-8.8,10-8.8S20,4.6,20,9.4z M5.6,5.7c-0.2,0-0.3,0.1-0.4,0.2C5.1,6,5,6.1,5,6.3s0.1,0.3,0.2,0.4c0.1,0.1,0.3,0.2,0.4,0.2h8.8c0.2,0,0.3-0.1,0.4-0.2C14.9,6.6,15,6.5,15,6.3S14.9,6,14.8,5.9c-0.1-0.1-0.3-0.2-0.4-0.2H5.6z M5.6,8.8C5.5,8.8,5.3,8.9,5.2,9C5.1,9.1,5,9.3,5,9.4s0.1,0.3,0.2,0.4C5.3,10,5.5,10,5.6,10h8.8c0.2,0,0.3-0.1,0.4-0.2C14.9,9.7,15,9.6,15,9.4S14.9,9.1,14.8,9c-0.1-0.1-0.3-0.2-0.4-0.2H5.6z M5.6,11.9c-0.2,0-0.3,0.1-0.4,0.2C5.1,12.2,5,12.4,5,12.5s0.1,0.3,0.2,0.4c0.1,0.1,0.3,0.2,0.4,0.2h5c0.2,0,0.3-0.1,0.4-0.2c0.1-0.1,0.2-0.3,0.2-0.4s-0.1-0.3-0.2-0.4c-0.1-0.1-0.3-0.2-0.4-0.2H5.6z"/>
</svg>
