<svg xmlns="http://www.w3.org/2000/svg" viewBox="0 0 16 16">
<path d="M8,15.3C4,15.3,0.7,12,0.7,8C0.7,4,4,0.7,8,0.7S15.3,4,15.3,8C15.3,12,12,15.3,8,15.3z M8,2C4.7,2,2,4.7,2,8c0,3.3,2.7,6,6,6s6-2.7,6-6C14,4.7,11.3,2,8,2z"/>
<path d="M6,10.7c-0.2,0-0.3-0.1-0.5-0.2c-0.3-0.3-0.3-0.7,0-0.9l4-4c0.3-0.3,0.7-0.3,0.9,0c0.3,0.3,0.3,0.7,0,0.9l-4,4C6.3,10.6,6.2,10.7,6,10.7z"/>
<path d="M10,10.7c-0.2,0-0.3-0.1-0.5-0.2l-4-4c-0.3-0.3-0.3-0.7,0-0.9c0.3-0.3,0.7-0.3,0.9,0l4,4c0.3,0.3,0.3,0.7,0,0.9C10.3,10.6,10.2,10.7,10,10.7z"/>
</svg>
