<svg width="16" height="16" viewBox="0 0 16 16" fill="none" xmlns="http://www.w3.org/2000/svg">
<path d="M8.21479 16C8.06869 16 7.9226 16 7.7765 16C7.73893 15.9875 7.69719 15.975 7.65962 15.9666C7.31734 15.8915 7.02097 15.7454 6.82061 15.4449C6.45746 14.9107 6.09848 14.3764 5.7395 13.8422C5.68941 13.7629 5.63932 13.7504 5.54749 13.7671C4.93806 13.8839 4.3328 13.9966 3.72337 14.101C2.62973 14.2929 1.69889 13.3622 1.89508 12.2687C1.99943 11.6927 2.10796 11.1126 2.22901 10.5366C2.25406 10.4197 2.22066 10.3696 2.13301 10.307C1.62376 9.94392 1.12286 9.57246 0.617779 9.20934C0.304715 8.98396 0.100181 8.68762 0.0292195 8.30364C0.0250453 8.27442 0.00834836 8.24521 0 8.21599C0 8.06991 0 7.92383 0 7.77775C0.0960062 7.21847 0.450812 6.86788 0.914146 6.57989C1.33574 6.31695 1.74063 6.02061 2.15388 5.74097C2.22066 5.69506 2.25823 5.6575 2.24154 5.56567C2.19145 5.27351 2.15388 4.98135 2.10796 4.68502C2.04535 4.28016 1.97439 3.87531 1.91595 3.46629C1.78655 2.53972 2.71739 1.71332 3.69415 1.88862C4.28689 1.99296 4.87962 2.10982 5.47235 2.22669C5.57253 2.24756 5.62262 2.22252 5.67689 2.14739C6.03169 1.65071 6.41572 1.17491 6.74548 0.665714C7.31734 -0.214944 8.68647 -0.239986 9.27086 0.699104C9.57975 1.1916 9.9262 1.66324 10.2518 2.14739C10.3061 2.22669 10.352 2.25591 10.4522 2.23504C11.0532 2.11817 11.6585 2.00548 12.2637 1.90114C13.3741 1.70497 14.3007 2.63154 14.1004 3.73758C13.996 4.31773 13.8875 4.8937 13.7665 5.46968C13.7456 5.5782 13.7706 5.62828 13.8541 5.68671C14.3592 6.04565 14.8601 6.41294 15.3568 6.78023C15.4486 6.84701 15.5405 6.92214 15.6156 7.00144C16.2125 7.64002 16.0998 8.70014 15.3777 9.21351C14.8726 9.57245 14.355 9.9147 13.8416 10.2611C13.7665 10.3112 13.7414 10.3571 13.7623 10.4489C13.8792 11.0583 13.9919 11.6635 14.1004 12.2729C14.2924 13.3705 13.3616 14.3013 12.2679 14.101C11.6877 13.9966 11.1117 13.8881 10.5356 13.7671C10.4229 13.742 10.3687 13.7754 10.3061 13.8631C9.9429 14.3722 9.5714 14.8731 9.20825 15.3823C9.0538 15.5993 8.86179 15.7704 8.61551 15.8748C8.48611 15.9249 8.34836 15.9583 8.21479 16ZM12.5685 12.6652C12.5601 12.5901 12.5601 12.5442 12.5518 12.4982C12.4391 11.8847 12.3264 11.2712 12.2095 10.6576C12.101 10.0733 12.3389 9.51402 12.8356 9.1843C13.3532 8.83788 13.8666 8.47894 14.3842 8.13252C14.4928 8.05739 14.4886 8.00731 14.3801 7.94053C14.2966 7.89044 14.2173 7.83201 14.1338 7.77358C13.6621 7.44803 13.1779 7.13917 12.7271 6.78858C12.3138 6.46303 12.1051 6.01644 12.1928 5.47802C12.293 4.86866 12.4265 4.26347 12.5434 3.6541C12.5852 3.4329 12.5601 3.40368 12.3347 3.44542C11.8088 3.54559 11.2828 3.64993 10.7569 3.7501C10.0431 3.88366 9.4587 3.62906 9.06632 3.02387C8.75743 2.54389 8.45272 2.05974 8.14383 1.57559C8.03947 1.41281 8.02278 1.41281 7.91007 1.57559C7.58031 2.05557 7.26308 2.54807 6.92079 3.0197C6.50755 3.5915 5.95656 3.85027 5.2386 3.70002C4.66674 3.57898 4.09487 3.47881 3.52301 3.37029C3.36022 3.34107 3.331 3.37029 3.36022 3.53724C3.47292 4.12156 3.57727 4.70171 3.69415 5.28186C3.83607 5.98305 3.60649 6.54233 3.00541 6.93048C2.52955 7.23934 2.04952 7.53985 1.56949 7.84453C1.40253 7.94887 1.40253 7.96974 1.56114 8.07826C1.84499 8.27025 2.12883 8.46224 2.41268 8.65841C2.67565 8.84205 2.95532 9.009 3.19742 9.22186C3.63154 9.60167 3.81938 10.0733 3.68998 10.6618C3.56475 11.2253 3.46875 11.7929 3.36022 12.3605C3.32265 12.565 3.35187 12.5901 3.5564 12.5525C4.13661 12.4398 4.721 12.3271 5.30121 12.2144C5.93569 12.0934 6.47416 12.3313 6.82896 12.878C7.16707 13.4039 7.50935 13.9257 7.85164 14.4474C7.93512 14.5726 7.96016 14.5726 8.04782 14.4474C8.24401 14.1636 8.43602 13.8797 8.62803 13.5959C8.78248 13.3664 8.92857 13.1326 9.09972 12.9156C9.47122 12.4315 9.9429 12.1643 10.5774 12.2812C10.8737 12.3355 11.1701 12.3981 11.4665 12.4523C11.8296 12.5275 12.1886 12.5942 12.5685 12.6652Z"/>
<path d="M5.81492 10.9079C5.50185 10.9037 5.2848 10.7409 5.1554 10.4655C5.026 10.1942 5.08444 9.93958 5.27227 9.71003C5.29315 9.68499 5.31402 9.66412 5.33906 9.64325C6.77498 8.20748 8.2109 6.77172 9.64682 5.34013C9.99328 4.99371 10.4733 5.01458 10.7613 5.39022C10.9575 5.64481 10.9617 5.97036 10.778 6.23331C10.7405 6.28339 10.6987 6.32931 10.6528 6.37522C9.22522 7.80263 7.79766 9.23005 6.37009 10.6575C6.20729 10.8077 6.04032 10.9162 5.81492 10.9079Z"/>
<path d="M10.9018 9.82721C10.8977 10.4282 10.4051 10.9124 9.79986 10.9082C9.20713 10.904 8.71875 10.4115 8.71875 9.81886C8.71875 9.22202 9.21965 8.72534 9.81656 8.72952C10.4218 8.72952 10.906 9.22202 10.9018 9.82721Z"/>
<path d="M6.1754 5.09424C6.78066 5.09424 7.26903 5.58674 7.26903 6.18775C7.26486 6.7846 6.76396 7.28127 6.16705 7.2771C5.57014 7.26875 5.08594 6.7846 5.08594 6.18775C5.08594 5.58256 5.57014 5.09424 6.1754 5.09424Z"/>
</svg>
