<svg width="16" height="16" viewBox="0 0 16 16" fill="none" xmlns="http://www.w3.org/2000/svg">
<path d="M14.6693 15.3333C14.6693 15.702 14.3713 16 14.0026 16H2.0026C1.63394 16 1.33594 15.702 1.33594 15.3333C1.33594 12.9833 2.69727 10.9507 4.66927 9.96667V12.1853C4.2726 12.416 4.0026 12.8413 4.0026 13.334C4.0026 14.0707 4.59927 14.6673 5.33594 14.6673C6.0726 14.6673 6.66927 14.0707 6.66927 13.334C6.66927 12.842 6.39927 12.4167 6.0026 12.1853V9.488C6.43194 9.39 6.87727 9.33333 7.33594 9.33333H8.66927C8.8946 9.33333 9.1166 9.348 9.33594 9.37267V12.1227C8.56194 12.3987 8.0026 13.132 8.0026 14V14.6667C8.0026 15.0353 8.3006 15.3333 8.66927 15.3333C9.03794 15.3333 9.33594 15.0353 9.33594 14.6667V14C9.33594 13.632 9.6346 13.3333 10.0026 13.3333C10.3706 13.3333 10.6693 13.632 10.6693 14V14.6667C10.6693 15.0353 10.9673 15.3333 11.3359 15.3333C11.7046 15.3333 12.0026 15.0353 12.0026 14.6667V14C12.0026 13.132 11.4433 12.3987 10.6693 12.1227V9.68333C12.9959 10.5093 14.6693 12.7267 14.6693 15.3333ZM12.0026 4C12.0026 1.794 10.2086 0 8.0026 0C5.7966 0 4.0026 1.794 4.0026 4C4.0026 6.206 5.7966 8 8.0026 8C10.2086 8 12.0026 6.206 12.0026 4Z"/>
</svg>
