<svg xmlns="http://www.w3.org/2000/svg" viewBox="0 0 24 24">
	<path d="M15.8,12c0,1-0.4,1.9-1.1,2.7c-0.7,0.7-1.7,1.1-2.7,1.1c-1,0-1.9-0.4-2.7-1.1C8.6,13.9,8.2,13,8.2,12s0.4-1.9,1.1-2.7C10.1,8.6,11,8.3,12,8.3c1,0,1.9,0.4,2.7,1.1C15.4,10.1,15.8,11,15.8,12z"/>
	<path d="M0,12c0,0,4.5-8.3,12-8.3c7.5,0,12,8.3,12,8.3s-4.5,8.3-12,8.3C4.5,20.3,0,12,0,12z M12,17.3c1.4,0,2.7-0.6,3.7-1.5c1-1,1.5-2.3,1.5-3.7s-0.6-2.7-1.5-3.7c-1-1-2.3-1.5-3.7-1.5S9.3,7.3,8.3,8.3c-1,1-1.5,2.3-1.5,3.7s0.6,2.7,1.5,3.7C9.3,16.7,10.6,17.3,12,17.3z"/>
</svg>
