<svg xmlns="http://www.w3.org/2000/svg" viewBox="0 0 43 43">
<path d="M26.4,19.3c-1.3,1.3-3,2-4.9,2c-1.9,0-3.7-0.8-4.9-2c-1.3-1.3-2-3-2-4.9c0-1.9,0.8-3.7,2-4.9c1.3-1.3,3-2,4.9-2c1.9,0,3.7,0.8,4.9,2c1.3,1.3,2,3,2,4.9C28.5,16.3,27.7,18.1,26.4,19.3z M21.5,11.2c-0.9,0-1.6,0.3-2.2,0.9c-0.6,0.6-0.9,1.4-0.9,2.2c0,0.9,0.3,1.6,0.9,2.2c0.6,0.6,1.4,0.9,2.2,0.9c0.9,0,1.6-0.3,2.2-0.9c0.6-0.6,0.9-1.4,0.9-2.2c0-0.9-0.3-1.6-0.9-2.2C23.2,11.6,22.4,11.2,21.5,11.2z M28.8,21.4c-0.1-0.2-0.3-0.2-0.5-0.1c-1.9,1.6-4.3,2.7-6.9,2.7s-4.9-1.1-6.9-2.7c-0.2-0.1-0.3-0.1-0.5,0.1l-2,2.8c-0.1,0.1-0.1,0.3,0.1,0.4c1.7,1.4,3.7,2.3,5.8,2.8l-4,7.6c-0.1,0.2,0.1,0.5,0.3,0.5h4.2c0.2,0,0.3-0.1,0.3-0.2l2.6-6.3l2.6,6.3c0.1,0.1,0.2,0.2,0.3,0.2h4.2c0.2,0,0.4-0.2,0.3-0.5l-4-7.6c2.1-0.5,4.1-1.4,5.8-2.8c0.2-0.1,0.2-0.3,0.1-0.4L28.8,21.4z"/>
</svg>
