<svg xmlns="http://www.w3.org/2000/svg" viewBox="0 0 19 19">
<path d="M0.2,1.4C0.2,1.3,0.1,1.2,0.1,1.1C0,1,0,0.9,0,0.8c0-0.1,0-0.2,0.1-0.3c0-0.1,0.1-0.2,0.2-0.3s0.2-0.1,0.3-0.2C0.6,0,0.7,0,0.8,0C0.9,0,1,0,1.1,0.1c0.1,0,0.2,0.1,0.3,0.2l8.1,8.1l8.1-8.1c0.1-0.1,0.2-0.1,0.3-0.2C18,0,18.1,0,18.2,0c0.1,0,0.2,0,0.3,0.1c0.1,0,0.2,0.1,0.3,0.2c0.1,0.1,0.1,0.2,0.2,0.3C19,0.6,19,0.7,19,0.8c0,0.1,0,0.2-0.1,0.3c0,0.1-0.1,0.2-0.2,0.3l-8.1,8.1l8.1,8.1c0.1,0.1,0.1,0.2,0.2,0.3c0,0.1,0.1,0.2,0.1,0.3c0,0.1,0,0.2-0.1,0.3c0,0.1-0.1,0.2-0.2,0.3c-0.1,0.1-0.2,0.1-0.3,0.2c-0.1,0-0.2,0.1-0.3,0.1c-0.1,0-0.2,0-0.3-0.1c-0.1,0-0.2-0.1-0.3-0.2l-8.1-8.1l-8.1,8.1c-0.1,0.1-0.2,0.1-0.3,0.2C1,19,0.9,19,0.8,19c-0.1,0-0.2,0-0.3-0.1c-0.1,0-0.2-0.1-0.3-0.2c-0.1-0.1-0.1-0.2-0.2-0.3C0,18.4,0,18.3,0,18.2c0-0.1,0-0.2,0.1-0.3c0-0.1,0.1-0.2,0.2-0.3l8.1-8.1L0.2,1.4z"/>
</svg>
