<svg xmlns="http://www.w3.org/2000/svg" viewBox="0 0 43 43">
<path d="M21.2,29.5h1.7c0,0,0.5-0.1,0.8-0.3c0.2-0.3,0.2-0.7,0.2-0.7s0-2.3,1-2.6c1-0.3,2.3,2.2,3.7,3.2c1.1,0.7,1.8,0.6,1.8,0.6l3.7-0.1c0,0,1.9-0.1,1-1.7c-0.1-0.1-0.5-1.1-2.8-3.2c-2.3-2.2-2-1.8,0.8-5.6c1.7-2.3,2.4-3.7,2.2-4.3c-0.2-0.6-1.5-0.4-1.5-0.4l-4.2,0c0,0-0.3,0-0.5,0.1c-0.2,0.1-0.4,0.5-0.4,0.5s-0.7,1.8-1.5,3.3c-1.9,3.2-2.6,3.4-2.9,3.2c-0.7-0.5-0.5-1.9-0.5-2.9c0-3.1,0.5-4.4-0.9-4.7c-0.5-0.1-0.8-0.2-2-0.2c-1.5,0-2.8,0-3.5,0.4c-0.5,0.2-0.8,0.8-0.6,0.8c0.3,0,0.9,0.2,1.2,0.6c0.4,0.6,0.4,1.9,0.4,1.9s0.2,3.7-0.6,4.1c-0.6,0.3-1.3-0.3-3-3.2c-0.9-1.5-1.5-3.1-1.5-3.1s-0.1-0.3-0.3-0.5c-0.3-0.2-0.6-0.3-0.6-0.3l-4,0c0,0-0.6,0-0.8,0.3c-0.2,0.2,0,0.7,0,0.7s3.1,7.4,6.6,11.1C17.5,29.7,21.2,29.5,21.2,29.5z"/>
</svg>
