<svg width="16" height="16" viewBox="0 0 16 16" xmlns="http://www.w3.org/2000/svg">
<path d="M0 16L1.16505 11.7281C0.543689 10.5631 0.155349 9.2427 0.155349 7.92231C0.155349 3.5728 3.72815 0 8.07766 0C12.4272 0 16 3.5728 16 7.92231C16 12.2718 12.4272 15.8447 8.07766 15.8447C6.75728 15.8447 5.51457 15.534 4.34952 14.9126L0 16ZM4.50484 13.2039L4.73787 13.3592C5.74758 13.9806 6.83494 14.2913 7.99999 14.2913C11.4951 14.2913 14.3689 11.4175 14.3689 7.92231C14.3689 4.42717 11.4951 1.5534 7.99999 1.5534C4.50484 1.5534 1.63107 4.42717 1.63107 7.92231C1.63107 9.08736 1.94174 10.2524 2.5631 11.2621L2.71845 11.5728L2.0971 13.9806L4.50484 13.2039Z"/>
<path fill-rule="evenodd" clip-rule="evenodd" d="M10.9531 9.01054C10.6424 8.77753 10.1764 8.6222 9.78808 8.77754C9.4774 8.93288 9.32207 9.32123 9.08906 9.55424C9.01139 9.70958 8.85605 9.70958 8.70071 9.63191C7.61333 9.16589 6.75894 8.46685 6.13759 7.45714C6.05992 7.3018 6.05992 7.14648 6.21526 6.99114C6.3706 6.75813 6.60361 6.52512 6.68128 6.21444C6.75895 5.90376 6.6036 5.59308 6.44826 5.36007C6.29292 5.04939 6.13759 4.58336 5.82691 4.35035C5.51623 4.19501 5.12789 4.27269 4.81721 4.50569C4.35119 4.89404 4.11816 5.5154 4.11816 6.05909C4.11816 6.21443 4.11817 6.36978 4.19584 6.52512C4.27351 6.91347 4.50652 7.30181 4.66186 7.61249C4.8172 7.8455 4.97255 8.15618 5.12789 8.38919C5.74925 9.16589 6.44827 9.86492 7.30263 10.4086C7.69098 10.6416 8.15701 10.8746 8.62303 11.03C9.16672 11.1853 9.63274 11.4183 10.1764 11.263C10.7978 11.1853 11.3415 10.7969 11.5745 10.1756C11.6521 10.0202 11.6522 9.78725 11.6522 9.63191C11.7298 9.3989 11.2638 9.16588 10.9531 9.01054Z"/>
</svg>
