<?xml version="1.0" standalone="no"?>
<!DOCTYPE svg PUBLIC "-//W3C//DTD SVG 20010904//EN"
 "http://www.w3.org/TR/2001/REC-SVG-20010904/DTD/svg10.dtd">
<svg version="1.0" xmlns="http://www.w3.org/2000/svg"
 width="82.000000pt" height="82.000000pt" viewBox="0 0 82.000000 82.000000"
 preserveAspectRatio="xMidYMid meet">
<metadata>
Created by potrace 1.14, written by Peter Selinger 2001-2017
</metadata>
<g transform="translate(0.000000,82.000000) scale(0.100000,-0.100000)"
fill="#000000" stroke="none">
<path d="M260 724 c-69 -15 -171 -61 -206 -91 -35 -31 -46 -61 -39 -105 l7
-40 47 45 c25 25 82 64 125 87 l80 42 125 -4 c104 -2 133 -7 165 -24 46 -24
108 -95 89 -101 -7 -3 -22 -24 -32 -49 -33 -74 -91 -154 -117 -160 -36 -9 -48
7 -88 109 -42 107 -60 137 -86 137 -12 0 -20 8 -22 23 -2 18 -10 23 -44 25
-22 2 -52 -1 -65 -7 -21 -8 -25 -15 -22 -38 3 -16 -14 -105 -36 -197 -23 -93
-41 -179 -41 -192 0 -36 20 -71 47 -83 58 -27 249 4 381 61 l79 34 11 -28 c11
-30 45 -38 83 -18 18 10 18 13 4 33 -25 36 -18 75 21 122 131 160 81 342 -111
410 -68 24 -266 30 -355 9z m54 -230 c11 -29 6 -56 -29 -165 -19 -60 -35 -119
-35 -131 0 -17 -3 -19 -12 -10 -10 10 -9 31 5 100 45 220 55 248 71 206z m306
-173 c0 -25 -10 -35 -71 -75 -109 -69 -207 -84 -217 -32 -4 20 26 126 36 126
4 0 13 -14 21 -31 14 -33 64 -69 94 -69 10 0 44 25 75 55 32 30 58 55 60 55 1
0 2 -13 2 -29z"/>
</g>
</svg>
