<svg width="58" height="58" viewBox="0 0 58 58" fill="none" xmlns="http://www.w3.org/2000/svg">
<path opacity="0.5" d="M51.9583 37.4577C51.9583 40.7944 49.2534 43.4993 45.9167 43.4993C45.9167 41.4973 44.2937 39.8743 42.2917 39.8743C40.2896 39.8743 38.6667 41.4973 38.6667 43.4993H25.375C25.375 41.4973 23.752 39.8743 21.75 39.8743C19.748 39.8743 18.125 41.4973 18.125 43.4993H14.5C10.4959 43.4993 7.25 40.2534 7.25 36.2493V31.416H35.0417C37.0437 31.416 38.6667 29.793 38.6667 27.791V14.4993C38.6667 14.0757 38.594 13.669 38.4604 13.291C40.6647 13.291 41.7669 13.291 42.7171 13.7212C43 13.8492 43.2698 14.0042 43.5229 14.184C44.3732 14.788 44.9286 15.74 46.0393 17.6441L50.6415 25.5336C51.2961 26.6557 51.6233 27.2167 51.7908 27.8363C51.9583 28.4559 51.9583 29.1054 51.9583 30.4044V37.4577Z" fill="#0D6EFD"/>
<path fill-rule="evenodd" clip-rule="evenodd" d="M13.293 9.66602C9.2889 9.66602 6.04297 12.912 6.04297 16.916V36.2493C6.04297 40.9208 9.82989 44.7077 14.5013 44.7077H17.0702C17.6068 46.7923 19.4992 48.3327 21.7513 48.3327C24.0034 48.3327 25.8958 46.7923 26.4324 44.7077H37.6119C38.1485 46.7923 40.0408 48.3327 42.293 48.3327C44.5736 48.3327 46.4852 46.7532 46.9937 44.6284C50.4876 44.1087 53.168 41.0962 53.168 37.4577L53.168 30.2549C53.1684 29.0996 53.1686 28.2979 52.9586 27.521C52.7486 26.744 52.3444 26.0516 51.7619 25.0539L46.9531 16.8101C45.9713 15.1251 45.2905 13.9565 44.224 13.1989C43.9076 12.9741 43.5703 12.7804 43.2168 12.6204C42.1311 12.1289 40.9121 12.0857 39.2293 12.0827C38.3942 10.639 36.8333 9.66602 35.043 9.66602H13.293ZM21.7513 38.666C19.4992 38.666 17.6068 40.2064 17.0702 42.291H14.5013C11.1646 42.291 8.45964 39.5861 8.45964 36.2493V32.6243H35.043C37.7123 32.6243 39.8763 30.4604 39.8763 27.791V14.507C41.1456 14.5269 41.7202 14.5957 42.2201 14.822C42.4322 14.918 42.6346 15.0342 42.8245 15.1691C43.4118 15.5863 43.8294 16.2516 44.9969 18.253L46.3316 20.541H44.7096C43.3749 20.541 42.293 21.623 42.293 22.9577V30.2077C42.293 32.2097 43.9159 33.8327 45.918 33.8327H50.7513V37.4577C50.7513 39.7748 49.1208 41.7111 46.9445 42.1818C46.3709 40.1528 44.5056 38.666 42.293 38.666C40.0408 38.666 38.1485 40.2064 37.6119 42.291H26.4324C25.8958 40.2064 24.0034 38.666 21.7513 38.666ZM35.043 30.2077H8.45964V16.916C8.45964 14.2466 10.6236 12.0827 13.293 12.0827H35.043C36.0933 12.0827 36.9901 12.7534 37.3224 13.6937C37.4109 13.9441 37.4596 14.2147 37.4596 14.4993V27.791C37.4596 29.1257 36.3777 30.2077 35.043 30.2077ZM44.7096 22.9577H47.7413L49.5991 26.1425C50.2851 27.3186 50.5097 27.7225 50.6257 28.1517C50.7417 28.5808 50.7513 29.0428 50.7513 30.4044V31.416H45.918C45.2506 31.416 44.7096 30.875 44.7096 30.2077V22.9577Z" fill="#0D6EFD"/>
<path d="M22.4448 16.4549C22.3529 16.677 22.3529 16.9585 22.3529 17.5215V18.6718C22.3529 18.6992 22.3529 18.7128 22.3444 18.7213C22.3359 18.7298 22.3222 18.7298 22.2949 18.7298H21.1445C20.5815 18.7298 20.3 18.7298 20.078 18.8218C19.7819 18.9444 19.5466 19.1797 19.424 19.4757C19.332 19.6978 19.332 19.9793 19.332 20.5423C19.332 21.1053 19.332 21.3868 19.424 21.6089C19.5466 21.905 19.7819 22.1402 20.078 22.2628C20.3 22.3548 20.5815 22.3548 21.1445 22.3548H22.2949C22.3222 22.3548 22.3359 22.3548 22.3444 22.3633C22.3529 22.3718 22.3529 22.3855 22.3529 22.4128V23.5632C22.3529 24.1262 22.3529 24.4077 22.4448 24.6297C22.5675 24.9258 22.8027 25.161 23.0988 25.2837C23.3208 25.3757 23.6024 25.3757 24.1654 25.3757C24.7284 25.3757 25.0099 25.3757 25.2319 25.2837C25.528 25.161 25.7632 24.9258 25.8859 24.6297C25.9779 24.4077 25.9779 24.1262 25.9779 23.5632V22.4128C25.9779 22.3855 25.9779 22.3718 25.9864 22.3633C25.9949 22.3548 26.0085 22.3548 26.0359 22.3548H27.1862C27.7492 22.3548 28.0307 22.3548 28.2528 22.2628C28.5489 22.1402 28.7841 21.905 28.9067 21.6089C28.9987 21.3868 28.9987 21.1053 28.9987 20.5423C28.9987 19.9793 28.9987 19.6978 28.9067 19.4757C28.7841 19.1797 28.5489 18.9444 28.2528 18.8218C28.0307 18.7298 27.7492 18.7298 27.1862 18.7298H26.0359C26.0085 18.7298 25.9949 18.7298 25.9864 18.7213C25.9779 18.7128 25.9779 18.6992 25.9779 18.6718V17.5215C25.9779 16.9585 25.9779 16.677 25.8859 16.4549C25.7632 16.1588 25.528 15.9236 25.2319 15.801C25.0099 15.709 24.7284 15.709 24.1654 15.709C23.6024 15.709 23.3208 15.709 23.0988 15.801C22.8027 15.9236 22.5675 16.1588 22.4448 16.4549Z" fill="#D13731" fill-opacity="0.8"/>
</svg>
