<svg width="58" height="58" viewBox="0 0 58 58" fill="none" xmlns="http://www.w3.org/2000/svg">
<path opacity="0.5" d="M46.6772 48.9844C38.9176 48.9844 31.158 48.9844 23.3984 48.9844C23.3984 35.6537 23.3984 22.3307 23.3984 9C31.158 9 38.9176 9 46.6772 9C48.5731 9.74971 48.9971 10.3667 48.9971 12.4205C48.9971 23.4319 48.9971 34.4432 48.9971 45.4467C48.9971 45.7435 49.0051 46.0481 48.9891 46.3448C48.9491 47.4694 48.2051 48.4534 47.1172 48.8282C46.9732 48.8751 46.8292 48.9298 46.6772 48.9844ZM31.398 25.478C30.1741 25.478 29.0141 25.4701 27.8542 25.478C27.1022 25.4858 26.5983 25.9699 26.5983 26.704C26.5903 28.2269 26.5743 29.7497 26.6143 31.2726C26.6223 31.5771 26.7823 31.952 26.9982 32.1628C27.2062 32.3659 27.5822 32.483 27.8942 32.4908C29.0461 32.5299 30.2061 32.5065 31.398 32.5065C31.398 32.6705 31.398 32.8032 31.398 32.9282C31.398 33.9278 31.398 34.9352 31.398 35.9348C31.406 36.7001 31.894 37.1921 32.662 37.1921C34.2219 37.1999 35.7818 37.1999 37.3417 37.1921C38.0857 37.1921 38.5896 36.6923 38.5896 35.9582C38.5976 34.9977 38.5896 34.0293 38.5896 33.0687C38.5896 32.8891 38.5896 32.7173 38.5896 32.5065C39.7976 32.5065 40.9495 32.5143 42.1095 32.5065C42.8854 32.4987 43.3814 32.0145 43.3894 31.257C43.3974 29.7497 43.3974 28.2347 43.3894 26.7275C43.3894 25.9699 42.8934 25.4858 42.1175 25.478C41.0775 25.4701 40.0376 25.478 38.9976 25.478C38.8696 25.478 38.7416 25.4701 38.5976 25.4623C38.5976 24.3612 38.5976 23.2991 38.5976 22.2292C38.5976 21.2296 38.1577 20.7923 37.1497 20.7923C35.7098 20.7923 34.2699 20.7923 32.8299 20.7923C31.846 20.7923 31.398 21.2296 31.398 22.2058C31.398 23.2835 31.398 24.3612 31.398 25.478Z" fill="#0D6EFD"/>
<path d="M14.9177 48.9844C14.4938 48.7814 14.0298 48.6252 13.6538 48.3597C12.9898 47.8989 12.6459 47.2117 12.6139 46.4229C12.5739 45.4467 12.6059 44.4706 12.6059 43.4397C12.7579 43.4397 12.8939 43.4397 13.0378 43.4397C13.9018 43.4163 14.7818 43.4788 15.6297 43.3616C17.4456 43.1039 18.7175 41.4795 18.5976 39.6756C18.4776 37.9028 16.9576 36.4659 15.1337 36.419C14.3098 36.3956 13.4858 36.419 12.6059 36.419C12.6059 35.7474 12.6059 35.0992 12.6059 34.4588C12.6059 33.8263 12.6059 33.1937 12.6059 32.5143C13.4458 32.5143 14.2538 32.5299 15.0617 32.5143C17.0616 32.4752 18.6376 30.8743 18.5976 28.9219C18.5656 27.0789 17.0216 25.5482 15.1417 25.4936C14.3178 25.4701 13.4938 25.4936 12.6379 25.4936C12.6379 24.1972 12.6379 22.9165 12.6379 21.5889C13.2378 21.5889 13.8458 21.6045 14.4538 21.581C14.9417 21.5654 15.4457 21.5654 15.9177 21.4561C17.6456 21.0422 18.8055 19.371 18.5896 17.6919C18.3576 15.9114 16.8936 14.5916 15.0777 14.5603C14.2698 14.5447 13.4618 14.5603 12.6379 14.5603C12.6379 13.467 12.5499 12.3893 12.6619 11.3428C12.7819 10.1714 13.5578 9.43733 14.7098 9.10153C14.7818 9.0781 14.8538 9.04686 14.9257 9.01562C16.9496 9.01562 18.9815 9.01562 21.0054 9.01562C21.0054 22.3464 21.0054 35.6693 21.0054 49C18.9735 48.9844 16.9416 48.9844 14.9177 48.9844Z" fill="#0D6EFD"/>
<path d="M31.3957 25.4767C31.3957 24.3599 31.3957 23.2822 31.3957 22.2045C31.3957 21.2362 31.8437 20.791 32.8276 20.791C34.2675 20.791 35.7075 20.791 37.1474 20.791C38.1553 20.791 38.5953 21.2283 38.5953 22.228C38.5953 23.29 38.5953 24.3599 38.5953 25.4611C38.7393 25.4689 38.8673 25.4767 38.9953 25.4767C40.0352 25.4767 41.0752 25.4767 42.1151 25.4767C42.8911 25.4845 43.3871 25.9687 43.3871 26.7262C43.3951 28.2334 43.3951 29.7485 43.3871 31.2557C43.3871 32.0132 42.8831 32.4974 42.1071 32.5052C40.9472 32.513 39.7952 32.5052 38.5873 32.5052C38.5873 32.7082 38.5873 32.8879 38.5873 33.0675C38.5873 34.028 38.5953 34.9964 38.5873 35.957C38.5793 36.6911 38.0833 37.1909 37.3394 37.1909C35.7795 37.1987 34.2195 37.1987 32.6596 37.1909C31.8917 37.1909 31.3957 36.6911 31.3957 35.9336C31.3877 34.9339 31.3957 33.9265 31.3957 32.9269C31.3957 32.802 31.3957 32.677 31.3957 32.5052C30.2037 32.5052 29.0438 32.5286 27.8919 32.4896C27.5799 32.4818 27.2039 32.3646 26.9959 32.1616C26.7799 31.9507 26.6199 31.5759 26.6119 31.2713C26.5719 29.7485 26.5879 28.2256 26.5959 26.7028C26.5959 25.9687 27.0999 25.4845 27.8519 25.4767C29.0118 25.4689 30.1717 25.4767 31.3957 25.4767ZM40.9792 27.8195C39.8112 27.8195 38.6753 27.8195 37.5474 27.8195C36.6754 27.8195 36.1954 27.351 36.1954 26.4841C36.1954 25.4923 36.1954 24.5083 36.1954 23.5165C36.1954 23.3916 36.1954 23.2666 36.1954 23.1495C35.3635 23.1495 34.5955 23.1495 33.7956 23.1495C33.7956 23.2979 33.7956 23.4228 33.7956 23.5478C33.7956 24.5396 33.7956 25.5235 33.7956 26.5153C33.7956 27.3432 33.3076 27.8117 32.4516 27.8117C31.7717 27.8117 31.0917 27.8117 30.4117 27.8117C29.9478 27.8117 29.4918 27.8117 29.0278 27.8117C29.0278 28.6161 29.0278 29.3736 29.0278 30.1546C30.1717 30.1546 31.2917 30.1546 32.4116 30.1546C33.3396 30.1546 33.8036 30.6075 33.8036 31.529C33.8036 32.5052 33.8036 33.4814 33.8036 34.4576C33.8036 34.5825 33.8036 34.7075 33.8036 34.8246C34.6355 34.8246 35.4035 34.8246 36.2034 34.8246C36.2034 34.6762 36.2034 34.5513 36.2034 34.4263C36.2034 33.4345 36.2034 32.4505 36.2034 31.4587C36.2034 30.6309 36.6914 30.1624 37.5474 30.1624C38.2033 30.1624 38.8513 30.1624 39.5073 30.1624C39.9952 30.1624 40.4832 30.1624 40.9872 30.1624C40.9792 29.3658 40.9792 28.6161 40.9792 27.8195Z" fill="#D13731" fill-opacity="0.8"/>
<path d="M12.5999 16.8887C13.3679 16.8887 14.1438 16.8809 14.9118 16.8887C15.6557 16.8965 16.1917 17.3807 16.1997 18.0445C16.2077 18.7161 15.6717 19.2237 14.9358 19.2237C13.3759 19.2315 11.8239 19.2315 10.264 19.2237C9.52806 19.2237 8.99209 18.7083 9.00009 18.0445C9.00809 17.3807 9.54406 16.8887 10.28 16.8809C11.056 16.8809 11.8239 16.8887 12.5999 16.8887Z" fill="#0D6EFD"/>
<path d="M12.5757 30.1651C11.8158 30.1651 11.0558 30.1651 10.3038 30.1651C9.54387 30.1573 8.9999 29.6575 9.0079 28.9781C9.0159 28.3143 9.55187 27.8301 10.2958 27.8223C11.8398 27.8145 13.3837 27.8145 14.9276 27.8223C15.6636 27.8223 16.1995 28.3221 16.2075 28.9859C16.2075 29.6497 15.6716 30.1495 14.9356 30.1573C14.1436 30.1729 13.3597 30.1651 12.5757 30.1651Z" fill="#0D6EFD"/>
<path d="M12.5679 41.0967C11.8079 41.0967 11.048 41.0967 10.296 41.0967C9.53606 41.0889 8.99209 40.5891 9.00009 39.9097C9.00809 39.2459 9.54406 38.7617 10.288 38.7539C11.8319 38.7461 13.3759 38.7461 14.9198 38.7539C15.6557 38.7539 16.1917 39.2537 16.1917 39.9253C16.1917 40.5891 15.6557 41.0889 14.9198 41.0967C14.1438 41.1046 13.3599 41.0967 12.5679 41.0967Z" fill="#0D6EFD"/>
</svg>
