<svg width="58" height="58" viewBox="0 0 58 58" fill="none" xmlns="http://www.w3.org/2000/svg">
<path d="M26.1875 15.875C25.4416 15.875 24.7262 16.1713 24.1988 16.6988C23.6713 17.2262 23.375 17.9416 23.375 18.6875V19.625H16.8125C16.0666 19.625 15.3512 19.9213 14.8238 20.4488C14.2963 20.9762 14 21.6916 14 22.4375V25.0325L28.2762 28.8387C28.7505 28.965 29.2495 28.965 29.7237 28.8387L44 25.0325V22.4375C44 21.6916 43.7037 20.9762 43.1762 20.4488C42.6488 19.9213 41.9334 19.625 41.1875 19.625H34.625V18.6875C34.625 17.9416 34.3287 17.2262 33.8012 16.6988C33.2738 16.1713 32.5584 15.875 31.8125 15.875H26.1875ZM26.1875 17.75H31.8125C32.0611 17.75 32.2996 17.8488 32.4754 18.0246C32.6512 18.2004 32.75 18.4389 32.75 18.6875V19.625H25.25V18.6875C25.25 18.4389 25.3488 18.2004 25.5246 18.0246C25.7004 17.8488 25.9389 17.75 26.1875 17.75Z" fill="#0D6EFD"/>
<path d="M14 37.4375C14 38.1834 14.2963 38.8988 14.8238 39.4262C15.3512 39.9537 16.0666 40.25 16.8125 40.25H41.1875C41.9334 40.25 42.6488 39.9537 43.1762 39.4262C43.7037 38.8988 44 38.1834 44 37.4375V26.8438L29.2419 30.7756C29.0834 30.8179 28.9166 30.8179 28.7581 30.7756L14 26.8438V37.4375Z" fill="#0D6EFD"/>
</svg>
