<svg width="58" height="58" viewBox="0 0 58 58" fill="none" xmlns="http://www.w3.org/2000/svg">
<path d="M44 29C44 36.2488 37.2838 42.125 29 42.125C27.5143 42.127 26.0349 41.9341 24.5994 41.5513C23.5044 42.1063 20.99 43.1713 16.76 43.865C16.385 43.925 16.1 43.535 16.2481 43.1863C16.9119 41.6187 17.5119 39.53 17.6919 37.625C15.395 35.3188 14 32.3 14 29C14 21.7513 20.7162 15.875 29 15.875C37.2838 15.875 44 21.7513 44 29ZM23.375 29C23.375 28.5027 23.1775 28.0258 22.8258 27.6742C22.4742 27.3225 21.9973 27.125 21.5 27.125C21.0027 27.125 20.5258 27.3225 20.1742 27.6742C19.8225 28.0258 19.625 28.5027 19.625 29C19.625 29.4973 19.8225 29.9742 20.1742 30.3258C20.5258 30.6775 21.0027 30.875 21.5 30.875C21.9973 30.875 22.4742 30.6775 22.8258 30.3258C23.1775 29.9742 23.375 29.4973 23.375 29ZM30.875 29C30.875 28.5027 30.6775 28.0258 30.3258 27.6742C29.9742 27.3225 29.4973 27.125 29 27.125C28.5027 27.125 28.0258 27.3225 27.6742 27.6742C27.3225 28.0258 27.125 28.5027 27.125 29C27.125 29.4973 27.3225 29.9742 27.6742 30.3258C28.0258 30.6775 28.5027 30.875 29 30.875C29.4973 30.875 29.9742 30.6775 30.3258 30.3258C30.6775 29.9742 30.875 29.4973 30.875 29ZM36.5 30.875C36.9973 30.875 37.4742 30.6775 37.8258 30.3258C38.1775 29.9742 38.375 29.4973 38.375 29C38.375 28.5027 38.1775 28.0258 37.8258 27.6742C37.4742 27.3225 36.9973 27.125 36.5 27.125C36.0027 27.125 35.5258 27.3225 35.1742 27.6742C34.8225 28.0258 34.625 28.5027 34.625 29C34.625 29.4973 34.8225 29.9742 35.1742 30.3258C35.5258 30.6775 36.0027 30.875 36.5 30.875Z" fill="#0D6EFD"/>
</svg>
