<svg width="58" height="58" viewBox="0 0 58 58" fill="none" xmlns="http://www.w3.org/2000/svg">
<path d="M26.1365 14C28.2952 14 30.4539 14 32.6126 14C32.6126 16.9062 32.6126 19.8124 32.6126 22.7499C35.4257 22.7499 38.2086 22.7499 40.9992 22.7499C40.9992 27.7577 40.9992 32.7342 40.9992 37.7185C34.9969 37.7185 29.0097 37.7185 23 37.7185C23 37.5779 23 37.4607 23 37.3435C23 34.3279 23 31.3123 23 28.2889C23 24.8046 23 21.3202 23 17.8281C23 16.0703 24.0305 14.625 25.6025 14.1406C25.7755 14.0937 25.956 14.0469 26.1365 14Z" fill="#0D6EFD"/>
<path d="M17.015 43.9998C17.0075 43.906 17 43.8045 17 43.7107C17 36.7577 17 29.8124 17 22.8593C17 21.125 17.9477 19.7109 19.4671 19.1953C19.8131 19.0781 20.1892 19.0391 20.5953 18.9531C20.5953 26.0859 20.5953 33.1483 20.5953 40.242C25.8078 40.242 30.9901 40.242 36.2101 40.242C36.2101 41.5154 36.2101 42.7576 36.2101 43.9998C29.8168 43.9998 23.4159 43.9998 17.015 43.9998Z" fill="#0D6EFD"/>
<path d="M35.0469 14.0469C36.995 16.125 38.8979 18.1562 40.846 20.2343C38.8754 20.2343 36.9724 20.2343 35.0469 20.2343C35.0469 18.1875 35.0469 16.1562 35.0469 14.0469Z" fill="#0D6EFD"/>
</svg>
