<svg width="59" height="58" viewBox="0 0 59 58" fill="none" xmlns="http://www.w3.org/2000/svg">
<path d="M35.8313 47.4383C35.8313 48.9153 34.692 50.0478 33.2555 49.9985C31.819 49.9985 30.6797 48.8661 30.6797 47.4383C30.6797 45.9612 31.819 44.8288 33.2555 44.878C34.692 44.878 35.8313 46.0104 35.8313 47.4383Z" fill="#0D6EFD"/>
<path d="M15.8258 45.9608C14.3893 45.9608 13.25 44.7791 13.25 43.4005C13.25 41.9727 14.4388 40.791 15.8753 40.791C17.3118 40.791 18.4511 41.9727 18.4511 43.3513C18.4016 44.8284 17.2623 45.9608 15.8258 45.9608Z" fill="#0D6EFD"/>
<path d="M19.8828 44.1395C19.8828 43.6471 19.8828 43.204 19.8828 42.7117C20.0809 42.7117 20.2791 42.6624 20.4772 42.6624C21.7651 42.6624 23.053 42.6624 24.3409 42.6624C27.0653 42.6624 28.7495 41.0376 28.799 38.3297C28.799 38.2312 28.799 38.0835 28.799 37.9358C29.2448 37.9358 29.6906 37.9358 30.1364 37.9358C30.5822 39.7575 29.4925 42.1208 27.6597 43.3025C26.7681 43.8441 25.8269 44.1395 24.8362 44.1395C23.2016 44.1395 21.5174 44.1395 19.8828 44.1395Z" fill="#0D6EFD"/>
<path d="M43.658 37.886C44.2029 37.886 44.5992 37.886 45.1441 37.886C45.1441 39.3138 45.1441 40.6924 45.1441 42.071C45.1441 42.6619 45.1441 43.3019 44.9955 43.8928C44.4506 46.2561 42.3701 47.9793 39.8934 48.127C39.0513 48.1763 38.2588 48.127 37.3672 48.127C37.3672 47.6347 37.3672 47.1916 37.3672 46.6992C38.0111 46.6992 38.6055 46.6992 39.2495 46.6992C41.9739 46.6992 43.658 44.9759 43.658 42.3172C43.658 40.8894 43.658 39.4123 43.658 37.886Z" fill="#0D6EFD"/>
<path d="M13.2031 13.1205C13.2031 11.6435 13.2031 10.2156 13.2031 8.78778C13.2031 8.39389 13.4508 8.04924 13.8966 8.04924C16.3733 8.04924 18.85 8.04924 21.3763 8.04924C21.3763 8.88625 21.3763 9.67403 21.3763 10.4126C21.3763 10.6095 21.3763 10.8557 21.3763 11.0526C21.4258 11.4957 21.723 11.6927 22.1193 11.6927C22.5156 11.6927 22.8128 11.3973 22.8128 11.0034C22.8128 10.2649 22.8128 9.52631 22.8128 8.73854C22.8128 8.54159 22.8128 8.34465 22.8128 8.04924C23.0605 8.04924 23.2586 8 23.5063 8C32.2739 8 41.091 8 49.8585 8C50.8492 8 50.9978 8.19695 50.9978 9.13243C50.9978 17.8472 50.9978 26.5127 50.9978 35.2274C50.9978 36.1629 50.7997 36.3598 49.8585 36.3598C41.0414 36.3598 32.2243 36.3598 23.4567 36.3598C23.2586 36.3598 23.0605 36.3598 22.8128 36.3598C22.8128 36.0644 22.8128 35.8182 22.8128 35.5721C22.8128 28.4329 22.8128 21.2444 22.8128 14.1053C22.8128 13.8591 22.8128 13.6621 22.8128 13.4159C22.7633 13.0221 22.466 12.7759 22.1193 12.7759C21.723 12.7759 21.4754 12.9728 21.4258 13.4159C21.3763 13.6621 21.4258 13.8591 21.4258 14.1053C21.4258 21.2444 21.4258 28.4329 21.4258 35.5721C21.4258 35.8182 21.4258 36.0644 21.4258 36.3598C20.8314 36.3598 20.237 36.3598 19.6921 36.3598C17.8594 36.3598 16.0761 36.3598 14.2433 36.3598C13.5003 36.3598 13.2527 36.1137 13.2527 35.4244C13.2527 33.9473 13.2527 32.421 13.2527 30.9439C13.2527 30.7962 13.3517 30.55 13.4508 30.5008C14.5901 30.1069 15.7789 29.6638 17.0173 29.8115C17.6117 29.8607 18.1566 30.1069 18.7014 30.3531C19.4445 30.6485 19.9398 30.4023 19.9398 29.6145C19.9398 24.4448 19.9398 19.275 19.9398 14.1053C19.9398 13.6621 19.7417 13.3667 19.3949 13.1698C17.9089 12.2835 16.3238 12.2835 14.6892 12.7266C14.1938 12.8251 13.748 12.9728 13.2031 13.1205ZM37.0292 10.2156C33.6608 10.2156 30.2925 10.2156 26.8746 10.2156C25.6363 10.2156 25.0914 10.708 25.0914 11.9389C25.0914 16.8132 25.0914 21.6383 25.0914 26.5127C25.0914 27.7436 25.6363 28.2852 26.8746 28.2852C33.6113 28.2852 40.2984 28.2852 47.0351 28.2852C48.2735 28.2852 48.8183 27.7436 48.8183 26.5127C48.8183 21.6383 48.8183 16.8132 48.8183 11.9389C48.8183 10.708 48.2735 10.2156 47.0351 10.2156C43.7163 10.2156 40.348 10.2156 37.0292 10.2156ZM27.3204 32.3225C27.3204 33.7503 28.4597 34.8828 29.8467 34.8828C31.2832 34.8828 32.472 33.7503 32.472 32.3225C32.472 30.8947 31.2832 29.713 29.8467 29.713C28.5092 29.7622 27.3204 30.8947 27.3204 32.3225ZM42.1807 32.3225C42.1807 33.7503 43.2705 34.8828 44.707 34.932C46.1435 34.932 47.3323 33.8488 47.3818 32.3717C47.3818 30.9439 46.193 29.7622 44.7565 29.7622C43.32 29.7622 42.1807 30.8947 42.1807 32.3225ZM37.1777 33.061C37.574 33.061 37.9703 33.061 38.3666 33.061C38.8619 33.061 39.1591 32.8149 39.1591 32.3225C39.1591 31.8794 38.8619 31.584 38.4656 31.584C37.6236 31.5347 36.732 31.5347 35.8899 31.584C35.4441 31.584 35.1469 31.8794 35.1469 32.3717C35.1964 32.8149 35.444 33.061 35.9394 33.061C36.3357 33.061 36.7319 33.061 37.1777 33.061Z" fill="#0D6EFD"/>
<path d="M31.0233 32.3229C31.0233 32.9138 30.5279 33.4061 29.9335 33.4554C29.2896 33.4554 28.8438 33.0122 28.8438 32.3722C28.8438 31.7813 29.2896 31.2397 29.9335 31.2397C30.4784 31.2397 31.0233 31.7321 31.0233 32.3229Z" fill="#0D6EFD"/>
<path d="M45.8904 32.3224C45.8904 32.9132 45.3951 33.4056 44.8007 33.4056C44.1568 33.4056 43.7109 32.9624 43.7109 32.3224C43.7109 31.7315 44.2063 31.2392 44.8007 31.1899C45.3456 31.2392 45.8409 31.7315 45.8904 32.3224Z" fill="#0D6EFD"/>
<path d="M18.4022 28.5803C16.4208 27.9894 14.6871 28.531 12.9039 29.0726C12.26 29.2696 11.5665 29.4665 10.873 29.6142C10.4272 29.7127 9.93184 29.7127 9.48603 29.7127C8.1486 29.6634 8 29.4665 8 28.1864C8 24.0506 8 19.9148 8 15.7789C8 15.582 8 15.3851 8 15.0896C10.13 15.7297 12.0618 15.0404 13.9937 14.4003C15.1329 14.0557 16.3218 13.711 17.5601 14.0065C18.4022 14.2034 18.4022 14.2034 18.4022 15.0404C18.4022 19.3239 18.4022 23.5582 18.4022 27.8417C18.4022 28.0879 18.4022 28.2848 18.4022 28.5803ZM13.9937 20.2594C14.1423 20.5548 14.1918 20.7025 14.2413 20.8995C14.7367 22.2781 15.2816 23.6567 15.7769 25.0353C15.975 25.5769 16.3713 25.7738 16.7676 25.6261C17.2134 25.4784 17.362 25.0845 17.1639 24.4937C16.3218 22.2781 15.5292 20.0132 14.6871 17.7976C14.5385 17.4037 14.2909 17.1083 13.8946 17.2068C13.5974 17.3053 13.3002 17.5514 13.2011 17.8468C12.8544 18.6839 12.6562 19.5701 12.359 20.4071C11.8637 22.0319 11.3188 23.6567 10.7739 25.2815C10.4767 25.2815 10.229 25.2815 9.98137 25.2815C9.48603 25.2815 9.1393 25.4784 9.08976 26.02C9.04023 26.4631 9.4365 26.7585 9.98137 26.8078C10.3281 26.8078 10.6253 26.8078 10.9721 26.8078C11.616 26.857 11.9627 26.5616 12.1609 25.9708C12.7553 24.0998 13.3497 22.2781 13.9937 20.2594Z" fill="#0D6EFD"/>
<path d="M26.6172 11.7417C33.552 11.7417 40.3877 11.7417 47.3225 11.7417C47.3225 16.7638 47.3225 21.7366 47.3225 26.8079C40.4373 26.8079 33.552 26.8079 26.6172 26.8079C26.6172 21.7858 26.6172 16.813 26.6172 11.7417ZM43.2607 23.2629C43.8056 23.9522 44.2514 24.5922 44.7468 25.2323C45.143 25.7247 45.5393 25.8231 45.9356 25.5277C46.3319 25.2323 46.3319 24.8384 45.9356 24.2968C45.2916 23.4106 44.6477 22.5736 44.0037 21.7366C43.5084 21.0965 43.0626 21.0965 42.5673 21.7366C42.0224 22.4751 41.4775 23.2137 40.9326 23.903C40.784 24.0999 40.4868 24.2476 40.2391 24.2476C39.0008 24.2968 37.812 24.2476 36.5736 24.2968C36.1773 24.2968 35.9792 24.1491 35.8306 23.7552C35.038 21.5396 34.1959 19.2748 33.4034 17.0592C33.2548 16.6161 33.1062 16.1237 32.5118 16.1237C31.9174 16.1237 31.8183 16.6161 31.6697 17.0592C30.8771 19.2256 30.0846 21.3919 29.292 23.5583C29.1434 24.0014 28.9948 24.2968 28.45 24.2476C28.0042 24.1984 27.7069 24.543 27.7565 24.9861C27.7565 25.4293 28.0537 25.6754 28.4995 25.6754C28.8462 25.6754 29.2425 25.7247 29.5892 25.6754C29.8369 25.6262 30.0846 25.4293 30.2827 25.2323C30.4313 25.0846 30.4809 24.7892 30.5304 24.5923C31.1743 22.7705 31.8678 20.9488 32.5613 19.0286C32.6604 19.324 32.7594 19.5702 32.8585 19.7671C33.5025 21.4904 34.1464 23.2137 34.7408 24.9369C34.939 25.4785 35.2362 25.7247 35.8306 25.6754C37.5147 25.6754 39.1494 25.6754 40.8336 25.6754C41.3289 25.6754 41.6756 25.4785 41.9233 25.0846C42.27 24.543 42.7654 23.9522 43.2607 23.2629ZM39.9419 13.9573C39.8429 13.9081 39.7933 13.8588 39.7438 13.8096C38.555 12.9234 37.0689 13.0711 36.1278 14.105C35.1866 15.139 35.2857 16.616 36.3259 17.6992C37.2175 18.5855 38.1092 19.521 39.0503 20.4072C39.6447 20.9488 40.1896 20.998 40.784 20.4072C41.7747 19.4717 42.7158 18.5363 43.657 17.5515C44.2514 16.9607 44.4495 16.2222 44.3505 15.3851C44.0037 13.4157 41.6261 12.431 39.9419 13.9573Z" fill="#0D6EFD"/>
<path d="M39.9466 13.9573C41.6803 12.4803 44.0084 13.4157 44.3552 15.3359C44.5038 16.173 44.2561 16.9115 43.6617 17.5023C42.7206 18.487 41.7794 19.4225 40.7887 20.358C40.2438 20.8996 39.6494 20.8996 39.055 20.358C38.1634 19.4717 37.2222 18.5855 36.3306 17.65C35.2904 16.6161 35.1913 15.139 36.1325 14.0558C37.0736 13.0219 38.5101 12.8741 39.7485 13.7604C39.798 13.8096 39.8476 13.8589 39.9466 13.9573ZM39.8971 19.1271C40.7887 18.2408 41.6803 17.4038 42.5224 16.5176C42.9682 16.0252 42.9682 15.3852 42.5224 14.9913C42.0766 14.5482 41.4327 14.5482 40.9869 15.0405C40.1943 15.9268 39.699 16.0252 38.8569 15.0405C38.4111 14.5482 37.7671 14.5974 37.3213 14.9913C36.8755 15.4344 36.8755 16.0252 37.3213 16.5176C38.1634 17.4038 39.0055 18.2408 39.8971 19.1271Z" fill="#D13731" fill-opacity="0.8"/>
<path d="M39.9023 19.1269C39.0107 18.2407 38.1686 17.4037 37.3265 16.5174C36.8807 16.0251 36.8807 15.4343 37.3265 14.9911C37.7724 14.548 38.4163 14.4988 38.8621 15.0404C39.7042 16.0743 40.2491 15.9266 40.9921 15.0404C41.4379 14.548 42.0818 14.548 42.5277 14.9911C42.9735 15.4343 42.9735 16.0743 42.5277 16.5174C41.6856 17.4037 40.8435 18.2407 39.9023 19.1269Z" fill="#0D6EFD"/>
</svg>
