<svg width="58" height="58" viewBox="0 0 58 58" fill="none" xmlns="http://www.w3.org/2000/svg">
<path d="M27.125 32.3375V27.5375C27.125 27.3575 27.3238 27.245 27.4812 27.3387L31.475 29.7369C31.5095 29.7577 31.5381 29.7872 31.558 29.8223C31.5778 29.8575 31.5882 29.8971 31.5882 29.9375C31.5882 29.9779 31.5778 30.0175 31.558 30.0527C31.5381 30.0878 31.5095 30.1173 31.475 30.1381L27.4812 32.5381C27.4454 32.56 27.4044 32.5718 27.3624 32.5723C27.3204 32.5729 27.2791 32.5621 27.2427 32.5412C27.2063 32.5204 27.1762 32.4901 27.1555 32.4536C27.1348 32.4171 27.1242 32.3757 27.125 32.3337V32.3375Z" fill="#0D6EFD"/>
<path d="M31.4244 14H21.5C20.5054 14 19.5516 14.3951 18.8483 15.0983C18.1451 15.8016 17.75 16.7554 17.75 17.75V40.25C17.75 41.2446 18.1451 42.1984 18.8483 42.9016C19.5516 43.6049 20.5054 44 21.5 44H36.5C37.4946 44 38.4484 43.6049 39.1516 42.9016C39.8549 42.1984 40.25 41.2446 40.25 40.25V22.8256C40.2499 22.3284 40.0523 21.8515 39.7006 21.5L32.75 14.5494C32.3985 14.1977 31.9216 14.0001 31.4244 14ZM31.8125 20.5625V16.8125L37.4375 22.4375H33.6875C33.1902 22.4375 32.7133 22.24 32.3617 21.8883C32.01 21.5367 31.8125 21.0598 31.8125 20.5625ZM23.375 25.25H34.625C34.8535 25.2501 35.074 25.3336 35.2453 25.4848C35.4165 25.636 35.5267 25.8446 35.555 26.0712L36.4925 33.5712C36.509 33.7031 36.4972 33.837 36.458 33.964C36.4188 34.091 36.3531 34.2082 36.2651 34.3079C36.1772 34.4075 36.0691 34.4873 35.9479 34.542C35.8268 34.5967 35.6954 34.625 35.5625 34.625H29.9375V38.405C31.5556 38.5081 32.75 38.8756 32.75 39.3125C32.75 39.83 31.0719 40.25 29 40.25C26.9281 40.25 25.25 39.83 25.25 39.3125C25.25 38.8756 26.4444 38.5081 28.0625 38.405V34.625H22.4375C22.3046 34.625 22.1732 34.5967 22.0521 34.542C21.9309 34.4873 21.8228 34.4075 21.7349 34.3079C21.6469 34.2082 21.5812 34.091 21.542 33.964C21.5028 33.837 21.491 33.7031 21.5075 33.5712L22.445 26.0712C22.4733 25.8446 22.5835 25.636 22.7547 25.4848C22.926 25.3336 23.1465 25.2501 23.375 25.25Z" fill="#0D6EFD"/>
</svg>
