<svg width="58" height="58" viewBox="0 0 58 58" fill="none" xmlns="http://www.w3.org/2000/svg">
<path d="M32.4254 19.625H39.8916C40.4127 19.6249 40.9281 19.7335 41.4049 19.9437C41.8817 20.154 42.3095 20.4613 42.6609 20.846C43.0124 21.2308 43.2797 21.6846 43.446 22.1785C43.6123 22.6723 43.6738 23.1954 43.6266 23.7144L42.4323 36.8394C42.3476 37.7711 41.9177 38.6375 41.227 39.2685C40.5363 39.8996 39.6347 40.2496 38.6991 40.25H19.2948C18.3592 40.2496 17.4576 39.8996 16.7669 39.2685C16.0762 38.6375 15.6463 37.7711 15.5616 36.8394L14.3673 23.7144C14.2874 22.8458 14.5142 21.9768 15.0085 21.2581L14.9354 19.625C14.9354 18.6304 15.3305 17.6766 16.0337 16.9733C16.737 16.2701 17.6908 15.875 18.6854 15.875H25.5704C26.5649 15.8752 27.5185 16.2704 28.2216 16.9737L29.7741 18.5263C30.4772 19.2296 31.4309 19.6248 32.4254 19.625ZM16.8216 19.85C17.2229 19.7037 17.6541 19.625 18.1041 19.625H28.2216L26.896 18.2994C26.5445 17.9477 26.0676 17.7501 25.5704 17.75H18.6854C18.1942 17.7499 17.7226 17.9426 17.372 18.2865C17.0214 18.6305 16.8197 19.0983 16.8104 19.5894L16.8216 19.85Z" fill="#0D6EFD"/>
</svg>
