<svg width="58" height="58" viewBox="0 0 58 58" fill="none" xmlns="http://www.w3.org/2000/svg">
<path d="M14 36.2611C14.2583 35.5248 14.7827 35.2115 15.5575 35.2663C15.8549 35.2898 16.1601 35.2663 16.5045 35.2663C16.5045 35.1253 16.5045 35 16.5045 34.8825C16.5045 29.2193 16.5045 23.5483 16.5045 17.8851C16.5045 16.1462 17.5063 14.705 19.0951 14.2115C19.5178 14.0783 19.9795 14.0157 20.4178 14.0157C26.9609 14 33.4961 14.0078 40.0391 14C40.5557 14 40.9861 14.2272 41.4166 14.4308C43.0367 15.2063 43.9055 16.5144 43.9837 18.3159C44.015 18.9504 43.9915 19.5849 43.9915 20.2193C43.9837 20.9791 43.4672 21.5039 42.7002 21.5039C41.174 21.5118 39.6556 21.5039 38.1294 21.5039C38.012 21.5039 37.9024 21.5039 37.7459 21.5039C37.7459 22.8198 37.7459 24.0966 37.7459 25.3655C36.9085 25.3107 36.1023 25.2559 35.2492 25.201C35.2492 25.1149 35.2492 25.0052 35.2492 24.8877C35.2492 23.0392 35.2492 21.1906 35.2492 19.3499C35.2492 18.8721 35.2179 18.3864 35.2805 17.9164C35.3431 17.4465 35.4997 16.9922 35.6171 16.5065C35.5388 16.5065 35.4371 16.5065 35.3353 16.5065C30.3889 16.5065 25.4347 16.5065 20.4883 16.5065C19.4786 16.5065 18.9934 16.9843 18.9934 17.9948C18.9934 23.6345 18.9934 29.2663 18.9934 34.906C18.9934 35.0157 18.9934 35.1175 18.9934 35.2507C21.0753 35.2507 23.1415 35.2507 25.2468 35.2507C25.2468 35.3838 25.2468 35.4856 25.2468 35.5875C25.2233 38.846 26.3973 41.5796 28.7923 43.7963C28.8549 43.8512 28.8862 43.9295 28.941 44C25.1529 44 21.3648 44 17.5768 44C17.5141 43.9843 17.4437 43.9608 17.3811 43.953C16.2775 43.8355 15.4166 43.3185 14.7435 42.4491C14.3365 41.9164 14.1409 41.3055 14.0078 40.6632C14 39.1906 14 37.7258 14 36.2611Z" fill="#0D6EFD"/>
<path d="M35.2103 44.0002C34.6703 43.8906 34.1146 43.8122 33.5824 43.6556C30.5065 42.7783 28.1977 40.0603 27.8142 36.8801C27.2898 32.4859 30.2404 28.5537 34.6233 27.8331C38.9514 27.1125 43.2169 30.1986 43.8822 34.5302C44.5631 38.9558 41.7612 42.9819 37.3861 43.8592C37.1122 43.914 36.8304 43.9532 36.5565 44.0002C36.1025 44.0002 35.6564 44.0002 35.2103 44.0002ZM34.6233 34.3736C34.6233 35.0707 34.6233 35.76 34.6233 36.4571C34.6233 36.8488 34.772 37.1856 35.0772 37.4362C36.0869 38.2509 37.1043 39.0655 38.1218 39.8723C38.3879 40.0838 38.6931 40.1621 39.0297 40.1151C39.5462 40.0368 39.9063 39.7391 40.0628 39.2378C40.2193 38.7052 40.0706 38.2509 39.648 37.8984C38.881 37.2718 38.114 36.6608 37.3391 36.0498C37.1826 35.9245 37.1278 35.7992 37.1356 35.6033C37.1435 34.5224 37.1435 33.4336 37.1356 32.3527C37.1278 31.5694 36.5956 31.0289 35.8677 31.0368C35.1555 31.0446 34.639 31.5929 34.639 32.3605C34.6233 33.0263 34.6233 33.7 34.6233 34.3736Z" fill="#0D6EFD"/>
<path d="M27.1568 21.7936C25.208 21.7936 23.2513 21.8014 21.3025 21.7936C20.3633 21.7936 19.7528 20.9241 20.0972 20.086C20.2929 19.6161 20.6529 19.3497 21.1694 19.3106C21.2164 19.3106 21.2634 19.3027 21.3181 19.3027C25.208 19.3027 29.1056 19.3027 32.9954 19.3027C33.6529 19.3027 34.1381 19.6709 34.2712 20.2505C34.4042 20.8223 34.1538 21.4098 33.6294 21.6526C33.4181 21.7466 33.1598 21.7858 32.925 21.7936C30.9997 21.7936 29.0743 21.7936 27.1568 21.7936Z" fill="#0D6EFD"/>
<path d="M26.5526 24.2999C28.3057 24.2999 30.0667 24.2999 31.8199 24.2999C32.5008 24.2999 33.0252 24.7464 33.1113 25.373C33.1348 25.5454 33.0878 25.608 32.9234 25.655C32.0547 25.8978 31.2329 26.2503 30.4581 26.7125C30.3563 26.7751 30.2233 26.7986 30.098 26.7986C27.1787 26.8065 24.2594 26.8065 21.3479 26.7986C20.7061 26.7986 20.2365 26.4775 20.0565 25.937C19.8843 25.4357 20.0408 24.8482 20.4948 24.5584C20.7374 24.4096 21.0505 24.3078 21.3401 24.2999C23.0854 24.2843 24.8229 24.2999 26.5526 24.2999Z" fill="#0D6EFD"/>
<path d="M27.329 29.4144C26.9063 30.2055 26.5228 30.934 26.1237 31.6546C26.0845 31.7251 25.9671 31.7956 25.8889 31.7956C24.3392 31.8034 22.7895 31.8112 21.2399 31.7956C20.5746 31.7877 20.0581 31.2786 20.0111 30.6206C19.9641 29.994 20.4259 29.43 21.0755 29.3204C21.1694 29.3047 21.2712 29.2969 21.3651 29.2969C23.1339 29.2969 24.8949 29.289 26.6637 29.3047C26.8829 29.3047 27.1177 29.3752 27.329 29.4144Z" fill="#0D6EFD"/>
</svg>
