<svg width="58" height="58" viewBox="0 0 58 58" fill="none" xmlns="http://www.w3.org/2000/svg">
<path d="M27.125 27.125C27.125 26.6277 27.3225 26.1508 27.6742 25.7992C28.0258 25.4475 28.5027 25.25 29 25.25C29.4973 25.25 29.9742 25.4475 30.3258 25.7992C30.6775 26.1508 30.875 26.6277 30.875 27.125V29H27.125V27.125Z" fill="#0D6EFD"/>
<path d="M31.4244 14H21.5C20.5054 14 19.5516 14.3951 18.8483 15.0983C18.1451 15.8016 17.75 16.7554 17.75 17.75V40.25C17.75 41.2446 18.1451 42.1984 18.8483 42.9016C19.5516 43.6049 20.5054 44 21.5 44H36.5C37.4946 44 38.4484 43.6049 39.1516 42.9016C39.8549 42.1984 40.25 41.2446 40.25 40.25V22.8256C40.2499 22.3284 40.0523 21.8515 39.7006 21.5L32.75 14.5494C32.3985 14.1977 31.9216 14.0001 31.4244 14ZM31.8125 20.5625V16.8125L37.4375 22.4375H33.6875C33.1902 22.4375 32.7133 22.24 32.3617 21.8883C32.01 21.5367 31.8125 21.0598 31.8125 20.5625ZM32.75 27.125V29.1425C33.7625 29.4538 34.625 30.2619 34.625 31.4375V35.9375C34.625 37.4675 33.1606 38.375 31.8125 38.375H26.1875C24.8394 38.375 23.375 37.4675 23.375 35.9375V31.4375C23.375 30.2619 24.2375 29.4538 25.25 29.1425V27.125C25.25 26.1304 25.6451 25.1766 26.3483 24.4733C27.0516 23.7701 28.0054 23.375 29 23.375C29.9946 23.375 30.9484 23.7701 31.6516 24.4733C32.3549 25.1766 32.75 26.1304 32.75 27.125Z" fill="#0D6EFD"/>
</svg>
