<svg width="58" height="58" viewBox="0 0 58 58" fill="none" xmlns="http://www.w3.org/2000/svg">
<path d="M29.1017 7.0522C29.8263 7.21518 30.136 7.52144 30.5906 7.83602C31.8029 8.77973 32.106 10.3526 31.6514 11.7681C31.6514 11.7681 31.6514 11.9254 31.4998 12.0827C32.4091 12.0827 33.1668 12.0827 33.9245 12.0827C34.2276 12.0827 34.3791 12.0827 34.6822 12.0827C35.4399 12.24 35.8945 12.8692 36.046 13.6556C36.046 13.9702 36.046 14.2847 36.046 14.5993C36.1976 14.5993 36.3491 14.5993 36.5006 14.5993C37.5614 14.5993 38.6222 14.5993 39.8345 14.5993C41.5014 14.5993 42.7137 15.7003 42.7137 17.4304C42.7137 26.3957 42.7137 35.3609 42.7137 44.1689C42.7137 45.899 41.5014 47 39.986 47C32.7122 47 25.4383 47 18.1644 47C16.4975 47 15.2852 45.899 15.2852 44.1689C15.2852 35.2036 15.2852 26.3957 15.2852 17.4304C15.2852 15.7003 16.346 14.5993 18.1644 14.5993C19.2252 14.5993 20.2859 14.5993 21.3467 14.5993C21.4983 14.5993 21.6498 14.5993 21.8014 14.5993C21.8014 14.2847 21.8014 14.1275 21.8014 13.8129C21.8014 12.7119 22.559 11.9254 23.6198 11.9254C24.3775 11.9254 25.1352 11.9254 25.8929 11.9254C25.8929 11.7682 25.8929 11.7681 25.8929 11.7681C24.9837 9.88072 26.116 7.33833 28.274 7C28.274 7 28.3274 7 28.4789 7C28.6305 7 28.9014 7.00473 29.1017 7.0522ZM21.6498 17.4304C21.0437 17.4304 20.286 17.4304 19.6798 17.4304C18.316 17.4304 17.7098 18.0595 17.7098 19.4751C17.7098 27.1821 17.7098 34.8891 17.7098 42.596C17.7098 44.0116 18.316 44.6407 19.6798 44.6407C22.1044 44.6407 24.5291 44.6407 26.9537 44.6407C30.5906 44.6407 34.3791 44.6407 38.016 44.6407C38.6222 44.6407 39.0768 44.4835 39.5314 44.0116C39.8345 43.697 39.8345 43.2252 39.8345 42.7533C39.8345 35.0464 39.8345 27.3394 39.8345 19.4751C39.8345 19.3178 39.8345 19.1606 39.8345 19.0033C39.683 18.2168 39.2284 17.745 38.6222 17.745C37.713 17.5877 36.8037 17.745 36.046 17.745C35.8945 18.6887 35.4399 19.0033 34.5306 19.0033C30.7422 19.0033 26.9537 19.0033 23.1652 19.0033C22.4075 18.6887 21.9529 18.3741 21.6498 17.4304ZM28.6206 11.9254C28.9237 11.9254 29.2268 11.9254 29.5299 11.9254C29.8329 11.9254 29.9845 11.7681 30.136 11.6108C30.7422 10.8244 30.7422 9.56617 29.9845 8.93703C29.2268 8.1506 28.166 8.1506 27.4083 8.93703C26.6506 9.72346 26.6506 10.8244 27.2568 11.6108C27.4083 11.7681 27.5598 11.9254 27.8629 11.9254C28.166 11.9254 28.4691 11.9254 28.6206 11.9254Z" fill="#0D6EFD"/>
<path opacity="0.5" d="M31.9523 22.1465C33.3162 22.1465 34.5285 22.1465 35.8923 22.1465C36.4985 22.1465 36.9531 22.4611 37.1047 23.0902C37.2562 23.5621 37.2562 24.1912 36.8016 24.5058C36.4985 24.663 36.1954 24.8204 35.8923 24.8204C33.3162 24.8204 30.74 24.8204 28.0123 24.8204C27.2546 24.8204 26.6484 24.1912 26.6484 23.562C26.6484 22.7756 27.2546 22.1465 28.0123 22.1465C29.2246 22.1465 30.5885 22.1465 31.9523 22.1465Z" fill="#0D6EFD"/>
<path opacity="0.5" d="M31.9523 28.832C33.3162 28.832 34.5285 28.832 35.8923 28.832C36.4985 28.832 36.9531 29.1466 37.1047 29.7758C37.2562 30.2476 37.2562 30.8767 36.8016 31.1913C36.4985 31.3486 36.1954 31.5059 35.8923 31.5059C33.3162 31.5059 30.74 31.5059 28.0123 31.5059C27.2546 31.5059 26.6484 30.8767 26.6484 30.2476C26.6484 29.4612 27.2546 28.832 28.0123 28.832C29.2246 28.832 30.5885 28.832 31.9523 28.832Z" fill="#0D6EFD"/>
<path opacity="0.5" d="M31.9523 36.0684C33.3162 36.0684 34.5285 36.0684 35.8923 36.0684C36.4985 36.0684 36.9531 36.3829 37.1047 37.0121C37.2562 37.4839 37.2562 38.1131 36.8016 38.4276C36.4985 38.5849 36.1954 38.7422 35.8923 38.7422C33.3162 38.7422 30.74 38.7422 28.0123 38.7422C27.2546 38.7422 26.6484 38.1131 26.6484 37.4839C26.6484 36.6975 27.2546 36.0684 28.0123 36.0684C29.2246 36.0684 30.5885 36.0684 31.9523 36.0684Z" fill="#0D6EFD"/>
<path d="M24.9915 23.4062C24.9915 24.6644 23.9307 25.7654 22.7184 25.7654C21.5061 25.7654 20.4453 24.6644 20.4453 23.4062C20.4453 22.1479 21.5061 21.0469 22.7184 21.0469C23.9307 21.0469 24.9915 22.1479 24.9915 23.4062Z" fill="#D13731" fill-opacity="0.8"/>
<path d="M22.7184 27.8105C23.9307 27.8105 24.9915 28.9115 24.9915 30.1698C24.9915 31.4281 23.9307 32.5291 22.7184 32.5291C21.5061 32.5291 20.4453 31.4281 20.4453 30.1698C20.4453 28.9115 21.5061 27.8105 22.7184 27.8105Z" fill="#D13731" fill-opacity="0.8"/>
<path d="M22.7184 35.0469C23.9307 35.0469 24.9915 36.1479 24.9915 37.4062C24.9915 38.6644 23.9307 39.7654 22.7184 39.7654C21.5061 39.7654 20.4453 38.6644 20.4453 37.4062C20.4453 36.1479 21.5061 35.0469 22.7184 35.0469Z" fill="#D13731" fill-opacity="0.8"/>
</svg>
