<svg width="58" height="58" viewBox="0 0 58 58" fill="none" xmlns="http://www.w3.org/2000/svg">
<path fill-rule="evenodd" clip-rule="evenodd" d="M28.9974 44.709C29.6647 44.709 30.2057 45.25 30.2057 45.9173C30.2057 47.6252 30.4952 48.8972 30.9528 49.698C31.3729 50.4333 31.907 50.7507 32.6224 50.7507C33.2897 50.7507 33.8307 51.2916 33.8307 51.959C33.8307 52.6263 33.2897 53.1673 32.6224 53.1673C30.9211 53.1673 29.6427 52.2763 28.8545 50.897C28.1038 49.5833 27.7891 47.8344 27.7891 45.9173C27.7891 45.25 28.3301 44.709 28.9974 44.709Z" fill="#0D6EFD"/>
<path d="M31.0438 41.625H31.8438C35.615 41.625 37.5006 41.625 38.6722 40.4534C39.8438 39.2819 39.8438 37.3962 39.8438 33.625V23.625H17.8438V33.625C17.8438 37.3962 17.8438 39.2819 19.0153 40.4534C20.1869 41.625 22.0725 41.625 25.8437 41.625H26.6438H31.0438Z" fill="#D13731" fill-opacity="0.8"/>
<path fill-rule="evenodd" clip-rule="evenodd" d="M28.8331 4.83399C28.889 4.834 28.9455 4.834 29.0026 4.834C29.0598 4.834 29.1163 4.834 29.1722 4.83399C31.2568 4.83384 32.4892 4.83376 33.5409 5.04296C37.8549 5.90107 41.2272 9.27338 42.0853 13.5874C42.2945 14.6391 42.2944 15.8715 42.2943 17.9561C42.2943 18.012 42.2943 18.0685 42.2943 18.1257V32.6257C42.2943 38.2233 38.0651 42.8332 32.6276 43.4343V43.5007C32.6276 45.5027 31.0047 47.1257 29.0026 47.1257C27.0006 47.1257 25.3776 45.5027 25.3776 43.5007V43.4343C19.9402 42.8332 15.711 38.2233 15.711 32.6257V18.1257C15.711 18.0685 15.7109 18.012 15.7109 17.9561C15.7108 15.8715 15.7107 14.6391 15.9199 13.5874C16.778 9.27338 20.1503 5.90107 24.4643 5.04296C25.5161 4.83376 26.7485 4.83384 28.8331 4.83399ZM27.7943 43.5007C27.7943 44.168 28.3353 44.709 29.0026 44.709C29.67 44.709 30.211 44.168 30.211 43.5007H27.7943ZM26.586 41.084C21.9145 41.084 18.1276 37.2971 18.1276 32.6257V18.1257C18.1276 15.8219 18.1335 14.8465 18.2901 14.0589C18.9576 10.7035 21.5805 8.08061 24.9358 7.41319C25.7235 7.25652 26.6989 7.25067 29.0026 7.25067C31.3064 7.25067 32.2818 7.25652 33.0694 7.41319C36.4248 8.08061 39.0477 10.7035 39.7151 14.0589C39.8718 14.8465 39.8776 15.8219 39.8776 18.1257V32.6257C39.8776 37.2971 36.0907 41.084 31.4193 41.084H26.586Z" fill="#0D6EFD"/>
<path fill-rule="evenodd" clip-rule="evenodd" d="M21.7474 33.8327H16.9141V31.416H21.7474C22.4147 31.416 22.9557 31.957 22.9557 32.6243C22.9557 33.2917 22.4147 33.8327 21.7474 33.8327Z" fill="#0D6EFD"/>
<path fill-rule="evenodd" clip-rule="evenodd" d="M21.7474 29.0007H16.9141V26.584H21.7474C22.4147 26.584 22.9557 27.125 22.9557 27.7923C22.9557 28.4597 22.4147 29.0007 21.7474 29.0007Z" fill="#0D6EFD"/>
<path fill-rule="evenodd" clip-rule="evenodd" d="M41.0807 24.1667H16.9141V21.75H41.0807V24.1667Z" fill="#0D6EFD"/>
<path fill-rule="evenodd" clip-rule="evenodd" d="M21.7474 19.3327H16.9141V16.916H21.7474C22.4147 16.916 22.9557 17.457 22.9557 18.1243C22.9557 18.7917 22.4147 19.3327 21.7474 19.3327Z" fill="#0D6EFD"/>
</svg>
