<svg width="58" height="58" viewBox="0 0 58 58" fill="none" xmlns="http://www.w3.org/2000/svg">
<path d="M20.6374 38.0973C21.3066 40.947 24.153 42.7202 27.0059 42.0644C27.0782 42.0478 27.1498 42.0298 27.2207 42.0104L29.6041 29.7559L28.053 23.1504L27.8253 23.4018C24.2887 26.204 21.6372 26.4113 18.1253 25.9331L17.7617 25.8506L20.6374 38.0973Z" fill="#D13731" fill-opacity="0.8"/>
<path fill-rule="evenodd" clip-rule="evenodd" d="M28.771 22.6503C29.1855 23.1733 29.0974 23.9333 28.5744 24.3477C26.6971 25.8352 24.987 26.6858 23.2262 27.0762C21.4783 27.4637 19.7732 27.376 17.9609 27.1293C17.2996 27.0392 16.8366 26.4302 16.9266 25.7689C17.0167 25.1077 17.6257 24.6446 18.287 24.7347C19.9866 24.9661 21.3631 25.0139 22.7031 24.7168C24.0303 24.4226 25.4141 23.7684 27.0735 22.4536C27.5966 22.0392 28.3566 22.1272 28.771 22.6503Z" fill="#0D6EFD"/>
<path fill-rule="evenodd" clip-rule="evenodd" d="M24.4507 11.5471C23.7449 11.2793 22.3384 11.0792 19.8892 11.6421C17.4289 12.2076 16.2733 12.967 15.7693 13.4779C15.6412 13.6077 15.5578 13.7186 15.504 13.8043C15.6943 14 16.047 14.2828 16.6341 14.4864C17.3908 14.7487 18.625 14.9098 20.5391 14.4698C23.9137 13.6941 24.6976 12.2539 24.8799 11.7779L24.8821 11.7676C24.7913 11.7032 24.6527 11.6237 24.4507 11.5471ZM24.9554 15.2392C24.0402 15.8636 22.7882 16.4325 21.0805 16.825C19.4107 17.2089 18.0454 17.235 16.937 17.0473L21.815 37.821C22.2895 39.8418 24.1807 41.1621 26.1925 40.9744L28.3697 29.7797L24.9554 15.2392ZM13.2091 14.7564L13.2118 14.7613C13.2274 14.7889 13.2471 14.8226 13.2714 14.8614C13.3146 14.9304 13.3723 15.0159 13.4464 15.1131L14.2973 16.3772L19.4623 38.3735C20.2835 41.8707 23.7767 44.0468 27.2778 43.242C27.3661 43.2217 27.4538 43.1997 27.5406 43.1759L28.2648 42.978L30.8409 29.7321L27.0211 13.4648C27.0317 13.4025 27.0441 13.3301 27.058 13.2509C27.1011 13.0049 27.1568 12.6999 27.2139 12.4222C27.2686 12.2507 27.3028 12.1027 27.3243 11.9852C27.3361 11.9203 27.344 11.8647 27.3494 11.8192C27.4069 11.4737 27.3296 11.1664 27.2483 10.9584C27.1488 10.7039 26.9969 10.4747 26.8213 10.2766C26.4673 9.87704 25.9565 9.53369 25.308 9.28763C24.009 8.79477 22.0816 8.65851 19.3478 9.28688C16.6252 9.91269 14.987 10.8298 14.0489 11.7807C13.5786 12.2574 13.2753 12.753 13.1208 13.2267C13.0443 13.4611 12.9994 13.7057 13 13.9481C13.0005 14.1409 13.03 14.4535 13.2091 14.7564Z" fill="#0D6EFD"/>
<path d="M27.0044 43.1388C26.3569 46.4679 28.5217 49.6943 31.8477 50.3574C35.1959 51.0249 38.4485 48.8425 39.1003 45.4912L41.5914 32.6825L41.2938 32.7437C36.2252 34.0235 33.3251 32.9823 29.8418 30.8078L29.4541 30.5429L27.0044 43.1388Z" fill="#D13731" fill-opacity="0.8"/>
<path fill-rule="evenodd" clip-rule="evenodd" d="M42.4669 32.4465C42.6303 33.0935 42.2382 33.7505 41.5912 33.9139C38.9222 34.5878 36.7409 34.6701 34.7295 34.2529C32.7309 33.8383 30.9934 32.9488 29.2035 31.8315C28.6374 31.4781 28.465 30.7327 28.8183 30.1666C29.1717 29.6005 29.9171 29.4281 30.4832 29.7814C32.1767 30.8386 33.6309 31.5569 35.2203 31.8866C36.7969 32.2136 38.6 32.1766 40.9995 31.5707C41.6466 31.4074 42.3036 31.7994 42.4669 32.4465Z" fill="#0D6EFD"/>
<path fill-rule="evenodd" clip-rule="evenodd" d="M30.4395 14.9227C30.3997 14.5653 30.5031 14.2575 30.5873 14.069C30.6922 13.8341 30.8437 13.6138 31.0246 13.4149C31.3899 13.0132 31.9196 12.6492 32.6199 12.378C34.0174 11.8368 36.1442 11.6421 39.2974 12.2708C42.4618 12.9017 44.3938 13.9494 45.4965 15.052C46.0471 15.6026 46.4046 16.1822 46.578 16.7378C46.664 17.0135 46.7111 17.3051 46.6966 17.5945C46.6846 17.8331 46.6252 18.1584 46.4237 18.459C46.3986 18.501 46.366 18.5529 46.3249 18.6127C46.2492 18.7229 46.1448 18.8605 46.0065 19.0139C45.8719 19.2001 45.7282 19.4056 45.5932 19.602C45.4682 19.7839 45.3567 19.9492 45.2759 20.0697L40.2873 45.7202C39.5077 49.7288 35.6171 52.3391 31.6123 51.5407C27.634 50.7475 25.0447 46.8884 25.8191 42.9064L30.8233 17.1761L30.5182 15.3959C30.4968 15.3045 30.4809 15.2226 30.4691 15.1516C30.4566 15.0769 30.4486 15.0141 30.4435 14.9646C30.4419 14.9494 30.4406 14.9354 30.4395 14.9227ZM32.9672 18.8114L28.1914 43.3678C27.6709 46.044 29.4111 48.6376 32.0848 49.1707C34.7764 49.7073 37.3911 47.9529 37.9151 45.2589L42.6728 20.7955C41.3813 21.0693 39.7253 21.1029 37.6202 20.6833C35.5403 20.2686 34.0413 19.5872 32.9672 18.8114ZM44.2291 17.3517C44.2003 17.3902 44.1712 17.4295 44.1419 17.4693C43.9882 17.6241 43.7363 17.8327 43.3529 18.0272C42.5124 18.4535 40.9114 18.8752 38.0927 18.3132C35.2956 17.7556 34.0204 16.7078 33.4337 15.9546C33.1328 15.5683 32.9857 15.2253 32.9139 14.9993C32.9094 14.9849 32.9051 14.971 32.9011 14.9576C33.0085 14.8687 33.1941 14.7472 33.4926 14.6316C34.3137 14.3136 35.9357 14.0648 38.8249 14.6408C41.7029 15.2146 43.1337 16.1069 43.7877 16.7609C44.0371 17.0103 44.1658 17.2164 44.2291 17.3517Z" fill="#0D6EFD"/>
</svg>
