<svg width="58" height="58" viewBox="0 0 58 58" fill="none" xmlns="http://www.w3.org/2000/svg">
<path d="M36.5 14H21.5C20.5054 14 19.5516 14.3951 18.8483 15.0983C18.1451 15.8016 17.75 16.7554 17.75 17.75V40.25C17.75 41.2446 18.1451 42.1984 18.8483 42.9016C19.5516 43.6049 20.5054 44 21.5 44H36.5C37.4946 44 38.4484 43.6049 39.1516 42.9016C39.8549 42.1984 40.25 41.2446 40.25 40.25V17.75C40.25 16.7554 39.8549 15.8016 39.1516 15.0983C38.4484 14.3951 37.4946 14 36.5 14V14ZM23.375 21.5H34.625C34.8736 21.5 35.1121 21.5988 35.2879 21.7746C35.4637 21.9504 35.5625 22.1889 35.5625 22.4375C35.5625 22.6861 35.4637 22.9246 35.2879 23.1004C35.1121 23.2762 34.8736 23.375 34.625 23.375H23.375C23.1264 23.375 22.8879 23.2762 22.7121 23.1004C22.5363 22.9246 22.4375 22.6861 22.4375 22.4375C22.4375 22.1889 22.5363 21.9504 22.7121 21.7746C22.8879 21.5988 23.1264 21.5 23.375 21.5ZM22.4375 26.1875C22.4375 25.9389 22.5363 25.7004 22.7121 25.5246C22.8879 25.3488 23.1264 25.25 23.375 25.25H34.625C34.8736 25.25 35.1121 25.3488 35.2879 25.5246C35.4637 25.7004 35.5625 25.9389 35.5625 26.1875C35.5625 26.4361 35.4637 26.6746 35.2879 26.8504C35.1121 27.0262 34.8736 27.125 34.625 27.125H23.375C23.1264 27.125 22.8879 27.0262 22.7121 26.8504C22.5363 26.6746 22.4375 26.4361 22.4375 26.1875ZM23.375 29H34.625C34.8736 29 35.1121 29.0988 35.2879 29.2746C35.4637 29.4504 35.5625 29.6889 35.5625 29.9375C35.5625 30.1861 35.4637 30.4246 35.2879 30.6004C35.1121 30.7762 34.8736 30.875 34.625 30.875H23.375C23.1264 30.875 22.8879 30.7762 22.7121 30.6004C22.5363 30.4246 22.4375 30.1861 22.4375 29.9375C22.4375 29.6889 22.5363 29.4504 22.7121 29.2746C22.8879 29.0988 23.1264 29 23.375 29ZM23.375 32.75H29C29.2486 32.75 29.4871 32.8488 29.6629 33.0246C29.8387 33.2004 29.9375 33.4389 29.9375 33.6875C29.9375 33.9361 29.8387 34.1746 29.6629 34.3504C29.4871 34.5262 29.2486 34.625 29 34.625H23.375C23.1264 34.625 22.8879 34.5262 22.7121 34.3504C22.5363 34.1746 22.4375 33.9361 22.4375 33.6875C22.4375 33.4389 22.5363 33.2004 22.7121 33.0246C22.8879 32.8488 23.1264 32.75 23.375 32.75Z" fill="#0D6EFD"/>
</svg>
