<svg width="484" height="270" viewBox="0 0 484 270" fill="none" xmlns="http://www.w3.org/2000/svg">
<path d="M0 134.844V101.033L68.8021 4.10655H124.863L58.6092 101.033L33.1269 93.5943H158.685V134.844H0ZM84.0914 161.893V134.844L85.713 93.5943V69.4754H137.141V161.893H84.0914Z" fill="#0D6EFD"/>
<path d="M239.745 165.5C225.382 165.5 212.641 162.269 201.522 155.807C190.556 149.346 181.908 139.954 175.576 127.631C169.398 115.309 166.31 100.432 166.31 83C166.31 65.5683 169.398 50.6913 175.576 38.3689C181.908 26.0464 190.556 16.6544 201.522 10.1926C212.641 3.73087 225.382 0.5 239.745 0.5C254.108 0.5 266.772 3.73087 277.737 10.1926C288.856 16.6544 297.505 26.0464 303.682 38.3689C310.014 50.6913 313.18 65.5683 313.18 83C313.18 100.432 310.014 115.309 303.682 127.631C297.505 139.954 288.856 149.346 277.737 155.807C266.772 162.269 254.108 165.5 239.745 165.5ZM239.745 122.898C243.297 122.898 246.463 121.695 249.243 119.291C252.023 116.887 254.185 112.754 255.729 106.893C257.428 101.033 258.278 93.0683 258.278 83C258.278 72.7814 257.428 64.8169 255.729 59.1066C254.185 53.2459 252.023 49.1134 249.243 46.709C246.463 44.3046 243.297 43.1025 239.745 43.1025C236.193 43.1025 233.027 44.3046 230.247 46.709C227.467 49.1134 225.228 53.2459 223.529 59.1066C221.985 64.8169 221.212 72.7814 221.212 83C221.212 93.0683 221.985 101.033 223.529 106.893C225.228 112.754 227.467 116.887 230.247 119.291C233.027 121.695 236.193 122.898 239.745 122.898Z" fill="#0D6EFD"/>
<path d="M325.315 134.844V101.033L394.117 4.10655H450.178L383.924 101.033L358.442 93.5943H484V134.844H325.315ZM409.406 161.893V134.844L411.028 93.5943V69.4754H462.456V161.893H409.406Z" fill="#0D6EFD"/>
<path d="M37.2721 269.5C31.8818 269.5 26.9188 268.6 22.383 266.8C17.8472 265 13.9031 262.5 10.5506 259.3C7.19806 256.033 4.6015 252.233 2.7609 247.9C0.9203 243.5 0 238.7 0 233.5C0 228.3 0.9203 223.533 2.7609 219.2C4.6015 214.8 7.19806 211 10.5506 207.8C13.9031 204.533 17.8472 202 22.383 200.2C26.9188 198.4 31.8489 197.5 37.1735 197.5C42.5639 197.5 47.494 198.4 51.9641 200.2C56.4998 202 60.444 204.533 63.7965 207.8C67.149 211 69.7456 214.8 71.5862 219.2C73.4268 223.533 74.3471 228.3 74.3471 233.5C74.3471 238.7 73.4268 243.5 71.5862 247.9C69.7456 252.3 67.149 256.1 63.7965 259.3C60.444 262.5 56.4998 265 51.9641 266.8C47.494 268.6 42.5967 269.5 37.2721 269.5ZM37.1735 258.1C40.6575 258.1 43.8786 257.5 46.8367 256.3C49.7948 255.1 52.3585 253.4 54.5278 251.2C56.697 248.933 58.3733 246.333 59.5565 243.4C60.8055 240.4 61.43 237.1 61.43 233.5C61.43 229.9 60.8055 226.633 59.5565 223.7C58.3733 220.7 56.697 218.1 54.5278 215.9C52.3585 213.633 49.7948 211.9 46.8367 210.7C43.8786 209.5 40.6575 208.9 37.1735 208.9C33.6895 208.9 30.4685 209.5 27.5104 210.7C24.618 211.9 22.0543 213.633 19.8193 215.9C17.65 218.1 15.9409 220.7 14.6919 223.7C13.5087 226.633 12.9171 229.9 12.9171 233.5C12.9171 237.033 13.5087 240.3 14.6919 243.3C15.9409 246.3 17.65 248.933 19.8193 251.2C21.9886 253.4 24.5523 255.1 27.5104 256.3C30.4685 257.5 33.6895 258.1 37.1735 258.1Z" fill="#0F134D" fill-opacity="0.8"/>
<path d="M129.538 257.5L126.679 260.7V198.5H139.3V260.7L136.243 257.5H167.698L164.641 260.7V198.5H177.262V268.5H88.6176V198.5H101.239V260.7L98.2808 257.5H129.538Z" fill="#0F134D" fill-opacity="0.8"/>
<path d="M196.754 268.5V198.5H209.375V248.2L246.45 198.5H258.381V268.5H245.76V218.9L208.685 268.5H196.754Z" fill="#0F134D" fill-opacity="0.8"/>
<path d="M277.832 268.5V198.5H331.571V209.2H290.454V226.4H310.865C319.147 226.4 325.425 228.167 329.698 231.7C334.036 235.167 336.206 240.233 336.206 246.9C336.206 253.767 333.806 259.1 329.008 262.9C324.275 266.633 317.57 268.5 308.892 268.5H277.832ZM290.454 258.5H308.202C313.132 258.5 316.879 257.533 319.443 255.6C322.007 253.667 323.289 250.867 323.289 247.2C323.289 240 318.26 236.4 308.202 236.4H290.454V258.5Z" fill="#0F134D" fill-opacity="0.8"/>
<path d="M395.895 268.5L372.526 234.4L382.88 227.9L410.39 268.5H395.895ZM350.242 268.5V198.5H362.863V268.5H350.242ZM359.018 239V227.8H382.288V239H359.018ZM384.063 235L372.329 233.4L395.895 198.5H409.503L384.063 235Z" fill="#0F134D" fill-opacity="0.8"/>
<path d="M409.16 268.5L440.22 198.5H452.841L484 268.5H470.59L443.868 205.4H448.996L422.373 268.5H409.16ZM423.457 252.3L426.909 242.1H464.181L467.632 252.3H423.457Z" fill="#0F134D" fill-opacity="0.8"/>
</svg>
