<svg width="59" height="58" viewBox="0 0 59 58" fill="none" xmlns="http://www.w3.org/2000/svg">
<path d="M24.5 29C20.3637 29 17 25.6362 17 21.5C17 17.3637 20.3637 14 24.5 14C28.6362 14 32 17.3637 32 21.5C32 25.6362 28.6362 29 24.5 29ZM39.2825 34H44.5V35.25L40.6825 37.8538L42.2712 42.8313L41.2488 43.545L37.0212 40.6225L32.8575 43.545L31.8738 42.8037L33.35 37.7762L29.5013 35.2562V33.9987H34.7513L36.3575 28.545H37.6812L39.285 33.9987L39.2825 34ZM27 36.5C27 34.6787 27.4875 32.9713 28.3387 31.5H20.75C17.3038 31.5 14.5 34.3037 14.5 37.75V44H30.3862C28.31 42.1675 27 39.4875 27 36.5Z" fill="#0D6EFD"/>
</svg>
