<svg width="59" height="58" viewBox="0 0 59 58" fill="none" xmlns="http://www.w3.org/2000/svg">
<path d="M29.5 34C28.5111 34 27.5444 33.7068 26.7221 33.1574C25.8999 32.6079 25.259 31.8271 24.8806 30.9134C24.5022 29.9998 24.4031 28.9945 24.5961 28.0246C24.789 27.0546 25.2652 26.1637 25.9645 25.4645C26.6637 24.7652 27.5546 24.289 28.5245 24.0961C29.4945 23.9031 30.4998 24.0022 31.4134 24.3806C32.327 24.759 33.1079 25.3999 33.6573 26.2222C34.2068 27.0444 34.5 28.0111 34.5 29C34.5 30.3261 33.9732 31.5979 33.0355 32.5355C32.0979 33.4732 30.8261 34 29.5 34ZM21.6038 34H15.75C15.4185 34 15.1005 33.8683 14.8661 33.6339C14.6317 33.3995 14.5 33.0815 14.5 32.75C14.5118 30.9551 15.1647 29.2236 16.3407 27.8676C17.5167 26.5116 19.1386 25.6205 20.9138 25.355C21.12 25.3261 21.3303 25.3492 21.5253 25.4222C21.7204 25.4952 21.8941 25.6158 22.0308 25.7731C22.1674 25.9303 22.2625 26.1192 22.3076 26.3225C22.3526 26.5259 22.3462 26.7373 22.2887 26.9375C22.0972 27.6083 22 28.3024 22 29C22.0004 30.1122 22.2507 31.2101 22.7325 32.2125C22.8231 32.4028 22.8642 32.6129 22.8518 32.8232C22.8395 33.0336 22.7741 33.2375 22.6619 33.4158C22.5496 33.5942 22.3941 33.7413 22.2098 33.8434C22.0254 33.9455 21.8182 33.9994 21.6075 34H21.6038ZM35.75 44H23.25C22.9185 44 22.6005 43.8683 22.3661 43.6339C22.1317 43.3995 22 43.0815 22 42.75C22 40.7609 22.7902 38.8532 24.1967 37.4467C25.6032 36.0402 27.5109 35.25 29.5 35.25C31.4891 35.25 33.3968 36.0402 34.8033 37.4467C36.2098 38.8532 37 40.7609 37 42.75C37 43.0815 36.8683 43.3995 36.6339 43.6339C36.3995 43.8683 36.0815 44 35.75 44ZM37 24C36.0111 24 35.0444 23.7068 34.2221 23.1574C33.3999 22.6079 32.759 21.827 32.3806 20.9134C32.0022 19.9998 31.9031 18.9945 32.0961 18.0246C32.289 17.0546 32.7652 16.1637 33.4645 15.4645C34.1637 14.7652 35.0546 14.289 36.0245 14.0961C36.9945 13.9031 37.9998 14.0022 38.9134 14.3806C39.827 14.759 40.6079 15.3999 41.1573 16.2222C41.7068 17.0444 42 18.0111 42 19C42 20.3261 41.4732 21.5979 40.5355 22.5355C39.5979 23.4732 38.3261 24 37 24ZM22 24C21.0111 24 20.0444 23.7068 19.2221 23.1574C18.3999 22.6079 17.759 21.827 17.3806 20.9134C17.0022 19.9998 16.9031 18.9945 17.0961 18.0246C17.289 17.0546 17.7652 16.1637 18.4645 15.4645C19.1637 14.7652 20.0546 14.289 21.0245 14.0961C21.9945 13.9031 22.9998 14.0022 23.9134 14.3806C24.827 14.759 25.6079 15.3999 26.1573 16.2222C26.7068 17.0444 27 18.0111 27 19C27 20.3261 26.4732 21.5979 25.5355 22.5355C24.5979 23.4732 23.3261 24 22 24ZM43.25 34H37.3962C37.1855 33.9994 36.9783 33.9455 36.794 33.8434C36.6096 33.7413 36.4541 33.5942 36.3419 33.4158C36.2296 33.2375 36.1643 33.0336 36.1519 32.8232C36.1396 32.6129 36.1806 32.4028 36.2712 32.2125C36.7518 31.2098 37.0008 30.1119 37 29C36.998 28.3021 36.8987 27.608 36.705 26.9375C36.6472 26.7367 36.6407 26.5246 36.6861 26.3207C36.7314 26.1167 36.8272 25.9274 36.9646 25.77C37.102 25.6126 37.2766 25.4921 37.4725 25.4196C37.6685 25.3471 37.8795 25.3249 38.0863 25.355C39.8614 25.6205 41.4833 26.5116 42.6593 27.8676C43.8353 29.2236 44.4882 30.9551 44.5 32.75C44.5 33.0815 44.3683 33.3995 44.1339 33.6339C43.8995 33.8683 43.5815 34 43.25 34Z" fill="#0D6EFD"/>
</svg>
