<svg width="58" height="58" viewBox="0 0 58 58" fill="none" xmlns="http://www.w3.org/2000/svg">
<path d="M44 25.875C44.0027 25.0914 43.795 24.3215 43.3984 23.6456C43.0019 22.9698 42.4311 22.4128 41.7457 22.033C41.0604 21.6532 40.2855 21.4644 39.5023 21.4864C38.719 21.5084 37.956 21.7403 37.293 22.158C36.63 22.5757 36.0914 23.1638 35.7333 23.8608C35.3753 24.5578 35.2111 25.3382 35.2578 26.1204C35.3045 26.9026 35.5604 27.6579 35.9988 28.3074C36.4372 28.9569 37.042 29.4767 37.75 29.8125V34C37.75 35.6576 37.0915 37.2473 35.9194 38.4194C34.7473 39.5915 33.1576 40.25 31.5 40.25C29.8424 40.25 28.2527 39.5915 27.0806 38.4194C25.9085 37.2473 25.25 35.6576 25.25 34V33.8113C27.3659 33.3762 29.2672 32.225 30.6334 30.5517C31.9996 28.8784 32.7471 26.7852 32.75 24.625V18.375C32.75 17.2147 32.2891 16.1019 31.4686 15.2814C30.6481 14.4609 29.5353 14 28.375 14H25.25V17.75H28.375C28.5408 17.75 28.6997 17.8158 28.8169 17.9331C28.9342 18.0503 29 18.2092 29 18.375V24.625C29 26.1168 28.4074 27.5476 27.3525 28.6025C26.2976 29.6574 24.8668 30.25 23.375 30.25C21.8832 30.25 20.4524 29.6574 19.3975 28.6025C18.3426 27.5476 17.75 26.1168 17.75 24.625V18.375C17.75 18.2092 17.8158 18.0503 17.9331 17.9331C18.0503 17.8158 18.2092 17.75 18.375 17.75H21.5V14H18.375C17.2147 14 16.1019 14.4609 15.2814 15.2814C14.4609 16.1019 14 17.2147 14 18.375V24.625C14.0029 26.7852 14.7504 28.8784 16.1166 30.5517C17.4828 32.225 19.3841 33.3762 21.5 33.8113V34C21.5 36.6522 22.5536 39.1957 24.4289 41.0711C26.3043 42.9464 28.8478 44 31.5 44C34.1522 44 36.6957 42.9464 38.5711 41.0711C40.4464 39.1957 41.5 36.6522 41.5 34V29.8125C42.2465 29.4599 42.8777 28.9028 43.3202 28.2058C43.7627 27.5088 43.9984 26.7006 44 25.875Z" fill="#0D6EFD"/>
</svg>
