<svg width="58" height="58" viewBox="0 0 58 58" fill="none" xmlns="http://www.w3.org/2000/svg">
<path d="M31.4244 14H21.5C20.5054 14 19.5516 14.3951 18.8483 15.0983C18.1451 15.8016 17.75 16.7554 17.75 17.75V40.25C17.75 41.2446 18.1451 42.1984 18.8483 42.9016C19.5516 43.6049 20.5054 44 21.5 44H36.5C37.4946 44 38.4484 43.6049 39.1516 42.9016C39.8549 42.1984 40.25 41.2446 40.25 40.25V22.8256C40.2499 22.3284 40.0523 21.8515 39.7006 21.5L32.75 14.5494C32.3985 14.1977 31.9216 14.0001 31.4244 14V14ZM31.8125 20.5625V16.8125L37.4375 22.4375H33.6875C33.1902 22.4375 32.7133 22.24 32.3617 21.8883C32.01 21.5367 31.8125 21.0598 31.8125 20.5625ZM22.4375 30.875C22.1889 30.875 21.9504 30.7762 21.7746 30.6004C21.5988 30.4246 21.5 30.1861 21.5 29.9375C21.5 29.6889 21.5988 29.4504 21.7746 29.2746C21.9504 29.0988 22.1889 29 22.4375 29H35.5625C35.8111 29 36.0496 29.0988 36.2254 29.2746C36.4012 29.4504 36.5 29.6889 36.5 29.9375C36.5 30.1861 36.4012 30.4246 36.2254 30.6004C36.0496 30.7762 35.8111 30.875 35.5625 30.875H22.4375ZM21.5 33.6875C21.5 33.4389 21.5988 33.2004 21.7746 33.0246C21.9504 32.8488 22.1889 32.75 22.4375 32.75H35.5625C35.8111 32.75 36.0496 32.8488 36.2254 33.0246C36.4012 33.2004 36.5 33.4389 36.5 33.6875C36.5 33.9361 36.4012 34.1746 36.2254 34.3504C36.0496 34.5262 35.8111 34.625 35.5625 34.625H22.4375C22.1889 34.625 21.9504 34.5262 21.7746 34.3504C21.5988 34.1746 21.5 33.9361 21.5 33.6875ZM22.4375 38.375C22.1889 38.375 21.9504 38.2762 21.7746 38.1004C21.5988 37.9246 21.5 37.6861 21.5 37.4375C21.5 37.1889 21.5988 36.9504 21.7746 36.7746C21.9504 36.5988 22.1889 36.5 22.4375 36.5H29.9375C30.1861 36.5 30.4246 36.5988 30.6004 36.7746C30.7762 36.9504 30.875 37.1889 30.875 37.4375C30.875 37.6861 30.7762 37.9246 30.6004 38.1004C30.4246 38.2762 30.1861 38.375 29.9375 38.375H22.4375Z" fill="#0D6EFD"/>
</svg>
