<svg width="58" height="58" viewBox="0 0 58 58" fill="none" xmlns="http://www.w3.org/2000/svg">
<path d="M19 39H41.5V44H19C17.6187 44 16.5 42.8813 16.5 41.5C16.5 40.1187 17.6187 39 19 39ZM21.5 36.5V14H20.25C18.1788 14 16.5 15.6788 16.5 17.75V37.4562C17.1863 36.8387 18.0775 36.4988 19 36.5H21.5ZM36.5 26.5C36.5 27.19 37.06 27.75 37.75 27.75H41.5V25.25H37.75C37.06 25.25 36.5 25.81 36.5 26.5ZM37.75 30.25C35.6825 30.25 34 28.5675 34 26.5C34 24.4325 35.6825 22.75 37.75 22.75H41.5V16.5C41.5 15.1187 40.3813 14 39 14H24V36.5H41.5V30.25H37.75Z" fill="#0D6EFD"/>
</svg>
