<svg width="58" height="58" viewBox="0 0 58 58" fill="none" xmlns="http://www.w3.org/2000/svg">
<path d="M37.75 18.4545H34V17.0909C34 16.0059 33.6049 14.9654 32.9017 14.1982C32.1984 13.431 31.2446 13 30.25 13H27.75C26.7554 13 25.8016 13.431 25.0983 14.1982C24.3951 14.9654 24 16.0059 24 17.0909V18.4545H20.25C18.593 18.4567 17.0044 19.1757 15.8328 20.4539C14.6611 21.7321 14.002 23.4651 14 25.2727L14 36.1818C14.002 37.9894 14.6611 39.7224 15.8328 41.0006C17.0044 42.2788 18.593 42.9978 20.25 43H37.75C39.407 42.9978 40.9956 42.2788 42.1672 41.0006C43.3389 39.7224 43.998 37.9894 44 36.1818V25.2727C43.998 23.4651 43.3389 21.7321 42.1672 20.4539C40.9956 19.1757 39.407 18.4567 37.75 18.4545ZM26.5 17.0909C26.5 16.7293 26.6317 16.3824 26.8661 16.1267C27.1005 15.8709 27.4185 15.7273 27.75 15.7273H30.25C30.5815 15.7273 30.8995 15.8709 31.1339 16.1267C31.3683 16.3824 31.5 16.7293 31.5 17.0909V18.4545H26.5V17.0909ZM32.75 32.0909H30.25V34.8182C30.25 35.1798 30.1183 35.5267 29.8839 35.7824C29.6495 36.0382 29.3315 36.1818 29 36.1818C28.6685 36.1818 28.3505 36.0382 28.1161 35.7824C27.8817 35.5267 27.75 35.1798 27.75 34.8182V32.0909H25.25C24.9185 32.0909 24.6005 31.9472 24.3661 31.6915C24.1317 31.4358 24 31.0889 24 30.7273C24 30.3656 24.1317 30.0188 24.3661 29.763C24.6005 29.5073 24.9185 29.3636 25.25 29.3636H27.75V26.6364C27.75 26.2747 27.8817 25.9279 28.1161 25.6721C28.3505 25.4164 28.6685 25.2727 29 25.2727C29.3315 25.2727 29.6495 25.4164 29.8839 25.6721C30.1183 25.9279 30.25 26.2747 30.25 26.6364V29.3636H32.75C33.0815 29.3636 33.3995 29.5073 33.6339 29.763C33.8683 30.0188 34 30.3656 34 30.7273C34 31.0889 33.8683 31.4358 33.6339 31.6915C33.3995 31.9472 33.0815 32.0909 32.75 32.0909Z" fill="#0D6EFD"/>
</svg>
