<svg width="58" height="58" viewBox="0 0 58 58" fill="none" xmlns="http://www.w3.org/2000/svg">
<path fill-rule="evenodd" clip-rule="evenodd" d="M17.75 43.0625V17.75C17.75 16.7554 18.1451 15.8016 18.8483 15.0983C19.5516 14.3951 20.5054 14 21.5 14H36.5C37.4946 14 38.4484 14.3951 39.1516 15.0983C39.8549 15.8016 40.25 16.7554 40.25 17.75V43.0625C40.2501 43.2253 40.2078 43.3853 40.1273 43.5268C40.0468 43.6683 39.9308 43.7864 39.7908 43.8695C39.6508 43.9525 39.4916 43.9977 39.3288 44.0005C39.166 44.0034 39.0053 43.9638 38.8625 43.8856L29 38.5044L19.1375 43.8856C18.9947 43.9638 18.834 44.0034 18.6712 44.0005C18.5084 43.9977 18.3492 43.9525 18.2092 43.8695C18.0692 43.7864 17.9532 43.6683 17.8727 43.5268C17.7922 43.3853 17.7499 43.2253 17.75 43.0625ZM29.3 21.6875C29.2726 21.6313 29.2299 21.5839 29.1769 21.5507C29.1238 21.5176 29.0626 21.5 29 21.5C28.9374 21.5 28.8762 21.5176 28.8231 21.5507C28.7701 21.5839 28.7274 21.6313 28.7 21.6875L27.5112 24.0969C27.4875 24.1456 27.4521 24.1878 27.4084 24.2198C27.3646 24.2519 27.3137 24.2727 27.26 24.2806L24.5975 24.6669C24.5362 24.6762 24.4787 24.7024 24.4315 24.7425C24.3842 24.7826 24.3491 24.8352 24.33 24.8941C24.3109 24.9531 24.3087 25.0163 24.3235 25.0765C24.3382 25.1367 24.3695 25.1916 24.4138 25.235L26.3375 27.1119C26.4163 27.1888 26.4519 27.2994 26.4331 27.4081L25.9812 30.0594C25.9711 30.1206 25.9781 30.1834 26.0017 30.2409C26.0253 30.2983 26.0644 30.348 26.1146 30.3844C26.1649 30.4208 26.2243 30.4425 26.2862 30.447C26.3481 30.4516 26.41 30.4387 26.465 30.41L28.8463 29.1575C28.894 29.1325 28.9471 29.1195 29.0009 29.1195C29.0548 29.1195 29.1079 29.1325 29.1556 29.1575L31.5369 30.41C31.5918 30.4382 31.6535 30.4506 31.7151 30.4459C31.7767 30.4411 31.8358 30.4193 31.8857 30.383C31.9357 30.3466 31.9746 30.2971 31.998 30.24C32.0215 30.1829 32.0287 30.1203 32.0187 30.0594L31.565 27.4062C31.5554 27.353 31.559 27.2982 31.5753 27.2465C31.5916 27.1949 31.6203 27.1481 31.6588 27.11L33.5863 25.2331C33.6305 25.1897 33.6618 25.1348 33.6765 25.0746C33.6913 25.0144 33.6891 24.9513 33.67 24.8923C33.6509 24.8333 33.6158 24.7808 33.5685 24.7406C33.5213 24.7005 33.4638 24.6743 33.4025 24.665L30.74 24.2787C30.6863 24.2708 30.6354 24.25 30.5916 24.218C30.5479 24.1859 30.5125 24.1437 30.4887 24.095L29.3 21.6875Z" fill="#0D6EFD"/>
</svg>
