<svg width="58" height="58" viewBox="0 0 58 58" fill="none" xmlns="http://www.w3.org/2000/svg">
<path d="M35.25 22.75C35.25 23.0815 35.1183 23.3995 34.8839 23.6339C34.6495 23.8683 34.3315 24 34 24H24C23.6685 24 23.3505 23.8683 23.1161 23.6339C22.8817 23.3995 22.75 23.0815 22.75 22.75C22.75 22.4185 22.8817 22.1005 23.1161 21.8661C23.3505 21.6317 23.6685 21.5 24 21.5H34C34.3315 21.5 34.6495 21.6317 34.8839 21.8661C35.1183 22.1005 35.25 22.4185 35.25 22.75ZM42.75 20.25V37.75C42.748 39.407 42.0889 40.9956 40.9172 42.1672C39.7456 43.3389 38.157 43.998 36.5 44H21.5C19.843 43.998 18.2544 43.3389 17.0828 42.1672C15.9111 40.9956 15.252 39.407 15.25 37.75V20.25C15.252 18.593 15.9111 17.0044 17.0828 15.8328C18.2544 14.6611 19.843 14.002 21.5 14H36.5C38.157 14.002 39.7456 14.6611 40.9172 15.8328C42.0889 17.0044 42.748 18.593 42.75 20.25ZM22.75 36.5C22.75 36.2528 22.6767 36.0111 22.5393 35.8055C22.402 35.6 22.2068 35.4398 21.9784 35.3451C21.7499 35.2505 21.4986 35.2258 21.2561 35.274C21.0137 35.3223 20.7909 35.4413 20.6161 35.6161C20.4413 35.7909 20.3222 36.0137 20.274 36.2561C20.2258 36.4986 20.2505 36.7499 20.3452 36.9784C20.4398 37.2068 20.6 37.402 20.8055 37.5393C21.0111 37.6767 21.2528 37.75 21.5 37.75C21.8315 37.75 22.1495 37.6183 22.3839 37.3839C22.6183 37.1495 22.75 36.8315 22.75 36.5ZM22.75 31.5C22.75 31.2528 22.6767 31.0111 22.5393 30.8055C22.402 30.6 22.2068 30.4398 21.9784 30.3451C21.7499 30.2505 21.4986 30.2258 21.2561 30.274C21.0137 30.3223 20.7909 30.4413 20.6161 30.6161C20.4413 30.7909 20.3222 31.0137 20.274 31.2561C20.2258 31.4986 20.2505 31.7499 20.3452 31.9784C20.4398 32.2068 20.6 32.402 20.8055 32.5393C21.0111 32.6767 21.2528 32.75 21.5 32.75C21.8315 32.75 22.1495 32.6183 22.3839 32.3839C22.6183 32.1495 22.75 31.8315 22.75 31.5ZM27.75 36.5C27.75 36.2528 27.6767 36.0111 27.5393 35.8055C27.402 35.6 27.2068 35.4398 26.9784 35.3451C26.7499 35.2505 26.4986 35.2258 26.2561 35.274C26.0137 35.3223 25.7909 35.4413 25.6161 35.6161C25.4413 35.7909 25.3222 36.0137 25.274 36.2561C25.2258 36.4986 25.2505 36.7499 25.3451 36.9784C25.4398 37.2068 25.6 37.402 25.8055 37.5393C26.0111 37.6767 26.2528 37.75 26.5 37.75C26.8315 37.75 27.1495 37.6183 27.3839 37.3839C27.6183 37.1495 27.75 36.8315 27.75 36.5ZM27.75 31.5C27.75 31.2528 27.6767 31.0111 27.5393 30.8055C27.402 30.6 27.2068 30.4398 26.9784 30.3451C26.7499 30.2505 26.4986 30.2258 26.2561 30.274C26.0137 30.3223 25.7909 30.4413 25.6161 30.6161C25.4413 30.7909 25.3222 31.0137 25.274 31.2561C25.2258 31.4986 25.2505 31.7499 25.3451 31.9784C25.4398 32.2068 25.6 32.402 25.8055 32.5393C26.0111 32.6767 26.2528 32.75 26.5 32.75C26.8315 32.75 27.1495 32.6183 27.3839 32.3839C27.6183 32.1495 27.75 31.8315 27.75 31.5ZM37.75 36.5C37.75 36.1685 37.6183 35.8505 37.3839 35.6161C37.1495 35.3817 36.8315 35.25 36.5 35.25H31.5C31.1685 35.25 30.8505 35.3817 30.6161 35.6161C30.3817 35.8505 30.25 36.1685 30.25 36.5C30.25 36.8315 30.3817 37.1495 30.6161 37.3839C30.8505 37.6183 31.1685 37.75 31.5 37.75H36.5C36.8315 37.75 37.1495 37.6183 37.3839 37.3839C37.6183 37.1495 37.75 36.8315 37.75 36.5ZM31.5 32.75C31.7472 32.75 31.9889 32.6767 32.1945 32.5393C32.4 32.402 32.5602 32.2068 32.6549 31.9784C32.7495 31.7499 32.7742 31.4986 32.726 31.2561C32.6777 31.0137 32.5587 30.7909 32.3839 30.6161C32.2091 30.4413 31.9863 30.3223 31.7439 30.274C31.5014 30.2258 31.2501 30.2505 31.0216 30.3451C30.7932 30.4398 30.598 30.6 30.4607 30.8055C30.3233 31.0111 30.25 31.2528 30.25 31.5C30.25 31.8315 30.3817 32.1495 30.6161 32.3839C30.8505 32.6183 31.1685 32.75 31.5 32.75ZM37.75 31.5C37.75 31.2528 37.6767 31.0111 37.5393 30.8055C37.402 30.6 37.2068 30.4398 36.9784 30.3451C36.7499 30.2505 36.4986 30.2258 36.2561 30.274C36.0137 30.3223 35.7909 30.4413 35.6161 30.6161C35.4413 30.7909 35.3223 31.0137 35.274 31.2561C35.2258 31.4986 35.2505 31.7499 35.3451 31.9784C35.4398 32.2068 35.6 32.402 35.8055 32.5393C36.0111 32.6767 36.2528 32.75 36.5 32.75C36.8315 32.75 37.1495 32.6183 37.3839 32.3839C37.6183 32.1495 37.75 31.8315 37.75 31.5ZM37.75 22.75C37.75 21.7554 37.3549 20.8016 36.6517 20.0983C35.9484 19.3951 34.9946 19 34 19H24C23.0054 19 22.0516 19.3951 21.3483 20.0983C20.6451 20.8016 20.25 21.7554 20.25 22.75C20.25 23.7446 20.6451 24.6984 21.3483 25.4017C22.0516 26.1049 23.0054 26.5 24 26.5H34C34.9946 26.5 35.9484 26.1049 36.6517 25.4017C37.3549 24.6984 37.75 23.7446 37.75 22.75Z" fill="#0D6EFD"/>
</svg>
