<svg width="58" height="58" viewBox="0 0 58 58" fill="none" xmlns="http://www.w3.org/2000/svg">
<path opacity="0.5" d="M19.608 50.4999C19.1476 50.2755 19.0128 49.9052 19.0241 49.4115C19.0465 48.1998 19.0353 46.9881 19.0353 45.709C19.1813 45.7987 19.2936 45.8548 19.3947 45.9222C20.6412 46.7749 21.9776 47.4256 23.4038 47.8969C24.6616 48.312 25.9082 48.2783 27.1547 47.8408C28.6146 47.3359 29.9847 46.6402 31.3099 45.709C31.3211 45.8997 31.3436 46.0231 31.3436 46.1466C31.3436 47.2237 31.3323 48.3008 31.3548 49.3779C31.366 49.8603 31.2537 50.253 30.8158 50.4999C27.0649 50.4999 23.3365 50.4999 19.608 50.4999Z" fill="#0D6EFD"/>
<path opacity="0.5" d="M7.5 25.3905C7.57861 25.1212 7.63476 24.8519 7.7246 24.5939C8.12889 23.4494 9.42036 23.2138 10.2177 24.1563C10.4872 24.4704 10.5883 24.8407 10.6444 25.2671C10.8466 26.8491 11.1049 28.4198 11.3183 29.9906C11.3969 30.5404 11.3856 31.1014 11.4306 31.7521C11.2172 31.6512 11.0824 31.5951 10.9589 31.5277C9.1733 30.5741 7.8706 29.2389 7.55615 27.1408C7.55615 27.1183 7.52246 27.0959 7.51123 27.0735C7.5 26.5012 7.5 25.9402 7.5 25.3905Z" fill="#0D6EFD"/>
<path d="M44.3237 50.4999C44.0205 50.096 43.7285 49.6921 43.4141 49.2657C45.4804 47.7398 47.5243 46.2363 49.5907 44.6992C49.8939 45.1031 50.1746 45.4958 50.5003 45.9222C50.3543 46.0344 50.2083 46.1466 50.0736 46.2588C48.2992 47.5715 46.5136 48.8842 44.7392 50.197C44.6157 50.2867 44.5259 50.3989 44.4136 50.4999C44.3799 50.4999 44.3574 50.4999 44.3237 50.4999Z" fill="#D13731" fill-opacity="0.8"/>
<path opacity="0.5" d="M29.6315 27.8926C28.7893 28.7116 28.7331 29.4073 29.3957 30.3049C31.4059 33.0313 33.4161 35.7577 35.4375 38.4729C35.6397 38.7422 35.6509 38.9217 35.46 39.2022C33.2814 42.5906 30.3278 45.0029 26.5433 46.4054C25.6898 46.7196 24.8026 46.7757 23.9491 46.4615C19.1538 44.6776 15.6275 41.5472 13.6959 36.7675C13.0446 35.1519 12.8986 33.4577 12.8874 31.7074C12.8874 30.0917 12.5954 28.4872 12.3932 26.8716C12.3371 26.4677 12.3483 26.1199 12.528 25.7496C14.1002 22.3387 16.3463 19.5113 19.6592 17.6152C21.0742 16.8073 22.579 16.2463 24.1849 16.022C24.7464 15.9434 25.3529 16.1117 25.9144 16.2576C31.0802 17.5591 35.1006 20.4538 37.9756 24.9305C38.1328 25.1774 38.1889 25.413 38.1328 25.7159C37.9756 26.5799 37.852 27.455 37.7173 28.3302C37.706 28.3863 37.6836 28.4311 37.6611 28.5433C37.5488 28.4087 37.4702 28.319 37.3916 28.2068C36.7627 27.354 36.1338 26.4901 35.4937 25.6486C34.9547 24.9193 34.2359 24.7398 33.4273 25.1662C33.1578 25.3008 33.068 25.1437 32.9445 25.0203C31.9899 24.0217 31.0241 23.0232 30.0808 22.0022C29.6877 21.587 29.261 21.3065 28.6545 21.3177C28.5422 21.3177 28.385 21.1943 28.3064 21.0821C27.7336 20.3192 27.1721 19.5562 26.5994 18.7933C26.2625 18.3332 25.8357 18.2323 25.4539 18.5128C25.0721 18.7933 25.0384 19.2533 25.3753 19.6909C25.9368 20.4538 26.5096 21.2168 27.0711 21.9909C27.1497 22.1031 27.2171 22.3051 27.1834 22.4285C27.0261 22.9558 27.116 23.4159 27.3855 23.8759C28.0481 25.0315 28.6882 26.1872 29.3396 27.3428C29.4294 27.5111 29.5305 27.7019 29.6315 27.8926ZM25.1619 43.5892C26.2063 43.5668 27.2283 43.4658 28.1941 43.017C29.4182 42.456 30.2043 41.536 30.4963 40.212C30.6535 39.5164 30.5187 39.2583 29.8898 38.9217C29.3396 38.6188 28.8005 38.3047 28.2727 37.9681C27.3743 37.3958 26.4422 37.3061 25.4876 37.7773C25.2406 37.9007 25.0833 37.8895 24.8363 37.7661C23.848 37.2836 22.8934 37.3958 21.9838 38.0242C21.456 38.3832 20.8945 38.6973 20.333 39.0003C19.9062 39.2247 19.7378 39.494 19.8164 39.9764C20.0185 41.2667 20.7036 42.2204 21.8378 42.8487C22.871 43.4321 24.0052 43.5556 25.1619 43.5892ZM25.2855 32.0776C24.4544 32.0776 23.9715 32.2347 23.4213 32.7284C23.0394 33.0762 22.6801 33.4464 22.3319 33.8279C22.0175 34.1757 22.04 34.6245 22.3432 34.9162C22.6464 35.208 23.0844 35.208 23.4325 34.8826C23.7245 34.6021 23.994 34.2991 24.286 34.0074C24.8138 33.4801 25.5438 33.4689 26.0716 33.9962C26.3636 34.2767 26.6219 34.5909 26.9138 34.8714C27.2508 35.1967 27.7 35.208 28.0032 34.9162C28.3176 34.6133 28.3401 34.1869 28.0256 33.8279C27.6663 33.4352 27.2957 33.0537 26.9138 32.6947C26.4309 32.2571 25.847 32.0664 25.2855 32.0776ZM18.727 29.0034C19.7265 29.0034 20.6586 28.7677 21.5458 28.3077C22.04 28.0497 22.2196 27.6233 22.0175 27.2082C21.8153 26.793 21.3774 26.6808 20.8608 26.9165C19.3784 27.6233 17.896 27.6233 16.4136 26.9165C15.897 26.6696 15.4591 26.7818 15.2569 27.2082C15.0436 27.6345 15.2345 28.0609 15.7735 28.319C16.7056 28.7565 17.6939 28.9809 18.727 29.0034Z" fill="#0D6EFD"/>
<path d="M11.9688 23.1912C11.9688 21.9682 11.9687 20.734 11.98 19.511C11.98 19.3876 12.0698 19.253 12.1484 19.1296C14.6415 15.0455 18.2576 12.5996 22.9631 11.7693C24.8835 11.4327 26.7926 11.0176 28.5108 10.0751C29.3418 9.62631 30.083 9.00921 30.8354 8.44822C31.0151 8.31358 31.1499 8.2687 31.352 8.34724C31.7339 8.50432 32.1269 8.67262 32.52 8.81847C32.7895 8.90823 32.8456 9.04287 32.767 9.32337C32.4301 10.4902 31.7788 11.4103 30.7905 12.0947C29.1622 13.2391 27.3204 13.8225 25.4 14.204C23.7829 14.5294 22.1545 14.7875 20.616 15.4382C17.2357 16.8631 14.6752 19.2305 12.6987 22.2711C12.4966 22.5741 12.3169 22.8882 12.126 23.1912C12.0698 23.2024 12.0137 23.1912 11.9688 23.1912Z" fill="#0D6EFD"/>
<path d="M42.901 38.2247C41.632 39.1448 40.4192 40.0311 39.1726 40.94C38.8694 40.536 38.5774 40.1433 38.263 39.717C38.6448 39.4365 39.0042 39.1672 39.3748 38.8867C39.824 38.5501 39.925 38.1013 39.6555 37.7311C39.3748 37.3496 38.9368 37.3159 38.4764 37.6413C38.117 37.8994 37.7576 38.1686 37.3421 38.4716C37.0389 38.0677 36.7581 37.675 36.4325 37.2374C36.8031 36.9569 37.1849 36.6988 37.533 36.4183C37.6902 36.2949 37.8587 36.1266 37.9261 35.9471C38.0384 35.6442 37.971 35.33 37.6902 35.1168C37.4095 34.8924 37.0838 34.8812 36.7918 35.072C36.3763 35.3524 35.972 35.6666 35.5228 35.992C35.2196 35.5881 34.9276 35.1954 34.6132 34.769C35.0399 34.4436 35.4442 34.1519 35.8373 33.849C36.0956 33.647 36.264 33.3441 36.0956 33.0412C35.972 32.8168 35.725 32.5924 35.4779 32.5026C35.2982 32.4465 35.0175 32.5811 34.8265 32.6933C34.4335 32.9402 34.0741 33.2319 33.6811 33.5236C33.3779 33.1197 33.0859 32.727 32.7714 32.2894C33.1533 32.0089 33.5238 31.7396 33.8832 31.4591C34.3436 31.1113 34.4447 30.685 34.164 30.3035C33.8832 29.9108 33.434 29.8884 32.9511 30.2362C32.6142 30.483 32.2773 30.7299 31.9292 30.9767C31.9179 30.9879 31.9067 30.9879 31.8281 31.0104C31.4013 30.4269 30.9521 29.821 30.4805 29.1927C31.727 28.2727 32.9511 27.3751 34.1864 26.4551C37.1063 30.382 39.9812 34.2753 42.901 38.2247Z" fill="#D13731" fill-opacity="0.8"/>
<path d="M29.21 7.88721C28.6822 8.20137 28.1544 8.54919 27.6041 8.82968C25.942 9.67117 24.1227 10.019 22.3034 10.3444C18.2943 11.0512 15.0151 12.9923 12.4321 16.1338C12.3535 16.2236 12.2749 16.3133 12.1289 16.4929C12.2637 15.1914 12.5893 14.0581 13.1621 13.0147C14.4311 10.6922 16.4525 9.30092 18.8782 8.42577C20.5852 7.80867 22.3484 7.44964 24.1789 7.50574C25.65 7.55061 27.11 7.60672 28.5811 7.66281C28.772 7.67403 28.9629 7.73013 29.1539 7.76379C29.1651 7.80867 29.1875 7.85355 29.21 7.88721Z" fill="#0D6EFD"/>
<path d="M28.0273 15.2366C29.0044 14.7654 29.9926 14.2829 30.9809 13.8117C31.082 13.7668 31.2504 13.7668 31.3627 13.8229C34.0804 15.102 36.3714 16.9196 38.2356 19.2758C38.303 19.3543 38.3703 19.4665 38.3703 19.5675C38.3816 20.5773 38.3816 21.5983 38.3366 22.6305C35.6189 19.1075 32.1825 16.6279 28.0273 15.2366Z" fill="#0D6EFD"/>
<path opacity="0.5" d="M39.7864 31.3243C39.034 30.7521 38.9666 30.0341 39.1239 29.2038C39.3822 27.7901 39.5618 26.3539 39.7752 24.929C39.8763 24.2221 40.4827 23.6612 41.2351 23.5826C41.9202 23.5153 42.4368 23.8519 42.6501 24.6261C43.1892 26.6456 42.8523 28.9906 40.8196 30.595C40.4715 30.8643 40.1121 31.0999 39.7864 31.3243Z" fill="#0D6EFD"/>
<path d="M32.5117 12.6443C33.3315 11.8253 33.9267 10.9052 34.2412 9.82812C36.431 11.0174 38.2728 14.0356 38.2728 16.9191C36.5658 15.1576 34.6791 13.7439 32.5117 12.6443Z" fill="#0D6EFD"/>
<path d="M38.2305 43.5437C40.7123 41.7148 43.1605 39.8972 45.6536 38.0684C45.9456 38.4723 46.2376 38.8538 46.5633 39.2913C44.0926 41.1202 41.6444 42.9378 39.1513 44.7779C38.8481 44.3739 38.5561 43.9812 38.2305 43.5437Z" fill="#D13731" fill-opacity="0.8"/>
<path d="M46.1913 45.2828C45.7646 45.597 45.3715 45.8887 44.956 46.1916C44.3383 45.3614 43.7431 44.5535 43.1367 43.7233C43.5522 43.4203 43.9453 43.1286 44.372 42.8145C44.9785 43.6335 45.5737 44.4413 46.1913 45.2828Z" fill="#D13731" fill-opacity="0.8"/>
<path d="M28.771 22.8438C29.8266 23.9545 30.8823 25.0653 31.9716 26.1985C31.6122 26.4678 31.2753 26.7146 30.8935 26.9951C30.1298 25.6375 29.3774 24.3023 28.625 22.9559C28.6699 22.9223 28.7261 22.8774 28.771 22.8438Z" fill="#D13731" fill-opacity="0.8"/>
<path d="M28.9178 40.2569C28.6033 41.1432 27.8846 41.592 27.0086 41.8164C25.7284 42.1418 24.4369 42.1418 23.1567 41.7491C22.2695 41.4799 21.6968 40.9413 21.4609 40.2344C22.0112 39.8642 22.539 39.4939 23.0893 39.1461C23.5273 38.8656 24.0214 38.9442 24.4369 39.3144C25.0658 39.8754 25.3129 39.8754 25.9305 39.3032C26.3573 38.9105 26.8851 38.8656 27.3568 39.1798C27.8621 39.5388 28.3675 39.8866 28.9178 40.2569Z" fill="#D13731" fill-opacity="0.8"/>
</svg>
