<svg width="58" height="58" viewBox="0 0 58 58" fill="none" xmlns="http://www.w3.org/2000/svg">
<path d="M16.8694 33.399V26.727H14.2934L14.2614 27.527C14.2401 28.1136 14.2028 28.663 14.1494 29.175C14.0961 29.687 14.0214 30.1563 13.9254 30.583C13.8401 31.0096 13.7281 31.3883 13.5894 31.719C13.4508 32.039 13.2801 32.3056 13.0774 32.519L9.09344 32.071C9.44544 32.071 9.73344 31.9536 9.95744 31.719C10.1921 31.4736 10.3788 31.1376 10.5174 30.711C10.6561 30.2736 10.7574 29.7616 10.8214 29.175C10.8961 28.5776 10.9494 27.9216 10.9814 27.207L11.1094 23.799H20.5814V33.399H16.8694ZM8.77344 37.191V32.071H22.0534V37.191H18.5974V34.999H12.2294V37.191H8.77344Z" fill="#0D6EFD"/>
<path d="M23.3216 34.999V23.799H26.4256L30.9056 31.111H29.2736L33.6256 23.799H36.7296L36.7616 34.999H33.3216L33.2896 28.983H33.8336L30.8576 33.991H29.1936L26.0896 28.983H26.7616V34.999H23.3216Z" fill="#0D6EFD"/>
<path d="M44.3598 35.255C43.4638 35.255 42.6318 35.1163 41.8638 34.839C41.1065 34.551 40.4451 34.1456 39.8798 33.623C39.3251 33.1003 38.8931 32.4816 38.5838 31.767C38.2745 31.0523 38.1198 30.263 38.1198 29.399C38.1198 28.535 38.2745 27.7456 38.5838 27.031C38.8931 26.3163 39.3251 25.6976 39.8798 25.175C40.4451 24.6523 41.1065 24.2523 41.8638 23.975C42.6318 23.687 43.4638 23.543 44.3598 23.543C45.4585 23.543 46.4291 23.735 47.2718 24.119C48.1251 24.503 48.8291 25.0576 49.3838 25.783L46.9998 27.911C46.6691 27.495 46.3011 27.175 45.8958 26.951C45.5011 26.7163 45.0531 26.599 44.5518 26.599C44.1571 26.599 43.7998 26.663 43.4798 26.791C43.1598 26.919 42.8825 27.1056 42.6478 27.351C42.4238 27.5963 42.2478 27.895 42.1198 28.247C41.9918 28.5883 41.9278 28.9723 41.9278 29.399C41.9278 29.8256 41.9918 30.215 42.1198 30.567C42.2478 30.9083 42.4238 31.2016 42.6478 31.447C42.8825 31.6923 43.1598 31.879 43.4798 32.007C43.7998 32.135 44.1571 32.199 44.5518 32.199C45.0531 32.199 45.5011 32.087 45.8958 31.863C46.3011 31.6283 46.6691 31.303 46.9998 30.887L49.3838 33.015C48.8291 33.7296 48.1251 34.2843 47.2718 34.679C46.4291 35.063 45.4585 35.255 44.3598 35.255Z" fill="#0D6EFD"/>
</svg>
