<svg width="59" height="58" viewBox="0 0 59 58" fill="none" xmlns="http://www.w3.org/2000/svg">
<path d="M12.7399 50.7461C10.9056 50.7461 9.11053 50.7461 7.27621 50.7461C7.2631 50.6039 7.25 50.4616 7.25 50.3194C7.25 47.8303 7.25 45.3531 7.25 42.8641C7.2631 40.0194 9.51671 37.9926 12.6744 37.9808C16.5527 37.9808 20.4178 37.9926 24.2961 37.9689C27.8731 37.9452 30.8997 35.7525 31.7121 32.6115C32.0789 31.1892 31.9217 29.7906 31.319 28.4394C30.7163 27.1001 30.0481 25.7844 29.524 24.4214C28.5806 21.956 28.764 19.5025 29.9694 17.132C30.1791 16.7171 30.1922 16.3734 29.9694 15.9586C28.5675 13.3273 27.1787 10.6841 25.8029 8.04099C25.6064 7.66171 25.4884 7.24687 25.3181 6.78461C26.4056 6.78461 27.4145 6.78461 28.4365 6.78461C28.7771 8.55066 29.3274 10.2574 30.1267 11.905C31.8169 15.3778 34.4111 18.1987 37.7391 20.4981C38.5777 21.0789 39.4162 21.6834 40.2286 22.2997C42.718 24.1962 43.4387 27.4556 41.945 30.0751C41.8664 30.2173 41.7747 30.3477 41.6698 30.5018C40.6872 30.158 39.7307 30.1343 38.8135 30.6084C38.4729 30.7862 38.1322 31.0351 37.8833 31.3077C36.2193 33.1568 34.5684 35.0058 32.9568 36.8785C31.5155 38.5497 32.4851 40.9558 34.778 41.3943C35.9572 41.6195 37.0054 41.3232 37.7784 40.4698C39.4948 38.5853 41.185 36.6888 42.8359 34.7569C43.6352 33.8205 43.6745 32.7656 43.0587 31.7107C42.9408 31.4974 42.9277 31.367 43.0587 31.1537C45.2861 27.6334 44.4082 23.5206 40.923 20.9604C39.2197 19.7159 37.4902 18.495 35.9179 17.1201C32.852 14.4296 30.6508 10.4234 30.0481 6.74906C30.7687 6.74906 31.4762 6.7372 32.1837 6.76091C32.2755 6.76091 32.4196 6.90314 32.4458 6.99796C32.6554 7.80394 33.1533 8.44399 33.8477 8.97736C34.5029 9.48702 35.158 10.0085 35.7869 10.5419C37.0316 11.5968 38.486 11.9761 40.1631 11.7746C42.2725 11.5138 44.1069 12.0946 45.6398 13.3984C46.1901 13.8725 46.7142 14.4059 47.1335 14.9748C48.483 16.8712 49.623 18.8625 50.4091 21.0078C51.3394 23.5206 51.4442 26.1281 50.9856 28.7239C50.3567 32.3152 49.3609 35.8592 47.7493 39.1898C45.1813 44.5353 40.7527 48.0792 34.4636 49.5253C29.4716 50.675 24.7023 49.952 20.2606 47.6051C19.6841 47.297 19.1731 46.8584 18.6883 46.4199C17.7712 45.602 16.8933 44.7368 16.0024 43.8953C15.4128 43.3382 14.7314 43.1367 13.9191 43.3974C13.1723 43.6464 12.7661 44.2508 12.7661 45.0805C12.7661 46.7992 12.7661 48.5059 12.7661 50.2246C12.7399 50.4142 12.7399 50.5683 12.7399 50.7461ZM30.2839 44.4049C30.7294 44.7131 31.1094 44.9976 31.5155 45.282C32.2755 44.3931 33.0092 43.5515 33.756 42.6981C33.3236 42.39 32.9306 42.1174 32.5244 41.821C31.7645 42.6981 31.0438 43.5278 30.2839 44.4049ZM38.617 45.6257C38.3418 44.642 38.0929 43.7293 37.8308 42.793C37.3068 42.9115 36.8351 43.03 36.3241 43.1485C36.5861 44.1086 36.8482 45.0331 37.1102 45.9813C37.6081 45.8509 38.0798 45.7443 38.617 45.6257ZM30.7687 38.7394C29.7074 38.7394 28.6854 38.7394 27.6765 38.7394C27.6765 39.2135 27.6765 39.652 27.6765 40.1024C28.7247 40.1024 29.7336 40.1024 30.7687 40.1024C30.7687 39.6402 30.7687 39.2016 30.7687 38.7394Z" fill="#0D6EFD"/>
<path d="M38.5908 37.3053C37.7784 36.7126 36.9792 36.1437 36.1406 35.5274C37.1757 34.3658 38.1846 33.1924 39.2328 32.0782C39.7569 31.533 40.7133 31.5449 41.316 32.0071C41.9581 32.5049 42.076 33.3228 41.5388 33.951C40.7264 34.911 39.8748 35.8474 39.0362 36.7837C38.8921 36.9615 38.748 37.1156 38.5908 37.3053Z" fill="#D13731" fill-opacity="0.8"/>
<path d="M35.1643 36.6414C35.9898 37.234 36.7759 37.8148 37.6145 38.4193C37.2214 38.846 36.8807 39.2845 36.4746 39.6519C35.9243 40.1616 35.0333 40.1734 34.4306 39.7349C33.8017 39.2726 33.6445 38.4785 34.0899 37.874C34.4175 37.4473 34.7975 37.0681 35.1643 36.6414Z" fill="#D13731" fill-opacity="0.8"/>
</svg>
