<svg width="58" height="58" viewBox="0 0 58 58" fill="none" xmlns="http://www.w3.org/2000/svg">
<path d="M21.5 14H36.5C37.4946 14 38.4484 14.3951 39.1516 15.0983C39.8549 15.8016 40.25 16.7554 40.25 17.75V33.2994L35.1313 28.1806C34.9386 27.9885 34.7064 27.8405 34.4508 27.7471C34.1952 27.6537 33.9223 27.6171 33.6511 27.6398C33.3799 27.6624 33.1169 27.7438 32.8804 27.8784C32.6438 28.0129 32.4394 28.1973 32.2812 28.4187L28.7394 33.3762L25.4225 31.385C25.0639 31.1696 24.6436 31.0803 24.2285 31.1312C23.8133 31.1822 23.4271 31.3705 23.1312 31.6663L17.75 37.0475V17.75C17.75 16.7554 18.1451 15.8016 18.8483 15.0983C19.5516 14.3951 20.5054 14 21.5 14ZM29.0037 24.3125C29.0037 23.9432 28.931 23.5774 28.7897 23.2362C28.6483 22.895 28.4412 22.5849 28.18 22.3238C27.9188 22.0626 27.6088 21.8554 27.2675 21.7141C26.9263 21.5727 26.5606 21.5 26.1912 21.5C25.8219 21.5 25.4562 21.5727 25.115 21.7141C24.7737 21.8554 24.4637 22.0626 24.2025 22.3238C23.9413 22.5849 23.7342 22.895 23.5928 23.2362C23.4515 23.5774 23.3787 23.9432 23.3787 24.3125C23.3787 25.0584 23.6751 25.7738 24.2025 26.3012C24.73 26.8287 25.4453 27.125 26.1912 27.125C26.9372 27.125 27.6525 26.8287 28.18 26.3012C28.7074 25.7738 29.0037 25.0584 29.0037 24.3125Z" fill="#0D6EFD"/>
<path d="M33.8075 29.5063L40.25 35.9525V40.25C40.25 41.2446 39.8549 42.1984 39.1516 42.9016C38.4484 43.6049 37.4946 44 36.5 44H21.5C20.5054 44 19.5516 43.6049 18.8483 42.9016C18.1451 42.1984 17.75 41.2446 17.75 40.25V39.7006L24.4588 32.9937L29.2587 35.8738L33.8075 29.5063Z" fill="#0D6EFD"/>
</svg>
