<svg width="58" height="58" viewBox="0 0 58 58" fill="none" xmlns="http://www.w3.org/2000/svg">
<path opacity="0.5" d="M17.1188 10.4851C17.3168 9.39604 17.8119 9 18.901 9C20.4851 9 21.9703 9 23.5545 9C24.6436 9 25.1386 9.39604 25.3366 10.4851C25.5346 10.4851 25.7327 10.4851 25.8317 10.4851C32.2673 10.4851 38.604 10.4851 45.0396 10.4851C46.6238 10.4851 47.5149 11.3762 47.5149 12.9604C47.5149 16.9208 47.5149 20.7822 47.5149 24.7426C47.5149 24.9406 47.5149 25.0396 47.5149 25.1386C47.9109 25.4356 48.4059 25.6337 48.703 25.9307C48.901 26.3267 49 26.8218 49 27.3168C49 28.802 49 30.2871 49 31.6732C49 32.7624 48.604 33.2574 47.5149 33.4554C47.5149 33.6534 47.5149 33.8515 47.5149 33.9505C47.5149 37.9109 47.5149 41.7723 47.5149 45.7327C47.5149 47.3168 46.6238 48.2079 45.0396 48.2079C38.604 48.2079 32.0693 48.2079 25.6337 48.2079C25.3366 48.2079 25.1386 48.3069 24.9406 48.5049C24.6436 48.7029 24.2475 48.901 23.8515 49C22.1683 49 20.3862 49 18.703 49C18.3069 49 17.9109 48.8019 17.6139 48.5049C17.4158 48.3069 17.2178 48.2079 16.9208 48.2079C15.3366 48.2079 13.7525 48.2079 12.1683 48.2079C10.6832 48.2079 9.7921 47.3168 9.7921 45.8316C9.7921 41.7722 9.7921 37.7128 9.7921 33.6534C9.7921 33.3564 9.69307 33.1584 9.49505 32.9604C9.29703 32.6633 9.09901 32.2673 9 31.8713C9 30.1881 9 28.4059 9 26.7228C9 26.3267 9.29703 25.9307 9.49505 25.6336C9.59406 25.4356 9.7921 25.2376 9.7921 25.0396C9.7921 20.9802 9.7921 17.0198 9.7921 12.9604C9.7921 11.3762 10.6832 10.4851 12.2673 10.4851C13.8515 10.4851 15.5347 10.4851 17.1188 10.4851ZM31.4752 26.8218C31.1782 27.6138 30.6832 28.1089 29.9901 28.5049C28.604 29.396 27.2178 30.2871 25.7327 31.1782C25.3366 31.3762 25.2376 31.5742 25.3366 31.9703C32.7624 31.9703 40.0891 31.9703 47.5149 31.9703C47.5149 30.2871 47.5149 28.5049 47.5149 26.8218C42.1683 26.8218 36.8218 26.8218 31.4752 26.8218ZM23.8515 32.5643C23.6535 32.7624 23.5545 32.9604 23.5545 33.0594C22.4654 34.8416 21.3762 36.6238 20.1881 38.3069C19.8911 38.802 19.495 39.099 19 39.396C18.802 39.594 18.703 39.693 18.703 39.9901C18.703 42.3663 18.703 44.7426 18.703 47.1188C18.703 47.2178 18.703 47.4158 18.703 47.5148C20.4852 47.5148 22.1683 47.5148 23.8515 47.5148C23.8515 42.5643 23.8515 37.6138 23.8515 32.5643ZM18.703 24.3465C18.802 24.1485 18.901 24.0495 19 23.8515C19.7921 22.5643 20.5842 21.3762 21.2772 20.0891C21.8713 19.099 22.5644 18.3069 23.7525 18.3069C23.7525 15.6337 23.7525 13.0594 23.7525 10.4851C22.0693 10.4851 20.2871 10.4851 18.604 10.4851C18.703 15.1386 18.703 19.6931 18.703 24.3465ZM23.5545 25.5346C23.9505 25.1386 24.3465 24.6435 24.7426 24.2475C25.1386 23.8515 25.6337 23.8515 25.9307 24.1485C26.2277 24.4455 26.2277 24.9406 25.8317 25.3366C25.4356 25.7327 25.0396 26.1287 24.5446 26.5247C25.2376 27.4158 25.3366 28.5049 25.3366 29.6931C25.5346 29.594 25.6337 29.495 25.7327 29.396C26.9208 28.604 28.2079 27.9109 29.396 27.1188C30.2871 26.5247 30.3861 25.9307 29.5941 25.2376C27.9109 23.5544 26.3267 21.9703 24.6436 20.2871C23.9505 19.594 23.3565 19.6931 22.7624 20.4851C21.9703 21.7723 21.1782 22.9604 20.3861 24.2475C20.2871 24.3465 20.2871 24.4455 20.1881 24.6435C21.4753 24.6435 22.4654 24.7425 23.5545 25.5346ZM16.5248 28.4059C14.9406 29.396 13.5545 30.2871 12.1683 31.1782C11.6733 31.4752 11.6733 32.2673 12.0693 32.7624C12.3663 33.0594 12.6634 33.3564 12.9604 33.6534C14.3465 35.0396 15.8317 36.4257 17.2178 37.9109C17.9109 38.5049 18.604 38.4059 19.099 37.7129C19.8911 36.5247 20.6832 35.2376 21.3762 34.0495C21.4752 33.9505 21.4753 33.8515 21.5743 33.6534C20.3861 33.6534 19.396 33.4554 18.4059 32.7624C18.0099 33.1584 17.6139 33.5544 17.2178 33.9505C16.8218 34.3465 16.4257 34.4455 16.0297 34.1485C15.6337 33.8515 15.7327 33.3564 16.1287 32.9604C16.5248 32.5643 16.9208 32.1683 17.4158 31.7723C16.6238 30.5841 16.4257 29.5941 16.5248 28.4059ZM18.0099 29C18.0099 30.7821 19.198 31.9703 20.8812 32.0693C22.4653 32.0693 23.8515 30.7822 23.8515 29.198C23.8515 27.6138 22.4653 26.2277 20.8812 26.2277C19.495 26.1287 17.9109 27.1188 18.0099 29ZM43.0594 35.7327C39.5941 35.7327 36.1287 35.7327 32.7624 35.7327C32.7624 36.2277 32.7624 36.7227 32.7624 37.1188C36.2277 37.1188 39.6931 37.1188 43.0594 37.1188C43.0594 36.7227 43.0594 36.2277 43.0594 35.7327ZM32.7624 40.8812C36.2277 40.8812 39.6931 40.8812 43.0594 40.8812C43.0594 40.3861 43.0594 39.8911 43.0594 39.495C39.5941 39.495 36.1287 39.495 32.7624 39.495C32.7624 39.8911 32.7624 40.3861 32.7624 40.8812ZM32.7624 44.5445C36.2277 44.5445 39.6931 44.5445 43.0594 44.5445C43.0594 44.0495 43.0594 43.5544 43.0594 43.1584C39.5941 43.1584 36.1287 43.1584 32.7624 43.1584C32.7624 43.6534 32.7624 44.0495 32.7624 44.5445ZM16.1287 26.8218C14.2475 26.8218 12.3663 26.8218 10.5842 26.8218C10.5842 28.1089 10.5842 29.297 10.5842 30.4851C12.2673 29.099 14.2475 28.1089 16.1287 26.8218Z" fill="#0D6EFD"/>
<path d="M31.4712 26.8218C36.8177 26.8218 42.1643 26.8218 47.5108 26.8218C47.5108 28.5049 47.5108 30.2871 47.5108 31.9703C40.0851 31.9703 32.7583 31.9703 25.3326 31.9703C25.2336 31.5742 25.3326 31.3762 25.7286 31.1782C27.1148 30.2871 28.5009 29.396 29.9861 28.5049C30.6791 28.1089 31.2732 27.6139 31.4712 26.8218Z" fill="#0D6EFD"/>
<path d="M23.8516 32.5652C23.8516 37.6147 23.8516 42.5652 23.8516 47.5157C22.1685 47.5157 20.3863 47.5157 18.7031 47.5157C18.7031 47.4167 18.7031 47.2187 18.7031 47.1196C18.7031 44.7434 18.7031 42.3672 18.7031 39.9909C18.7031 39.6939 18.8021 39.5949 19.0001 39.3969C19.3962 39.0998 19.8912 38.7038 20.1883 38.3078C21.3764 36.5256 22.4655 34.7434 23.5546 33.0602C23.5546 32.9612 23.6536 32.7632 23.8516 32.5652Z" fill="#0D6EFD"/>
<path d="M18.6328 24.2807C18.6328 19.6272 18.6328 15.0728 18.6328 10.5183C20.316 10.5183 21.9991 10.5183 23.7813 10.5183C23.7813 13.0926 23.7813 15.6668 23.7813 18.3401C22.4942 18.3401 21.9001 19.1321 21.3061 20.1222C20.514 21.4094 19.7219 22.5975 19.0288 23.8846C18.8308 23.8846 18.7318 23.9836 18.6328 24.2807Z" fill="#0D6EFD"/>
<path d="M23.5511 25.5354C22.561 24.8423 21.4719 24.6443 20.3828 24.6443C20.4818 24.4463 20.4818 24.3473 20.5808 24.2483C21.3729 22.9612 22.165 21.7731 22.9571 20.4859C23.4521 19.5948 24.1452 19.5948 24.8383 20.2879C26.5214 21.9711 28.1056 23.5552 29.7887 25.2384C30.4818 25.9315 30.3828 26.6245 29.5907 27.1196C28.4026 27.9116 27.1155 28.6047 25.9274 29.3968C25.8284 29.4958 25.7294 29.4958 25.5313 29.6938C25.5313 28.5057 25.4323 27.5156 24.7393 26.5255C25.2343 26.1295 25.6303 25.7334 26.0264 25.3374C26.4224 24.9414 26.4224 24.5453 26.1254 24.1493C25.8284 23.8522 25.3333 23.8523 24.9373 24.2483C24.3432 24.6443 23.9472 25.0404 23.5511 25.5354Z" fill="#D13731" fill-opacity="0.8"/>
<path d="M16.5253 28.4055C16.4263 29.5936 16.6244 30.6827 17.3174 31.6728C16.9214 32.0689 16.4263 32.4649 16.0303 32.861C15.6342 33.257 15.5352 33.752 15.9313 34.0491C16.2283 34.3461 16.7234 34.3461 17.1194 33.8511C17.5154 33.455 17.9115 33.059 18.3075 32.6629C19.2976 33.257 20.2877 33.554 21.4758 33.554C21.3768 33.752 21.3768 33.851 21.2778 33.95C20.4857 35.1382 19.6936 36.4253 19.0006 37.6134C18.5055 38.4055 17.8125 38.5045 17.1194 37.8115C15.7333 36.4253 14.2481 35.0392 12.862 33.554C12.5649 33.257 12.2679 32.96 11.9709 32.6629C11.5748 32.2669 11.6738 31.3758 12.0699 31.0788C13.555 30.1877 14.9412 29.2966 16.5253 28.4055Z" fill="#D13731" fill-opacity="0.8"/>
<path d="M18.0044 29.0009C17.9054 27.2187 19.4896 26.1296 20.8757 26.2286C22.4599 26.2286 23.846 27.6148 23.846 29.1989C23.846 30.7831 22.4599 32.0702 20.8757 32.0702C19.1925 31.9712 18.0044 30.6841 18.0044 29.0009Z" fill="#D13731" fill-opacity="0.8"/>
<path opacity="0.5" d="M43.0627 35.7327C43.0627 36.2277 43.0627 36.7228 43.0627 37.1188C39.5973 37.1188 36.132 37.1188 32.7656 37.1188C32.7656 36.6237 32.7656 36.2277 32.7656 35.7327C36.231 35.7327 39.5973 35.7327 43.0627 35.7327Z" fill="#0D6EFD"/>
<path opacity="0.5" d="M32.7656 40.882C32.7656 40.3869 32.7656 39.8919 32.7656 39.4958C36.231 39.4958 39.6963 39.4958 43.0627 39.4958C43.0627 39.9909 43.0627 40.3869 43.0627 40.882C39.6963 40.882 36.231 40.882 32.7656 40.882Z" fill="#0D6EFD"/>
<path opacity="0.5" d="M32.7656 44.5446C32.7656 44.0495 32.7656 43.5545 32.7656 43.1584C36.231 43.1584 39.6963 43.1584 43.0627 43.1584C43.0627 43.6535 43.0627 44.0495 43.0627 44.5446C39.6963 44.5446 36.231 44.5446 32.7656 44.5446Z" fill="#0D6EFD"/>
<path d="M16.1305 26.8218C14.2493 28.1089 12.2691 29.099 10.5859 30.4851C10.5859 29.297 10.5859 28.1089 10.5859 26.8218C12.3681 26.8218 14.2493 26.8218 16.1305 26.8218Z" fill="#0D6EFD"/>
</svg>
