<svg width="58" height="58" viewBox="0 0 58 58" fill="none" xmlns="http://www.w3.org/2000/svg">
<path d="M25.25 14C24.7527 14 24.2758 14.1975 23.9242 14.5492C23.5725 14.9008 23.375 15.3777 23.375 15.875V17.75C22.8777 17.75 22.4008 17.9475 22.0492 18.2992C21.6975 18.6508 21.5 19.1277 21.5 19.625V27.125H15.875C15.3777 27.125 14.9008 27.3225 14.5492 27.6742C14.1975 28.0258 14 28.5027 14 29V42.125C14 42.6223 14.1975 43.0992 14.5492 43.4508C14.9008 43.8025 15.3777 44 15.875 44H27.125V39.3125C27.125 39.0639 27.2238 38.8254 27.3996 38.6496C27.5754 38.4738 27.8139 38.375 28.0625 38.375H29.9375C30.1861 38.375 30.4246 38.4738 30.6004 38.6496C30.7762 38.8254 30.875 39.0639 30.875 39.3125V44H42.125C42.6223 44 43.0992 43.8025 43.4508 43.4508C43.8025 43.0992 44 42.6223 44 42.125V29C44 28.5027 43.8025 28.0258 43.4508 27.6742C43.0992 27.3225 42.6223 27.125 42.125 27.125H36.5V19.625C36.5 19.1277 36.3025 18.6508 35.9508 18.2992C35.5992 17.9475 35.1223 17.75 34.625 17.75V15.875C34.625 15.3777 34.4275 14.9008 34.0758 14.5492C33.7242 14.1975 33.2473 14 32.75 14H25.25ZM29.9375 23.4388V25.5012L31.7244 24.47L32.6619 26.0956L30.875 27.125L32.6619 28.1562L31.7244 29.78L29.9375 28.7488V30.8112H28.0625V28.7488L26.2756 29.78L25.3381 28.1562L27.125 27.125L25.3381 26.0938L26.2756 24.47L28.0625 25.5012V23.4388H29.9375ZM18.2188 30.875H19.1562C19.2806 30.875 19.3998 30.9244 19.4877 31.0123C19.5756 31.1002 19.625 31.2194 19.625 31.3438V32.2812C19.625 32.4056 19.5756 32.5248 19.4877 32.6127C19.3998 32.7006 19.2806 32.75 19.1562 32.75H18.2188C18.0944 32.75 17.9752 32.7006 17.8873 32.6127C17.7994 32.5248 17.75 32.4056 17.75 32.2812V31.3438C17.75 31.2194 17.7994 31.1002 17.8873 31.0123C17.9752 30.9244 18.0944 30.875 18.2188 30.875ZM18.2188 34.625H19.1562C19.2806 34.625 19.3998 34.6744 19.4877 34.7623C19.5756 34.8502 19.625 34.9694 19.625 35.0938V36.0312C19.625 36.1556 19.5756 36.2748 19.4877 36.3627C19.3998 36.4506 19.2806 36.5 19.1562 36.5H18.2188C18.0944 36.5 17.9752 36.4506 17.8873 36.3627C17.7994 36.2748 17.75 36.1556 17.75 36.0312V35.0938C17.75 34.9694 17.7994 34.8502 17.8873 34.7623C17.9752 34.6744 18.0944 34.625 18.2188 34.625ZM17.75 38.8438C17.75 38.7194 17.7994 38.6002 17.8873 38.5123C17.9752 38.4244 18.0944 38.375 18.2188 38.375H19.1562C19.2806 38.375 19.3998 38.4244 19.4877 38.5123C19.5756 38.6002 19.625 38.7194 19.625 38.8438V39.7812C19.625 39.9056 19.5756 40.0248 19.4877 40.1127C19.3998 40.2006 19.2806 40.25 19.1562 40.25H18.2188C18.0944 40.25 17.9752 40.2006 17.8873 40.1127C17.7994 40.0248 17.75 39.9056 17.75 39.7812V38.8438ZM38.8438 30.875H39.7812C39.9056 30.875 40.0248 30.9244 40.1127 31.0123C40.2006 31.1002 40.25 31.2194 40.25 31.3438V32.2812C40.25 32.4056 40.2006 32.5248 40.1127 32.6127C40.0248 32.7006 39.9056 32.75 39.7812 32.75H38.8438C38.7194 32.75 38.6002 32.7006 38.5123 32.6127C38.4244 32.5248 38.375 32.4056 38.375 32.2812V31.3438C38.375 31.2194 38.4244 31.1002 38.5123 31.0123C38.6002 30.9244 38.7194 30.875 38.8438 30.875ZM38.375 35.0938C38.375 34.9694 38.4244 34.8502 38.5123 34.7623C38.6002 34.6744 38.7194 34.625 38.8438 34.625H39.7812C39.9056 34.625 40.0248 34.6744 40.1127 34.7623C40.2006 34.8502 40.25 34.9694 40.25 35.0938V36.0312C40.25 36.1556 40.2006 36.2748 40.1127 36.3627C40.0248 36.4506 39.9056 36.5 39.7812 36.5H38.8438C38.7194 36.5 38.6002 36.4506 38.5123 36.3627C38.4244 36.2748 38.375 36.1556 38.375 36.0312V35.0938ZM38.8438 38.375H39.7812C39.9056 38.375 40.0248 38.4244 40.1127 38.5123C40.2006 38.6002 40.25 38.7194 40.25 38.8438V39.7812C40.25 39.9056 40.2006 40.0248 40.1127 40.1127C40.0248 40.2006 39.9056 40.25 39.7812 40.25H38.8438C38.7194 40.25 38.6002 40.2006 38.5123 40.1127C38.4244 40.0248 38.375 39.9056 38.375 39.7812V38.8438C38.375 38.7194 38.4244 38.6002 38.5123 38.5123C38.6002 38.4244 38.7194 38.375 38.8438 38.375Z" fill="#0D6EFD"/>
</svg>
