<svg width="58" height="58" viewBox="0 0 58 58" fill="none" xmlns="http://www.w3.org/2000/svg">
<path d="M24.6654 38.2358L25.6671 39.2375C26.0577 39.6281 26.6908 39.6281 27.0813 39.2375L37.4817 28.8372L28.9375 20.293L18.5371 30.6933C18.1466 31.0839 18.1466 31.717 18.5371 32.1075L19.5389 33.1093L24.6654 38.2358Z" fill="#D13731" fill-opacity="0.8"/>
<path fill-rule="evenodd" clip-rule="evenodd" d="M43.1125 10.1394C42.949 8.95444 44.3852 8.24063 45.231 9.08645L48.6897 12.5452C49.5356 13.3911 48.8216 14.8273 47.6367 14.6636C47.3331 14.6217 47.0516 14.4818 46.8349 14.2651L46.0274 13.4576L43.4642 16.0208L48.5907 21.1474C49.0626 21.6193 49.0626 22.3843 48.5907 22.8562C48.1188 23.3281 47.3538 23.3281 46.8819 22.8562L46.0275 22.0018L28.939 39.0902C27.823 40.2063 26.1602 40.4425 24.8128 39.7988L24.6669 39.9446C22.7794 41.8322 19.7191 41.8322 17.8316 39.9446C15.944 38.0571 15.944 34.9968 17.8316 33.1093L17.9774 32.9634C17.3337 31.616 17.5699 29.9532 18.686 28.8372L35.7744 11.7487L34.92 10.8943C34.4481 10.4224 34.4481 9.65737 34.92 9.18548C35.3919 8.7136 36.1569 8.7136 36.6288 9.18548L38.3375 10.8941L41.7553 14.312L44.3186 11.7488L43.5111 10.9412C43.2944 10.7245 43.1544 10.443 43.1125 10.1394ZM37.4832 13.4576L30.6479 20.293L37.4832 27.1283L44.3186 20.293L37.4832 13.4576ZM35.7744 28.8372L28.939 22.0018L20.3948 30.546C19.923 31.0179 19.923 31.783 20.3948 32.2548L25.5214 37.3814C25.9932 37.8532 26.7583 37.8532 27.2302 37.3814L35.7744 28.8372ZM19.5404 34.8181C18.5966 35.7619 18.5966 37.292 19.5404 38.2358C20.4842 39.1796 22.0143 39.1796 22.9581 38.2358L19.5404 34.8181Z" fill="#0D6EFD"/>
<path fill-rule="evenodd" clip-rule="evenodd" d="M19.5419 38.2333C20.0138 38.7052 20.0138 39.4703 19.5419 39.9422L12.5244 46.9597C12.0525 47.4316 11.2874 47.4316 10.8155 46.9597C10.3437 46.4878 10.3437 45.7227 10.8155 45.2509L17.8331 38.2333C18.305 37.7614 19.07 37.7614 19.5419 38.2333Z" fill="#0D6EFD"/>
</svg>
