<svg width="58" height="58" viewBox="0 0 58 58" fill="none" xmlns="http://www.w3.org/2000/svg">
<path d="M36.501 30.25C35.4015 30.2462 34.3316 30.6061 33.458 31.2736C32.5844 31.9411 31.956 32.8788 31.6707 33.9406C31.3854 35.0024 31.4593 36.1288 31.8807 37.1442C32.3022 38.1597 33.0476 39.0073 34.001 39.555V43.0963C34.0009 43.2746 34.0537 43.4489 34.1527 43.5972C34.2517 43.7455 34.3925 43.8611 34.5572 43.9293C34.722 43.9976 34.9033 44.0154 35.0781 43.9806C35.253 43.9458 35.4137 43.8599 35.5397 43.7338L36.501 42.7738L37.4622 43.7338C37.5882 43.8599 37.7489 43.9458 37.9238 43.9806C38.0986 44.0154 38.2799 43.9976 38.4447 43.9293C38.6094 43.8611 38.7502 43.7455 38.8492 43.5972C38.9482 43.4489 39.001 43.2746 39.001 43.0963V39.555C39.9543 39.0073 40.6997 38.1597 41.1212 37.1442C41.5426 36.1288 41.6165 35.0024 41.3312 33.9406C41.0459 32.8788 40.4175 31.9411 39.5439 31.2736C38.6703 30.6061 37.6004 30.2462 36.501 30.25Z" fill="#0D6EFD"/>
<path d="M29 35.25C28.9985 33.933 29.3442 32.6388 30.0023 31.498C30.6603 30.3572 31.6076 29.4101 32.7484 28.752C33.8893 28.094 35.1834 27.7484 36.5004 27.75C37.8175 27.7516 39.1108 28.1004 40.25 28.7612V20.25C40.248 18.593 39.5889 17.0044 38.4172 15.8328C37.2456 14.6611 35.657 14.002 34 14L24 14C22.343 14.002 20.7544 14.6611 19.5828 15.8328C18.4111 17.0044 17.752 18.593 17.75 20.25V35.25C17.752 36.907 18.4111 38.4956 19.5828 39.6672C20.7544 40.8389 22.343 41.498 24 41.5H31.5V40.825C30.7138 40.1245 30.0847 39.2656 29.6538 38.3048C29.223 37.344 29.0002 36.303 29 35.25ZM24 19H34C34.3315 19 34.6495 19.1317 34.8839 19.3661C35.1183 19.6005 35.25 19.9185 35.25 20.25C35.25 20.5815 35.1183 20.8995 34.8839 21.1339C34.6495 21.3683 34.3315 21.5 34 21.5H24C23.6685 21.5 23.3505 21.3683 23.1161 21.1339C22.8817 20.8995 22.75 20.5815 22.75 20.25C22.75 19.9185 22.8817 19.6005 23.1161 19.3661C23.3505 19.1317 23.6685 19 24 19ZM24 24H34C34.3315 24 34.6495 24.1317 34.8839 24.3661C35.1183 24.6005 35.25 24.9185 35.25 25.25C35.25 25.5815 35.1183 25.8995 34.8839 26.1339C34.6495 26.3683 34.3315 26.5 34 26.5H24C23.6685 26.5 23.3505 26.3683 23.1161 26.1339C22.8817 25.8995 22.75 25.5815 22.75 25.25C22.75 24.9185 22.8817 24.6005 23.1161 24.3661C23.3505 24.1317 23.6685 24 24 24ZM27.75 31.5H24C23.6685 31.5 23.3505 31.3683 23.1161 31.1339C22.8817 30.8995 22.75 30.5815 22.75 30.25C22.75 29.9185 22.8817 29.6005 23.1161 29.3661C23.3505 29.1317 23.6685 29 24 29H27.75C28.0815 29 28.3995 29.1317 28.6339 29.3661C28.8683 29.6005 29 29.9185 29 30.25C29 30.5815 28.8683 30.8995 28.6339 31.1339C28.3995 31.3683 28.0815 31.5 27.75 31.5Z" fill="#0D6EFD"/>
</svg>
