<svg width="58" height="58" viewBox="0 0 58 58" fill="none" xmlns="http://www.w3.org/2000/svg">
<path d="M13 39.6623C13.1419 39.1035 13.3172 38.5698 13.6928 38.1194C14.277 37.4189 15.0282 37.0519 15.9631 36.9685C15.9631 36.5599 15.9547 36.1679 15.9631 35.7759C15.9881 34.1497 16.998 32.9154 18.5422 32.6402C18.7759 32.5985 19.0179 32.5985 19.26 32.5985C22.0227 32.5985 24.7771 32.5985 27.5398 32.5985C27.665 32.5985 27.7819 32.5985 27.9655 32.5985C27.9655 32.2232 27.9572 31.8729 27.9655 31.531C27.9822 30.9472 28.3495 30.5302 28.8753 30.4801C29.5013 30.4218 29.9854 30.8304 30.0188 31.4809C30.0355 31.8395 30.0188 32.2065 30.0188 32.6068C30.1857 32.6068 30.3026 32.6068 30.4278 32.6068C33.2406 32.6068 36.0534 32.6068 38.8662 32.6068C40.4187 32.6068 41.6456 33.5909 41.9545 35.0837C42.0129 35.3589 42.0129 35.6425 42.0212 35.9177C42.0296 36.2597 42.0212 36.6016 42.0212 36.9519C42.2716 37.0019 42.5053 37.0436 42.739 37.1103C44.0495 37.4773 44.9676 38.6532 44.9843 40.0042C44.9926 40.7799 45.0344 41.5721 44.9342 42.3394C44.7589 43.7155 43.7573 44.6746 42.3885 44.9248C42.3384 44.9331 42.2883 44.9581 42.2466 44.9748C41.4119 44.9748 40.5773 44.9748 39.7426 44.9748C39.6925 44.9581 39.6508 44.9331 39.6007 44.9248C38.2319 44.6746 37.2303 43.7155 37.055 42.3394C36.9548 41.5805 36.9966 40.8049 37.0049 40.0376C37.0133 38.7783 37.7811 37.6691 38.958 37.2104C39.2752 37.0853 39.6091 37.0269 39.968 36.9352C39.968 36.5932 39.968 36.2263 39.968 35.8677C39.9596 35.0504 39.584 34.6751 38.7577 34.6751C35.9699 34.6751 33.1822 34.6751 30.386 34.6751C30.2775 34.6751 30.169 34.6751 30.0522 34.6751C30.0522 35.4757 30.0522 36.2263 30.0522 36.9852C30.1356 36.9936 30.2024 37.0019 30.2608 37.0102C31.7465 37.2354 32.8316 38.3029 32.9735 39.7707C33.0403 40.4963 33.0069 41.2219 32.9985 41.9558C32.9735 43.3485 32.0303 44.5328 30.6698 44.8831C30.5279 44.9164 30.3944 44.9581 30.2525 44.9915C29.4178 44.9915 28.5832 44.9915 27.7485 44.9915C27.6984 44.9748 27.6567 44.9498 27.6066 44.9414C26.2378 44.6912 25.2362 43.7322 25.0609 42.3561C24.9607 41.5972 25.0025 40.8215 25.0108 40.0543C25.0191 38.795 25.787 37.6858 26.9639 37.2271C27.2811 37.102 27.615 37.0436 27.9488 36.9519C27.9488 36.2096 27.9488 35.459 27.9488 34.6834C27.7986 34.6834 27.6817 34.6834 27.5565 34.6834C25.6285 34.6834 23.7087 34.6834 21.7807 34.6834C20.8876 34.6834 19.9861 34.6834 19.093 34.6834C18.6006 34.6834 18.1499 34.967 18.0914 35.4173C18.0247 35.9344 18.0748 36.4681 18.0748 36.9936C18.1415 37.0019 18.2 37.0102 18.2667 37.0186C19.7524 37.2438 20.8375 38.3113 20.9794 39.7791C21.0462 40.5046 21.0128 41.2302 21.0044 41.9641C20.9794 43.3569 20.0362 44.5411 18.6757 44.8914C18.5338 44.9248 18.4003 44.9665 18.2584 44.9998C17.4237 44.9998 16.5891 44.9998 15.7544 44.9998C15.7043 44.9831 15.6626 44.9581 15.6125 44.9498C14.8613 44.833 14.252 44.4661 13.7512 43.9073C13.3422 43.4486 13.1586 42.8982 13.0083 42.3227C13 41.4053 13 40.5297 13 39.6623Z" fill="#0D6EFD"/>
<path d="M28.9756 29.6054C27.0309 29.6054 25.0861 29.6054 23.133 29.6054C22.3818 29.6054 21.9728 29.2051 21.9645 28.4545C21.9645 27.7456 21.9394 27.0367 21.9812 26.3362C22.0479 25.2854 22.5905 24.5098 23.5253 24.0511C24.3182 23.6591 25.1362 23.3172 25.9458 22.9669C26.1044 22.9002 26.288 22.8668 26.455 22.8668C28.1243 22.8585 29.7853 22.8585 31.4546 22.8751C31.6967 22.8751 31.9471 22.9335 32.1724 23.0336C32.8986 23.3422 33.6247 23.6591 34.3342 23.9927C35.3775 24.4764 35.9534 25.302 36.0119 26.4613C36.0452 27.1702 36.0369 27.8791 36.0202 28.5796C36.0035 29.2134 35.5778 29.6137 34.9351 29.6137C32.9486 29.6054 30.9621 29.6054 28.9756 29.6054Z" fill="#0D6EFD"/>
<path d="M24.4844 17.5202C24.4927 15.0182 26.521 13 29.0166 13C31.5206 13 33.5655 15.0599 33.5488 17.5619C33.5321 20.0555 31.4955 22.0654 28.9916 22.0571C26.4959 22.0571 24.4844 20.0305 24.4844 17.5202Z" fill="#0D6EFD"/>
</svg>
