<svg width="58" height="58" viewBox="0 0 58 58" fill="none" xmlns="http://www.w3.org/2000/svg">
<path d="M29.3165 21.4392C25.6652 21.4392 22.7578 18.618 22.7578 15.2196C22.7578 11.7571 25.7329 9 29.3165 9C32.9677 9 35.8751 11.8213 35.8751 15.2196C35.8751 18.618 32.9 21.4392 29.3165 21.4392ZM29.3165 9.89767C26.2062 9.89767 23.7044 12.2701 23.7044 15.1555C23.7044 18.0409 26.2062 20.4133 29.2489 20.4133C32.3591 20.4133 34.8609 18.0409 34.8609 15.1555C34.8609 12.2701 32.3591 9.89767 29.3165 9.89767Z" fill="#D13731" fill-opacity="0.8"/>
<path d="M27.7589 16.6273C27.2856 16.6273 26.8123 16.6273 26.339 16.6273C25.8657 16.6273 25.7305 16.435 25.7305 16.0503C25.7305 15.4732 25.7305 14.8961 25.7305 14.319C25.7305 13.9343 25.9333 13.742 26.339 13.742C26.8123 13.742 27.2856 13.742 27.7589 13.742C27.7589 13.2931 27.7589 12.8443 27.7589 12.4596C27.7589 12.0107 27.9618 11.8184 28.4351 11.8184C29.0436 11.8184 29.5845 11.8184 30.1931 11.8184C30.5988 11.8184 30.8016 12.0107 30.8016 12.3954C30.8016 12.8443 30.8016 13.2931 30.8016 13.742C31.2749 13.742 31.7482 13.742 32.1539 13.742C32.6272 13.742 32.83 13.9343 32.83 14.3831C32.83 14.9602 32.83 15.4732 32.83 16.0503C32.83 16.435 32.6272 16.6273 32.2215 16.6273C31.7482 16.6273 31.2749 16.6273 30.8016 16.6273C30.8016 17.0762 30.8016 17.525 30.8016 17.9097C30.8016 18.3586 30.5987 18.4868 30.1254 18.5509C29.5169 18.5509 28.976 18.5509 28.3674 18.5509C27.9618 18.5509 27.7589 18.3586 27.7589 17.9739C27.7589 17.525 27.7589 17.0762 27.7589 16.6273Z" fill="#D13731" fill-opacity="0.8"/>
<path opacity="0.5" d="M17.166 27.0605C19.5787 27.0605 21.9574 27.0605 24.404 27.0605C24.2681 27.2002 24.1775 27.2861 24.0869 27.3828C23.3619 28.2743 22.5917 29.1337 21.9347 30.0682C21.6062 30.5301 21.4023 31.1101 21.2777 31.658C20.8133 33.6237 22.2859 34.9986 24.3701 34.5582C25.2196 34.3756 25.9898 34.0319 26.6355 33.4518C27.519 32.6677 28.5045 32.0124 29.7165 31.7546C29.8864 31.7224 30.1469 31.7654 30.2715 31.8835C33.8056 34.9342 37.3283 37.9848 40.8511 41.0461C41.542 41.6477 41.5873 42.5822 40.9757 43.1945C40.3527 43.8175 39.4012 43.839 38.7102 43.2052C36.9319 41.5832 35.1535 39.9505 33.3751 38.3178C33.2845 38.2318 33.1939 38.1459 33.1033 38.0707C32.8994 37.8881 32.6729 37.8451 32.469 38.0492C32.2651 38.2533 32.333 38.4681 32.5369 38.6508C33.2279 39.2845 33.9188 39.9183 34.5985 40.552C35.4707 41.3576 36.3429 42.1525 37.215 42.9581C37.9853 43.6671 38.0306 44.6124 37.317 45.2676C36.626 45.9121 35.5953 45.8691 34.859 45.1602C33.3978 43.7423 31.9592 42.3029 30.5094 40.8743C30.4414 40.8098 30.3734 40.7346 30.3055 40.6702C30.1016 40.4661 29.875 40.3801 29.6485 40.6057C29.4106 40.8313 29.5239 41.0461 29.7165 41.2395C29.875 41.3899 30.0336 41.551 30.1922 41.7014C31.3023 42.797 32.4123 43.8712 33.4997 44.9883C34.3719 45.8799 33.9075 47.244 32.6729 47.5018C32.0499 47.6307 31.5401 47.4159 31.1097 46.997C29.7618 45.6973 28.4025 44.4083 27.0433 43.1193C26.9413 43.0226 26.8394 42.8937 26.7261 42.8722C26.5789 42.84 26.3636 42.8615 26.273 42.9474C26.1824 43.0333 26.1597 43.2374 26.1824 43.3771C26.2051 43.4952 26.341 43.5919 26.4429 43.6886C27.5417 44.7305 28.6517 45.7724 29.7391 46.8144C30.3848 47.4374 30.3281 48.2967 29.6259 48.7694C29.1275 49.1023 28.5611 49.0809 27.9834 48.6727C26.7941 47.8348 25.6047 46.9862 24.438 46.1162C20.7907 43.3878 17.3359 40.4768 14.2323 37.1899C14.1303 37.0717 14.0397 36.8569 14.0737 36.7173C15.0705 33.5485 16.0786 30.3904 17.0867 27.2324C17.1094 27.168 17.132 27.1143 17.166 27.0605Z" fill="#0D6EFD"/>
<path opacity="0.5" d="M21.9336 32.2243C22.1035 31.7302 22.2054 31.2038 22.4773 30.7634C23.8252 28.4862 25.6262 26.6601 28.1862 25.586C29.2849 25.1241 30.395 25.1026 31.5164 25.5215C34.2122 26.542 36.9194 27.5624 39.604 28.5936C39.7739 28.6581 39.9551 28.8299 40.0117 28.9911C41.269 32.2136 42.515 35.436 43.7497 38.6693C43.8063 38.8196 43.7723 39.0667 43.6704 39.2063C43.24 39.8186 42.6623 40.2805 41.9147 40.5276C41.6881 40.6028 41.5069 40.5813 41.3143 40.4094C37.7916 37.3373 34.2575 34.2759 30.7348 31.1931C30.4176 30.9138 30.1118 30.8386 29.704 30.9246C28.2202 31.2253 27.0195 32.0095 25.9208 32.9655C25.2751 33.524 24.4822 33.8141 23.61 33.8248C22.5906 33.8355 21.9902 33.234 21.9336 32.2243Z" fill="#0D6EFD"/>
<path d="M48.999 40.8632C48.0701 40.8632 47.1753 40.8954 46.2691 40.8524C45.6461 40.8202 45.329 40.3905 45.1251 39.8642C44.1623 37.3614 43.1995 34.8693 42.2253 32.3773C41.7043 31.0238 41.1719 29.6704 40.6509 28.3169C40.2997 27.3932 40.5716 26.8239 41.5344 26.4909C43.9244 25.6315 46.405 25.2663 48.9876 25.3737C48.999 30.519 48.999 35.6642 48.999 40.8632Z" fill="#0D6EFD"/>
<path d="M9 23.3867C9.96281 23.4619 10.8916 23.4834 11.8091 23.6016C13.1457 23.7627 14.4257 24.1279 15.6604 24.6327C16.4986 24.9765 16.7591 25.5028 16.4872 26.3407C15.2526 30.2076 14.0179 34.0639 12.7833 37.9309C12.5341 38.7043 12.1603 38.9621 11.2994 38.9621C10.5405 38.9621 9.78157 38.9621 9 38.9621C9 33.7846 9 28.6394 9 23.3867Z" fill="#0D6EFD"/>
</svg>
