<svg width="58" height="58" viewBox="0 0 58 58" fill="none" xmlns="http://www.w3.org/2000/svg">
<g opacity="0.5">
<path d="M35.0444 36.25C35.0445 36.4934 34.9714 36.7391 34.8192 36.9522L28.7775 45.4105C28.3896 45.9536 27.635 46.0794 27.0919 45.6915C26.5489 45.3036 26.4231 44.5489 26.811 44.0059L27.7265 42.7242L22.1065 37.1043C21.8706 36.8684 21.7526 36.5592 21.7526 36.25H20.5443C19.0179 36.25 16.946 36.977 15.2582 38.3273C13.5321 39.7082 12.0859 41.8425 12.0859 44.7083C12.0859 46.0036 12.2452 47.2656 12.7899 48.4024C13.3485 49.5682 14.2637 50.5018 15.5954 51.212C18.1546 52.5769 22.3616 53.1667 29.0026 53.1667C35.6436 53.1667 39.8506 52.5769 42.4098 51.212C43.7415 50.5018 44.6567 49.5682 45.2153 48.4024C45.76 47.2656 45.9193 46.0036 45.9193 44.7083C45.9193 41.8425 44.4732 39.7082 42.747 38.3273C41.0592 36.977 38.9873 36.25 37.4609 36.25H35.0444Z" fill="#0D6EFD"/>
<path d="M25.5022 37.0823L25.712 37.2921L25.6593 37.2391C25.6095 37.1889 25.5572 37.1361 25.5022 37.0823Z" fill="#0D6EFD"/>
</g>
<path fill-rule="evenodd" clip-rule="evenodd" d="M19.9349 40.4785C20.6022 40.4785 21.1432 41.0195 21.1432 41.6868V42.291H21.7474C22.4147 42.291 22.9557 42.832 22.9557 43.4993C22.9557 44.1667 22.4147 44.7077 21.7474 44.7077H21.1432V45.3118C21.1432 45.9792 20.6022 46.5202 19.9349 46.5202C19.2676 46.5202 18.7266 45.9792 18.7266 45.3118V44.7077H18.1224C17.4551 44.7077 16.9141 44.1667 16.9141 43.4993C16.9141 42.832 17.4551 42.291 18.1224 42.291H18.7266V41.6868C18.7266 41.0195 19.2676 40.4785 19.9349 40.4785Z" fill="#D13731" fill-opacity="0.8"/>
<path fill-rule="evenodd" clip-rule="evenodd" d="M19.8541 12.2969L21.9799 15.9789C22.523 16.9196 23.678 17.1815 24.5634 16.7439C25.9403 16.0635 27.4582 15.7075 28.9998 15.7075C30.5415 15.7075 32.0594 16.0635 33.4363 16.7439C34.3216 17.1815 35.4766 16.9196 36.0197 15.9789L38.1455 12.297C39.322 13.0891 40.3401 14.5791 41.075 16.2475C41.8298 17.9612 42.3597 20.0281 42.4416 22.1249C42.5234 24.2198 42.1597 26.4129 41.05 28.3103C40.1586 29.8344 38.8171 31.1122 36.9578 31.9793C36.6946 32.4639 36.4049 32.928 36.0913 33.366C34.5149 35.5681 32.058 37.4575 28.9998 37.4575C25.9415 37.4575 23.4846 35.5681 21.9082 33.366C21.5946 32.928 21.3049 32.4639 21.0417 31.9793C19.1824 31.1122 17.8409 29.8344 16.9495 28.3103C15.8398 26.4129 15.4761 24.2198 15.5579 22.1249C15.6398 20.0281 16.1697 17.9612 16.9245 16.2475C17.6594 14.579 18.6776 13.089 19.8541 12.2969ZM32.2708 18.9786C32.7427 18.5068 32.7427 17.7417 32.2708 17.2698C31.7989 16.7979 31.0338 16.7979 30.562 17.2698L30.543 17.2887C29.5642 18.2678 26.8711 20.9616 20.8519 21.6083C20.1883 21.6796 19.7082 22.2753 19.7795 22.9388C19.8329 23.4357 20.1805 23.8298 20.6303 23.9664C20.5717 24.4265 20.5414 24.8966 20.5414 25.3742C20.5414 27.9698 21.4363 30.6311 22.8907 32.6627C24.3349 34.6801 26.4696 36.2492 28.9997 36.2492C31.5298 36.2492 33.6646 34.6801 35.1088 32.6627C36.5631 30.6311 37.458 27.9698 37.458 25.3742C37.458 24.7493 37.4062 24.1372 37.3067 23.5435C37.4031 23.3699 37.458 23.1701 37.458 22.9576C37.458 22.2902 36.9171 21.7492 36.2497 21.7492C34.5743 21.7492 33.5615 21.4708 32.863 21.1216C32.2414 20.8108 31.7961 20.4122 31.2849 19.9077C31.708 19.5399 32.0319 19.2176 32.2708 18.9786Z" fill="#0D6EFD"/>
<path opacity="0.5" fill-rule="evenodd" clip-rule="evenodd" d="M19.4028 7.55917C22.3568 5.99832 25.6507 5.17969 28.9995 5.17969C32.3482 5.17969 35.6421 5.99832 38.5961 7.55917C39.5822 8.08022 39.8777 9.29627 39.3501 10.2102L36.0194 15.9792C35.4763 16.9199 34.3213 17.1817 33.4359 16.7442C32.059 16.0637 30.5411 15.7077 28.9995 15.7077C27.4578 15.7077 25.9399 16.0637 24.563 16.7442C23.6777 17.1817 22.5226 16.9199 21.9795 15.9792L18.6488 10.2102C18.1212 9.29627 18.4167 8.08022 19.4028 7.55917ZM21.0036 9.45539L23.8602 14.4032C25.4701 13.6722 27.222 13.2911 28.9995 13.2911C30.7769 13.2911 32.5288 13.6722 34.1387 14.4032L36.9953 9.45539C34.5121 8.23471 31.7772 7.59635 28.9995 7.59635C26.2218 7.59635 23.4868 8.23471 21.0036 9.45539Z" fill="#0D6EFD"/>
</svg>
