<svg width="58" height="58" viewBox="0 0 58 58" fill="none" xmlns="http://www.w3.org/2000/svg">
<path d="M40.25 21.5H20.25C19.1762 21.5 18.16 21.035 17.4563 20.2513C18.1438 19.4838 19.1425 19 20.25 19H42.75C44.385 18.9925 44.3838 16.5063 42.75 16.5H20.25C16.7988 16.5 14 19.2988 14 22.75V35.25C14 38.7013 16.7988 41.5 20.25 41.5H40.25C42.3212 41.5 44 39.8213 44 37.75V25.25C44 23.1788 42.3212 21.5 40.25 21.5ZM39 32.75C37.365 32.7425 37.365 30.2575 39 30.25C40.635 30.2575 40.635 32.7425 39 32.75Z" fill="#0D6EFD"/>
</svg>
