<svg width="58" height="58" viewBox="0 0 58 58" fill="none" xmlns="http://www.w3.org/2000/svg">
<path d="M36.5 14H21.5C20.5054 14 19.5516 14.3951 18.8483 15.0983C18.1451 15.8016 17.75 16.7554 17.75 17.75V40.25C17.75 41.2446 18.1451 42.1984 18.8483 42.9016C19.5516 43.6049 20.5054 44 21.5 44H36.5C37.4946 44 38.4484 43.6049 39.1516 42.9016C39.8549 42.1984 40.25 41.2446 40.25 40.25V17.75C40.25 16.7554 39.8549 15.8016 39.1516 15.0983C38.4484 14.3951 37.4946 14 36.5 14V14ZM34.625 27.125C34.625 28.6168 34.0324 30.0476 32.9775 31.1025C31.9226 32.1574 30.4918 32.75 29 32.75C27.5082 32.75 26.0774 32.1574 25.0225 31.1025C23.9676 30.0476 23.375 28.6168 23.375 27.125C23.375 25.6332 23.9676 24.2024 25.0225 23.1475C26.0774 22.0926 27.5082 21.5 29 21.5C30.4918 21.5 31.9226 22.0926 32.9775 23.1475C34.0324 24.2024 34.625 25.6332 34.625 27.125ZM29 34.625C33.9181 34.625 36.7738 36.1737 38.375 37.9156V40.25C38.375 40.7473 38.1775 41.2242 37.8258 41.5758C37.4742 41.9275 36.9973 42.125 36.5 42.125H21.5C21.0027 42.125 20.5258 41.9275 20.1742 41.5758C19.8225 41.2242 19.625 40.7473 19.625 40.25V37.9156C21.2262 36.1719 24.0819 34.625 29 34.625Z" fill="#0D6EFD"/>
</svg>
