<svg width="59" height="58" viewBox="0 0 59 58" fill="none" xmlns="http://www.w3.org/2000/svg">
<path d="M32.9764 52.9876C32.7009 52.8749 32.4129 52.7997 32.1624 52.6619C31.1981 52.1484 30.572 51.3592 30.5469 50.257C30.4968 48.2278 30.5219 46.1986 30.5219 44.1694C30.5219 44.1318 30.5469 44.0817 30.5595 44.019C32.5256 44.019 34.4917 44.019 36.5204 44.019C36.5204 44.1944 36.5204 44.3572 36.5204 44.5201C36.5204 46.1109 36.5204 47.7017 36.5204 49.305C36.5204 51.472 36.007 52.2361 34.0158 53.0001C33.6652 52.9876 33.3145 52.9876 32.9764 52.9876Z" fill="#0D6EFD"/>
<path d="M25.0009 52.9877C24.6878 52.8624 24.3497 52.7747 24.0491 52.5994C23.1475 52.0858 22.5589 51.3092 22.5339 50.2696C22.4838 48.1903 22.5213 46.1235 22.5213 44.0066C24.5 44.0066 26.4786 44.0066 28.4948 44.0066C28.4948 44.3698 28.4948 44.7331 28.4948 45.0838C28.4948 46.5995 28.4948 48.1151 28.4948 49.6307C28.4948 51.4345 27.8061 52.3614 26.1029 52.9125C26.0779 52.9251 26.0528 52.9501 26.0278 52.9752C25.6897 52.9877 25.3515 52.9877 25.0009 52.9877Z" fill="#0D6EFD"/>
<path d="M29.5063 41.989C24.2967 41.989 19.0996 41.989 13.8901 41.989C12.8006 41.989 12.5 41.6884 12.5 40.5986C12.5 32.8451 12.5 25.0915 12.5 17.3505C12.5 16.2858 12.8006 15.9727 13.865 15.9727C24.2842 15.9727 34.7158 15.9727 45.135 15.9727C46.1869 15.9727 46.5 16.2858 46.5 17.3505C46.5 25.1166 46.5 32.8827 46.5 40.6487C46.5 41.6759 46.1869 42.0015 45.16 42.0015C39.9379 41.989 34.7158 41.989 29.5063 41.989ZM28.4794 23.9391C26.939 23.8765 25.4488 23.7888 24.0587 23.1375C23.4451 22.8494 22.8691 22.9997 22.6061 23.5258C22.3431 24.0519 22.556 24.603 23.1571 24.9162C24.1464 25.4297 25.2109 25.6552 26.3004 25.7805C27.0267 25.8681 27.753 25.9182 28.4543 25.9809C28.4543 26.3191 28.4543 26.6072 28.4543 26.8953C28.3792 26.9078 28.3291 26.9328 28.2915 26.9203C26.4506 26.8577 24.6098 26.7575 22.8691 26.0435C22.1552 25.7554 21.4665 26.269 21.5041 27.0205C21.5291 27.509 21.8297 27.7721 22.2429 27.9474C23.37 28.4234 24.5722 28.6489 25.7869 28.7742C26.6635 28.8618 27.5527 28.9119 28.4418 28.9871C28.4418 29.3128 28.4418 29.6134 28.4418 29.9391C26.914 29.8639 25.4363 29.7888 24.0587 29.1374C23.4451 28.8493 22.8691 28.9871 22.6061 29.5132C22.3306 30.0518 22.5435 30.6029 23.1821 30.9286C24.1589 31.4297 25.2109 31.6426 26.2753 31.7804C27.0017 31.8681 27.728 31.9182 28.4418 31.9808C28.4418 32.4443 28.4418 32.8701 28.4418 33.3211C28.2039 33.2584 28.016 33.1833 27.8157 33.1457C26.125 32.7825 24.5346 32.9453 23.2448 34.2104C22.2179 35.225 22.2429 36.6905 23.2448 37.7302C23.7832 38.2813 24.447 38.6321 25.1858 38.7949C26.7387 39.1582 28.1913 38.9327 29.4937 37.9807C29.619 38.0684 29.7192 38.1436 29.8193 38.2062C31.3847 39.2333 33.7766 39.2083 35.2669 38.131C36.8823 36.9786 36.8948 34.9745 35.2919 33.7971C34.6031 33.296 33.8267 32.9954 32.9877 32.9954C32.1737 32.9954 31.3597 33.1207 30.5331 33.1833C30.5331 32.8451 30.5331 32.4067 30.5331 31.9557C30.9965 31.9182 31.4223 31.8931 31.8606 31.8555C33.2131 31.7303 34.5656 31.5549 35.7928 30.9161C36.0308 30.7908 36.2687 30.5904 36.3939 30.365C36.6068 29.9766 36.5192 29.5633 36.1936 29.2501C35.8429 28.9119 35.4296 28.8869 34.9788 29.0998C33.5762 29.7762 32.0735 29.8639 30.5331 29.9265C30.5331 29.5758 30.5331 29.2752 30.5331 28.9746C31.4599 28.8994 32.3365 28.8618 33.2256 28.7616C34.4904 28.6364 35.7302 28.4234 36.8948 27.8598C37.4208 27.6092 37.6212 27.0706 37.4083 26.5696C37.1954 26.056 36.6569 25.8807 36.0808 26.0435C35.079 26.3191 34.0646 26.5946 33.0378 26.77C32.2238 26.9078 31.3722 26.8953 30.5206 26.9454C30.5206 26.5696 30.5206 26.2815 30.5206 25.9683C31.272 25.8932 31.9983 25.8556 32.7247 25.7554C33.8267 25.6176 34.9162 25.4047 35.9055 24.8535C36.444 24.5529 36.6319 24.0018 36.3814 23.5007C36.1435 23.0122 35.5799 22.8494 35.0164 23.0498C34.4153 23.2753 33.8142 23.5133 33.2006 23.626C32.3239 23.7888 31.4223 23.8389 30.5206 23.9391C30.5206 23.5258 30.5206 23.2377 30.5206 22.9245C30.8337 22.8995 31.1343 22.8995 31.4223 22.8369C32.3991 22.6239 33.3634 22.3985 34.3276 22.1479C34.5656 22.0853 34.7785 21.935 34.9788 21.7972C35.4923 21.459 35.6175 20.8953 35.3295 20.4194C35.0289 19.9434 34.4779 19.8056 33.9394 20.1187C32.875 20.7325 31.7228 20.8452 30.4956 20.9079C30.4956 20.5822 30.5081 20.3192 30.4956 20.0561C30.4705 19.3922 30.0448 18.9413 29.4687 18.9538C28.9052 18.9664 28.5044 19.4048 28.4794 20.0561C28.4669 20.3317 28.4794 20.6073 28.4794 20.9204C27.2521 20.8578 26.1125 20.745 25.0731 20.1563C24.4971 19.8306 23.9085 19.9559 23.6079 20.4695C23.3199 20.9705 23.4952 21.5091 24.0462 21.8598C24.8853 22.3859 25.8245 22.6239 26.7762 22.7617C27.3273 22.8494 27.8783 22.887 28.4418 22.9621C28.4794 23.3003 28.4794 23.5884 28.4794 23.9391ZM21.4414 18.9789C19.9637 18.9664 18.5737 20.2315 18.5361 21.7346C18.486 23.4757 18.4985 25.2293 18.5361 26.983C18.5361 27.2585 18.7239 27.6343 18.9368 27.7596C19.2123 27.9099 19.6256 27.9474 19.9387 27.8598C20.3519 27.747 20.5147 27.3587 20.5147 26.9328C20.5147 25.4172 20.5147 23.9016 20.5147 22.3859C20.5147 21.3713 20.6775 21.1709 21.6543 20.9705C22.2304 20.8452 22.556 20.4194 22.4934 19.8682C22.4308 19.3421 21.9924 18.9789 21.4414 18.9789ZM40.5015 24.365C40.5015 23.5508 40.514 22.7367 40.4889 21.935C40.4514 20.3442 39.2867 19.1292 37.7088 18.9914C37.0702 18.9413 36.5818 19.292 36.5192 19.8557C36.4565 20.4569 36.7947 20.8828 37.4459 20.983C38.2599 21.1208 38.4978 21.4089 38.4978 22.2356C38.4978 23.7763 38.4978 25.3295 38.4978 26.8702C38.4978 27.5466 38.9111 27.9725 39.5122 27.9725C40.1007 27.9725 40.4764 27.5591 40.4889 26.8953C40.5015 26.0435 40.5015 25.2043 40.5015 24.365ZM20.5022 33.4839C20.5022 32.3816 20.5022 31.2668 20.5022 30.1645C20.5022 29.4506 20.114 28.9996 19.5254 28.9871C18.9243 28.9746 18.5236 29.4255 18.5236 30.1395C18.5236 32.3691 18.5236 34.5987 18.5236 36.8283C18.5236 37.5423 18.9243 37.9932 19.5254 37.9932C20.1265 37.9932 20.5147 37.5298 20.5147 36.8158C20.5022 35.701 20.5022 34.5987 20.5022 33.4839ZM40.5015 33.509C40.5015 32.4067 40.514 31.2919 40.5015 30.1896C40.5015 29.9641 40.4639 29.7136 40.3762 29.5132C40.2009 29.1124 39.725 28.9245 39.3118 29.0121C38.8234 29.1124 38.5103 29.5132 38.5103 30.0769C38.5103 32.319 38.5103 34.5737 38.5103 36.8158C38.5103 37.5298 38.8985 37.9807 39.4996 37.9932C40.1007 38.0058 40.5015 37.5548 40.5015 36.8409C40.5015 35.7135 40.5015 34.6112 40.5015 33.509Z" fill="#0D6EFD"/>
<path d="M32.5225 37.1175C31.9339 36.8921 31.3453 36.7543 30.8444 36.4787C30.3685 36.2157 30.3936 35.8399 30.8068 35.5017C31.6083 34.8253 33.3991 34.8253 34.1881 35.5017C34.5763 35.8399 34.6138 36.2031 34.1755 36.4537C33.6871 36.7292 33.1111 36.8921 32.5225 37.1175Z" fill="#0D6EFD"/>
<path d="M26.4161 37.0923C25.8776 36.8794 25.3016 36.7291 24.8007 36.441C24.3623 36.1904 24.3999 35.8272 24.7881 35.489C25.5896 34.8126 27.3804 34.8126 28.1693 35.489C28.5576 35.8272 28.5701 36.1278 28.1693 36.4535C27.6684 36.8543 27.0798 36.9671 26.4537 36.9545C26.4537 37.0172 26.4412 37.0547 26.4161 37.0923Z" fill="#0D6EFD"/>
<path d="M29.5103 13.9818C28.6838 13.9818 27.8573 13.9567 27.0308 13.9943C26.63 14.0068 26.3545 13.869 26.079 13.606C24.4134 12.0152 24.0252 9.53507 25.1398 7.55597C26.2669 5.55182 28.5711 4.5748 30.8252 5.17604C33.0168 5.75223 34.5195 7.76891 34.4945 10.0737C34.482 11.5643 33.8683 12.7918 32.7538 13.7563C32.591 13.8941 32.3405 13.9692 32.1276 13.9818C31.251 13.9943 30.3869 13.9818 29.5103 13.9818Z" fill="#D13731" fill-opacity="0.8"/>
</svg>
