<svg width="58" height="58" viewBox="0 0 58 58" fill="none" xmlns="http://www.w3.org/2000/svg">
<path opacity="0.5" d="M21.3873 15.6697C29.0042 15.6697 36.5646 15.6697 44.1702 15.6697C44.1702 18.7301 44.1702 21.757 44.1702 24.8397C44.0235 24.8397 43.8655 24.8397 43.7188 24.8397C40.988 24.8397 38.2572 24.8397 35.5264 24.8397C34.0821 24.8397 33.2245 25.6966 33.2132 27.121C33.2132 27.6663 33.2132 28.2005 33.2132 28.7458C33.2132 29.9922 33.6871 30.6488 34.8945 31.0605C34.8945 32.0287 34.8945 33.008 34.8945 34.0207C34.7478 34.0764 34.5786 34.132 34.4206 34.2099C33.6645 34.5883 33.2583 35.2004 33.2245 36.035C33.2019 36.6693 33.2132 37.3148 33.2245 37.9491C33.2245 39.151 33.721 39.8298 34.9171 40.2193C34.9171 40.965 34.9171 41.7217 34.9171 42.4784C34.9171 43.9919 35.7634 44.8266 37.2868 44.8266C39.4082 44.8266 41.541 44.8266 43.6624 44.8266C43.8091 44.8266 43.9671 44.8266 44.1589 44.8266C43.8994 46.3623 43.1433 47.5086 41.8569 48.2987C41.1347 48.7438 40.3448 48.9887 39.4985 48.9887C31.1369 48.9998 22.7752 48.9998 14.4136 48.9998C14.3572 48.9998 14.3121 48.9887 14.1992 48.9775C14.7409 48.065 14.6393 47.0857 14.6393 46.1175C14.6393 34.911 14.6393 23.7157 14.6393 12.5092C14.6393 10.9401 15.4743 9.71592 16.8623 9.20401C19.0176 8.42501 21.3309 9.97188 21.3873 12.231C21.4099 13.3661 21.3873 14.4901 21.3873 15.6697ZM24.355 20.6776C24.4227 20.6776 24.4905 20.6776 24.5694 20.6776C26.2959 20.6776 28.0224 20.6776 29.7602 20.6776C30.4598 20.6776 30.8886 20.0766 30.6065 19.4979C30.426 19.1307 30.11 19.0083 29.7038 19.0083C26.138 19.0083 22.5608 19.0083 18.995 19.0083C18.916 19.0083 18.8258 19.0083 18.7468 19.0194C18.2164 19.1084 17.9005 19.6315 18.081 20.11C18.239 20.5329 18.5775 20.6776 19.0063 20.6776C20.7892 20.6776 22.5721 20.6776 24.355 20.6776ZM24.3325 24.8397C26.1267 24.8397 27.9321 24.8397 29.7263 24.8397C30.3018 24.8397 30.6742 24.4947 30.6742 24.005C30.6742 23.5154 30.2906 23.1815 29.7151 23.1815C29.2975 23.1815 28.8687 23.1815 28.4512 23.1815C25.3819 23.1815 22.3239 23.1815 19.2546 23.1815C19.1417 23.1815 19.0289 23.1815 18.916 23.1815C18.3744 23.2038 18.002 23.5376 18.0133 24.0161C18.0133 24.4947 18.3857 24.8397 18.9273 24.8397C20.7328 24.8508 22.5383 24.8397 24.3325 24.8397ZM24.3438 27.3436C23.2605 27.3436 22.1772 27.3436 21.0939 27.3436C20.3604 27.3436 19.6269 27.3325 18.9047 27.3436C18.3857 27.3547 18.0246 27.6886 18.0133 28.156C18.002 28.6345 18.3744 28.9906 18.9047 29.0017C18.9612 29.0017 19.0176 29.0017 19.074 29.0017C22.5834 29.0017 26.1041 29.0017 29.6135 29.0017C29.7263 29.0017 29.8392 29.0129 29.952 28.9906C30.3018 28.9238 30.5952 28.7347 30.6178 28.3897C30.6404 28.1226 30.5388 27.7776 30.3695 27.5773C30.2341 27.4104 29.8956 27.3547 29.6474 27.3436C27.887 27.3325 26.1154 27.3436 24.3438 27.3436ZM24.3438 31.5057C23.4184 31.5057 22.4931 31.5057 21.5565 31.5057C20.6538 31.5057 19.7624 31.4945 18.8596 31.5057C18.4195 31.5168 18.0923 31.795 18.0246 32.1956C17.9569 32.5518 18.1487 32.9413 18.4985 33.0748C18.6791 33.1416 18.8822 33.1638 19.074 33.1638C22.5834 33.1638 26.1041 33.1638 29.6135 33.1638C29.7263 33.1638 29.8392 33.1638 29.952 33.1527C30.4598 33.0748 30.7871 32.574 30.6404 32.1066C30.5162 31.7171 30.2003 31.5057 29.6925 31.5057C27.9209 31.5057 26.1267 31.5057 24.3438 31.5057ZM24.355 35.6678C23.1702 35.6678 21.9966 35.6678 20.8118 35.6678C20.1686 35.6678 19.5141 35.6566 18.8709 35.6678C18.3631 35.6789 18.0133 36.0461 18.0133 36.5135C18.0246 36.9587 18.3744 37.2925 18.8596 37.3259C18.9612 37.337 19.0514 37.3259 19.153 37.3259C22.606 37.3259 26.0702 37.3259 29.5232 37.3259C29.6474 37.3259 29.7828 37.337 29.9069 37.3148C30.3583 37.2703 30.6855 36.903 30.6742 36.469C30.6629 36.0573 30.347 35.7123 29.9182 35.6566C29.794 35.6455 29.6699 35.6455 29.5345 35.6455C27.808 35.6678 26.0815 35.6678 24.355 35.6678Z" fill="#0D6EFD"/>
<path d="M23.0763 14.0104C23.1553 12.2187 23.1553 10.4938 21.8125 9.04706C22.0043 9.03593 22.1172 9.01367 22.23 9.01367C28.6733 9.01367 35.1279 9.01367 41.5712 9.01367C43.8281 9.01367 45.5433 10.4938 45.8818 12.6861C46.0285 13.632 45.5997 14.0215 44.7308 14.0215C37.6894 13.9993 30.6594 14.0104 23.618 14.0104C23.4487 14.0104 23.302 14.0104 23.0763 14.0104Z" fill="#0D6EFD"/>
<path d="M40.778 29.4255C39.0515 29.4255 37.3137 29.4255 35.5872 29.4255C35.023 29.4255 34.9102 29.3253 34.9102 28.78C34.9102 28.2236 34.9102 27.6671 34.9102 27.1107C34.9102 26.6433 35.0343 26.5098 35.4969 26.5098C39.0402 26.5098 42.5947 26.5098 46.138 26.5098C46.5894 26.5098 46.7248 26.6433 46.7248 27.0662C46.736 27.6671 46.736 28.257 46.7248 28.8579C46.7248 29.2919 46.5894 29.4143 46.138 29.4143C44.3551 29.4255 42.5722 29.4255 40.778 29.4255Z" fill="#D13731" fill-opacity="0.8"/>
<path d="M42.5149 31.0938C44.264 31.0938 46.0018 31.0938 47.7508 31.0938C48.315 31.0938 48.4279 31.1939 48.4279 31.7392C48.4279 32.2956 48.4279 32.8521 48.4279 33.4085C48.4279 33.8759 48.3038 34.0094 47.8411 34.0094C44.2979 34.0094 40.7433 34.0094 37.2001 34.0094C36.7487 34.0094 36.6133 33.8759 36.6133 33.453C36.6133 32.8521 36.6133 32.2623 36.6133 31.6613C36.6133 31.2273 36.7487 31.1049 37.2001 31.1049C38.9717 31.0938 40.7433 31.0938 42.5149 31.0938Z" fill="#D13731" fill-opacity="0.8"/>
<path d="M40.8231 38.5837C39.074 38.5837 37.3363 38.5837 35.5872 38.5837C35.023 38.5837 34.9102 38.4835 34.9102 37.9382C34.9102 37.3818 34.9102 36.8253 34.9102 36.2689C34.9102 35.8015 35.0343 35.668 35.4969 35.668C39.0402 35.668 42.5947 35.668 46.138 35.668C46.5894 35.668 46.7248 35.8015 46.7248 36.2244C46.736 36.8253 46.736 37.4152 46.7248 38.0161C46.7248 38.4501 46.5894 38.5725 46.138 38.5725C44.3664 38.5948 42.5947 38.5837 40.8231 38.5837Z" fill="#D13731" fill-opacity="0.8"/>
<path d="M42.4733 43.1676C40.7468 43.1676 39.009 43.1676 37.2825 43.1676C36.7183 43.1676 36.6055 43.0675 36.6055 42.5222C36.6055 41.9658 36.6055 41.4093 36.6055 40.8529C36.6055 40.3855 36.7296 40.252 37.1923 40.252C40.7355 40.252 44.29 40.252 47.8333 40.252C48.2847 40.252 48.4201 40.3855 48.4201 40.8084C48.4314 41.4093 48.4314 41.9991 48.4201 42.6001C48.4201 43.0341 48.2847 43.1565 47.8333 43.1565C46.0504 43.1676 44.2675 43.1676 42.4733 43.1676Z" fill="#D13731" fill-opacity="0.8"/>
<path d="M12.9509 42.3458C12.9509 44.093 12.9735 45.7846 12.9396 47.4761C12.917 48.3441 12.1271 49.0119 11.247 49.0007C10.3668 48.9896 9.59948 48.3108 9.58819 47.4427C9.55434 46.0183 9.57691 44.5827 9.58819 43.1582C9.58819 42.7019 9.92672 42.357 10.3894 42.3458C11.2131 42.3236 12.0594 42.3458 12.9509 42.3458Z" fill="#0D6EFD"/>
<path d="M24.3638 20.6791C22.5808 20.6791 20.7979 20.6791 19.0037 20.6791C18.5636 20.6791 18.2364 20.5344 18.0784 20.1115C17.8979 19.633 18.2138 19.1099 18.7442 19.0209C18.8232 19.0098 18.9135 19.0098 18.9924 19.0098C22.5583 19.0098 26.1354 19.0098 29.7012 19.0098C30.0961 19.0098 30.4234 19.1322 30.6039 19.4994C30.886 20.067 30.4572 20.6679 29.7576 20.6791C28.0311 20.6902 26.3046 20.6791 24.5669 20.6791C24.5104 20.6791 24.4315 20.6791 24.3638 20.6791Z" fill="#0D6EFD"/>
<path d="M24.3352 24.8398C22.541 24.8398 20.7356 24.8398 18.9414 24.8398C18.3997 24.8398 18.0273 24.4948 18.0273 24.0163C18.0273 23.5378 18.3997 23.1928 18.9301 23.1816C19.0429 23.1816 19.1558 23.1816 19.2686 23.1816C22.3379 23.1816 25.396 23.1816 28.4653 23.1816C28.8828 23.1816 29.3116 23.1816 29.7291 23.1816C30.3046 23.1928 30.6883 23.5155 30.6883 24.0052C30.6883 24.4948 30.3159 24.8398 29.7404 24.8398C27.9349 24.8509 26.1407 24.8398 24.3352 24.8398Z" fill="#0D6EFD"/>
<path d="M24.3468 27.3446C26.1184 27.3446 27.89 27.3335 29.6617 27.3557C29.9099 27.3557 30.2484 27.4225 30.3838 27.5894C30.5531 27.7897 30.6547 28.1347 30.6321 28.4018C30.6095 28.7357 30.3161 28.936 29.9663 29.0027C29.8535 29.025 29.7406 29.0139 29.6278 29.0139C26.1184 29.0139 22.5977 29.0139 19.0883 29.0139C19.0319 29.0139 18.9755 29.0139 18.919 29.0139C18.3887 28.9916 18.0163 28.6466 18.0276 28.1681C18.0389 27.7118 18.4 27.3668 18.919 27.3557C19.6525 27.3446 20.386 27.3557 21.1082 27.3557C22.1802 27.3446 23.2635 27.3446 24.3468 27.3446Z" fill="#0D6EFD"/>
<path d="M24.3487 31.5049C26.1316 31.5049 27.9145 31.5049 29.7087 31.5049C30.2165 31.5049 30.5325 31.7164 30.6566 32.1059C30.8033 32.5733 30.4761 33.0741 29.9683 33.152C29.8554 33.1742 29.7426 33.1631 29.6297 33.1631C26.1203 33.1631 22.5997 33.1631 19.0903 33.1631C18.8984 33.1631 18.6953 33.1408 18.5148 33.0741C18.165 32.9405 17.9731 32.551 18.0408 32.1949C18.1085 31.8054 18.4358 31.5161 18.8759 31.5049C19.7786 31.4938 20.6701 31.5049 21.5728 31.5049C22.4981 31.5049 23.4234 31.5049 24.3487 31.5049Z" fill="#0D6EFD"/>
<path d="M24.3581 35.6688C26.0846 35.6688 27.811 35.6688 29.5488 35.6688C29.6729 35.6688 29.8084 35.6577 29.9325 35.6799C30.3613 35.7244 30.6885 36.0694 30.6885 36.4923C30.6998 36.9263 30.3726 37.2824 29.9212 37.3381C29.7971 37.3492 29.6729 37.3492 29.5375 37.3492C26.0846 37.3492 22.6203 37.3492 19.1673 37.3492C19.0658 37.3492 18.9755 37.3492 18.8739 37.3492C18.3887 37.3158 18.0389 36.982 18.0276 36.5368C18.0163 36.0694 18.3774 35.7022 18.8852 35.6911C19.5284 35.6799 20.1829 35.6911 20.8261 35.6911C21.9997 35.6688 23.1732 35.6688 24.3581 35.6688Z" fill="#0D6EFD"/>
</svg>
