<svg width="58" height="58" viewBox="0 0 58 58" fill="none" xmlns="http://www.w3.org/2000/svg">
<path opacity="0.5" d="M39.8737 27.7923C39.8737 25.1229 42.0377 22.959 44.707 22.959C47.3764 22.959 49.5404 25.1229 49.5404 27.7923C49.5404 30.0445 48 31.9368 45.9154 32.4734V41.084C45.9154 44.7507 44.4828 47.5191 42.2601 49.3279C40.0688 51.111 37.2014 51.8898 34.4007 51.8074C28.8609 51.6445 22.957 48.0025 22.957 41.084L25.3737 41.084C25.3737 46.2488 29.7406 49.2526 34.4717 49.3918C36.8064 49.4605 39.0745 48.8044 40.7347 47.4534C42.3635 46.128 43.4987 44.0631 43.4987 41.084V32.4734C41.414 31.9368 39.8737 30.0445 39.8737 27.7923Z" fill="#0D6EFD"/>
<path d="M45.9167 27.7923C45.9167 28.4597 45.3757 29.0007 44.7083 29.0007C44.041 29.0007 43.5 28.4597 43.5 27.7923C43.5 27.125 44.041 26.584 44.7083 26.584C45.3757 26.584 45.9167 27.125 45.9167 27.7923Z" fill="#0D6EFD"/>
<path d="M32.3711 13.4188C32.535 13.0055 32.625 12.555 32.625 12.0835C32.625 11.6924 32.5631 11.3158 32.4485 10.9629C35.2937 11.4525 37.4583 13.9318 37.4583 16.9168V29.0001C37.4583 36.3409 31.5075 42.2918 24.1667 42.2918C16.8259 42.2918 10.875 36.3409 10.875 29.0001V18.1251C10.875 14.4696 13.5805 11.4459 17.0983 10.9473C16.9804 11.3046 16.9167 11.6866 16.9167 12.0835C16.9167 12.5435 17.0024 12.9835 17.1587 13.3884C14.9523 13.8361 13.2917 15.7867 13.2917 18.1251V29.0001C13.2917 35.0062 18.1606 39.8751 24.1667 39.8751C30.1728 39.8751 35.0417 35.0062 35.0417 29.0001V16.9168C35.0417 15.2451 33.9101 13.8377 32.3711 13.4188Z" fill="#0D6EFD"/>
<path d="M29 8.45898C26.998 8.45898 25.375 10.082 25.375 12.084C25.375 14.086 26.998 15.709 29 15.709C31.002 15.709 32.625 14.086 32.625 12.084C32.625 10.082 31.002 8.45898 29 8.45898Z" fill="#D13731" fill-opacity="0.8"/>
<path d="M20.543 8.45898C18.5409 8.45898 16.918 10.082 16.918 12.084C16.918 14.086 18.5409 15.709 20.543 15.709C22.545 15.709 24.168 14.086 24.168 12.084C24.168 10.082 22.545 8.45898 20.543 8.45898Z" fill="#D13731" fill-opacity="0.8"/>
</svg>
