<svg width="59" height="58" viewBox="0 0 59 58" fill="none" xmlns="http://www.w3.org/2000/svg">
<path d="M17.0329 36.1807C17.0329 35.4587 17.0329 34.7873 17.0329 34.0779C20.5206 34.0779 23.9456 34.0779 27.4333 34.0779C27.4333 34.7746 27.4333 35.4587 27.4333 36.1807C27.6465 36.1807 27.8222 36.1807 27.9853 36.1807C30.2059 36.1807 32.4264 36.1807 34.6596 36.1807C35.1865 36.1807 35.6381 36.3327 36.0271 36.6874C36.1525 36.8014 36.3532 36.8394 36.5289 36.8521C37.4071 36.8901 38.2853 36.8141 39.1509 36.9408C40.7568 37.1561 41.911 38.5495 41.9486 40.1963C41.9612 40.893 41.9486 41.5897 41.9612 42.2864C41.9863 43.6925 43.0526 44.8326 44.4327 44.9086C45.8001 44.9846 46.9794 43.9839 47.1676 42.5778C47.1927 42.3878 47.2053 42.1978 47.2053 42.0078C47.2053 38.7902 47.2053 35.56 47.2178 32.3425C47.2178 32.0131 47.1425 31.8611 46.8038 31.7471C45.5743 31.3291 44.7965 30.4297 44.7463 29.1376C44.6585 27.2122 44.7212 25.2867 44.7212 23.3232C46.7285 23.3232 48.7233 23.3232 50.7933 23.3232C50.7933 23.4753 50.7933 23.6526 50.7933 23.8173C50.7933 25.35 50.7933 26.8828 50.7933 28.4156C50.7933 30.3283 50.1033 31.2911 48.2716 31.9118C48.2716 32.0765 48.2716 32.2665 48.2716 32.4565C48.2716 35.712 48.2842 38.9676 48.2716 42.2231C48.2591 44.0726 47.0673 45.542 45.2983 45.922C43.1656 46.378 41.0328 44.7313 40.945 42.5271C40.9199 41.8177 40.9324 41.1084 40.9324 40.399C40.9073 38.9549 39.9789 38.0048 38.5487 37.9668C37.8964 37.9542 37.244 37.9668 36.5414 37.9668C36.5414 38.9296 36.5414 39.8416 36.5414 40.7537C36.5414 42.0838 35.9016 42.7298 34.5843 42.7298C26.3794 42.7298 18.1745 42.7298 9.96967 42.7298C8.65238 42.7298 8 42.0711 8 40.7537C8 39.867 8 38.9802 8 38.0935C8 36.8901 8.66492 36.2061 9.85676 36.2061C12.0773 36.2061 14.2979 36.2061 16.5311 36.2061C16.644 36.1807 16.8071 36.1807 17.0329 36.1807ZM10.9482 39.9683C11.2619 39.9683 11.5755 39.9936 11.8766 39.9556C12.1777 39.9176 12.4035 39.7149 12.3283 39.4109C12.2781 39.2209 12.0523 38.9549 11.8766 38.9296C11.3121 38.8662 10.7224 38.8916 10.1453 38.9042C9.83167 38.9169 9.60585 39.1322 9.66858 39.4236C9.71876 39.6263 9.94458 39.867 10.1453 39.943C10.3962 40.0316 10.6848 39.9683 10.9482 39.9683ZM14.9629 38.9042C14.6868 38.9042 14.3983 38.8916 14.1223 38.9042C13.8087 38.9169 13.6205 39.0942 13.5954 39.3983C13.5828 39.7276 13.7836 39.943 14.1097 39.9556C14.6743 39.981 15.2389 40.0063 15.7909 39.943C15.9791 39.9176 16.23 39.6389 16.2676 39.4363C16.3303 39.1196 16.0794 38.9296 15.7532 38.9169C15.4898 38.9042 15.2263 38.9042 14.9629 38.9042ZM18.8897 39.9683C19.1657 39.9683 19.4793 40.0316 19.7177 39.943C19.9184 39.867 20.1568 39.6263 20.1944 39.4236C20.2571 39.1322 20.0313 38.9169 19.7177 38.9042C19.1531 38.8916 18.6011 38.8916 18.0365 38.9042C17.7229 38.9042 17.5347 39.0942 17.5222 39.3983C17.5096 39.7276 17.7104 39.9303 18.0365 39.9556C18.3251 39.981 18.6136 39.9683 18.8897 39.9683Z" fill="#0D6EFD"/>
<path d="M47.7799 18.7302C48.909 18.7302 50.0381 18.7302 51.1546 18.7302C52.221 18.7302 52.9989 19.4649 52.9989 20.4657C52.9989 21.4537 52.2336 22.2138 51.1672 22.2138C48.909 22.2264 46.6633 22.2264 44.4051 22.2138C43.3387 22.2011 42.5859 21.4537 42.5859 20.453C42.5985 19.4523 43.3512 18.7429 44.4302 18.7302C45.5593 18.7302 46.6633 18.7302 47.7799 18.7302Z" fill="#0D6EFD"/>
<path d="M51.4389 17.6369C48.9925 17.6369 46.6088 17.6369 44.1875 17.6369C44.2126 16.3322 44.7395 15.3188 45.7808 14.6221C47.0103 13.7987 48.315 13.7607 49.5947 14.4827C50.7865 15.1668 51.3511 16.2435 51.4389 17.6369Z" fill="#0D6EFD"/>
<path d="M22.2058 32.9783C18.5927 32.9783 14.9795 32.9783 11.3538 32.9783C9.5974 32.9783 8.59375 31.9649 8.59375 30.1915C8.59375 25.0611 8.59375 19.9181 8.59375 14.7878C8.59375 13.0144 9.60995 12.001 11.3663 12.001C18.5927 12.001 25.8315 12.001 33.0578 12.001C34.8519 12.001 35.8304 13.0017 35.8304 14.8258C35.8304 19.9435 35.8304 25.0611 35.8304 30.1788C35.8304 32.0029 34.8519 32.991 33.0453 32.991C29.4447 32.9783 25.8315 32.9783 22.2058 32.9783ZM11.68 29.8874C18.7307 29.8874 25.7437 29.8874 32.7818 29.8874C32.7818 24.9345 32.7818 20.0195 32.7818 15.0792C25.7312 15.0792 18.7181 15.0792 11.68 15.0792C11.68 20.0195 11.68 24.9345 11.68 29.8874Z" fill="#0D6EFD"/>
<path d="M21.9404 27.6408C19.657 27.6281 17.587 27.1594 15.655 26.1207C15.1281 25.842 15.0779 25.69 15.3162 25.1453C16.3324 22.8525 17.3486 20.5723 18.3648 18.2795C18.6158 17.7095 18.8165 17.6461 19.381 17.9375C20.7109 18.6089 22.1035 19.0015 23.5838 18.6215C24.0731 18.4949 24.5499 18.2542 24.989 18.0135C25.5033 17.7348 25.7292 17.7728 25.9801 18.3302C27.0214 20.6103 28.0752 22.8778 29.1039 25.1579C29.3298 25.652 29.2545 25.88 28.7652 26.0953C26.5697 27.0707 24.2488 27.6028 21.9404 27.6408Z" fill="#D13731" fill-opacity="0.8"/>
</svg>
