<?xml version="1.0" standalone="no"?>
<!DOCTYPE svg PUBLIC "-//W3C//DTD SVG 20010904//EN"
 "http://www.w3.org/TR/2001/REC-SVG-20010904/DTD/svg10.dtd">
<svg version="1.0" xmlns="http://www.w3.org/2000/svg"
 width="700.000000pt" height="700.000000pt" viewBox="0 0 700.000000 700.000000"
 preserveAspectRatio="xMidYMid meet">
<metadata>
Created by potrace 1.14, written by Peter Selinger 2001-2017
</metadata>
<g transform="translate(0.000000,700.000000) scale(0.100000,-0.100000)"
fill="#000000" stroke="none">
<path d="M1630 6989 c-260 -30 -535 -124 -750 -256 -491 -303 -807 -803 -869
-1375 -15 -135 -15 -3581 0 -3716 48 -440 244 -838 562 -1139 296 -279 662
-448 1069 -492 135 -15 3581 -15 3716 0 440 48 837 244 1139 562 279 296 448
662 492 1069 15 135 15 3581 0 3716 -59 548 -350 1028 -809 1337 -107 72 -316
174 -440 214 -116 38 -258 68 -382 81 -116 12 -3620 11 -3728 -1z m1265 -1237
c101 -28 172 -70 255 -152 105 -103 155 -194 181 -328 7 -38 13 -320 16 -839
l5 -783 -699 0 c-678 0 -890 7 -990 31 -167 40 -356 210 -406 364 -33 100 -39
227 -35 730 4 468 5 494 26 570 28 100 69 170 152 254 109 112 184 151 332
171 35 4 293 7 573 6 492 -2 513 -3 590 -24z m2885 -671 c0 -728 -7 -907 -40
-1014 -54 -176 -229 -344 -398 -384 -69 -16 -132 -18 -617 -18 -485 0 -547 2
-604 18 -164 45 -298 153 -394 317 -57 98 -60 131 -64 663 -5 513 0 608 37
717 57 169 229 334 385 370 97 23 248 27 968 29 l727 1 0 -699z m-2430 -2413
c0 -732 -7 -915 -40 -1022 -57 -182 -246 -360 -429 -403 -68 -16 -131 -18
-601 -18 -583 0 -598 2 -724 67 -92 49 -224 184 -270 278 -60 123 -61 139 -61
725 0 589 1 604 68 729 67 127 229 265 354 302 98 29 180 31 941 33 l762 1 0
-692z m1952 659 c123 -24 199 -68 303 -172 95 -94 140 -168 164 -267 21 -88
31 -282 31 -613 0 -619 -19 -705 -195 -880 -170 -169 -173 -170 -875 -170
-533 1 -547 1 -624 23 -44 12 -98 33 -121 47 -111 64 -213 172 -269 284 -57
113 -58 125 -63 984 l-5 788 789 -4 c658 -4 801 -7 865 -20z"/>
</g>
</svg>
